ISO-10303-21;
HEADER;
FILE_DESCRIPTION (( 'STEP AP214' ),
    '1' );
FILE_NAME ('1402-931 Bottom PID 7-24-2025.STEP',
    '2025-08-08T05:48:14',
    ( '' ),
    ( '' ),
    'SwSTEP 2.0',
    'SolidWorks 2025',
    '' );
FILE_SCHEMA (( 'AUTOMOTIVE_DESIGN' ));
ENDSEC;

DATA;
#1 = ORIENTED_EDGE ( 'NONE', *, *, #215, .T. ) ;
#2 = LINE ( 'NONE', #402, #75 ) ;
#3 =( BOUNDED_CURVE ( )  B_SPLINE_CURVE ( 3, ( #867, #414, #493, #317 ),
 .UNSPECIFIED., .F., .T. ) 
 B_SPLINE_CURVE_WITH_KNOTS ( ( 4, 4 ),
 ( 1.881113828746389771, 3.141592653589793116 ),
 .UNSPECIFIED. ) 
 CURVE ( )  GEOMETRIC_REPRESENTATION_ITEM ( )  RATIONAL_B_SPLINE_CURVE ( ( 1.000000000000000000, 0.8719242910552553738, 0.8719242910552553738, 1.000000000000000000 ) ) 
 REPRESENTATION_ITEM ( '' )  );
#4 = EDGE_CURVE ( 'NONE', #257, #741, #1179, .T. ) ;
#5 = CARTESIAN_POINT ( 'NONE',  ( -6.849890282026215971, 0.000000000000000000, -5.399890282026211352 ) ) ;
#6 = FACE_OUTER_BOUND ( 'NONE', #1124, .T. ) ;
#7 = VERTEX_POINT ( 'NONE', #125 ) ;
#8 = EDGE_CURVE ( 'NONE', #1008, #862, #397, .T. ) ;
#9 = ORIENTED_EDGE ( 'NONE', *, *, #182, .T. ) ;
#10 = CARTESIAN_POINT ( 'NONE',  ( 6.849890282026211530, -23.39474842853496739, 5.399890282026214017 ) ) ;
#11 = DIRECTION ( 'NONE',  ( 0.03487826274237462720, 0.9987827659587182882, 0.03487826274237461333 ) ) ;
#12 = AXIS2_PLACEMENT_3D ( 'NONE', #434, #1108, #294 ) ;
#13 = CARTESIAN_POINT ( 'NONE',  ( 5.216657324672715923, -3.950000000000000178, 4.780000000000002025 ) ) ;
#14 = ORIENTED_EDGE ( 'NONE', *, *, #1022, .F. ) ;
#15 = VERTEX_POINT ( 'NONE', #326 ) ;
#16 = CIRCLE ( 'NONE', #69, 0.1115000000000001684 ) ;
#17 = LENGTH_MEASURE_WITH_UNIT ( LENGTH_MEASURE( 0.02539999999999999897 ), #394 );
#18 = CARTESIAN_POINT ( 'NONE',  ( -6.050109651136564182, 0.006281909406450174316, 6.915472766487956768E-16 ) ) ;
#19 = CARTESIAN_POINT ( 'NONE',  ( 2.929999999999999716, -0.9749999999999999778, 4.599890282026211530 ) ) ;
#20 = DIRECTION ( 'NONE',  ( 0.000000000000000000, 1.000000000000000000, 0.000000000000000000 ) ) ;
#21 = EDGE_CURVE ( 'NONE', #176, #344, #705, .T. ) ;
#22 = VERTEX_POINT ( 'NONE', #26 ) ;
#23 = VECTOR ( 'NONE', #166, 39.37007874015748143 ) ;
#24 = CYLINDRICAL_SURFACE ( 'NONE', #841, 0.1115000000000001684 ) ;
#25 = CYLINDRICAL_SURFACE ( 'NONE', #1239, 0.1115000000000001684 ) ;
#26 = CARTESIAN_POINT ( 'NONE',  ( -5.216657324672714147, -3.255127637625801373, -4.486218720126464277 ) ) ;
#27 = VERTEX_POINT ( 'NONE', #330 ) ;
#28 = CARTESIAN_POINT ( 'NONE',  ( -6.049890282026213484, -0.9749999999999999778, -2.949999999999999734 ) ) ;
#29 = DIRECTION ( 'NONE',  ( 0.000000000000000000, 0.000000000000000000, 1.000000000000000000 ) ) ;
#30 = ORIENTED_EDGE ( 'NONE', *, *, #997, .T. ) ;
#31 = CARTESIAN_POINT ( 'NONE',  ( 2.823825611833123528, -0.9749999999999999778, -4.565842531771758139 ) ) ;
#32 = DIRECTION ( 'NONE',  ( 0.000000000000000000, 0.000000000000000000, -1.000000000000000000 ) ) ;
#33 = EDGE_LOOP ( 'NONE', ( #409, #805 ) ) ;
#34 = EDGE_CURVE ( 'NONE', #1137, #832, #129, .T. ) ;
#35 = ADVANCED_FACE ( 'NONE', ( #313 ), #420, .T. ) ;
#36 = VECTOR ( 'NONE', #114, 39.37007874015748143 ) ;
#37 = CARTESIAN_POINT ( 'NONE',  ( 5.216657324672715923, -3.230000000000000426, -3.766657324672714413 ) ) ;
#38 = DIRECTION ( 'NONE',  ( 1.000000000000000000, -1.960053859272353581E-15, -0.000000000000000000 ) ) ;
#39 = ORIENTED_EDGE ( 'NONE', *, *, #807, .T. ) ;
#40 = LINE ( 'NONE', #1064, #36 ) ;
#41 = SURFACE_STYLE_USAGE ( .BOTH. , #906 ) ;
#42 =( BOUNDED_CURVE ( )  B_SPLINE_CURVE ( 3, ( #797, #984, #1237, #381 ),
 .UNSPECIFIED., .F., .F. ) 
 B_SPLINE_CURVE_WITH_KNOTS ( ( 4, 4 ),
 ( 1.881113828746394656, 4.402071478433192020 ),
 .UNSPECIFIED. ) 
 CURVE ( )  GEOMETRIC_REPRESENTATION_ITEM ( )  RATIONAL_B_SPLINE_CURVE ( ( 1.000000000000000000, 0.5369073258861210007, 0.5369073258861210007, 1.000000000000000000 ) ) 
 REPRESENTATION_ITEM ( '' )  );
#43 = CARTESIAN_POINT ( 'NONE',  ( -6.015842531771759205, -0.9749999999999999778, 2.843825611833124434 ) ) ;
#44 = VECTOR ( 'NONE', #778, 39.37007874015748143 ) ;
#45 = ORIENTED_EDGE ( 'NONE', *, *, #1074, .T. ) ;
#46 = FACE_OUTER_BOUND ( 'NONE', #271, .T. ) ;
#47 = EDGE_CURVE ( 'NONE', #987, #15, #715, .T. ) ;
#48 = DIRECTION ( 'NONE',  ( 0.000000000000000000, 0.000000000000000000, 1.000000000000000000 ) ) ;
#49 = CARTESIAN_POINT ( 'NONE',  ( 2.839167646925227828, -2.345031375465707946, -4.517999981912658392 ) ) ;
#50 = PRESENTATION_LAYER_ASSIGNMENT (  '', '', ( #600 ) ) ;
#51 = EDGE_CURVE ( 'NONE', #181, #1205, #423, .T. ) ;
#52 = ORIENTED_EDGE ( 'NONE', *, *, #1177, .T. ) ;
#53 = CARTESIAN_POINT ( 'NONE',  ( -5.216657324672716811, -3.230000000000000426, 3.766657324672716634 ) ) ;
#54 = DIRECTION ( 'NONE',  ( -0.9993908270190956511, 0.03489949670250126063, 0.000000000000000000 ) ) ;
#55 = CARTESIAN_POINT ( 'NONE',  ( -6.045388990524974027, -0.1289001235297209114, 3.875827595071224874 ) ) ;
#56 = ORIENTED_EDGE ( 'NONE', *, *, #73, .F. ) ;
#57 = VERTEX_POINT ( 'NONE', #321 ) ;
#58 = DIRECTION ( 'NONE',  ( 0.000000000000000000, 0.000000000000000000, 1.000000000000000000 ) ) ;
#59 = CARTESIAN_POINT ( 'NONE',  ( -6.049890282026213484, 0.000000000000000000, 4.780000000000002025 ) ) ;
#60 = DIRECTION ( 'NONE',  ( 0.000000000000000000, 1.000000000000000000, 0.000000000000000000 ) ) ;
#61 = ORIENTED_EDGE ( 'NONE', *, *, #490, .F. ) ;
#62 = DIRECTION ( 'NONE',  ( 0.000000000000000000, 1.000000000000000000, 0.000000000000000000 ) ) ;
#63 = AXIS2_PLACEMENT_3D ( 'NONE', #582, #860, #386 ) ;
#64 = EDGE_CURVE ( 'NONE', #817, #890, #747, .T. ) ;
#65 = LENGTH_MEASURE_WITH_UNIT ( LENGTH_MEASURE( 0.02539999999999999897 ), #361 );
#66 = LINE ( 'NONE', #458, #854 ) ;
#67 = LINE ( 'NONE', #1036, #238 ) ;
#68 = ORIENTED_EDGE ( 'NONE', *, *, #21, .T. ) ;
#69 = AXIS2_PLACEMENT_3D ( 'NONE', #602, #584, #499 ) ;
#70 = ORIENTED_EDGE ( 'NONE', *, *, #465, .F. ) ;
#71 = CARTESIAN_POINT ( 'NONE',  ( 6.015842531771758317, -0.9749999999999999778, -0.1061743881668752304 ) ) ;
#72 = ADVANCED_FACE ( 'NONE', ( #990 ), #211, .T. ) ;
#73 = EDGE_CURVE ( 'NONE', #1086, #1205, #232, .T. ) ;
#74 = FACE_OUTER_BOUND ( 'NONE', #225, .T. ) ;
#75 = VECTOR ( 'NONE', #384, 39.37007874015748143 ) ;
#76 = DIRECTION ( 'NONE',  ( 1.000000000000000000, -1.836970198721029688E-16, -0.000000000000000000 ) ) ;
#77 = CIRCLE ( 'NONE', #360, 0.1115000000000001684 ) ;
#78 = DIRECTION ( 'NONE',  ( 0.000000000000000000, 0.000000000000000000, 1.000000000000000000 ) ) ;
#79 = EDGE_LOOP ( 'NONE', ( #672, #513, #620 ) ) ;
#80 = AXIS2_PLACEMENT_3D ( 'NONE', #10, #876, #1060 ) ;
#81 = ORIENTED_EDGE ( 'NONE', *, *, #644, .T. ) ;
#82 = CARTESIAN_POINT ( 'NONE',  ( -2.823825611833124860, -0.9749999999999999778, -4.565842531771758139 ) ) ;
#83 = PRESENTATION_STYLE_ASSIGNMENT (( #41 ) ) ;
#84 = CARTESIAN_POINT ( 'NONE',  ( -5.890304857713481113, -4.569928630880987441, -3.015917265449640006 ) ) ;
#85 = CARTESIAN_POINT ( 'NONE',  ( -6.049890282026213484, 0.000000000000000000, -3.880328886572462554 ) ) ;
#86 = ORIENTED_EDGE ( 'NONE', *, *, #707, .F. ) ;
#87 = EDGE_LOOP ( 'NONE', ( #480, #233 ) ) ;
#88 = DIRECTION ( 'NONE',  ( 0.03487826274237461333, 0.9987827659587182882, -0.03487826274237462026 ) ) ;
#89 = AXIS2_PLACEMENT_3D ( 'NONE', #1023, #446, #274 ) ;
#90 =( NAMED_UNIT ( * ) PLANE_ANGLE_UNIT ( ) SI_UNIT ( $, .RADIAN. ) );
#91 = DIRECTION ( 'NONE',  ( 1.000000000000000000, 0.000000000000000000, 0.000000000000000000 ) ) ;
#92 = CARTESIAN_POINT ( 'NONE',  ( 2.929999999999999716, -3.494999999999999662, 4.599890282026211530 ) ) ;
#93 = EDGE_LOOP ( 'NONE', ( #1180, #1037, #652, #318 ) ) ;
#94 = ADVANCED_FACE ( 'NONE', ( #117 ), #500, .T. ) ;
#95 = ORIENTED_EDGE ( 'NONE', *, *, #769, .F. ) ;
#96 = FACE_OUTER_BOUND ( 'NONE', #798, .T. ) ;
#97 = CIRCLE ( 'NONE', #254, 0.7199999999999999734 ) ;
#98 = CYLINDRICAL_SURFACE ( 'NONE', #470, 0.7199999999999999734 ) ;
#99 = CARTESIAN_POINT ( 'NONE',  ( -2.930000000000000604, -0.9749999999999999778, 4.599890282026211530 ) ) ;
#100 = EDGE_CURVE ( 'NONE', #291, #1027, #993, .T. ) ;
#101 = ORIENTED_EDGE ( 'NONE', *, *, #146, .F. ) ;
#102 = DIMENSIONAL_EXPONENTS ( 1.000000000000000000, 0.000000000000000000, 0.000000000000000000, 0.000000000000000000, 0.000000000000000000, 0.000000000000000000, 0.000000000000000000 ) ;
#103 = AXIS2_PLACEMENT_3D ( 'NONE', #1163, #534, #977 ) ;
#104 = ORIENTED_EDGE ( 'NONE', *, *, #1017, .T. ) ;
#105 = DIRECTION ( 'NONE',  ( 1.000000000000000000, 0.000000000000000000, -4.384988753875223300E-17 ) ) ;
#106 = SHAPE_DEFINITION_REPRESENTATION ( #1044, #338 ) ;
#107 = DIRECTION ( 'NONE',  ( 1.000000000000000000, -0.000000000000000000, 0.000000000000000000 ) ) ;
#108 = CARTESIAN_POINT ( 'NONE',  ( -2.823825611833124860, -0.9749999999999999778, 4.565842531771759916 ) ) ;
#109 = EDGE_LOOP ( 'NONE', ( #1199, #421 ) ) ;
#110 = ORIENTED_EDGE ( 'NONE', *, *, #396, .T. ) ;
#111 = CARTESIAN_POINT ( 'NONE',  ( -5.216657324672715923, -3.950000000000000178, 4.780000000000002025 ) ) ;
#112 = PRODUCT_CONTEXT ( 'NONE', #332, 'mechanical' ) ;
#113 = EDGE_CURVE ( 'NONE', #27, #256, #550, .T. ) ;
#114 = DIRECTION ( 'NONE',  ( -1.000000000000000000, -0.000000000000000000, 0.000000000000000000 ) ) ;
#115 = AXIS2_PLACEMENT_3D ( 'NONE', #883, #20, #407 ) ;
#116 = CARTESIAN_POINT ( 'NONE',  ( 6.849890282026211530, 0.000000000000000000, 5.399890282026214017 ) ) ;
#117 = FACE_OUTER_BOUND ( 'NONE', #1165, .T. ) ;
#118 = EDGE_LOOP ( 'NONE', ( #806, #570, #755 ) ) ;
#119 = CARTESIAN_POINT ( 'NONE',  ( 6.015842531771758317, -0.9749999999999999778, -6.876304330803689264E-16 ) ) ;
#120 = VECTOR ( 'NONE', #196, 39.37007874015748143 ) ;
#121 =( CONVERSION_BASED_UNIT ( 'INCH', #17 ) LENGTH_UNIT ( ) NAMED_UNIT ( #315 ) );
#122 = FACE_OUTER_BOUND ( 'NONE', #427, .T. ) ;
#123 = EDGE_CURVE ( 'NONE', #892, #832, #143, .T. ) ;
#124 = CARTESIAN_POINT ( 'NONE',  ( 2.929999999999999716, -0.9749999999999999778, -4.599890282026211530 ) ) ;
#125 = CARTESIAN_POINT ( 'NONE',  ( 5.936218720126463566, -3.255127637625801373, 3.766657324672715745 ) ) ;
#126 = ORIENTED_EDGE ( 'NONE', *, *, #73, .T. ) ;
#127 = AXIS2_PLACEMENT_3D ( 'NONE', #19, #782, #1057 ) ;
#128 = CARTESIAN_POINT ( 'NONE',  ( -6.049890282026213484, -3.494999999999999662, -2.949999999999999734 ) ) ;
#129 = LINE ( 'NONE', #792, #594 ) ;
#130 = VERTEX_POINT ( 'NONE', #543 ) ;
#131 = DIRECTION ( 'NONE',  ( -1.000000000000000000, 0.000000000000000000, 1.143032633332327365E-16 ) ) ;
#132 = VECTOR ( 'NONE', #709, 39.37007874015748143 ) ;
#133 = ORIENTED_EDGE ( 'NONE', *, *, #856, .T. ) ;
#134 = EDGE_CURVE ( 'NONE', #1171, #1129, #641, .T. ) ;
#135 = DIRECTION ( 'NONE',  ( 0.000000000000000000, 0.000000000000000000, 1.000000000000000000 ) ) ;
#136 = EDGE_CURVE ( 'NONE', #1129, #1171, #273, .T. ) ;
#137 =( BOUNDED_CURVE ( )  B_SPLINE_CURVE ( 3, ( #624, #635, #826, #1191 ),
 .UNSPECIFIED., .F., .T. ) 
 B_SPLINE_CURVE_WITH_KNOTS ( ( 4, 4 ),
 ( 3.141592653589793116, 4.402071478433199125 ),
 .UNSPECIFIED. ) 
 CURVE ( )  GEOMETRIC_REPRESENTATION_ITEM ( )  RATIONAL_B_SPLINE_CURVE ( ( 1.000000000000000000, 0.8719242910552547077, 0.8719242910552547077, 1.000000000000000000 ) ) 
 REPRESENTATION_ITEM ( '' )  );
#138 = CARTESIAN_POINT ( 'NONE',  ( 5.890304857713480224, -4.569928630880946585, -2.884082734550359461 ) ) ;
#139 = ORIENTED_EDGE ( 'NONE', *, *, #352, .F. ) ;
#140 = VECTOR ( 'NONE', #223, 39.37007874015748143 ) ;
#141 = DIRECTION ( 'NONE',  ( 1.000000000000000000, 7.588466649067397829E-16, 0.000000000000000000 ) ) ;
#142 = CARTESIAN_POINT ( 'NONE',  ( 5.216657324672715923, -3.950000000000000178, -3.766657324672715745 ) ) ;
#143 = LINE ( 'NONE', #261, #813 ) ;
#144 = ORIENTED_EDGE ( 'NONE', *, *, #205, .F. ) ;
#145 = CYLINDRICAL_SURFACE ( 'NONE', #1217, 0.7199999999999999734 ) ;
#146 = EDGE_CURVE ( 'NONE', #305, #892, #820, .T. ) ;
#147 = CARTESIAN_POINT ( 'NONE',  ( -5.751944448902347240, 0.000000000000000000, 4.599890282026213306 ) ) ;
#148 = CYLINDRICAL_SURFACE ( 'NONE', #373, 0.1115000000000001684 ) ;
#149 = ORIENTED_EDGE ( 'NONE', *, *, #894, .T. ) ;
#150 = LINE ( 'NONE', #1070, #241 ) ;
#151 = CARTESIAN_POINT ( 'NONE',  ( -6.229999999999999538, 0.000000000000000000, -4.599890282026212418 ) ) ;
#152 = LINE ( 'NONE', #55, #697 ) ;
#153 = VECTOR ( 'NONE', #910, 39.37007874015748143 ) ;
#154 = ORIENTED_EDGE ( 'NONE', *, *, #123, .F. ) ;
#155 = DIRECTION ( 'NONE',  ( 0.000000000000000000, 0.000000000000000000, 1.000000000000000000 ) ) ;
#156 = VECTOR ( 'NONE', #648, 39.37007874015748143 ) ;
#157 = FACE_OUTER_BOUND ( 'NONE', #735, .T. ) ;
#158 = CARTESIAN_POINT ( 'NONE',  ( 5.751944448902343687, 0.000000000000000000, 4.599890282026213306 ) ) ;
#159 = ORIENTED_EDGE ( 'NONE', *, *, #187, .T. ) ;
#160 = EDGE_CURVE ( 'NONE', #577, #571, #1117, .T. ) ;
#161 = ORIENTED_EDGE ( 'NONE', *, *, #160, .T. ) ;
#162 = CARTESIAN_POINT ( 'NONE',  ( -2.995917265449642208, -4.569928630881092246, 4.440304857713476494 ) ) ;
#163 = DIRECTION ( 'NONE',  ( 0.03487826274237463414, 0.9987827659587183993, 0.03487826274237462026 ) ) ;
#164 = CARTESIAN_POINT ( 'NONE',  ( -0.09083235307477155462, -2.345031375465704393, -4.517999981912658392 ) ) ;
#165 = EDGE_CURVE ( 'NONE', #57, #1233, #152, .T. ) ;
#166 = DIRECTION ( 'NONE',  ( -1.000000000000000000, 0.000000000000000000, 1.315496626162566497E-16 ) ) ;
#167 = VECTOR ( 'NONE', #1016, 39.37007874015748143 ) ;
#168 = ORIENTED_EDGE ( 'NONE', *, *, #713, .F. ) ;
#169 = EDGE_CURVE ( 'NONE', #832, #322, #917, .T. ) ;
#170 = EDGE_CURVE ( 'NONE', #189, #298, #137, .T. ) ;
#171 = CARTESIAN_POINT ( 'NONE',  ( -5.216657324672715923, -3.950000000000000178, 3.766657324672716634 ) ) ;
#172 = CARTESIAN_POINT ( 'NONE',  ( 6.849890282026211530, -4.950000000000000178, -5.399890282026214017 ) ) ;
#173 = DIRECTION ( 'NONE',  ( -1.143032633332327858E-16, 0.000000000000000000, -1.000000000000000000 ) ) ;
#174 = DIRECTION ( 'NONE',  ( 1.000000000000000000, 0.000000000000000000, -4.384988753875223300E-17 ) ) ;
#175 = ORIENTED_EDGE ( 'NONE', *, *, #303, .T. ) ;
#176 = VERTEX_POINT ( 'NONE', #618 ) ;
#177 = DIRECTION ( 'NONE',  ( 1.000000000000000000, 0.000000000000000000, -0.000000000000000000 ) ) ;
#178 = CYLINDRICAL_SURFACE ( 'NONE', #695, 0.1115000000000001684 ) ;
#179 = FACE_OUTER_BOUND ( 'NONE', #637, .T. ) ;
#180 = LINE ( 'NONE', #1136, #23 ) ;
#181 = VERTEX_POINT ( 'NONE', #548 ) ;
#182 = EDGE_CURVE ( 'NONE', #987, #679, #647, .T. ) ;
#183 = AXIS2_PLACEMENT_3D ( 'NONE', #757, #1132, #280 ) ;
#184 = VERTEX_POINT ( 'NONE', #1018 ) ;
#185 = PLANE ( 'NONE',  #962 ) ;
#186 = DIRECTION ( 'NONE',  ( -1.000000000000000000, 1.529406764389908272E-18, 4.379647947767384928E-17 ) ) ;
#187 = EDGE_CURVE ( 'NONE', #1137, #545, #66, .T. ) ;
#188 = DIRECTION ( 'NONE',  ( -1.143032633332327858E-16, 0.000000000000000000, -1.000000000000000000 ) ) ;
#189 = VERTEX_POINT ( 'NONE', #362 ) ;
#190 = VERTEX_POINT ( 'NONE', #1202 ) ;
#191 = DIRECTION ( 'NONE',  ( 0.000000000000000000, 1.000000000000000000, 0.000000000000000000 ) ) ;
#192 = AXIS2_PLACEMENT_3D ( 'NONE', #1069, #200, #580 ) ;
#193 = ADVANCED_FACE ( 'NONE', ( #157 ), #148, .T. ) ;
#194 =( BOUNDED_CURVE ( )  B_SPLINE_CURVE ( 3, ( #492, #84, #1236, #677 ),
 .UNSPECIFIED., .F., .T. ) 
 B_SPLINE_CURVE_WITH_KNOTS ( ( 4, 4 ),
 ( 1.881113828746394212, 4.402071478433192020 ),
 .UNSPECIFIED. ) 
 CURVE ( )  GEOMETRIC_REPRESENTATION_ITEM ( )  RATIONAL_B_SPLINE_CURVE ( ( 1.000000000000000000, 0.5369073258861208897, 0.5369073258861208897, 1.000000000000000000 ) ) 
 REPRESENTATION_ITEM ( '' )  );
#195 = DIRECTION ( 'NONE',  ( -0.000000000000000000, -1.000000000000000000, -0.000000000000000000 ) ) ;
#196 = DIRECTION ( 'NONE',  ( 1.143032633332327858E-16, 0.000000000000000000, 1.000000000000000000 ) ) ;
#197 = ORIENTED_EDGE ( 'NONE', *, *, #445, .T. ) ;
#198 = ORIENTED_EDGE ( 'NONE', *, *, #835, .T. ) ;
#199 = DIRECTION ( 'NONE',  ( 0.000000000000000000, 1.000000000000000000, 0.000000000000000000 ) ) ;
#200 = DIRECTION ( 'NONE',  ( 0.000000000000000000, 1.000000000000000000, 0.000000000000000000 ) ) ;
#201 = CARTESIAN_POINT ( 'NONE',  ( 6.849890282026211530, -23.39474842853496739, 5.399890282026214017 ) ) ;
#202 = LINE ( 'NONE', #1071, #120 ) ;
#203 = EDGE_LOOP ( 'NONE', ( #1143, #198, #104, #1166 ) ) ;
#204 = AXIS2_PLACEMENT_3D ( 'NONE', #430, #1075, #1168 ) ;
#205 = EDGE_CURVE ( 'NONE', #1171, #1129, #784, .T. ) ;
#206 = ORIENTED_EDGE ( 'NONE', *, *, #100, .T. ) ;
#207 = DIRECTION ( 'NONE',  ( 1.143032633332327858E-16, 0.000000000000000000, 1.000000000000000000 ) ) ;
#208 = CARTESIAN_POINT ( 'NONE',  ( 0.000000000000000000, 0.000000000000000000, 0.000000000000000000 ) ) ;
#209 = CARTESIAN_POINT ( 'NONE',  ( -6.015842531771759205, -0.9749999999999999778, -2.843825611833124434 ) ) ;
#210 = FACE_OUTER_BOUND ( 'NONE', #109, .T. ) ;
#211 = PLANE ( 'NONE',  #1188 ) ;
#212 = ADVANCED_FACE ( 'NONE', ( #347 ), #441, .F. ) ;
#213 = ORIENTED_EDGE ( 'NONE', *, *, #629, .F. ) ;
#214 = CARTESIAN_POINT ( 'NONE',  ( 6.051428726048011411E-16, -3.255127637625801373, 4.486218720126465165 ) ) ;
#215 = EDGE_CURVE ( 'NONE', #7, #383, #268, .T. ) ;
#216 = VECTOR ( 'NONE', #691, 39.37007874015748143 ) ;
#217 = LINE ( 'NONE', #1063, #44 ) ;
#218 = CARTESIAN_POINT ( 'NONE',  ( -5.324063679913931146, -0.1794120447435334775, -4.593625075367680388 ) ) ;
#219 = DIRECTION ( 'NONE',  ( 0.03487826274237462026, 0.9987827659587183993, -0.03487826274237462720 ) ) ;
#220 = CARTESIAN_POINT ( 'NONE',  ( -6.849890282026211530, -4.950000000000000178, 5.399890282026215793 ) ) ;
#221 = EDGE_LOOP ( 'NONE', ( #455, #923, #154, #95 ) ) ;
#222 = CIRCLE ( 'NONE', #655, 0.1115000000000001684 ) ;
#223 = DIRECTION ( 'NONE',  ( 0.000000000000000000, -0.000000000000000000, 1.000000000000000000 ) ) ;
#224 = CARTESIAN_POINT ( 'NONE',  ( 6.015842531771758317, -0.9749999999999999778, -6.876304330803689264E-16 ) ) ;
#225 = EDGE_LOOP ( 'NONE', ( #702, #442, #265 ) ) ;
#226 = AXIS2_PLACEMENT_3D ( 'NONE', #1033, #62, #456 ) ;
#227 = CARTESIAN_POINT ( 'NONE',  ( 2.823825611833123528, -0.9749999999999999778, 4.565842531771758139 ) ) ;
#228 = ORIENTED_EDGE ( 'NONE', *, *, #146, .T. ) ;
#229 = EDGE_CURVE ( 'NONE', #914, #893, #754, .T. ) ;
#230 = CARTESIAN_POINT ( 'NONE',  ( -6.049890282026213484, 0.000000000000000000, 3.880328886572464331 ) ) ;
#231 = DIRECTION ( 'NONE',  ( 0.000000000000000000, 1.000000000000000000, 0.000000000000000000 ) ) ;
#232 = CIRCLE ( 'NONE', #1087, 0.7199999999999999734 ) ;
#233 = ORIENTED_EDGE ( 'NONE', *, *, #966, .T. ) ;
#234 = CARTESIAN_POINT ( 'NONE',  ( 5.216657324672715923, -3.230000000000000426, 3.766657324672713969 ) ) ;
#235 = FILL_AREA_STYLE ('',( #1088 ) ) ;
#236 = DIRECTION ( 'NONE',  ( 0.000000000000000000, 0.000000000000000000, -1.000000000000000000 ) ) ;
#237 = ORIENTED_EDGE ( 'NONE', *, *, #816, .T. ) ;
#238 = VECTOR ( 'NONE', #459, 39.37007874015748143 ) ;
#239 = DIRECTION ( 'NONE',  ( 1.315496626162566004E-16, 0.000000000000000000, 1.000000000000000000 ) ) ;
#240 = EDGE_CURVE ( 'NONE', #774, #424, #194, .T. ) ;
#241 = VECTOR ( 'NONE', #903, 39.37007874015748143 ) ;
#242 = AXIS2_PLACEMENT_3D ( 'NONE', #1145, #956, #579 ) ;
#243 = CARTESIAN_POINT ( 'NONE',  ( -6.049890282026212596, 0.000000000000000000, 4.301944448902347062 ) ) ;
#244 = ORIENTED_EDGE ( 'NONE', *, *, #392, .T. ) ;
#245 = EDGE_LOOP ( 'NONE', ( #947, #161 ) ) ;
#246 = FACE_OUTER_BOUND ( 'NONE', #974, .T. ) ;
#247 = DIRECTION ( 'NONE',  ( -0.03487826274237462720, -0.9987827659587182882, -0.03487826274237461333 ) ) ;
#248 = CARTESIAN_POINT ( 'NONE',  ( 2.823825611833123528, -0.9749999999999999778, -4.565842531771758139 ) ) ;
#249 = ORIENTED_EDGE ( 'NONE', *, *, #517, .F. ) ;
#250 = EDGE_LOOP ( 'NONE', ( #1066, #1210 ) ) ;
#251 = CARTESIAN_POINT ( 'NONE',  ( -6.015842531771759205, -0.9749999999999999778, 0.1061743881668752304 ) ) ;
#252 = CARTESIAN_POINT ( 'NONE',  ( 6.049890282026212596, -3.494999999999999662, -2.949999999999999289 ) ) ;
#253 = CARTESIAN_POINT ( 'NONE',  ( -6.015842531771759205, -0.9749999999999999778, 6.876304330803690250E-16 ) ) ;
#254 = AXIS2_PLACEMENT_3D ( 'NONE', #37, #943, #656 ) ;
#255 = DIRECTION ( 'NONE',  ( -0.03487826274237462026, 0.9987827659587183993, 0.03487826274237463414 ) ) ;
#256 = VERTEX_POINT ( 'NONE', #1127 ) ;
#257 = VERTEX_POINT ( 'NONE', #746 ) ;
#258 = CARTESIAN_POINT ( 'NONE',  ( -2.823825611833124860, -0.9749999999999999778, 4.565842531771759916 ) ) ;
#259 = CIRCLE ( 'NONE', #1095, 0.7199999999999999734 ) ;
#260 = DIRECTION ( 'NONE',  ( -0.9993908270190956511, 0.03489949670250095531, 0.000000000000000000 ) ) ;
#261 = CARTESIAN_POINT ( 'NONE',  ( 6.849890282026211530, 0.000000000000000000, 5.399890282026214017 ) ) ;
#262 = CARTESIAN_POINT ( 'NONE',  ( -6.849890282026211530, -23.39474842853496739, 5.399890282026215793 ) ) ;
#263 = ADVANCED_FACE ( 'NONE', ( #573 ), #845, .F. ) ;
#264 = ORIENTED_EDGE ( 'NONE', *, *, #835, .F. ) ;
#265 = ORIENTED_EDGE ( 'NONE', *, *, #816, .F. ) ;
#266 = FACE_BOUND ( 'NONE', #512, .T. ) ;
#267 = DIRECTION ( 'NONE',  ( -1.000000000000000000, 0.000000000000000000, 4.384988753875223300E-17 ) ) ;
#268 = LINE ( 'NONE', #468, #474 ) ;
#269 = DIRECTION ( 'NONE',  ( 4.047264445734902431E-16, 0.000000000000000000, 1.000000000000000000 ) ) ;
#270 = CIRCLE ( 'NONE', #569, 0.1115000000000001684 ) ;
#271 = EDGE_LOOP ( 'NONE', ( #471, #197 ) ) ;
#272 = FACE_OUTER_BOUND ( 'NONE', #955, .T. ) ;
#273 = CIRCLE ( 'NONE', #435, 0.1115000000000001684 ) ;
#274 = DIRECTION ( 'NONE',  ( 0.000000000000000000, 0.000000000000000000, 1.000000000000000000 ) ) ;
#275 = DIRECTION ( 'NONE',  ( 0.000000000000000000, 0.000000000000000000, -1.000000000000000000 ) ) ;
#276 = FACE_OUTER_BOUND ( 'NONE', #954, .T. ) ;
#277 = EDGE_LOOP ( 'NONE', ( #139, #551, #1119, #30 ) ) ;
#278 = VECTOR ( 'NONE', #247, 39.37007874015748854 ) ;
#279 = ORIENTED_EDGE ( 'NONE', *, *, #558, .F. ) ;
#280 = DIRECTION ( 'NONE',  ( 0.000000000000000000, -0.000000000000000000, 1.000000000000000000 ) ) ;
#281 = ADVANCED_FACE ( 'NONE', ( #1141 ), #657, .T. ) ;
#282 = DIRECTION ( 'NONE',  ( 1.143032633332327858E-16, 0.000000000000000000, 1.000000000000000000 ) ) ;
#283 = CIRCLE ( 'NONE', #821, 0.7200000000000003064 ) ;
#284 = FACE_BOUND ( 'NONE', #1020, .T. ) ;
#285 = ORIENTED_EDGE ( 'NONE', *, *, #229, .T. ) ;
#286 = ORIENTED_EDGE ( 'NONE', *, *, #670, .T. ) ;
#287 = DIRECTION ( 'NONE',  ( 0.000000000000000000, -0.000000000000000000, 1.000000000000000000 ) ) ;
#288 = CARTESIAN_POINT ( 'NONE',  ( 5.216657324672714147, -3.230000000000000426, 3.766657324672715745 ) ) ;
#289 = DIRECTION ( 'NONE',  ( 0.000000000000000000, 0.000000000000000000, -1.000000000000000000 ) ) ;
#290 = ORIENTED_EDGE ( 'NONE', *, *, #229, .F. ) ;
#291 = VERTEX_POINT ( 'NONE', #952 ) ;
#292 = CARTESIAN_POINT ( 'NONE',  ( -6.229999999999999538, -4.950000000000000178, 4.780000000000002025 ) ) ;
#293 = FACE_OUTER_BOUND ( 'NONE', #828, .T. ) ;
#294 = DIRECTION ( 'NONE',  ( -4.384988753875222684E-17, 0.000000000000000000, -1.000000000000000000 ) ) ;
#295 = EDGE_CURVE ( 'NONE', #130, #1102, #866, .T. ) ;
#296 = PLANE ( 'NONE',  #1192 ) ;
#297 = EDGE_LOOP ( 'NONE', ( #800, #632 ) ) ;
#298 = VERTEX_POINT ( 'NONE', #1224 ) ;
#299 = CARTESIAN_POINT ( 'NONE',  ( -5.330328886572463176, 0.000000000000000000, -4.599890282026212418 ) ) ;
#300 = DIRECTION ( 'NONE',  ( 0.000000000000000000, 1.000000000000000000, 0.000000000000000000 ) ) ;
#301 = EDGE_CURVE ( 'NONE', #571, #577, #567, .T. ) ;
#302 = DIRECTION ( 'NONE',  ( 0.000000000000000000, 0.000000000000000000, 1.000000000000000000 ) ) ;
#303 = EDGE_CURVE ( 'NONE', #960, #823, #742, .T. ) ;
#304 = DIRECTION ( 'NONE',  ( 0.000000000000000000, 0.000000000000000000, 1.000000000000000000 ) ) ;
#305 = VERTEX_POINT ( 'NONE', #753 ) ;
#306 = VECTOR ( 'NONE', #395, 39.37007874015748143 ) ;
#307 = EDGE_CURVE ( 'NONE', #1205, #22, #963, .T. ) ;
#308 = EDGE_LOOP ( 'NONE', ( #1039, #919, #101, #863 ) ) ;
#309 = LINE ( 'NONE', #496, #443 ) ;
#310 = DIRECTION ( 'NONE',  ( 0.000000000000000000, 1.000000000000000000, 0.000000000000000000 ) ) ;
#311 = CARTESIAN_POINT ( 'NONE',  ( 2.929999999999999716, -3.494999999999999662, -4.599890282026211530 ) ) ;
#312 = FACE_OUTER_BOUND ( 'NONE', #1130, .T. ) ;
#313 = FACE_OUTER_BOUND ( 'NONE', #33, .T. ) ;
#314 = EDGE_LOOP ( 'NONE', ( #1050, #601, #533, #1081 ) ) ;
#315 = DIMENSIONAL_EXPONENTS ( 1.000000000000000000, 0.000000000000000000, 0.000000000000000000, 0.000000000000000000, 0.000000000000000000, 0.000000000000000000, 0.000000000000000000 ) ;
#316 = CARTESIAN_POINT ( 'NONE',  ( -2.002116815378433351E-16, -0.9749999999999999778, -4.565842531771758139 ) ) ;
#317 = CARTESIAN_POINT ( 'NONE',  ( 2.929999999999999716, -3.192942241045114038, -4.488390282026212041 ) ) ;
#318 = ORIENTED_EDGE ( 'NONE', *, *, #765, .F. ) ;
#319 = EDGE_LOOP ( 'NONE', ( #639, #61 ) ) ;
#320 = AXIS2_PLACEMENT_3D ( 'NONE', #518, #899, #1006 ) ;
#321 = CARTESIAN_POINT ( 'NONE',  ( -5.936218720126466231, -3.255127637625801817, 3.766657324672716189 ) ) ;
#322 = VERTEX_POINT ( 'NONE', #5 ) ;
#323 = AXIS2_PLACEMENT_3D ( 'NONE', #751, #640, #566 ) ;
#324 = ADVANCED_FACE ( 'NONE', ( #179 ), #852, .F. ) ;
#325 = DIRECTION ( 'NONE',  ( 0.000000000000000000, -0.000000000000000000, 1.000000000000000000 ) ) ;
#326 = CARTESIAN_POINT ( 'NONE',  ( 0.000000000000000000, -0.9749999999999999778, -4.488390282026212041 ) ) ;
#327 = ORIENTED_EDGE ( 'NONE', *, *, #136, .F. ) ;
#328 =( GEOMETRIC_REPRESENTATION_CONTEXT ( 3 ) GLOBAL_UNCERTAINTY_ASSIGNED_CONTEXT ( ( #1104 ) ) GLOBAL_UNIT_ASSIGNED_CONTEXT ( ( #121, #90, #1047 ) ) REPRESENTATION_CONTEXT ( 'NONE', 'WORKASPACE' ) );
#329 = CYLINDRICAL_SURFACE ( 'NONE', #1014, 0.7199999999999999734 ) ;
#330 = CARTESIAN_POINT ( 'NONE',  ( -2.930000000000000604, -0.9749999999999999778, -4.488390282026211153 ) ) ;
#331 = ADVANCED_FACE ( 'NONE', ( #944 ), #663, .T. ) ;
#332 = APPLICATION_CONTEXT ( 'automotive_design' ) ;
#333 = EDGE_CURVE ( 'NONE', #960, #1073, #758, .T. ) ;
#334 = VERTEX_POINT ( 'NONE', #1122 ) ;
#335 = CARTESIAN_POINT ( 'NONE',  ( 3.036174388166875460, -0.9749999999999999778, -4.565842531771758139 ) ) ;
#336 = CARTESIAN_POINT ( 'NONE',  ( 6.049890282026212596, 0.000000000000000000, -3.880328886572462554 ) ) ;
#337 = EDGE_CURVE ( 'NONE', #291, #958, #1135, .T. ) ;
#338 = ADVANCED_BREP_SHAPE_REPRESENTATION ( '1402-931 Bottom PID 7-24-2025', ( #1093, #628 ), #328 ) ;
#339 = ORIENTED_EDGE ( 'NONE', *, *, #433, .F. ) ;
#340 = VECTOR ( 'NONE', #88, 39.37007874015748854 ) ;
#341 = LINE ( 'NONE', #316, #306 ) ;
#342 = DIRECTION ( 'NONE',  ( 0.000000000000000000, 1.000000000000000000, 0.000000000000000000 ) ) ;
#343 = CARTESIAN_POINT ( 'NONE',  ( -5.890304857713481113, -4.569928630880946585, 2.884082734550360350 ) ) ;
#344 = VERTEX_POINT ( 'NONE', #476 ) ;
#345 = FACE_BOUND ( 'NONE', #968, .T. ) ;
#346 = LINE ( 'NONE', #731, #167 ) ;
#347 = FACE_OUTER_BOUND ( 'NONE', #991, .T. ) ;
#348 = CARTESIAN_POINT ( 'NONE',  ( -6.049890282026212596, 0.000000000000000000, -4.301944448902345286 ) ) ;
#349 = ORIENTED_EDGE ( 'NONE', *, *, #1196, .F. ) ;
#350 = EDGE_LOOP ( 'NONE', ( #1144, #45, #1077, #716 ) ) ;
#351 = CARTESIAN_POINT ( 'NONE',  ( -2.864082734550359444, -4.569928630881092246, 4.440304857713476494 ) ) ;
#352 = EDGE_CURVE ( 'NONE', #538, #57, #638, .T. ) ;
#353 = DIRECTION ( 'NONE',  ( 0.03487826274237463414, 0.9987827659587183993, 0.03487826274237462026 ) ) ;
#354 = DIRECTION ( 'NONE',  ( -1.143032633332327858E-16, 0.000000000000000000, -1.000000000000000000 ) ) ;
#355 = DIRECTION ( 'NONE',  ( 0.000000000000000000, -0.03489949670250098307, 0.9993908270190956511 ) ) ;
#356 = EDGE_LOOP ( 'NONE', ( #659, #290 ) ) ;
#357 = PRODUCT_DEFINITION_CONTEXT ( 'detailed design', #929, 'design' ) ;
#358 = EDGE_CURVE ( 'NONE', #22, #599, #935, .T. ) ;
#359 = CYLINDRICAL_SURFACE ( 'NONE', #1061, 0.7200000000000003064 ) ;
#360 = AXIS2_PLACEMENT_3D ( 'NONE', #530, #724, #1098 ) ;
#361 =( LENGTH_UNIT ( ) NAMED_UNIT ( * ) SI_UNIT ( $, .METRE. ) );
#362 = CARTESIAN_POINT ( 'NONE',  ( -2.930000000000000604, -3.192942241045121587, -4.488390282026211153 ) ) ;
#363 = FACE_OUTER_BOUND ( 'NONE', #660, .T. ) ;
#364 = ORIENTED_EDGE ( 'NONE', *, *, #134, .F. ) ;
#365 = PLANE ( 'NONE',  #183 ) ;
#366 = CARTESIAN_POINT ( 'NONE',  ( -2.930000000000000604, -0.9749999999999999778, 4.599890282026211530 ) ) ;
#367 = CARTESIAN_POINT ( 'NONE',  ( -6.015842531771759205, -0.9749999999999999778, 6.876304330803690250E-16 ) ) ;
#368 = DIRECTION ( 'NONE',  ( 0.000000000000000000, 1.000000000000000000, 0.000000000000000000 ) ) ;
#369 = ORIENTED_EDGE ( 'NONE', *, *, #396, .F. ) ;
#370 = ADVANCED_FACE ( 'NONE', ( #46 ), #621, .T. ) ;
#371 = ORIENTED_EDGE ( 'NONE', *, *, #610, .F. ) ;
#372 = FACE_OUTER_BOUND ( 'NONE', #626, .T. ) ;
#373 = AXIS2_PLACEMENT_3D ( 'NONE', #732, #532, #837 ) ;
#374 = CARTESIAN_POINT ( 'NONE',  ( -6.015842531771759205, -0.9749999999999999778, 2.843825611833124434 ) ) ;
#375 = DIRECTION ( 'NONE',  ( 0.03487826274237461333, -0.9987827659587182882, -0.03487826274237462720 ) ) ;
#376 = ORIENTED_EDGE ( 'NONE', *, *, #240, .F. ) ;
#377 = ORIENTED_EDGE ( 'NONE', *, *, #748, .T. ) ;
#378 = CARTESIAN_POINT ( 'NONE',  ( 0.05024228913761605991, -3.192942241045106488, -4.488390282026212041 ) ) ;
#379 = VECTOR ( 'NONE', #1218, 39.37007874015748143 ) ;
#380 = DIRECTION ( 'NONE',  ( -1.141640448309238629E-16, 3.986696293786245739E-18, -1.000000000000000000 ) ) ;
#381 = CARTESIAN_POINT ( 'NONE',  ( 6.015842531771758317, -0.9749999999999999778, 3.056174388166875033 ) ) ;
#382 = EDGE_LOOP ( 'NONE', ( #948, #388, #1151 ) ) ;
#383 = VERTEX_POINT ( 'NONE', #1092 ) ;
#384 = DIRECTION ( 'NONE',  ( 0.000000000000000000, 1.000000000000000000, 0.000000000000000000 ) ) ;
#385 = CARTESIAN_POINT ( 'NONE',  ( 0.000000000000000000, -0.9749999999999999778, -4.599890282026211530 ) ) ;
#386 = DIRECTION ( 'NONE',  ( 1.000000000000000000, 0.000000000000000000, 0.000000000000000000 ) ) ;
#387 = CARTESIAN_POINT ( 'NONE',  ( 6.049890282026212596, 0.000000000000000000, 4.301944448902345286 ) ) ;
#388 = ORIENTED_EDGE ( 'NONE', *, *, #1222, .T. ) ;
#389 = PRODUCT_DEFINITION_FORMATION_WITH_SPECIFIED_SOURCE ( 'ANY', '', #1211, .NOT_KNOWN. ) ;
#390 = EDGE_LOOP ( 'NONE', ( #1032, #728 ) ) ;
#391 = DIRECTION ( 'NONE',  ( 0.000000000000000000, -0.000000000000000000, 1.000000000000000000 ) ) ;
#392 = EDGE_CURVE ( 'NONE', #823, #538, #40, .T. ) ;
#393 = VECTOR ( 'NONE', #980, 39.37007874015748143 ) ;
#394 =( LENGTH_UNIT ( ) NAMED_UNIT ( * ) SI_UNIT ( $, .METRE. ) );
#395 = DIRECTION ( 'NONE',  ( 1.000000000000000000, 0.000000000000000000, -4.384988753875223300E-17 ) ) ;
#396 = EDGE_CURVE ( 'NONE', #679, #190, #998, .T. ) ;
#397 =( BOUNDED_CURVE ( )  B_SPLINE_CURVE ( 3, ( #888, #138, #507, #415 ),
 .UNSPECIFIED., .F., .T. ) 
 B_SPLINE_CURVE_WITH_KNOTS ( ( 4, 4 ),
 ( 1.881113828746399985, 4.402071478433185803 ),
 .UNSPECIFIED. ) 
 CURVE ( )  GEOMETRIC_REPRESENTATION_ITEM ( )  RATIONAL_B_SPLINE_CURVE ( ( 1.000000000000000000, 0.5369073258861246645, 0.5369073258861246645, 1.000000000000000000 ) ) 
 REPRESENTATION_ITEM ( '' )  );
#398 = LINE ( 'NONE', #873, #687 ) ;
#399 = ORIENTED_EDGE ( 'NONE', *, *, #165, .F. ) ;
#400 = CIRCLE ( 'NONE', #978, 0.1115000000000001684 ) ;
#401 = VERTEX_POINT ( 'NONE', #796 ) ;
#402 = CARTESIAN_POINT ( 'NONE',  ( -6.849890282026211530, -23.39474842853496739, 5.399890282026215793 ) ) ;
#403 = CARTESIAN_POINT ( 'NONE',  ( 2.929999999999999716, -0.9749999999999999778, -4.599890282026211530 ) ) ;
#404 = CARTESIAN_POINT ( 'NONE',  ( 6.849890282026211530, -23.39474842853496739, -5.399890282026214017 ) ) ;
#405 = CARTESIAN_POINT ( 'NONE',  ( -6.229999999999999538, -3.950000000000000178, 4.780000000000002025 ) ) ;
#406 = AXIS2_PLACEMENT_3D ( 'NONE', #92, #936, #78 ) ;
#407 = DIRECTION ( 'NONE',  ( 0.000000000000000000, -0.000000000000000000, 1.000000000000000000 ) ) ;
#408 = AXIS2_PLACEMENT_3D ( 'NONE', #404, #879, #790 ) ;
#409 = ORIENTED_EDGE ( 'NONE', *, *, #988, .F. ) ;
#410 = VECTOR ( 'NONE', #174, 39.37007874015748143 ) ;
#411 = PLANE ( 'NONE',  #1186 ) ;
#412 = EDGE_CURVE ( 'NONE', #184, #401, #150, .T. ) ;
#413 = PLANE ( 'NONE',  #204 ) ;
#414 = CARTESIAN_POINT ( 'NONE',  ( 3.020832353074771603, -2.345031375465707058, -4.517999981912658392 ) ) ;
#415 = CARTESIAN_POINT ( 'NONE',  ( 6.015842531771758317, -0.9749999999999999778, -3.056174388166875033 ) ) ;
#416 = ORIENTED_EDGE ( 'NONE', *, *, #780, .T. ) ;
#417 = ADVANCED_FACE ( 'NONE', ( #1156, #684, #886, #524 ), #504, .F. ) ;
#418 = CARTESIAN_POINT ( 'NONE',  ( 6.015842531771758317, -0.9749999999999999778, -0.1061743881668752304 ) ) ;
#419 = ADVANCED_FACE ( 'NONE', ( #1004 ), #1194, .T. ) ;
#420 = CYLINDRICAL_SURFACE ( 'NONE', #651, 0.1115000000000000158 ) ;
#421 = ORIENTED_EDGE ( 'NONE', *, *, #894, .F. ) ;
#422 = DIRECTION ( 'NONE',  ( -0.9993908270190956511, -0.03489949670250126063, 0.000000000000000000 ) ) ;
#423 = LINE ( 'NONE', #1170, #926 ) ;
#424 = VERTEX_POINT ( 'NONE', #209 ) ;
#425 = AXIS2_PLACEMENT_3D ( 'NONE', #1009, #915, #58 ) ;
#426 = CARTESIAN_POINT ( 'NONE',  ( 5.890304857713480224, -4.569928630880959020, -0.06591726544963966150 ) ) ;
#427 = EDGE_LOOP ( 'NONE', ( #1185, #478 ) ) ;
#428 =( BOUNDED_CURVE ( )  B_SPLINE_CURVE ( 3, ( #606, #527, #426, #418 ),
 .UNSPECIFIED., .F., .F. ) 
 B_SPLINE_CURVE_WITH_KNOTS ( ( 4, 4 ),
 ( 1.881113828746397765, 4.402071478433188467 ),
 .UNSPECIFIED. ) 
 CURVE ( )  GEOMETRIC_REPRESENTATION_ITEM ( )  RATIONAL_B_SPLINE_CURVE ( ( 1.000000000000000000, 0.5369073258861232212, 0.5369073258861232212, 1.000000000000000000 ) ) 
 REPRESENTATION_ITEM ( '' )  );
#429 = ORIENTED_EDGE ( 'NONE', *, *, #1074, .F. ) ;
#430 = CARTESIAN_POINT ( 'NONE',  ( 6.049890282026212596, -0.9749999999999999778, 2.949999999999999289 ) ) ;
#431 = ADVANCED_FACE ( 'NONE', ( #692 ), #24, .T. ) ;
#432 = CARTESIAN_POINT ( 'NONE',  ( -5.216657324672716811, -3.230000000000000426, 5.962809559013029926E-16 ) ) ;
#433 = EDGE_CURVE ( 'NONE', #298, #256, #341, .T. ) ;
#434 = CARTESIAN_POINT ( 'NONE',  ( -1.651675000839159281E-16, -3.230000000000000426, -3.766657324672715745 ) ) ;
#435 = AXIS2_PLACEMENT_3D ( 'NONE', #528, #631, #1012 ) ;
#436 = ORIENTED_EDGE ( 'NONE', *, *, #358, .T. ) ;
#437 =( BOUNDED_CURVE ( )  B_SPLINE_CURVE ( 3, ( #336, #1197, #814, #720 ),
 .UNSPECIFIED., .F., .F. ) 
 B_SPLINE_CURVE_WITH_KNOTS ( ( 4, 4 ),
 ( 5.498396131367749184, 7.067974482991422391 ),
 .UNSPECIFIED. ) 
 CURVE ( )  GEOMETRIC_REPRESENTATION_ITEM ( )  RATIONAL_B_SPLINE_CURVE ( ( 1.000000000000000000, 0.8050248461936597710, 0.8050248461936597710, 1.000000000000000000 ) ) 
 REPRESENTATION_ITEM ( '' )  );
#438 = DIRECTION ( 'NONE',  ( -0.03487826274237462720, 0.9987827659587182882, -0.03487826274237462026 ) ) ;
#439 = COLOUR_RGB ( '',0.7921568627450980005, 0.8196078431372548767, 0.9333333333333333481 ) ;
#440 = DIRECTION ( 'NONE',  ( 0.000000000000000000, 1.000000000000000000, 0.000000000000000000 ) ) ;
#441 = CYLINDRICAL_SURFACE ( 'NONE', #12, 0.7199999999999999734 ) ;
#442 = ORIENTED_EDGE ( 'NONE', *, *, #47, .T. ) ;
#443 = VECTOR ( 'NONE', #1140, 39.37007874015748854 ) ;
#444 = DIRECTION ( 'NONE',  ( -0.03487826274237462026, 0.9987827659587183993, 0.03487826274237463414 ) ) ;
#445 = EDGE_CURVE ( 'NONE', #564, #1238, #1000, .T. ) ;
#446 = DIRECTION ( 'NONE',  ( 0.000000000000000000, 1.000000000000000000, 0.000000000000000000 ) ) ;
#447 = CARTESIAN_POINT ( 'NONE',  ( -5.890304857713481113, -4.569928630880959020, 0.06591726544963966150 ) ) ;
#448 = ORIENTED_EDGE ( 'NONE', *, *, #517, .T. ) ;
#449 = FACE_BOUND ( 'NONE', #250, .T. ) ;
#450 = PRODUCT_RELATED_PRODUCT_CATEGORY ( 'part', '', ( #1211 ) ) ;
#451 =( BOUNDED_CURVE ( )  B_SPLINE_CURVE ( 3, ( #258, #351, #162, #1113 ),
 .UNSPECIFIED., .F., .T. ) 
 B_SPLINE_CURVE_WITH_KNOTS ( ( 4, 4 ),
 ( 1.881113828746378669, 4.402071478433208007 ),
 .UNSPECIFIED. ) 
 CURVE ( )  GEOMETRIC_REPRESENTATION_ITEM ( )  RATIONAL_B_SPLINE_CURVE ( ( 1.000000000000000000, 0.5369073258861108977, 0.5369073258861108977, 1.000000000000000000 ) ) 
 REPRESENTATION_ITEM ( '' )  );
#452 = CARTESIAN_POINT ( 'NONE',  ( 6.849890282026211530, 0.000000000000000000, -5.399890282026214017 ) ) ;
#453 = CARTESIAN_POINT ( 'NONE',  ( 3.036174388166875460, -0.9749999999999999778, 4.565842531771758139 ) ) ;
#454 = ORIENTED_EDGE ( 'NONE', *, *, #904, .T. ) ;
#455 = ORIENTED_EDGE ( 'NONE', *, *, #187, .F. ) ;
#456 = DIRECTION ( 'NONE',  ( 0.000000000000000000, 0.000000000000000000, 1.000000000000000000 ) ) ;
#457 = CARTESIAN_POINT ( 'NONE',  ( 5.216657324672714147, -3.229999999999999538, 3.766657324672715745 ) ) ;
#458 = CARTESIAN_POINT ( 'NONE',  ( 6.849890282026211530, -4.950000000000000178, 5.399890282026214017 ) ) ;
#459 = DIRECTION ( 'NONE',  ( -1.000000000000000000, 0.000000000000000000, 1.315496626162566497E-16 ) ) ;
#460 = EDGE_LOOP ( 'NONE', ( #613, #1045 ) ) ;
#461 = FACE_OUTER_BOUND ( 'NONE', #390, .T. ) ;
#462 = CIRCLE ( 'NONE', #939, 0.7199999999999999734 ) ;
#463 = ADVANCED_FACE ( 'NONE', ( #122 ), #413, .T. ) ;
#464 = CYLINDRICAL_SURFACE ( 'NONE', #1084, 0.1115000000000001684 ) ;
#465 = EDGE_CURVE ( 'NONE', #7, #823, #259, .T. ) ;
#466 = PLANE ( 'NONE',  #1215 ) ;
#467 = VERTEX_POINT ( 'NONE', #335 ) ;
#468 = CARTESIAN_POINT ( 'NONE',  ( 5.936218720126464454, -3.255127637625801817, -6.915472766487955782E-16 ) ) ;
#469 = DIRECTION ( 'NONE',  ( 0.03487826274237462026, 0.9987827659587183993, -0.03487826274237462720 ) ) ;
#470 = AXIS2_PLACEMENT_3D ( 'NONE', #788, #588, #1162 ) ;
#471 = ORIENTED_EDGE ( 'NONE', *, *, #896, .F. ) ;
#472 = ORIENTED_EDGE ( 'NONE', *, *, #113, .T. ) ;
#473 = DIRECTION ( 'NONE',  ( 0.000000000000000000, 1.000000000000000000, 0.000000000000000000 ) ) ;
#474 = VECTOR ( 'NONE', #380, 39.37007874015748143 ) ;
#475 = CARTESIAN_POINT ( 'NONE',  ( 5.216657324672714147, -3.255127637625800485, -4.486218720126463388 ) ) ;
#476 = CARTESIAN_POINT ( 'NONE',  ( -6.849890282026215971, -4.950000000000004619, -5.399890282026211352 ) ) ;
#477 = FACE_OUTER_BOUND ( 'NONE', #93, .T. ) ;
#478 = ORIENTED_EDGE ( 'NONE', *, *, #1089, .F. ) ;
#479 = CIRCLE ( 'NONE', #913, 0.7200000000000003064 ) ;
#480 = ORIENTED_EDGE ( 'NONE', *, *, #1089, .T. ) ;
#481 = CARTESIAN_POINT ( 'NONE',  ( -5.216657324672715923, -3.230000000000000426, -3.766657324672714857 ) ) ;
#482 = CARTESIAN_POINT ( 'NONE',  ( -6.849890282026211530, 0.000000000000000000, 5.399890282026215793 ) ) ;
#483 = VECTOR ( 'NONE', #11, 39.37007874015748854 ) ;
#484 = CARTESIAN_POINT ( 'NONE',  ( -6.049890282026213484, -0.9749999999999999778, -2.949999999999999734 ) ) ;
#485 = CARTESIAN_POINT ( 'NONE',  ( 5.325827595071223719, -0.1037724859039201447, -3.875827595071223985 ) ) ;
#486 = ORIENTED_EDGE ( 'NONE', *, *, #802, .T. ) ;
#487 = ADVANCED_FACE ( 'NONE', ( #589 ), #145, .F. ) ;
#488 = ORIENTED_EDGE ( 'NONE', *, *, #945, .T. ) ;
#489 = FACE_OUTER_BOUND ( 'NONE', #308, .T. ) ;
#490 = EDGE_CURVE ( 'NONE', #862, #1008, #77, .T. ) ;
#491 = DIRECTION ( 'NONE',  ( 0.000000000000000000, 0.000000000000000000, 1.000000000000000000 ) ) ;
#492 = CARTESIAN_POINT ( 'NONE',  ( -6.015842531771759205, -0.9749999999999999778, -3.056174388166875477 ) ) ;
#493 = CARTESIAN_POINT ( 'NONE',  ( 2.980242289137616130, -3.192942241045115370, -4.488390282026212041 ) ) ;
#494 = ORIENTED_EDGE ( 'NONE', *, *, #670, .F. ) ;
#495 = ORIENTED_EDGE ( 'NONE', *, *, #1177, .F. ) ;
#496 = CARTESIAN_POINT ( 'NONE',  ( -6.043625075367681454, -0.1794120447435335330, -3.874063679913930969 ) ) ;
#497 = CLOSED_SHELL ( 'NONE', ( #193, #1213, #1181, #331, #690, #744, #419, #526, #653, #508, #417, #596, #931, #263, #1005, #324, #487, #982, #1184, #521, #212, #553, #725, #1106, #905, #759, #871, #1201, #523, #574, #35, #370, #719, #614, #431, #94, #1085, #281, #1112, #1003, #503, #1149, #833, #967, #986, #72, #1131, #463 ) ) ;
#498 = CARTESIAN_POINT ( 'NONE',  ( 6.049890282026212596, -0.9749999999999999778, 0.000000000000000000 ) ) ;
#499 = DIRECTION ( 'NONE',  ( 0.000000000000000000, 0.000000000000000000, 1.000000000000000000 ) ) ;
#500 = PLANE ( 'NONE',  #115 ) ;
#501 = AXIS2_PLACEMENT_3D ( 'NONE', #685, #1157, #882 ) ;
#502 = EDGE_LOOP ( 'NONE', ( #376, #1187 ) ) ;
#503 = ADVANCED_FACE ( 'NONE', ( #246 ), #627, .T. ) ;
#504 = PLANE ( 'NONE',  #804 ) ;
#505 = DIRECTION ( 'NONE',  ( 0.000000000000000000, 1.000000000000000000, 0.000000000000000000 ) ) ;
#506 = AXIS2_PLACEMENT_3D ( 'NONE', #1105, #829, #1206 ) ;
#507 = CARTESIAN_POINT ( 'NONE',  ( 5.890304857713480224, -4.569928630880947473, -3.015917265449639117 ) ) ;
#508 = ADVANCED_FACE ( 'NONE', ( #272, #449, #743, #266 ), #185, .F. ) ;
#509 = EDGE_LOOP ( 'NONE', ( #645, #429, #847, #842, #874, #14, #578, #264 ) ) ;
#510 = CARTESIAN_POINT ( 'NONE',  ( -6.049890282026213484, -3.494999999999999662, 2.949999999999999734 ) ) ;
#511 =( BOUNDED_CURVE ( )  B_SPLINE_CURVE ( 3, ( #230, #243, #147, #726 ),
 .UNSPECIFIED., .F., .T. ) 
 B_SPLINE_CURVE_WITH_KNOTS ( ( 4, 4 ),
 ( 5.498396131367749184, 7.067974482991422391 ),
 .UNSPECIFIED. ) 
 CURVE ( )  GEOMETRIC_REPRESENTATION_ITEM ( )  RATIONAL_B_SPLINE_CURVE ( ( 1.000000000000000000, 0.8050248461936597710, 0.8050248461936597710, 1.000000000000000000 ) ) 
 REPRESENTATION_ITEM ( '' )  );
#512 = EDGE_LOOP ( 'NONE', ( #674, #770 ) ) ;
#513 = ORIENTED_EDGE ( 'NONE', *, *, #945, .F. ) ;
#514 = FACE_OUTER_BOUND ( 'NONE', #711, .T. ) ;
#515 = CARTESIAN_POINT ( 'NONE',  ( -6.049890282026213484, -0.9749999999999999778, 2.949999999999999734 ) ) ;
#516 = ORIENTED_EDGE ( 'NONE', *, *, #47, .F. ) ;
#517 = EDGE_CURVE ( 'NONE', #1102, #538, #462, .T. ) ;
#518 = CARTESIAN_POINT ( 'NONE',  ( 6.049890282026212596, -0.9749999999999999778, 2.949999999999999289 ) ) ;
#519 = CARTESIAN_POINT ( 'NONE',  ( 5.216657324672715923, -3.230000000000000426, -3.766657324672714857 ) ) ;
#520 = ORIENTED_EDGE ( 'NONE', *, *, #134, .T. ) ;
#521 = ADVANCED_FACE ( 'NONE', ( #920 ), #1021, .F. ) ;
#522 = VECTOR ( 'NONE', #438, 39.37007874015748854 ) ;
#523 = ADVANCED_FACE ( 'NONE', ( #461 ), #1125, .T. ) ;
#524 = FACE_BOUND ( 'NONE', #1013, .T. ) ;
#525 = AXIS2_PLACEMENT_3D ( 'NONE', #1116, #469, #642 ) ;
#526 = ADVANCED_FACE ( 'NONE', ( #737, #372 ), #1120, .T. ) ;
#527 = CARTESIAN_POINT ( 'NONE',  ( 5.890304857713480224, -4.569928630880958131, 0.06591726544963974477 ) ) ;
#528 = CARTESIAN_POINT ( 'NONE',  ( -6.049890282026213484, -0.9749999999999999778, 2.949999999999999734 ) ) ;
#529 = ORIENTED_EDGE ( 'NONE', *, *, #1054, .F. ) ;
#530 = CARTESIAN_POINT ( 'NONE',  ( 6.049890282026212596, -0.9749999999999999778, -2.949999999999999289 ) ) ;
#531 = CARTESIAN_POINT ( 'NONE',  ( 0.000000000000000000, -3.192942241045110485, -4.488390282026212041 ) ) ;
#532 = DIRECTION ( 'NONE',  ( 0.000000000000000000, 1.000000000000000000, 0.000000000000000000 ) ) ;
#533 = ORIENTED_EDGE ( 'NONE', *, *, #358, .F. ) ;
#534 = DIRECTION ( 'NONE',  ( 0.000000000000000000, 1.000000000000000000, 0.000000000000000000 ) ) ;
#535 = FACE_OUTER_BOUND ( 'NONE', #203, .T. ) ;
#536 = DIRECTION ( 'NONE',  ( -0.03487826274237461333, 0.9987827659587182882, 0.03487826274237462720 ) ) ;
#537 = EDGE_CURVE ( 'NONE', #893, #914, #451, .T. ) ;
#538 = VERTEX_POINT ( 'NONE', #171 ) ;
#539 = CIRCLE ( 'NONE', #840, 0.1115000000000001684 ) ;
#540 = DIRECTION ( 'NONE',  ( 0.9993908270190957621, -0.03489949670250096919, -1.142336328735810030E-16 ) ) ;
#541 = EDGE_CURVE ( 'NONE', #902, #1086, #729, .T. ) ;
#542 = DIRECTION ( 'NONE',  ( 0.000000000000000000, 1.000000000000000000, 0.000000000000000000 ) ) ;
#543 = CARTESIAN_POINT ( 'NONE',  ( -5.330328886572464064, 0.000000000000000000, 4.599890282026213306 ) ) ;
#544 = CARTESIAN_POINT ( 'NONE',  ( -5.330328886572463176, 0.000000000000000000, -4.599890282026212418 ) ) ;
#545 = VERTEX_POINT ( 'NONE', #834 ) ;
#546 = CARTESIAN_POINT ( 'NONE',  ( -5.216657324672713258, -3.230000000000000426, 3.766657324672717078 ) ) ;
#547 = CARTESIAN_POINT ( 'NONE',  ( 6.849890282026211530, -4.950000000000000178, -5.399890282026214017 ) ) ;
#548 = CARTESIAN_POINT ( 'NONE',  ( 5.330328886572463176, 0.000000000000000000, -4.599890282026212418 ) ) ;
#549 = CYLINDRICAL_SURFACE ( 'NONE', #983, 0.7199999999999997513 ) ;
#550 = CIRCLE ( 'NONE', #1229, 0.1115000000000001684 ) ;
#551 = ORIENTED_EDGE ( 'NONE', *, *, #713, .T. ) ;
#552 = CARTESIAN_POINT ( 'NONE',  ( -6.049890282026213484, -0.9749999999999999778, 0.000000000000000000 ) ) ;
#553 = ADVANCED_FACE ( 'NONE', ( #1212 ), #359, .F. ) ;
#554 =( BOUNDED_CURVE ( )  B_SPLINE_CURVE ( 3, ( #1128, #158, #387, #678 ),
 .UNSPECIFIED., .F., .F. ) 
 B_SPLINE_CURVE_WITH_KNOTS ( ( 4, 4 ),
 ( 5.498396131367748296, 7.067974482991422391 ),
 .UNSPECIFIED. ) 
 CURVE ( )  GEOMETRIC_REPRESENTATION_ITEM ( )  RATIONAL_B_SPLINE_CURVE ( ( 1.000000000000000000, 0.8050248461936597710, 0.8050248461936597710, 1.000000000000000000 ) ) 
 REPRESENTATION_ITEM ( '' )  );
#555 = DIRECTION ( 'NONE',  ( -1.000000000000000000, 0.000000000000000000, 0.000000000000000000 ) ) ;
#556 = CYLINDRICAL_SURFACE ( 'NONE', #406, 0.1115000000000001684 ) ;
#557 = EDGE_LOOP ( 'NONE', ( #364, #327 ) ) ;
#558 = EDGE_CURVE ( 'NONE', #256, #189, #576, .T. ) ;
#559 = CARTESIAN_POINT ( 'NONE',  ( -6.229999999999999538, -3.950000000000000178, -3.766657324672715745 ) ) ;
#560 = AXIS2_PLACEMENT_3D ( 'NONE', #777, #105, #572 ) ;
#561 = EDGE_CURVE ( 'NONE', #571, #577, #619, .T. ) ;
#562 = VECTOR ( 'NONE', #188, 39.37007874015748143 ) ;
#563 = DIRECTION ( 'NONE',  ( -1.000000000000000000, 0.000000000000000000, 4.047264445734902431E-16 ) ) ;
#564 = VERTEX_POINT ( 'NONE', #71 ) ;
#565 = ORIENTED_EDGE ( 'NONE', *, *, #1204, .T. ) ;
#566 = DIRECTION ( 'NONE',  ( 1.000000000000000000, 0.000000000000000000, 0.000000000000000000 ) ) ;
#567 = LINE ( 'NONE', #367, #1176 ) ;
#568 = DIRECTION ( 'NONE',  ( 0.000000000000000000, 1.000000000000000000, 0.000000000000000000 ) ) ;
#569 = AXIS2_PLACEMENT_3D ( 'NONE', #403, #310, #878 ) ;
#570 = ORIENTED_EDGE ( 'NONE', *, *, #465, .T. ) ;
#571 = VERTEX_POINT ( 'NONE', #251 ) ;
#572 = DIRECTION ( 'NONE',  ( 0.000000000000000000, 0.000000000000000000, -1.000000000000000000 ) ) ;
#573 = FACE_OUTER_BOUND ( 'NONE', #734, .T. ) ;
#574 = ADVANCED_FACE ( 'NONE', ( #843 ), #365, .T. ) ;
#575 = CYLINDRICAL_SURFACE ( 'NONE', #1076, 0.7200000000000003064 ) ;
#576 =( BOUNDED_CURVE ( )  B_SPLINE_CURVE ( 3, ( #82, #941, #849, #933 ),
 .UNSPECIFIED., .F., .T. ) 
 B_SPLINE_CURVE_WITH_KNOTS ( ( 4, 4 ),
 ( 1.881113828746387329, 3.141592653589793116 ),
 .UNSPECIFIED. ) 
 CURVE ( )  GEOMETRIC_REPRESENTATION_ITEM ( )  RATIONAL_B_SPLINE_CURVE ( ( 1.000000000000000000, 0.8719242910552547077, 0.8719242910552547077, 1.000000000000000000 ) ) 
 REPRESENTATION_ITEM ( '' )  );
#577 = VERTEX_POINT ( 'NONE', #661 ) ;
#578 = ORIENTED_EDGE ( 'NONE', *, *, #412, .F. ) ;
#579 = DIRECTION ( 'NONE',  ( 0.000000000000000000, -0.9993908270190957621, -0.03489949670250096919 ) ) ;
#580 = DIRECTION ( 'NONE',  ( 0.000000000000000000, 0.000000000000000000, 1.000000000000000000 ) ) ;
#581 = AXIS2_PLACEMENT_3D ( 'NONE', #498, #819, #970 ) ;
#582 = CARTESIAN_POINT ( 'NONE',  ( -5.216657324672715923, -3.230000000000000426, -3.766657324672714857 ) ) ;
#583 = EDGE_CURVE ( 'NONE', #57, #1102, #283, .T. ) ;
#584 = DIRECTION ( 'NONE',  ( 0.000000000000000000, 1.000000000000000000, 0.000000000000000000 ) ) ;
#585 = ORIENTED_EDGE ( 'NONE', *, *, #1017, .F. ) ;
#586 = EDGE_LOOP ( 'NONE', ( #1158, #756 ) ) ;
#587 = CARTESIAN_POINT ( 'NONE',  ( -6.849890282026215971, -23.39474842853496739, -5.399890282026211352 ) ) ;
#588 = DIRECTION ( 'NONE',  ( 1.143032633332327858E-16, 0.000000000000000000, 1.000000000000000000 ) ) ;
#589 = FACE_OUTER_BOUND ( 'NONE', #694, .T. ) ;
#590 = PLANE ( 'NONE',  #781 ) ;
#591 = DIRECTION ( 'NONE',  ( -1.517693329813479566E-15, -1.000000000000000000, -7.588466649067397829E-16 ) ) ;
#592 = ORIENTED_EDGE ( 'NONE', *, *, #1101, .T. ) ;
#593 = DIRECTION ( 'NONE',  ( 1.000000000000000000, 4.588220293169724045E-18, -1.313894384330215170E-16 ) ) ;
#594 = VECTOR ( 'NONE', #995, 39.37007874015748143 ) ;
#595 = DIRECTION ( 'NONE',  ( 0.000000000000000000, -0.000000000000000000, 1.000000000000000000 ) ) ;
#596 = ADVANCED_FACE ( 'NONE', ( #345, #96, #763 ), #1046, .F. ) ;
#597 = DIRECTION ( 'NONE',  ( 1.000000000000000000, 0.000000000000000000, -4.384988753875223300E-17 ) ) ;
#598 = DIRECTION ( 'NONE',  ( 0.000000000000000000, 0.03489949670250095531, 0.9993908270190956511 ) ) ;
#599 = VERTEX_POINT ( 'NONE', #299 ) ;
#600 = STYLED_ITEM ( 'NONE', ( #83 ), #1093 ) ;
#601 = ORIENTED_EDGE ( 'NONE', *, *, #1167, .T. ) ;
#602 = CARTESIAN_POINT ( 'NONE',  ( 0.000000000000000000, -0.9749999999999999778, -4.599890282026211530 ) ) ;
#603 = CARTESIAN_POINT ( 'NONE',  ( 2.864082734550359000, -4.569928630881013198, 4.440304857713477382 ) ) ;
#604 =( BOUNDED_CURVE ( )  B_SPLINE_CURVE ( 3, ( #870, #786, #378, #675 ),
 .UNSPECIFIED., .F., .F. ) 
 B_SPLINE_CURVE_WITH_KNOTS ( ( 4, 4 ),
 ( 1.881113828746392214, 3.141592653589793116 ),
 .UNSPECIFIED. ) 
 CURVE ( )  GEOMETRIC_REPRESENTATION_ITEM ( )  RATIONAL_B_SPLINE_CURVE ( ( 1.000000000000000000, 0.8719242910552558179, 0.8719242910552558179, 1.000000000000000000 ) ) 
 REPRESENTATION_ITEM ( '' )  );
#605 = ORIENTED_EDGE ( 'NONE', *, *, #925, .T. ) ;
#606 = CARTESIAN_POINT ( 'NONE',  ( 6.015842531771758317, -0.9749999999999999778, 0.1061743881668752304 ) ) ;
#607 = EDGE_LOOP ( 'NONE', ( #159, #981, #68, #52 ) ) ;
#608 = ORIENTED_EDGE ( 'NONE', *, *, #541, .T. ) ;
#609 = DIRECTION ( 'NONE',  ( 0.000000000000000000, 1.000000000000000000, 0.000000000000000000 ) ) ;
#610 = EDGE_CURVE ( 'NONE', #902, #869, #764, .T. ) ;
#611 = DIRECTION ( 'NONE',  ( 0.000000000000000000, 1.000000000000000000, 0.000000000000000000 ) ) ;
#612 = EDGE_CURVE ( 'NONE', #176, #305, #2, .T. ) ;
#613 = ORIENTED_EDGE ( 'NONE', *, *, #793, .T. ) ;
#614 = ADVANCED_FACE ( 'NONE', ( #1235 ), #771, .T. ) ;
#615 = AXIS2_PLACEMENT_3D ( 'NONE', #1114, #353, #260 ) ;
#616 = DIRECTION ( 'NONE',  ( 0.03489949670250096919, -0.9993908270190957621, 0.000000000000000000 ) ) ;
#617 = SURFACE_STYLE_FILL_AREA ( #235 ) ;
#618 = CARTESIAN_POINT ( 'NONE',  ( -6.849890282026211530, -4.950000000000000178, 5.399890282026215793 ) ) ;
#619 = CIRCLE ( 'NONE', #682, 0.1115000000000000158 ) ;
#620 = ORIENTED_EDGE ( 'NONE', *, *, #959, .F. ) ;
#621 = PLANE ( 'NONE',  #581 ) ;
#622 = VECTOR ( 'NONE', #177, 39.37007874015748143 ) ;
#623 = DIRECTION ( 'NONE',  ( -0.03487826274237463414, 0.9987827659587183993, -0.03487826274237462720 ) ) ;
#624 = CARTESIAN_POINT ( 'NONE',  ( -2.930000000000000604, -3.192942241045121587, -4.488390282026211153 ) ) ;
#625 = EDGE_LOOP ( 'NONE', ( #56, #848, #750 ) ) ;
#626 = EDGE_LOOP ( 'NONE', ( #996, #794, #875, #228 ) ) ;
#627 = CYLINDRICAL_SURFACE ( 'NONE', #425, 0.1115000000000001684 ) ;
#628 = AXIS2_PLACEMENT_3D ( 'NONE', #208, #491, #885 ) ;
#629 = EDGE_CURVE ( 'NONE', #383, #401, #1160, .T. ) ;
#630 = FACE_OUTER_BOUND ( 'NONE', #502, .T. ) ;
#631 = DIRECTION ( 'NONE',  ( -0.000000000000000000, -1.000000000000000000, -0.000000000000000000 ) ) ;
#632 = ORIENTED_EDGE ( 'NONE', *, *, #1056, .T. ) ;
#633 = MECHANICAL_DESIGN_GEOMETRIC_PRESENTATION_REPRESENTATION (  '', ( #600 ), #701 ) ;
#634 = DIRECTION ( 'NONE',  ( 0.000000000000000000, 1.000000000000000000, 0.000000000000000000 ) ) ;
#635 = CARTESIAN_POINT ( 'NONE',  ( -2.980242289137617906, -3.192942241045122476, -4.488390282026212041 ) ) ;
#636 = CARTESIAN_POINT ( 'NONE',  ( -2.002116815378433351E-16, -0.9749999999999999778, -4.565842531771758139 ) ) ;
#637 = EDGE_LOOP ( 'NONE', ( #448, #868, #686 ) ) ;
#638 = CIRCLE ( 'NONE', #704, 0.7199999999999999734 ) ;
#639 = ORIENTED_EDGE ( 'NONE', *, *, #8, .F. ) ;
#640 = DIRECTION ( 'NONE',  ( 0.000000000000000000, 1.000000000000000000, 0.000000000000000000 ) ) ;
#641 = LINE ( 'NONE', #253, #992 ) ;
#642 = DIRECTION ( 'NONE',  ( 0.000000000000000000, 0.03489949670250128838, 0.9993908270190956511 ) ) ;
#643 = ORIENTED_EDGE ( 'NONE', *, *, #333, .F. ) ;
#644 = EDGE_CURVE ( 'NONE', #190, #987, #604, .T. ) ;
#645 = ORIENTED_EDGE ( 'NONE', *, *, #877, .F. ) ;
#646 = DIRECTION ( 'NONE',  ( -0.03487826274237463414, 0.9987827659587183993, -0.03487826274237462720 ) ) ;
#647 =( BOUNDED_CURVE ( )  B_SPLINE_CURVE ( 3, ( #1096, #830, #164, #928 ),
 .UNSPECIFIED., .F., .T. ) 
 B_SPLINE_CURVE_WITH_KNOTS ( ( 4, 4 ),
 ( 3.141592653589793116, 4.402071478433193796 ),
 .UNSPECIFIED. ) 
 CURVE ( )  GEOMETRIC_REPRESENTATION_ITEM ( )  RATIONAL_B_SPLINE_CURVE ( ( 1.000000000000000000, 0.8719242910552558179, 0.8719242910552558179, 1.000000000000000000 ) ) 
 REPRESENTATION_ITEM ( '' )  );
#648 = DIRECTION ( 'NONE',  ( 0.000000000000000000, 1.000000000000000000, 0.000000000000000000 ) ) ;
#649 = EDGE_CURVE ( 'NONE', #334, #869, #309, .T. ) ;
#650 = CARTESIAN_POINT ( 'NONE',  ( 5.216657324672714147, -3.950000000000000178, 3.766657324672714413 ) ) ;
#651 = AXIS2_PLACEMENT_3D ( 'NONE', #1072, #231, #29 ) ;
#652 = ORIENTED_EDGE ( 'NONE', *, *, #51, .T. ) ;
#653 = ADVANCED_FACE ( 'NONE', ( #689 ), #1068, .F. ) ;
#654 = DIRECTION ( 'NONE',  ( 1.000000000000000000, -0.000000000000000000, -1.315496626162566497E-16 ) ) ;
#655 = AXIS2_PLACEMENT_3D ( 'NONE', #124, #505, #304 ) ;
#656 = DIRECTION ( 'NONE',  ( 1.000000000000000000, 0.000000000000000000, 0.000000000000000000 ) ) ;
#657 = PLANE ( 'NONE',  #775 ) ;
#658 = FACE_OUTER_BOUND ( 'NONE', #314, .T. ) ;
#659 = ORIENTED_EDGE ( 'NONE', *, *, #780, .F. ) ;
#660 = EDGE_LOOP ( 'NONE', ( #1139, #279, #1234 ) ) ;
#661 = CARTESIAN_POINT ( 'NONE',  ( -6.015842531771759205, -0.9749999999999999778, -0.1061743881668752304 ) ) ;
#662 = CIRCLE ( 'NONE', #127, 0.1115000000000001684 ) ;
#663 = PLANE ( 'NONE',  #900 ) ;
#664 = CARTESIAN_POINT ( 'NONE',  ( -6.015842531771759205, -0.9749999999999999778, 6.876304330803690250E-16 ) ) ;
#665 = ORIENTED_EDGE ( 'NONE', *, *, #541, .F. ) ;
#666 = ORIENTED_EDGE ( 'NONE', *, *, #649, .T. ) ;
#667 = LINE ( 'NONE', #587, #1220 ) ;
#668 = FACE_OUTER_BOUND ( 'NONE', #382, .T. ) ;
#669 = DIRECTION ( 'NONE',  ( 0.000000000000000000, -1.000000000000000000, 6.070773319253918263E-15 ) ) ;
#670 = EDGE_CURVE ( 'NONE', #1102, #960, #858, .T. ) ;
#671 = CARTESIAN_POINT ( 'NONE',  ( -3.036174388166876792, -0.9749999999999999778, 4.565842531771759916 ) ) ;
#672 = ORIENTED_EDGE ( 'NONE', *, *, #337, .F. ) ;
#673 = AXIS2_PLACEMENT_3D ( 'NONE', #99, #195, #275 ) ;
#674 = ORIENTED_EDGE ( 'NONE', *, *, #966, .F. ) ;
#675 = CARTESIAN_POINT ( 'NONE',  ( 0.000000000000000000, -3.192942241045110485, -4.488390282026212041 ) ) ;
#676 = EDGE_CURVE ( 'NONE', #902, #22, #1002, .T. ) ;
#677 = CARTESIAN_POINT ( 'NONE',  ( -6.015842531771759205, -0.9749999999999999778, -2.843825611833124434 ) ) ;
#678 = CARTESIAN_POINT ( 'NONE',  ( 6.049890282026212596, 0.000000000000000000, 3.880328886572463443 ) ) ;
#679 = VERTEX_POINT ( 'NONE', #975 ) ;
#680 = ORIENTED_EDGE ( 'NONE', *, *, #649, .F. ) ;
#681 = PLANE ( 'NONE',  #80 ) ;
#682 = AXIS2_PLACEMENT_3D ( 'NONE', #552, #824, #1015 ) ;
#683 = VECTOR ( 'NONE', #597, 39.37007874015748143 ) ;
#684 = FACE_BOUND ( 'NONE', #245, .T. ) ;
#685 = CARTESIAN_POINT ( 'NONE',  ( -2.930000000000000604, -0.9749999999999999778, -4.599890282026211530 ) ) ;
#686 = ORIENTED_EDGE ( 'NONE', *, *, #583, .T. ) ;
#687 = VECTOR ( 'NONE', #693, 39.37007874015748143 ) ;
#688 = ORIENTED_EDGE ( 'NONE', *, *, #1154, .T. ) ;
#689 = FACE_OUTER_BOUND ( 'NONE', #607, .T. ) ;
#690 = ADVANCED_FACE ( 'NONE', ( #489 ), #681, .T. ) ;
#691 = DIRECTION ( 'NONE',  ( 4.047264445734902431E-16, -0.000000000000000000, 1.000000000000000000 ) ) ;
#692 = FACE_OUTER_BOUND ( 'NONE', #79, .T. ) ;
#693 = DIRECTION ( 'NONE',  ( 1.000000000000000000, 0.000000000000000000, -1.315496626162566497E-16 ) ) ;
#694 = EDGE_LOOP ( 'NONE', ( #249, #286, #175, #244 ) ) ;
#695 = AXIS2_PLACEMENT_3D ( 'NONE', #252, #1121, #1230 ) ;
#696 = ORIENTED_EDGE ( 'NONE', *, *, #644, .F. ) ;
#697 = VECTOR ( 'NONE', #536, 39.37007874015748854 ) ;
#698 = DIRECTION ( 'NONE',  ( 0.000000000000000000, 1.000000000000000000, 0.000000000000000000 ) ) ;
#699 = CARTESIAN_POINT ( 'NONE',  ( 6.015842531771758317, -0.9749999999999999778, -3.056174388166875033 ) ) ;
#700 = CARTESIAN_POINT ( 'NONE',  ( 3.036174388166875460, -0.9749999999999999778, 4.565842531771758139 ) ) ;
#701 =( GEOMETRIC_REPRESENTATION_CONTEXT ( 3 ) GLOBAL_UNCERTAINTY_ASSIGNED_CONTEXT ( ( #736 ) ) GLOBAL_UNIT_ASSIGNED_CONTEXT ( ( #738, #752, #1011 ) ) REPRESENTATION_CONTEXT ( 'NONE', 'WORKASPACE' ) );
#702 = ORIENTED_EDGE ( 'NONE', *, *, #182, .F. ) ;
#703 = CYLINDRICAL_SURFACE ( 'NONE', #717, 0.1115000000000001684 ) ;
#704 = AXIS2_PLACEMENT_3D ( 'NONE', #1030, #173, #555 ) ;
#705 = LINE ( 'NONE', #220, #1148 ) ;
#706 = EDGE_LOOP ( 'NONE', ( #822, #39 ) ) ;
#707 = EDGE_CURVE ( 'NONE', #862, #1008, #1153, .T. ) ;
#708 = DIRECTION ( 'NONE',  ( 0.000000000000000000, 0.000000000000000000, 1.000000000000000000 ) ) ;
#709 = DIRECTION ( 'NONE',  ( 0.000000000000000000, 1.000000000000000000, 0.000000000000000000 ) ) ;
#710 = EDGE_CURVE ( 'NONE', #344, #322, #667, .T. ) ;
#711 = EDGE_LOOP ( 'NONE', ( #86, #801 ) ) ;
#712 = AXIS2_PLACEMENT_3D ( 'NONE', #366, #542, #927 ) ;
#713 = EDGE_CURVE ( 'NONE', #538, #902, #969, .T. ) ;
#714 = CYLINDRICAL_SURFACE ( 'NONE', #1133, 0.1115000000000001684 ) ;
#715 = LINE ( 'NONE', #1174, #132 ) ;
#716 = ORIENTED_EDGE ( 'NONE', *, *, #583, .F. ) ;
#717 = AXIS2_PLACEMENT_3D ( 'NONE', #510, #1178, #48 ) ;
#718 = CARTESIAN_POINT ( 'NONE',  ( 4.955025002517477102E-16, -3.230000000000000426, 3.766657324672716634 ) ) ;
#719 = ADVANCED_FACE ( 'NONE', ( #363 ), #749, .T. ) ;
#720 = CARTESIAN_POINT ( 'NONE',  ( 5.330328886572463176, 0.000000000000000000, -4.599890282026212418 ) ) ;
#721 = DIRECTION ( 'NONE',  ( -1.000000000000000000, 0.000000000000000000, 1.595265256047970604E-16 ) ) ;
#722 = AXIS2_PLACEMENT_3D ( 'NONE', #481, #864, #949 ) ;
#723 = ORIENTED_EDGE ( 'NONE', *, *, #412, .T. ) ;
#724 = DIRECTION ( 'NONE',  ( 0.000000000000000000, 1.000000000000000000, 0.000000000000000000 ) ) ;
#725 = ADVANCED_FACE ( 'NONE', ( #1042 ), #549, .F. ) ;
#726 = CARTESIAN_POINT ( 'NONE',  ( -5.330328886572464064, 0.000000000000000000, 4.599890282026213306 ) ) ;
#727 = CARTESIAN_POINT ( 'NONE',  ( -2.930000000000000604, -0.9749999999999999778, -4.599890282026211530 ) ) ;
#728 = ORIENTED_EDGE ( 'NONE', *, *, #561, .F. ) ;
#729 = LINE ( 'NONE', #559, #622 ) ;
#730 =( BOUNDED_CURVE ( )  B_SPLINE_CURVE ( 3, ( #544, #1203, #348, #85 ),
 .UNSPECIFIED., .F., .T. ) 
 B_SPLINE_CURVE_WITH_KNOTS ( ( 4, 4 ),
 ( 5.498396131367748296, 7.067974482991422391 ),
 .UNSPECIFIED. ) 
 CURVE ( )  GEOMETRIC_REPRESENTATION_ITEM ( )  RATIONAL_B_SPLINE_CURVE ( ( 1.000000000000000000, 0.8050248461936597710, 0.8050248461936597710, 1.000000000000000000 ) ) 
 REPRESENTATION_ITEM ( '' )  );
#731 = CARTESIAN_POINT ( 'NONE',  ( 6.849890282026211530, -4.950000000000000178, 5.399890282026214017 ) ) ;
#732 = CARTESIAN_POINT ( 'NONE',  ( 2.929999999999999716, -3.494999999999999662, -4.599890282026211530 ) ) ;
#733 = FACE_BOUND ( 'NONE', #884, .T. ) ;
#734 = EDGE_LOOP ( 'NONE', ( #371, #940, #810 ) ) ;
#735 = EDGE_LOOP ( 'NONE', ( #1097, #1175, #908 ) ) ;
#736 = UNCERTAINTY_MEASURE_WITH_UNIT (LENGTH_MEASURE( 1.000000000000000082E-05 ), #738, 'distance_accuracy_value', 'NONE');
#737 = FACE_BOUND ( 'NONE', #509, .T. ) ;
#738 =( CONVERSION_BASED_UNIT ( 'INCH', #65 ) LENGTH_UNIT ( ) NAMED_UNIT ( #102 ) );
#739 = CARTESIAN_POINT ( 'NONE',  ( 2.929999999999999716, -3.192942241045114038, -4.488390282026212041 ) ) ;
#740 = DIRECTION ( 'NONE',  ( 0.000000000000000000, 0.9993908270190957621, -0.03489949670250096919 ) ) ;
#741 = VERTEX_POINT ( 'NONE', #1025 ) ;
#742 = CIRCLE ( 'NONE', #1115, 0.7199999999999999734 ) ;
#743 = FACE_BOUND ( 'NONE', #897, .T. ) ;
#744 = ADVANCED_FACE ( 'NONE', ( #276 ), #466, .T. ) ;
#745 = LINE ( 'NONE', #151, #850 ) ;
#746 = CARTESIAN_POINT ( 'NONE',  ( 6.015842531771758317, -0.9749999999999999778, 2.843825611833123990 ) ) ;
#747 =( BOUNDED_CURVE ( )  B_SPLINE_CURVE ( 3, ( #700, #1080, #603, #227 ),
 .UNSPECIFIED., .F., .T. ) 
 B_SPLINE_CURVE_WITH_KNOTS ( ( 4, 4 ),
 ( 1.881113828746390215, 4.402071478433196461 ),
 .UNSPECIFIED. ) 
 CURVE ( )  GEOMETRIC_REPRESENTATION_ITEM ( )  RATIONAL_B_SPLINE_CURVE ( ( 1.000000000000000000, 0.5369073258861181142, 0.5369073258861181142, 1.000000000000000000 ) ) 
 REPRESENTATION_ITEM ( '' )  );
#748 = EDGE_CURVE ( 'NONE', #599, #334, #730, .T. ) ;
#749 = CYLINDRICAL_SURFACE ( 'NONE', #1138, 0.1115000000000001684 ) ;
#750 = ORIENTED_EDGE ( 'NONE', *, *, #765, .T. ) ;
#751 = CARTESIAN_POINT ( 'NONE',  ( 5.216657324672715923, -3.230000000000000426, -3.766657324672714857 ) ) ;
#752 =( NAMED_UNIT ( * ) PLANE_ANGLE_UNIT ( ) SI_UNIT ( $, .RADIAN. ) );
#753 = CARTESIAN_POINT ( 'NONE',  ( -6.849890282026211530, 0.000000000000000000, 5.399890282026215793 ) ) ;
#754 = CIRCLE ( 'NONE', #673, 0.1115000000000001684 ) ;
#755 = ORIENTED_EDGE ( 'NONE', *, *, #303, .F. ) ;
#756 = ORIENTED_EDGE ( 'NONE', *, *, #561, .T. ) ;
#757 = CARTESIAN_POINT ( 'NONE',  ( -6.049890282026213484, -0.9749999999999999778, 0.000000000000000000 ) ) ;
#758 = LINE ( 'NONE', #1231, #483 ) ;
#759 = ADVANCED_FACE ( 'NONE', ( #760, #733, #284, #658 ), #846, .F. ) ;
#760 = FACE_BOUND ( 'NONE', #783, .T. ) ;
#761 = ORIENTED_EDGE ( 'NONE', *, *, #707, .T. ) ;
#762 = EDGE_LOOP ( 'NONE', ( #149, #1111 ) ) ;
#763 = FACE_BOUND ( 'NONE', #706, .T. ) ;
#764 = CIRCLE ( 'NONE', #722, 0.7199999999999999734 ) ;
#765 = EDGE_CURVE ( 'NONE', #383, #1205, #1038, .T. ) ;
#766 = CARTESIAN_POINT ( 'NONE',  ( -5.325827595071225495, -0.1289001235297209391, 4.595388990524973849 ) ) ;
#767 = DIRECTION ( 'NONE',  ( 0.000000000000000000, 0.000000000000000000, 1.000000000000000000 ) ) ;
#768 = ORIENTED_EDGE ( 'NONE', *, *, #170, .T. ) ;
#769 = EDGE_CURVE ( 'NONE', #545, #892, #953, .T. ) ;
#770 = ORIENTED_EDGE ( 'NONE', *, *, #4, .T. ) ;
#771 = PLANE ( 'NONE',  #918 ) ;
#772 = CARTESIAN_POINT ( 'NONE',  ( -5.216657324672716811, -3.230000000000000426, 3.766657324672716634 ) ) ;
#773 = CARTESIAN_POINT ( 'NONE',  ( 0.000000000000000000, -3.494999999999999662, -4.599890282026211530 ) ) ;
#774 = VERTEX_POINT ( 'NONE', #1109 ) ;
#775 = AXIS2_PLACEMENT_3D ( 'NONE', #484, #957, #1035 ) ;
#776 = ORIENTED_EDGE ( 'NONE', *, *, #710, .F. ) ;
#777 = CARTESIAN_POINT ( 'NONE',  ( -5.216657324672713258, -3.230000000000000426, -3.766657324672715745 ) ) ;
#778 = DIRECTION ( 'NONE',  ( 0.000000000000000000, 1.000000000000000000, 0.000000000000000000 ) ) ;
#779 = CARTESIAN_POINT ( 'NONE',  ( -2.002116815378433351E-16, -0.9749999999999999778, -4.565842531771758139 ) ) ;
#780 = EDGE_CURVE ( 'NONE', #893, #914, #180, .T. ) ;
#781 = AXIS2_PLACEMENT_3D ( 'NONE', #887, #1142, #289 ) ;
#782 = DIRECTION ( 'NONE',  ( -0.000000000000000000, -1.000000000000000000, -0.000000000000000000 ) ) ;
#783 = EDGE_LOOP ( 'NONE', ( #486, #488, #206 ) ) ;
#784 =( BOUNDED_CURVE ( )  B_SPLINE_CURVE ( 3, ( #1198, #907, #343, #43 ),
 .UNSPECIFIED., .F., .T. ) 
 B_SPLINE_CURVE_WITH_KNOTS ( ( 4, 4 ),
 ( 1.881113828746400651, 4.402071478433185803 ),
 .UNSPECIFIED. ) 
 CURVE ( )  GEOMETRIC_REPRESENTATION_ITEM ( )  RATIONAL_B_SPLINE_CURVE ( ( 1.000000000000000000, 0.5369073258861247755, 0.5369073258861247755, 1.000000000000000000 ) ) 
 REPRESENTATION_ITEM ( '' )  );
#785 = EDGE_LOOP ( 'NONE', ( #680, #688, #399, #1226 ) ) ;
#786 = CARTESIAN_POINT ( 'NONE',  ( 0.09083235307477161014, -2.345031375465703505, -4.517999981912658392 ) ) ;
#787 = VECTOR ( 'NONE', #593, 39.37007874015748143 ) ;
#788 = CARTESIAN_POINT ( 'NONE',  ( 5.216657324672715923, -3.230000000000000426, -5.962809559013027954E-16 ) ) ;
#789 = AXIS2_PLACEMENT_3D ( 'NONE', #772, #1055, #91 ) ;
#790 = DIRECTION ( 'NONE',  ( -1.000000000000000000, 0.000000000000000000, 1.595265256047970851E-16 ) ) ;
#791 = CARTESIAN_POINT ( 'NONE',  ( 2.929999999999999716, -0.9749999999999999778, -4.488390282026212041 ) ) ;
#792 = CARTESIAN_POINT ( 'NONE',  ( 6.849890282026211530, -23.39474842853496739, -5.399890282026214017 ) ) ;
#793 = EDGE_CURVE ( 'NONE', #424, #774, #930, .T. ) ;
#794 = ORIENTED_EDGE ( 'NONE', *, *, #169, .T. ) ;
#795 = APPLICATION_PROTOCOL_DEFINITION ( 'draft international standard', 'automotive_design', 1998, #929 ) ;
#796 = CARTESIAN_POINT ( 'NONE',  ( 6.049890282026212596, 0.000000000000000000, -3.880328886572462554 ) ) ;
#797 = CARTESIAN_POINT ( 'NONE',  ( 6.015842531771758317, -0.9749999999999999778, 2.843825611833123990 ) ) ;
#798 = EDGE_LOOP ( 'NONE', ( #1001, #1059, #643, #494 ) ) ;
#799 = LINE ( 'NONE', #808, #153 ) ;
#800 = ORIENTED_EDGE ( 'NONE', *, *, #793, .F. ) ;
#801 = ORIENTED_EDGE ( 'NONE', *, *, #490, .T. ) ;
#802 = EDGE_CURVE ( 'NONE', #1027, #467, #853, .T. ) ;
#803 = DIRECTION ( 'NONE',  ( 0.000000000000000000, 1.000000000000000000, 0.000000000000000000 ) ) ;
#804 = AXIS2_PLACEMENT_3D ( 'NONE', #18, #1189, #616 ) ;
#805 = ORIENTED_EDGE ( 'NONE', *, *, #445, .F. ) ;
#806 = ORIENTED_EDGE ( 'NONE', *, *, #1146, .T. ) ;
#807 = EDGE_CURVE ( 'NONE', #817, #890, #67, .T. ) ;
#808 = CARTESIAN_POINT ( 'NONE',  ( -5.936218720126466231, -3.255127637625801817, 6.915472766487956768E-16 ) ) ;
#809 = ORIENTED_EDGE ( 'NONE', *, *, #136, .T. ) ;
#810 = ORIENTED_EDGE ( 'NONE', *, *, #1054, .T. ) ;
#811 = AXIS2_PLACEMENT_3D ( 'NONE', #457, #163, #54 ) ;
#812 = DIRECTION ( 'NONE',  ( -1.143032633332327858E-16, -0.000000000000000000, -1.000000000000000000 ) ) ;
#813 = VECTOR ( 'NONE', #236, 39.37007874015748143 ) ;
#814 = CARTESIAN_POINT ( 'NONE',  ( 5.751944448902343687, 0.000000000000000000, -4.599890282026211530 ) ) ;
#815 = DIRECTION ( 'NONE',  ( 1.000000000000000000, -0.000000000000000000, -1.595265256047971097E-16 ) ) ;
#816 = EDGE_CURVE ( 'NONE', #679, #15, #539, .T. ) ;
#817 = VERTEX_POINT ( 'NONE', #453 ) ;
#818 = AXIS2_PLACEMENT_3D ( 'NONE', #1099, #440, #325 ) ;
#819 = DIRECTION ( 'NONE',  ( 0.000000000000000000, 1.000000000000000000, 0.000000000000000000 ) ) ;
#820 = LINE ( 'NONE', #921, #973 ) ;
#821 = AXIS2_PLACEMENT_3D ( 'NONE', #53, #444, #1200 ) ;
#822 = ORIENTED_EDGE ( 'NONE', *, *, #64, .F. ) ;
#823 = VERTEX_POINT ( 'NONE', #650 ) ;
#824 = DIRECTION ( 'NONE',  ( 0.000000000000000000, 1.000000000000000000, 0.000000000000000000 ) ) ;
#825 = CARTESIAN_POINT ( 'NONE',  ( 0.000000000000000000, -3.494999999999999662, -4.599890282026211530 ) ) ;
#826 = CARTESIAN_POINT ( 'NONE',  ( -3.020832353074772492, -2.345031375465712831, -4.517999981912659280 ) ) ;
#827 = LINE ( 'NONE', #13, #140 ) ;
#828 = EDGE_LOOP ( 'NONE', ( #369, #237, #454 ) ) ;
#829 = DIRECTION ( 'NONE',  ( 0.000000000000000000, 1.000000000000000000, 0.000000000000000000 ) ) ;
#830 = CARTESIAN_POINT ( 'NONE',  ( -0.05024228913761601828, -3.192942241045106488, -4.488390282026212041 ) ) ;
#831 = DIRECTION ( 'NONE',  ( 0.000000000000000000, 0.000000000000000000, 1.000000000000000000 ) ) ;
#832 = VERTEX_POINT ( 'NONE', #1019 ) ;
#833 = ADVANCED_FACE ( 'NONE', ( #1031 ), #556, .T. ) ;
#834 = CARTESIAN_POINT ( 'NONE',  ( 6.849890282026211530, -4.950000000000000178, 5.399890282026214017 ) ) ;
#835 = EDGE_CURVE ( 'NONE', #1073, #184, #554, .T. ) ;
#836 = PLANE ( 'NONE',  #712 ) ;
#837 = DIRECTION ( 'NONE',  ( 0.000000000000000000, 0.000000000000000000, 1.000000000000000000 ) ) ;
#838 = DIRECTION ( 'NONE',  ( 0.000000000000000000, 0.000000000000000000, 1.000000000000000000 ) ) ;
#839 = ORIENTED_EDGE ( 'NONE', *, *, #537, .T. ) ;
#840 = AXIS2_PLACEMENT_3D ( 'NONE', #1232, #568, #838 ) ;
#841 = AXIS2_PLACEMENT_3D ( 'NONE', #311, #698, #302 ) ;
#842 = ORIENTED_EDGE ( 'NONE', *, *, #748, .F. ) ;
#843 = FACE_OUTER_BOUND ( 'NONE', #586, .T. ) ;
#844 = LINE ( 'NONE', #172, #950 ) ;
#845 = SPHERICAL_SURFACE ( 'NONE', #63, 0.7199999999999999734 ) ;
#846 = PLANE ( 'NONE',  #938 ) ;
#847 = ORIENTED_EDGE ( 'NONE', *, *, #1154, .F. ) ;
#848 = ORIENTED_EDGE ( 'NONE', *, *, #1101, .F. ) ;
#849 = CARTESIAN_POINT ( 'NONE',  ( -2.879757710862384190, -3.192942241045122476, -4.488390282026212041 ) ) ;
#850 = VECTOR ( 'NONE', #267, 39.37007874015748143 ) ;
#851 = FACE_OUTER_BOUND ( 'NONE', #319, .T. ) ;
#852 = SPHERICAL_SURFACE ( 'NONE', #789, 0.7199999999999999734 ) ;
#853 = LINE ( 'NONE', #636, #410 ) ;
#854 = VECTOR ( 'NONE', #1007, 39.37007874015748143 ) ;
#855 = ORIENTED_EDGE ( 'NONE', *, *, #537, .F. ) ;
#856 = EDGE_CURVE ( 'NONE', #1086, #823, #827, .T. ) ;
#857 = ORIENTED_EDGE ( 'NONE', *, *, #307, .T. ) ;
#858 = LINE ( 'NONE', #214, #787 ) ;
#859 = AXIS2_PLACEMENT_3D ( 'NONE', #999, #803, #1094 ) ;
#860 = DIRECTION ( 'NONE',  ( 0.000000000000000000, 1.000000000000000000, 0.000000000000000000 ) ) ;
#861 = CARTESIAN_POINT ( 'NONE',  ( 5.216657324672713258, -3.255127637625801373, 4.486218720126464277 ) ) ;
#862 = VERTEX_POINT ( 'NONE', #699 ) ;
#863 = ORIENTED_EDGE ( 'NONE', *, *, #612, .F. ) ;
#864 = DIRECTION ( 'NONE',  ( -0.000000000000000000, -0.000000000000000000, -1.000000000000000000 ) ) ;
#865 = CYLINDRICAL_SURFACE ( 'NONE', #192, 0.1115000000000001684 ) ;
#866 = LINE ( 'NONE', #766, #1161 ) ;
#867 = CARTESIAN_POINT ( 'NONE',  ( 3.036174388166875460, -0.9749999999999999778, -4.565842531771758139 ) ) ;
#868 = ORIENTED_EDGE ( 'NONE', *, *, #352, .T. ) ;
#869 = VERTEX_POINT ( 'NONE', #1164 ) ;
#870 = CARTESIAN_POINT ( 'NONE',  ( 0.1061743881668755773, -0.9749999999999999778, -4.565842531771758139 ) ) ;
#871 = ADVANCED_FACE ( 'NONE', ( #312 ), #25, .T. ) ;
#872 = DIRECTION ( 'NONE',  ( 0.000000000000000000, 0.000000000000000000, -1.000000000000000000 ) ) ;
#873 = CARTESIAN_POINT ( 'NONE',  ( -6.229999999999999538, 0.000000000000000000, 4.599890282026213306 ) ) ;
#874 = ORIENTED_EDGE ( 'NONE', *, *, #1167, .F. ) ;
#875 = ORIENTED_EDGE ( 'NONE', *, *, #1196, .T. ) ;
#876 = DIRECTION ( 'NONE',  ( 1.595265256047971097E-16, -0.000000000000000000, 1.000000000000000000 ) ) ;
#877 = EDGE_CURVE ( 'NONE', #130, #1073, #398, .T. ) ;
#878 = DIRECTION ( 'NONE',  ( 0.000000000000000000, 0.000000000000000000, 1.000000000000000000 ) ) ;
#879 = DIRECTION ( 'NONE',  ( -1.595265256047970851E-16, 0.000000000000000000, -1.000000000000000000 ) ) ;
#880 = CIRCLE ( 'NONE', #501, 0.1115000000000001684 ) ;
#881 = PRODUCT_DEFINITION ( 'UNKNOWN', '', #389, #357 ) ;
#882 = DIRECTION ( 'NONE',  ( 0.000000000000000000, 0.000000000000000000, 1.000000000000000000 ) ) ;
#883 = CARTESIAN_POINT ( 'NONE',  ( 2.929999999999999716, -0.9749999999999999778, -4.599890282026211530 ) ) ;
#884 = EDGE_LOOP ( 'NONE', ( #1152, #937, #768 ) ) ;
#885 = DIRECTION ( 'NONE',  ( 1.000000000000000000, 0.000000000000000000, 0.000000000000000000 ) ) ;
#886 = FACE_BOUND ( 'NONE', #460, .T. ) ;
#887 = CARTESIAN_POINT ( 'NONE',  ( 2.929999999999999716, -0.9749999999999999778, 4.599890282026211530 ) ) ;
#888 = CARTESIAN_POINT ( 'NONE',  ( 6.015842531771758317, -0.9749999999999999778, -2.843825611833123990 ) ) ;
#889 = VECTOR ( 'NONE', #207, 39.37007874015748143 ) ;
#890 = VERTEX_POINT ( 'NONE', #1065 ) ;
#891 = CARTESIAN_POINT ( 'NONE',  ( 6.015842531771758317, -0.9749999999999999778, -2.843825611833123990 ) ) ;
#892 = VERTEX_POINT ( 'NONE', #116 ) ;
#893 = VERTEX_POINT ( 'NONE', #108 ) ;
#894 = EDGE_CURVE ( 'NONE', #890, #817, #662, .T. ) ;
#895 = CARTESIAN_POINT ( 'NONE',  ( -5.216657324672715923, -3.229999999999999538, -3.766657324672714857 ) ) ;
#896 = EDGE_CURVE ( 'NONE', #564, #1238, #202, .T. ) ;
#897 = EDGE_LOOP ( 'NONE', ( #761, #1159 ) ) ;
#898 = ORIENTED_EDGE ( 'NONE', *, *, #205, .T. ) ;
#899 = DIRECTION ( 'NONE',  ( -0.000000000000000000, -1.000000000000000000, -0.000000000000000000 ) ) ;
#900 = AXIS2_PLACEMENT_3D ( 'NONE', #201, #107, #872 ) ;
#901 = ORIENTED_EDGE ( 'NONE', *, *, #34, .F. ) ;
#902 = VERTEX_POINT ( 'NONE', #971 ) ;
#903 = DIRECTION ( 'NONE',  ( -1.143032633332327858E-16, 0.000000000000000000, -1.000000000000000000 ) ) ;
#904 = EDGE_CURVE ( 'NONE', #15, #190, #16, .T. ) ;
#905 = ADVANCED_FACE ( 'NONE', ( #477 ), #575, .F. ) ;
#906 = SURFACE_SIDE_STYLE ('',( #617 ) ) ;
#907 = CARTESIAN_POINT ( 'NONE',  ( -5.890304857713481113, -4.569928630880946585, 3.015917265449639562 ) ) ;
#908 = ORIENTED_EDGE ( 'NONE', *, *, #1204, .F. ) ;
#909 = DIRECTION ( 'NONE',  ( -1.000000000000000000, 0.000000000000000000, 1.315496626162566497E-16 ) ) ;
#910 = DIRECTION ( 'NONE',  ( 1.141640448309238629E-16, 3.986696293786245739E-18, 1.000000000000000000 ) ) ;
#911 = DIRECTION ( 'NONE',  ( 0.000000000000000000, 1.000000000000000000, 0.000000000000000000 ) ) ;
#912 = EDGE_LOOP ( 'NONE', ( #436, #377, #666, #529 ) ) ;
#913 = AXIS2_PLACEMENT_3D ( 'NONE', #895, #623, #422 ) ;
#914 = VERTEX_POINT ( 'NONE', #671 ) ;
#915 = DIRECTION ( 'NONE',  ( 0.000000000000000000, 1.000000000000000000, 0.000000000000000000 ) ) ;
#916 = FACE_OUTER_BOUND ( 'NONE', #87, .T. ) ;
#917 = LINE ( 'NONE', #452, #1010 ) ;
#918 = AXIS2_PLACEMENT_3D ( 'NONE', #1052, #191, #391 ) ;
#919 = ORIENTED_EDGE ( 'NONE', *, *, #769, .T. ) ;
#920 = FACE_OUTER_BOUND ( 'NONE', #625, .T. ) ;
#921 = CARTESIAN_POINT ( 'NONE',  ( 6.849890282026211530, 0.000000000000000000, 5.399890282026214017 ) ) ;
#922 = CARTESIAN_POINT ( 'NONE',  ( 6.849890282026211530, -23.39474842853496739, 5.399890282026214017 ) ) ;
#923 = ORIENTED_EDGE ( 'NONE', *, *, #34, .T. ) ;
#924 = ORIENTED_EDGE ( 'NONE', *, *, #856, .F. ) ;
#925 = EDGE_CURVE ( 'NONE', #298, #27, #880, .T. ) ;
#926 = VECTOR ( 'NONE', #1083, 39.37007874015748854 ) ;
#927 = DIRECTION ( 'NONE',  ( 0.000000000000000000, 0.000000000000000000, -1.000000000000000000 ) ) ;
#928 = CARTESIAN_POINT ( 'NONE',  ( -0.1061743881668755773, -0.9749999999999999778, -4.565842531771758139 ) ) ;
#929 = APPLICATION_CONTEXT ( 'automotive_design' ) ;
#930 = LINE ( 'NONE', #664, #562 ) ;
#931 = ADVANCED_FACE ( 'NONE', ( #964 ), #296, .T. ) ;
#932 = ORIENTED_EDGE ( 'NONE', *, *, #21, .F. ) ;
#933 = CARTESIAN_POINT ( 'NONE',  ( -2.930000000000000604, -3.192942241045121587, -4.488390282026211153 ) ) ;
#934 = DIRECTION ( 'NONE',  ( 1.000000000000000000, 0.000000000000000000, -1.595265256047970851E-16 ) ) ;
#935 = LINE ( 'NONE', #218, #522 ) ;
#936 = DIRECTION ( 'NONE',  ( 0.000000000000000000, 1.000000000000000000, 0.000000000000000000 ) ) ;
#937 = ORIENTED_EDGE ( 'NONE', *, *, #558, .T. ) ;
#938 = AXIS2_PLACEMENT_3D ( 'NONE', #1225, #946, #740 ) ;
#939 = AXIS2_PLACEMENT_3D ( 'NONE', #546, #654, #155 ) ;
#940 = ORIENTED_EDGE ( 'NONE', *, *, #676, .T. ) ;
#941 = CARTESIAN_POINT ( 'NONE',  ( -2.839167646925228272, -2.345031375465712831, -4.517999981912659280 ) ) ;
#942 = VECTOR ( 'NONE', #60, 39.37007874015748143 ) ;
#943 = DIRECTION ( 'NONE',  ( -0.000000000000000000, -0.000000000000000000, -1.000000000000000000 ) ) ;
#944 = FACE_OUTER_BOUND ( 'NONE', #221, .T. ) ;
#945 = EDGE_CURVE ( 'NONE', #467, #291, #3, .T. ) ;
#946 = DIRECTION ( 'NONE',  ( -4.382317537204793367E-17, -0.03489949670250096919, -0.9993908270190957621 ) ) ;
#947 = ORIENTED_EDGE ( 'NONE', *, *, #301, .T. ) ;
#948 = ORIENTED_EDGE ( 'NONE', *, *, #170, .F. ) ;
#949 = DIRECTION ( 'NONE',  ( 1.000000000000000000, 0.000000000000000000, 0.000000000000000000 ) ) ;
#950 = VECTOR ( 'NONE', #934, 39.37007874015748143 ) ;
#951 = CARTESIAN_POINT ( 'NONE',  ( -6.049890282026213484, 0.000000000000000000, 3.880328886572464331 ) ) ;
#952 = CARTESIAN_POINT ( 'NONE',  ( 2.929999999999999716, -3.192942241045114038, -4.488390282026212041 ) ) ;
#953 = LINE ( 'NONE', #922, #942 ) ;
#954 = EDGE_LOOP ( 'NONE', ( #932, #1078, #349, #776 ) ) ;
#955 = EDGE_LOOP ( 'NONE', ( #585, #723, #213, #1026 ) ) ;
#956 = DIRECTION ( 'NONE',  ( 1.314695261161437456E-16, -0.03489949670250096919, 0.9993908270190957621 ) ) ;
#957 = DIRECTION ( 'NONE',  ( 0.000000000000000000, 1.000000000000000000, 0.000000000000000000 ) ) ;
#958 = VERTEX_POINT ( 'NONE', #791 ) ;
#959 = EDGE_CURVE ( 'NONE', #958, #467, #222, .T. ) ;
#960 = VERTEX_POINT ( 'NONE', #861 ) ;
#961 = CARTESIAN_POINT ( 'NONE',  ( 6.045388990524973138, -0.1289001235297208281, -3.875827595071223541 ) ) ;
#962 = AXIS2_PLACEMENT_3D ( 'NONE', #1221, #540, #1040 ) ;
#963 = LINE ( 'NONE', #1048, #1062 ) ;
#964 = FACE_OUTER_BOUND ( 'NONE', #1219, .T. ) ;
#965 = ORIENTED_EDGE ( 'NONE', *, *, #676, .F. ) ;
#966 = EDGE_CURVE ( 'NONE', #257, #741, #42, .T. ) ;
#967 = ADVANCED_FACE ( 'NONE', ( #210 ), #590, .T. ) ;
#968 = EDGE_LOOP ( 'NONE', ( #855, #416 ) ) ;
#969 = LINE ( 'NONE', #111, #379 ) ;
#970 = DIRECTION ( 'NONE',  ( 0.000000000000000000, -0.000000000000000000, 1.000000000000000000 ) ) ;
#971 = CARTESIAN_POINT ( 'NONE',  ( -5.216657324672715923, -3.950000000000000178, -3.766657324672715745 ) ) ;
#972 = ORIENTED_EDGE ( 'NONE', *, *, #904, .F. ) ;
#973 = VECTOR ( 'NONE', #815, 39.37007874015748143 ) ;
#974 = EDGE_LOOP ( 'NONE', ( #285, #839 ) ) ;
#975 = CARTESIAN_POINT ( 'NONE',  ( -0.1061743881668755773, -0.9749999999999999778, -4.565842531771758139 ) ) ;
#976 = CARTESIAN_POINT ( 'NONE',  ( 6.015842531771758317, -0.9749999999999999778, 0.1061743881668752304 ) ) ;
#977 = DIRECTION ( 'NONE',  ( 0.000000000000000000, 0.000000000000000000, 1.000000000000000000 ) ) ;
#978 = AXIS2_PLACEMENT_3D ( 'NONE', #28, #342, #708 ) ;
#979 = DIRECTION ( 'NONE',  ( 0.000000000000000000, -0.000000000000000000, 1.000000000000000000 ) ) ;
#980 = DIRECTION ( 'NONE',  ( 1.143032633332327858E-16, 0.000000000000000000, 1.000000000000000000 ) ) ;
#981 = ORIENTED_EDGE ( 'NONE', *, *, #1182, .T. ) ;
#982 = ADVANCED_FACE ( 'NONE', ( #1049 ), #1079, .F. ) ;
#983 = AXIS2_PLACEMENT_3D ( 'NONE', #1209, #255, #355 ) ;
#984 = CARTESIAN_POINT ( 'NONE',  ( 5.890304857713480224, -4.569928630880987441, 2.884082734550359461 ) ) ;
#985 = DIRECTION ( 'NONE',  ( -4.047264445734902431E-16, 0.000000000000000000, -1.000000000000000000 ) ) ;
#986 = ADVANCED_FACE ( 'NONE', ( #6 ), #703, .T. ) ;
#987 = VERTEX_POINT ( 'NONE', #531 ) ;
#988 = EDGE_CURVE ( 'NONE', #1238, #564, #428, .T. ) ;
#989 = DIRECTION ( 'NONE',  ( -1.143032633332327858E-16, 0.000000000000000000, -1.000000000000000000 ) ) ;
#990 = FACE_OUTER_BOUND ( 'NONE', #557, .T. ) ;
#991 = EDGE_LOOP ( 'NONE', ( #965, #608, #126, #857 ) ) ;
#992 = VECTOR ( 'NONE', #354, 39.37007874015748143 ) ;
#993 =( BOUNDED_CURVE ( )  B_SPLINE_CURVE ( 3, ( #739, #1100, #49, #248 ),
 .UNSPECIFIED., .F., .T. ) 
 B_SPLINE_CURVE_WITH_KNOTS ( ( 4, 4 ),
 ( 3.141592653589793116, 4.402071478433196461 ),
 .UNSPECIFIED. ) 
 CURVE ( )  GEOMETRIC_REPRESENTATION_ITEM ( )  RATIONAL_B_SPLINE_CURVE ( ( 1.000000000000000000, 0.8719242910552553738, 0.8719242910552553738, 1.000000000000000000 ) ) 
 REPRESENTATION_ITEM ( '' )  );
#994 = FACE_OUTER_BOUND ( 'NONE', #277, .T. ) ;
#995 = DIRECTION ( 'NONE',  ( 0.000000000000000000, 1.000000000000000000, 0.000000000000000000 ) ) ;
#996 = ORIENTED_EDGE ( 'NONE', *, *, #123, .T. ) ;
#997 = EDGE_CURVE ( 'NONE', #869, #57, #799, .T. ) ;
#998 = LINE ( 'NONE', #779, #683 ) ;
#999 = CARTESIAN_POINT ( 'NONE',  ( 5.216657324672714147, -3.230000000000000426, 3.766657324672715745 ) ) ;
#1000 = CIRCLE ( 'NONE', #103, 0.1115000000000000158 ) ;
#1001 = ORIENTED_EDGE ( 'NONE', *, *, #295, .F. ) ;
#1002 = CIRCLE ( 'NONE', #560, 0.7199999999999999734 ) ;
#1003 = ADVANCED_FACE ( 'NONE', ( #514 ), #1183, .T. ) ;
#1004 = FACE_OUTER_BOUND ( 'NONE', #1110, .T. ) ;
#1005 = ADVANCED_FACE ( 'NONE', ( #994 ), #329, .F. ) ;
#1006 = DIRECTION ( 'NONE',  ( 0.000000000000000000, 0.000000000000000000, -1.000000000000000000 ) ) ;
#1007 = DIRECTION ( 'NONE',  ( -0.000000000000000000, 0.000000000000000000, 1.000000000000000000 ) ) ;
#1008 = VERTEX_POINT ( 'NONE', #891 ) ;
#1009 = CARTESIAN_POINT ( 'NONE',  ( -2.930000000000000604, -3.494999999999999662, 4.599890282026211530 ) ) ;
#1010 = VECTOR ( 'NONE', #721, 39.37007874015748143 ) ;
#1011 =( NAMED_UNIT ( * ) SI_UNIT ( $, .STERADIAN. ) SOLID_ANGLE_UNIT ( ) );
#1012 = DIRECTION ( 'NONE',  ( 0.000000000000000000, 0.000000000000000000, -1.000000000000000000 ) ) ;
#1013 = EDGE_LOOP ( 'NONE', ( #144, #520 ) ) ;
#1014 = AXIS2_PLACEMENT_3D ( 'NONE', #432, #989, #131 ) ;
#1015 = DIRECTION ( 'NONE',  ( 0.000000000000000000, 0.000000000000000000, 1.000000000000000000 ) ) ;
#1016 = DIRECTION ( 'NONE',  ( -1.000000000000000000, 0.000000000000000000, 1.595265256047971097E-16 ) ) ;
#1017 = EDGE_CURVE ( 'NONE', #184, #7, #1190, .T. ) ;
#1018 = CARTESIAN_POINT ( 'NONE',  ( 6.049890282026212596, 0.000000000000000000, 3.880328886572463443 ) ) ;
#1019 = CARTESIAN_POINT ( 'NONE',  ( 6.849890282026211530, 0.000000000000000000, -5.399890282026214017 ) ) ;
#1020 = EDGE_LOOP ( 'NONE', ( #110, #81, #9 ) ) ;
#1021 = SPHERICAL_SURFACE ( 'NONE', #323, 0.7199999999999999734 ) ;
#1022 = EDGE_CURVE ( 'NONE', #401, #181, #437, .T. ) ;
#1023 = CARTESIAN_POINT ( 'NONE',  ( 6.049890282026212596, -3.494999999999999662, 2.949999999999999289 ) ) ;
#1024 = CARTESIAN_POINT ( 'NONE',  ( -5.890304857713481113, -4.569928630880958131, -0.06591726544963974477 ) ) ;
#1025 = CARTESIAN_POINT ( 'NONE',  ( 6.015842531771758317, -0.9749999999999999778, 3.056174388166875033 ) ) ;
#1026 = ORIENTED_EDGE ( 'NONE', *, *, #215, .F. ) ;
#1027 = VERTEX_POINT ( 'NONE', #31 ) ;
#1028 = DIRECTION ( 'NONE',  ( -0.9993908270190956511, -0.03489949670250097613, 0.000000000000000000 ) ) ;
#1029 = CARTESIAN_POINT ( 'NONE',  ( -6.015842531771759205, -0.9749999999999999778, 3.056174388166875477 ) ) ;
#1030 = CARTESIAN_POINT ( 'NONE',  ( -5.216657324672716811, -3.230000000000000426, 3.766657324672715745 ) ) ;
#1031 = FACE_OUTER_BOUND ( 'NONE', #762, .T. ) ;
#1032 = ORIENTED_EDGE ( 'NONE', *, *, #160, .F. ) ;
#1033 = CARTESIAN_POINT ( 'NONE',  ( -6.049890282026213484, -3.494999999999999662, 0.000000000000000000 ) ) ;
#1034 = LINE ( 'NONE', #59, #1103 ) ;
#1035 = DIRECTION ( 'NONE',  ( 0.000000000000000000, -0.000000000000000000, 1.000000000000000000 ) ) ;
#1036 = CARTESIAN_POINT ( 'NONE',  ( 6.006350446135299808E-16, -0.9749999999999999778, 4.565842531771759027 ) ) ;
#1037 = ORIENTED_EDGE ( 'NONE', *, *, #1022, .T. ) ;
#1038 = CIRCLE ( 'NONE', #525, 0.7199999999999997513 ) ;
#1039 = ORIENTED_EDGE ( 'NONE', *, *, #1182, .F. ) ;
#1040 = DIRECTION ( 'NONE',  ( 0.03489949670250096919, 0.9993908270190957621, 0.000000000000000000 ) ) ;
#1041 = CARTESIAN_POINT ( 'NONE',  ( 2.929999999999999716, -3.494999999999999662, -4.488390282026212041 ) ) ;
#1042 = FACE_OUTER_BOUND ( 'NONE', #350, .T. ) ;
#1043 = ORIENTED_EDGE ( 'NONE', *, *, #710, .T. ) ;
#1044 = PRODUCT_DEFINITION_SHAPE ( 'NONE', 'NONE',  #881 ) ;
#1045 = ORIENTED_EDGE ( 'NONE', *, *, #240, .T. ) ;
#1046 = PLANE ( 'NONE',  #242 ) ;
#1047 =( NAMED_UNIT ( * ) SI_UNIT ( $, .STERADIAN. ) SOLID_ANGLE_UNIT ( ) );
#1048 = CARTESIAN_POINT ( 'NONE',  ( -2.017142908682670224E-16, -3.255127637625801373, -4.486218720126464277 ) ) ;
#1049 = FACE_OUTER_BOUND ( 'NONE', #118, .T. ) ;
#1050 = ORIENTED_EDGE ( 'NONE', *, *, #51, .F. ) ;
#1051 = EDGE_LOOP ( 'NONE', ( #70, #1, #592, #133 ) ) ;
#1052 = CARTESIAN_POINT ( 'NONE',  ( -2.930000000000000604, -0.9749999999999999778, -4.599890282026211530 ) ) ;
#1053 = APPLICATION_PROTOCOL_DEFINITION ( 'draft international standard', 'automotive_design', 1998, #332 ) ;
#1054 = EDGE_CURVE ( 'NONE', #22, #869, #479, .T. ) ;
#1055 = DIRECTION ( 'NONE',  ( 0.000000000000000000, 1.000000000000000000, 0.000000000000000000 ) ) ;
#1056 = EDGE_CURVE ( 'NONE', #424, #774, #400, .T. ) ;
#1057 = DIRECTION ( 'NONE',  ( 0.000000000000000000, 0.000000000000000000, -1.000000000000000000 ) ) ;
#1058 = ORIENTED_EDGE ( 'NONE', *, *, #392, .F. ) ;
#1059 = ORIENTED_EDGE ( 'NONE', *, *, #877, .T. ) ;
#1060 = DIRECTION ( 'NONE',  ( 1.000000000000000000, 0.000000000000000000, -1.595265256047971097E-16 ) ) ;
#1061 = AXIS2_PLACEMENT_3D ( 'NONE', #1227, #646, #1028 ) ;
#1062 = VECTOR ( 'NONE', #186, 39.37007874015748143 ) ;
#1063 = CARTESIAN_POINT ( 'NONE',  ( -2.930000000000000604, -3.494999999999999662, -4.488390282026211153 ) ) ;
#1064 = CARTESIAN_POINT ( 'NONE',  ( -6.229999999999999538, -3.950000000000000178, 3.766657324672715745 ) ) ;
#1065 = CARTESIAN_POINT ( 'NONE',  ( 2.823825611833123528, -0.9749999999999999778, 4.565842531771758139 ) ) ;
#1066 = ORIENTED_EDGE ( 'NONE', *, *, #896, .T. ) ;
#1067 = EDGE_LOOP ( 'NONE', ( #339, #605, #472 ) ) ;
#1068 = PLANE ( 'NONE',  #1195 ) ;
#1069 = CARTESIAN_POINT ( 'NONE',  ( -2.930000000000000604, -3.494999999999999662, -4.599890282026211530 ) ) ;
#1070 = CARTESIAN_POINT ( 'NONE',  ( 6.049890282026213484, 0.000000000000000000, 4.780000000000000249 ) ) ;
#1071 = CARTESIAN_POINT ( 'NONE',  ( 6.015842531771758317, -0.9749999999999999778, -6.876304330803689264E-16 ) ) ;
#1072 = CARTESIAN_POINT ( 'NONE',  ( 6.049890282026212596, -3.494999999999999662, 0.000000000000000000 ) ) ;
#1073 = VERTEX_POINT ( 'NONE', #1082 ) ;
#1074 = EDGE_CURVE ( 'NONE', #1233, #130, #511, .T. ) ;
#1075 = DIRECTION ( 'NONE',  ( 0.000000000000000000, 1.000000000000000000, 0.000000000000000000 ) ) ;
#1076 = AXIS2_PLACEMENT_3D ( 'NONE', #485, #219, #598 ) ;
#1077 = ORIENTED_EDGE ( 'NONE', *, *, #295, .T. ) ;
#1078 = ORIENTED_EDGE ( 'NONE', *, *, #612, .T. ) ;
#1079 = SPHERICAL_SURFACE ( 'NONE', #859, 0.7199999999999999734 ) ;
#1080 = CARTESIAN_POINT ( 'NONE',  ( 2.995917265449639544, -4.569928630881013198, 4.440304857713477382 ) ) ;
#1081 = ORIENTED_EDGE ( 'NONE', *, *, #307, .F. ) ;
#1082 = CARTESIAN_POINT ( 'NONE',  ( 5.330328886572462288, 0.000000000000000000, 4.599890282026211530 ) ) ;
#1083 = DIRECTION ( 'NONE',  ( -0.03487826274237461333, -0.9987827659587182882, 0.03487826274237462026 ) ) ;
#1084 = AXIS2_PLACEMENT_3D ( 'NONE', #825, #634, #1223 ) ;
#1085 = ADVANCED_FACE ( 'NONE', ( #630 ), #714, .T. ) ;
#1086 = VERTEX_POINT ( 'NONE', #142 ) ;
#1087 = AXIS2_PLACEMENT_3D ( 'NONE', #519, #38, #591 ) ;
#1088 = FILL_AREA_STYLE_COLOUR ( '', #439 ) ;
#1089 = EDGE_CURVE ( 'NONE', #741, #257, #1172, .T. ) ;
#1090 = CARTESIAN_POINT ( 'NONE',  ( -6.015842531771759205, -0.9749999999999999778, 0.1061743881668752304 ) ) ;
#1091 = ORIENTED_EDGE ( 'NONE', *, *, #802, .F. ) ;
#1092 = CARTESIAN_POINT ( 'NONE',  ( 5.936218720126464454, -3.255127637625801817, -3.766657324672714413 ) ) ;
#1093 = MANIFOLD_SOLID_BREP ( 'Combine6', #497 ) ;
#1094 = DIRECTION ( 'NONE',  ( 1.000000000000000000, 0.000000000000000000, 0.000000000000000000 ) ) ;
#1095 = AXIS2_PLACEMENT_3D ( 'NONE', #234, #812, #141 ) ;
#1096 = CARTESIAN_POINT ( 'NONE',  ( 0.000000000000000000, -3.192942241045110485, -4.488390282026212041 ) ) ;
#1097 = ORIENTED_EDGE ( 'NONE', *, *, #100, .F. ) ;
#1098 = DIRECTION ( 'NONE',  ( 0.000000000000000000, 0.000000000000000000, 1.000000000000000000 ) ) ;
#1099 = CARTESIAN_POINT ( 'NONE',  ( 6.049890282026212596, -0.9749999999999999778, -2.949999999999999289 ) ) ;
#1100 = CARTESIAN_POINT ( 'NONE',  ( 2.879757710862384190, -3.192942241045115370, -4.488390282026212041 ) ) ;
#1101 = EDGE_CURVE ( 'NONE', #383, #1086, #97, .T. ) ;
#1102 = VERTEX_POINT ( 'NONE', #1207 ) ;
#1103 = VECTOR ( 'NONE', #282, 39.37007874015748143 ) ;
#1104 = UNCERTAINTY_MEASURE_WITH_UNIT (LENGTH_MEASURE( 1.000000000000000082E-05 ), #121, 'distance_accuracy_value', 'NONE');
#1105 = CARTESIAN_POINT ( 'NONE',  ( 0.000000000000000000, 0.000000000000000000, 0.000000000000000000 ) ) ;
#1106 = ADVANCED_FACE ( 'NONE', ( #535 ), #1214, .F. ) ;
#1107 = FACE_OUTER_BOUND ( 'NONE', #1051, .T. ) ;
#1108 = DIRECTION ( 'NONE',  ( 1.000000000000000000, 0.000000000000000000, -4.384988753875223300E-17 ) ) ;
#1109 = CARTESIAN_POINT ( 'NONE',  ( -6.015842531771759205, -0.9749999999999999778, -3.056174388166875477 ) ) ;
#1110 = EDGE_LOOP ( 'NONE', ( #495, #1043, #1193, #901 ) ) ;
#1111 = ORIENTED_EDGE ( 'NONE', *, *, #64, .T. ) ;
#1112 = ADVANCED_FACE ( 'NONE', ( #851 ), #178, .T. ) ;
#1113 = CARTESIAN_POINT ( 'NONE',  ( -3.036174388166876792, -0.9749999999999999778, 4.565842531771759916 ) ) ;
#1114 = CARTESIAN_POINT ( 'NONE',  ( 5.324063679913931146, -0.1542844071177327525, 3.874063679913931413 ) ) ;
#1115 = AXIS2_PLACEMENT_3D ( 'NONE', #288, #76, #669 ) ;
#1116 = CARTESIAN_POINT ( 'NONE',  ( 5.216657324672715923, -3.230000000000000426, -3.766657324672714857 ) ) ;
#1117 =( BOUNDED_CURVE ( )  B_SPLINE_CURVE ( 3, ( #1208, #1024, #447, #1090 ),
 .UNSPECIFIED., .F., .T. ) 
 B_SPLINE_CURVE_WITH_KNOTS ( ( 4, 4 ),
 ( 1.881113828746397765, 4.402071478433188467 ),
 .UNSPECIFIED. ) 
 CURVE ( )  GEOMETRIC_REPRESENTATION_ITEM ( )  RATIONAL_B_SPLINE_CURVE ( ( 1.000000000000000000, 0.5369073258861232212, 0.5369073258861232212, 1.000000000000000000 ) ) 
 REPRESENTATION_ITEM ( '' )  );
#1118 = ORIENTED_EDGE ( 'NONE', *, *, #959, .T. ) ;
#1119 = ORIENTED_EDGE ( 'NONE', *, *, #610, .T. ) ;
#1120 = PLANE ( 'NONE',  #506 ) ;
#1121 = DIRECTION ( 'NONE',  ( 0.000000000000000000, 1.000000000000000000, 0.000000000000000000 ) ) ;
#1122 = CARTESIAN_POINT ( 'NONE',  ( -6.049890282026213484, 0.000000000000000000, -3.880328886572462554 ) ) ;
#1123 = CARTESIAN_POINT ( 'NONE',  ( -2.930000000000000604, -3.494999999999999662, -4.599890282026211530 ) ) ;
#1124 = EDGE_LOOP ( 'NONE', ( #809, #898 ) ) ;
#1125 = CYLINDRICAL_SURFACE ( 'NONE', #226, 0.1115000000000000158 ) ;
#1126 = CYLINDRICAL_SURFACE ( 'NONE', #89, 0.1115000000000001684 ) ;
#1127 = CARTESIAN_POINT ( 'NONE',  ( -2.823825611833124860, -0.9749999999999999778, -4.565842531771758139 ) ) ;
#1128 = CARTESIAN_POINT ( 'NONE',  ( 5.330328886572462288, 0.000000000000000000, 4.599890282026211530 ) ) ;
#1129 = VERTEX_POINT ( 'NONE', #374 ) ;
#1130 = EDGE_LOOP ( 'NONE', ( #516, #696, #972 ) ) ;
#1131 = ADVANCED_FACE ( 'NONE', ( #916 ), #1126, .T. ) ;
#1132 = DIRECTION ( 'NONE',  ( 0.000000000000000000, 1.000000000000000000, 0.000000000000000000 ) ) ;
#1133 = AXIS2_PLACEMENT_3D ( 'NONE', #128, #609, #135 ) ;
#1134 = FACE_OUTER_BOUND ( 'NONE', #356, .T. ) ;
#1135 = LINE ( 'NONE', #1041, #156 ) ;
#1136 = CARTESIAN_POINT ( 'NONE',  ( 6.006350446135299808E-16, -0.9749999999999999778, 4.565842531771759027 ) ) ;
#1137 = VERTEX_POINT ( 'NONE', #547 ) ;
#1138 = AXIS2_PLACEMENT_3D ( 'NONE', #1123, #368, #831 ) ;
#1139 = ORIENTED_EDGE ( 'NONE', *, *, #1222, .F. ) ;
#1140 = DIRECTION ( 'NONE',  ( 0.03487826274237462720, -0.9987827659587182882, 0.03487826274237462026 ) ) ;
#1141 = FACE_OUTER_BOUND ( 'NONE', #297, .T. ) ;
#1142 = DIRECTION ( 'NONE',  ( 0.000000000000000000, 1.000000000000000000, 0.000000000000000000 ) ) ;
#1143 = ORIENTED_EDGE ( 'NONE', *, *, #333, .T. ) ;
#1144 = ORIENTED_EDGE ( 'NONE', *, *, #165, .T. ) ;
#1145 = CARTESIAN_POINT ( 'NONE',  ( 6.051428726048011411E-16, 0.006281909406450174316, 4.600109651136564004 ) ) ;
#1146 = EDGE_CURVE ( 'NONE', #960, #7, #1228, .T. ) ;
#1147 = DIRECTION ( 'NONE',  ( -1.143032633332327858E-16, 0.000000000000000000, -1.000000000000000000 ) ) ;
#1148 = VECTOR ( 'NONE', #985, 39.37007874015748143 ) ;
#1149 = ADVANCED_FACE ( 'NONE', ( #1134 ), #836, .T. ) ;
#1150 = DIRECTION ( 'NONE',  ( 0.000000000000000000, 1.000000000000000000, 0.000000000000000000 ) ) ;
#1151 = ORIENTED_EDGE ( 'NONE', *, *, #925, .F. ) ;
#1152 = ORIENTED_EDGE ( 'NONE', *, *, #433, .T. ) ;
#1153 = LINE ( 'NONE', #119, #889 ) ;
#1154 = EDGE_CURVE ( 'NONE', #334, #1233, #1034, .T. ) ;
#1155 = LINE ( 'NONE', #482, #216 ) ;
#1156 = FACE_OUTER_BOUND ( 'NONE', #785, .T. ) ;
#1157 = DIRECTION ( 'NONE',  ( 0.000000000000000000, 1.000000000000000000, 0.000000000000000000 ) ) ;
#1158 = ORIENTED_EDGE ( 'NONE', *, *, #301, .F. ) ;
#1159 = ORIENTED_EDGE ( 'NONE', *, *, #8, .T. ) ;
#1160 = LINE ( 'NONE', #961, #340 ) ;
#1161 = VECTOR ( 'NONE', #375, 39.37007874015748854 ) ;
#1162 = DIRECTION ( 'NONE',  ( 1.000000000000000000, 0.000000000000000000, -1.143032633332327365E-16 ) ) ;
#1163 = CARTESIAN_POINT ( 'NONE',  ( 6.049890282026212596, -0.9749999999999999778, 0.000000000000000000 ) ) ;
#1164 = CARTESIAN_POINT ( 'NONE',  ( -5.936218720126464454, -3.255127637625801373, -3.766657324672714413 ) ) ;
#1165 = EDGE_LOOP ( 'NONE', ( #1091, #565, #1118 ) ) ;
#1166 = ORIENTED_EDGE ( 'NONE', *, *, #1146, .F. ) ;
#1167 = EDGE_CURVE ( 'NONE', #181, #599, #745, .T. ) ;
#1168 = DIRECTION ( 'NONE',  ( 0.000000000000000000, 0.000000000000000000, -1.000000000000000000 ) ) ;
#1169 = DIRECTION ( 'NONE',  ( 0.000000000000000000, 1.000000000000000000, 0.000000000000000000 ) ) ;
#1170 = CARTESIAN_POINT ( 'NONE',  ( 5.325827595071223719, -0.1289001235297208281, -4.595388990524972961 ) ) ;
#1171 = VERTEX_POINT ( 'NONE', #1029 ) ;
#1172 = CIRCLE ( 'NONE', #320, 0.1115000000000001684 ) ;
#1173 = CARTESIAN_POINT ( 'NONE',  ( 6.043625075367679678, -0.1794120447435334775, 3.874063679913931413 ) ) ;
#1174 = CARTESIAN_POINT ( 'NONE',  ( 0.000000000000000000, -3.494999999999999662, -4.488390282026212041 ) ) ;
#1175 = ORIENTED_EDGE ( 'NONE', *, *, #337, .T. ) ;
#1176 = VECTOR ( 'NONE', #1147, 39.37007874015748143 ) ;
#1177 = EDGE_CURVE ( 'NONE', #344, #1137, #844, .T. ) ;
#1178 = DIRECTION ( 'NONE',  ( 0.000000000000000000, 1.000000000000000000, 0.000000000000000000 ) ) ;
#1179 = LINE ( 'NONE', #224, #393 ) ;
#1180 = ORIENTED_EDGE ( 'NONE', *, *, #629, .T. ) ;
#1181 = ADVANCED_FACE ( 'NONE', ( #74 ), #464, .T. ) ;
#1182 = EDGE_CURVE ( 'NONE', #545, #176, #346, .T. ) ;
#1183 = PLANE ( 'NONE',  #818 ) ;
#1184 = ADVANCED_FACE ( 'NONE', ( #1107 ), #98, .F. ) ;
#1185 = ORIENTED_EDGE ( 'NONE', *, *, #4, .F. ) ;
#1186 = AXIS2_PLACEMENT_3D ( 'NONE', #385, #300, #595 ) ;
#1187 = ORIENTED_EDGE ( 'NONE', *, *, #1056, .F. ) ;
#1188 = AXIS2_PLACEMENT_3D ( 'NONE', #515, #611, #32 ) ;
#1189 = DIRECTION ( 'NONE',  ( -0.9993908270190957621, -0.03489949670250096919, 1.142336328735810030E-16 ) ) ;
#1190 = LINE ( 'NONE', #1173, #278 ) ;
#1191 = CARTESIAN_POINT ( 'NONE',  ( -3.036174388166876792, -0.9749999999999999778, -4.565842531771758139 ) ) ;
#1192 = AXIS2_PLACEMENT_3D ( 'NONE', #405, #1150, #979 ) ;
#1193 = ORIENTED_EDGE ( 'NONE', *, *, #169, .F. ) ;
#1194 = PLANE ( 'NONE',  #408 ) ;
#1195 = AXIS2_PLACEMENT_3D ( 'NONE', #292, #199, #287 ) ;
#1196 = EDGE_CURVE ( 'NONE', #322, #305, #1155, .T. ) ;
#1197 = CARTESIAN_POINT ( 'NONE',  ( 6.049890282026212596, 0.000000000000000000, -4.301944448902345286 ) ) ;
#1198 = CARTESIAN_POINT ( 'NONE',  ( -6.015842531771759205, -0.9749999999999999778, 3.056174388166875477 ) ) ;
#1199 = ORIENTED_EDGE ( 'NONE', *, *, #807, .F. ) ;
#1200 = DIRECTION ( 'NONE',  ( 0.000000000000000000, -0.03489949670250126063, 0.9993908270190956511 ) ) ;
#1201 = ADVANCED_FACE ( 'NONE', ( #293 ), #411, .T. ) ;
#1202 = CARTESIAN_POINT ( 'NONE',  ( 0.1061743881668755773, -0.9749999999999999778, -4.565842531771758139 ) ) ;
#1203 = CARTESIAN_POINT ( 'NONE',  ( -5.751944448902343687, 0.000000000000000000, -4.599890282026212418 ) ) ;
#1204 = EDGE_CURVE ( 'NONE', #1027, #958, #270, .T. ) ;
#1205 = VERTEX_POINT ( 'NONE', #475 ) ;
#1206 = DIRECTION ( 'NONE',  ( 0.000000000000000000, -0.000000000000000000, 1.000000000000000000 ) ) ;
#1207 = CARTESIAN_POINT ( 'NONE',  ( -5.216657324672715923, -3.255127637625800485, 4.486218720126466053 ) ) ;
#1208 = CARTESIAN_POINT ( 'NONE',  ( -6.015842531771759205, -0.9749999999999999778, -0.1061743881668752304 ) ) ;
#1209 = CARTESIAN_POINT ( 'NONE',  ( -5.325827595071225495, -0.1037724859039202280, 3.875827595071225762 ) ) ;
#1210 = ORIENTED_EDGE ( 'NONE', *, *, #988, .T. ) ;
#1211 = PRODUCT ( '1402-931 Bottom PID 7-24-2025', '1402-931 Bottom PID 7-24-2025', '', ( #112 ) ) ;
#1212 = FACE_OUTER_BOUND ( 'NONE', #912, .T. ) ;
#1213 = ADVANCED_FACE ( 'NONE', ( #668 ), #865, .T. ) ;
#1214 = CYLINDRICAL_SURFACE ( 'NONE', #615, 0.7200000000000003064 ) ;
#1215 = AXIS2_PLACEMENT_3D ( 'NONE', #262, #563, #269 ) ;
#1216 = DIRECTION ( 'NONE',  ( 0.000000000000000000, 0.000000000000000000, 1.000000000000000000 ) ) ;
#1217 = AXIS2_PLACEMENT_3D ( 'NONE', #718, #909, #239 ) ;
#1218 = DIRECTION ( 'NONE',  ( -0.000000000000000000, 0.000000000000000000, -1.000000000000000000 ) ) ;
#1219 = EDGE_LOOP ( 'NONE', ( #665, #168, #1058, #924 ) ) ;
#1220 = VECTOR ( 'NONE', #473, 39.37007874015748143 ) ;
#1221 = CARTESIAN_POINT ( 'NONE',  ( 6.050109651136563294, 0.006281909406450174316, -6.915472766487955782E-16 ) ) ;
#1222 = EDGE_CURVE ( 'NONE', #189, #27, #217, .T. ) ;
#1223 = DIRECTION ( 'NONE',  ( 0.000000000000000000, 0.000000000000000000, 1.000000000000000000 ) ) ;
#1224 = CARTESIAN_POINT ( 'NONE',  ( -3.036174388166876792, -0.9749999999999999778, -4.565842531771758139 ) ) ;
#1225 = CARTESIAN_POINT ( 'NONE',  ( -2.017142908682670224E-16, 0.006281909406450174316, -4.600109651136563116 ) ) ;
#1226 = ORIENTED_EDGE ( 'NONE', *, *, #997, .F. ) ;
#1227 = CARTESIAN_POINT ( 'NONE',  ( -5.324063679913932035, -0.1542844071177328080, -3.874063679913930969 ) ) ;
#1228 = CIRCLE ( 'NONE', #811, 0.7200000000000003064 ) ;
#1229 = AXIS2_PLACEMENT_3D ( 'NONE', #727, #911, #1216 ) ;
#1230 = DIRECTION ( 'NONE',  ( 0.000000000000000000, 0.000000000000000000, 1.000000000000000000 ) ) ;
#1231 = CARTESIAN_POINT ( 'NONE',  ( 5.324063679913930258, -0.1794120447435333943, 4.593625075367680388 ) ) ;
#1232 = CARTESIAN_POINT ( 'NONE',  ( 0.000000000000000000, -0.9749999999999999778, -4.599890282026211530 ) ) ;
#1233 = VERTEX_POINT ( 'NONE', #951 ) ;
#1234 = ORIENTED_EDGE ( 'NONE', *, *, #113, .F. ) ;
#1235 = FACE_OUTER_BOUND ( 'NONE', #1067, .T. ) ;
#1236 = CARTESIAN_POINT ( 'NONE',  ( -5.890304857713481113, -4.569928630880988329, -2.884082734550360350 ) ) ;
#1237 = CARTESIAN_POINT ( 'NONE',  ( 5.890304857713480224, -4.569928630880987441, 3.015917265449639562 ) ) ;
#1238 = VERTEX_POINT ( 'NONE', #976 ) ;
#1239 = AXIS2_PLACEMENT_3D ( 'NONE', #773, #1169, #767 ) ;
ENDSEC;
END-ISO-10303-21;
