ISO-10303-21;
HEADER;
FILE_DESCRIPTION (( 'STEP AP214' ),
    '1' );
FILE_NAME ('1430E - 932 BOTTOM PID 2-21-2025.STEP',
    '2025-05-22T00:45:49',
    ( '' ),
    ( '' ),
    'SwSTEP 2.0',
    'SolidWorks 2021',
    '' );
FILE_SCHEMA (( 'AUTOMOTIVE_DESIGN' ));
ENDSEC;

DATA;
#1 = ORIENTED_EDGE ( 'NONE', *, *, #206, .T. ) ;
#2 = ADVANCED_FACE ( 'NONE', ( #254 ), #72, .T. ) ;
#3 = B_SPLINE_CURVE_WITH_KNOTS ( 'NONE', 3,
 ( #160, #1118, #68, #1108, #62, #262 ),
 .UNSPECIFIED., .F., .F.,
 ( 4, 2, 4 ),
 ( 0.000000000000000000, 0.5000000000000000000, 1.000000000000000000 ),
 .UNSPECIFIED. ) ;
#4 = EDGE_LOOP ( 'NONE', ( #279, #1030 ) ) ;
#5 = FACE_OUTER_BOUND ( 'NONE', #512, .T. ) ;
#6 = VECTOR ( 'NONE', #129, 39.37007874015748854 ) ;
#7 = CARTESIAN_POINT ( 'NONE',  ( -5.589884186583224945, -0.9599999999999999645, -3.189884186583226366 ) ) ;
#8 = PLANE ( 'NONE',  #676 ) ;
#9 = ORIENTED_EDGE ( 'NONE', *, *, #933, .F. ) ;
#10 = EDGE_CURVE ( 'NONE', #468, #657, #1201, .T. ) ;
#11 = VECTOR ( 'NONE', #842, 39.37007874015748143 ) ;
#12 = CARTESIAN_POINT ( 'NONE',  ( -6.895213434679290820, -0.0004936078404341160374, 2.922147684630564068 ) ) ;
#13 = ORIENTED_EDGE ( 'NONE', *, *, #1011, .F. ) ;
#14 = FACE_OUTER_BOUND ( 'NONE', #1149, .T. ) ;
#15 = ORIENTED_EDGE ( 'NONE', *, *, #348, .F. ) ;
#16 = DIRECTION ( 'NONE',  ( 0.000000000000000000, 0.000000000000000000, 1.000000000000000000 ) ) ;
#17 = EDGE_CURVE ( 'NONE', #861, #298, #155, .T. ) ;
#18 = VERTEX_POINT ( 'NONE', #736 ) ;
#19 = LINE ( 'NONE', #228, #150 ) ;
#20 =( CONVERSION_BASED_UNIT ( 'INCH', #302 ) LENGTH_UNIT ( ) NAMED_UNIT ( #85 ) );
#21 = ORIENTED_EDGE ( 'NONE', *, *, #948, .F. ) ;
#22 = AXIS2_PLACEMENT_3D ( 'NONE', #817, #999, #353 ) ;
#23 = CARTESIAN_POINT ( 'NONE',  ( 7.056360247871144686, -0.9599999999999999645, -3.380000000000002558 ) ) ;
#24 = VECTOR ( 'NONE', #806, 39.37007874015748143 ) ;
#25 = ORIENTED_EDGE ( 'NONE', *, *, #17, .T. ) ;
#26 = CARTESIAN_POINT ( 'NONE',  ( -5.469463484321408941, -0.9599999999999999645, 3.156360247871146552 ) ) ;
#27 = EDGE_CURVE ( 'NONE', #484, #917, #76, .T. ) ;
#28 =( CONVERSION_BASED_UNIT ( 'INCH', #850 ) LENGTH_UNIT ( ) NAMED_UNIT ( #179 ) );
#29 = EDGE_LOOP ( 'NONE', ( #1071, #781, #123 ) ) ;
#30 =( BOUNDED_CURVE ( )  B_SPLINE_CURVE ( 3, ( #1023, #828, #169, #548 ),
 .UNSPECIFIED., .F., .T. ) 
 B_SPLINE_CURVE_WITH_KNOTS ( ( 4, 4 ),
 ( 0.3443365944831283665, 0.7847891758118422656 ),
 .UNSPECIFIED. ) 
 CURVE ( )  GEOMETRIC_REPRESENTATION_ITEM ( )  RATIONAL_B_SPLINE_CURVE ( ( 1.000000000000000000, 0.9838986940120136859, 0.9838986940120136859, 1.000000000000000000 ) ) 
 REPRESENTATION_ITEM ( '' )  );
#31 = ORIENTED_EDGE ( 'NONE', *, *, #1106, .F. ) ;
#32 = CARTESIAN_POINT ( 'NONE',  ( -6.293564932522654587, -0.1947408609392847489, 3.183083685867739376 ) ) ;
#33 = CIRCLE ( 'NONE', #1089, 0.1249999999999999029 ) ;
#34 = CARTESIAN_POINT ( 'NONE',  ( 6.637297881363746654, -3.894124891659250288E-05, 3.114447431633240448 ) ) ;
#35 = ORIENTED_EDGE ( 'NONE', *, *, #715, .T. ) ;
#36 = FACE_OUTER_BOUND ( 'NONE', #66, .T. ) ;
#37 = CARTESIAN_POINT ( 'NONE',  ( 7.089884186583224945, -4.959999999999999964, -1.725000000000000089 ) ) ;
#38 = DIRECTION ( 'NONE',  ( 1.000000000000000000, 0.000000000000000000, 0.000000000000000000 ) ) ;
#39 = EDGE_CURVE ( 'NONE', #468, #1159, #203, .T. ) ;
#40 = CARTESIAN_POINT ( 'NONE',  ( 6.637297881363746654, -3.894124891659250288E-05, 3.114447431633240448 ) ) ;
#41 = ORIENTED_EDGE ( 'NONE', *, *, #819, .F. ) ;
#42 = FILL_AREA_STYLE_COLOUR ( '', #906 ) ;
#43 = DIRECTION ( 'NONE',  ( 0.000000000000000000, 0.03489949670250105246, 0.9993908270190957621 ) ) ;
#44 = ADVANCED_FACE ( 'NONE', ( #885 ), #242, .T. ) ;
#45 = B_SPLINE_CURVE_WITH_KNOTS ( 'NONE', 3,
 ( #34, #1129, #764, #849 ),
 .UNSPECIFIED., .F., .F.,
 ( 4, 4 ),
 ( 0.1224666619756695496, 1.000000000000000000 ),
 .UNSPECIFIED. ) ;
#46 = CARTESIAN_POINT ( 'NONE',  ( -7.056360247871147351, -0.9599999999999999645, 1.720420702261815649 ) ) ;
#47 = ORIENTED_EDGE ( 'NONE', *, *, #184, .F. ) ;
#48 = CARTESIAN_POINT ( 'NONE',  ( -7.280000000000001137, -8.910000000000000142, -2.088258590415681848 ) ) ;
#49 = VECTOR ( 'NONE', #1012, 39.37007874015748143 ) ;
#50 = CARTESIAN_POINT ( 'NONE',  ( -7.029804438761699359, 1.556347184624019994E-17, -2.702573834149978982 ) ) ;
#51 = CARTESIAN_POINT ( 'NONE',  ( 7.064618924001345057, -0.0006308417606982250460, -2.605114741958252988 ) ) ;
#52 = VERTEX_POINT ( 'NONE', #1184 ) ;
#53 = DIRECTION ( 'NONE',  ( 0.000000000000000000, 1.000000000000000000, 0.000000000000000000 ) ) ;
#54 = EDGE_CURVE ( 'NONE', #895, #726, #1083, .T. ) ;
#55 = DIRECTION ( 'NONE',  ( 0.000000000000000000, 0.000000000000000000, 1.000000000000000000 ) ) ;
#56 = DIRECTION ( 'NONE',  ( 0.9993908270190957621, -0.03489949670250104552, 0.000000000000000000 ) ) ;
#57 = DIRECTION ( 'NONE',  ( 0.000000000000000000, 0.000000000000000000, 1.000000000000000000 ) ) ;
#58 = FACE_OUTER_BOUND ( 'NONE', #682, .T. ) ;
#59 = ADVANCED_FACE ( 'NONE', ( #611 ), #974, .T. ) ;
#60 = DIRECTION ( 'NONE',  ( 0.000000000000000000, 0.000000000000000000, 1.000000000000000000 ) ) ;
#61 = CIRCLE ( 'NONE', #84, 0.7899999999999994804 ) ;
#62 = CARTESIAN_POINT ( 'NONE',  ( 6.895213434941162234, -0.0004936078419984822954, -2.922147684340230533 ) ) ;
#63 = AXIS2_PLACEMENT_3D ( 'NONE', #519, #912, #427 ) ;
#64 = CARTESIAN_POINT ( 'NONE',  ( 6.858697796820950821, 0.000000000000000000, 2.958697796820080939 ) ) ;
#65 = PLANE ( 'NONE',  #225 ) ;
#66 = EDGE_LOOP ( 'NONE', ( #1151, #139, #656, #15 ) ) ;
#67 = CARTESIAN_POINT ( 'NONE',  ( 6.300365433238132695, 0.000000000000000000, 3.189884186583226366 ) ) ;
#68 = CARTESIAN_POINT ( 'NONE',  ( 6.985540605713593365, -0.0007300595107158148241, -2.796082942805726113 ) ) ;
#69 = PRODUCT_DEFINITION_SHAPE ( 'NONE', 'NONE',  #326 ) ;
#70 = CARTESIAN_POINT ( 'NONE',  ( 6.777777343760766016, -8.937570602394975694, -2.088258590415684068 ) ) ;
#71 = DIRECTION ( 'NONE',  ( -0.9993908270190957621, -0.03489949670250108021, 0.000000000000000000 ) ) ;
#72 = CYLINDRICAL_SURFACE ( 'NONE', #638, 0.1250000000000004441 ) ;
#73 = CARTESIAN_POINT ( 'NONE',  ( -6.858697796820109716, 2.021238827649870097E-17, 2.958697796820920711 ) ) ;
#74 = ORIENTED_EDGE ( 'NONE', *, *, #1148, .F. ) ;
#75 = ADVANCED_FACE ( 'NONE', ( #58 ), #136, .T. ) ;
#76 =( BOUNDED_CURVE ( )  B_SPLINE_CURVE ( 3, ( #1115, #1003, #274, #653 ),
 .UNSPECIFIED., .F., .T. ) 
 B_SPLINE_CURVE_WITH_KNOTS ( ( 4, 4 ),
 ( 1.842311603701815681, 4.440873703477770107 ),
 .UNSPECIFIED. ) 
 CURVE ( )  GEOMETRIC_REPRESENTATION_ITEM ( )  RATIONAL_B_SPLINE_CURVE ( ( 1.000000000000000000, 0.5121276731310806518, 0.5121276731310806518, 1.000000000000000000 ) ) 
 REPRESENTATION_ITEM ( '' )  );
#77 = PLANE ( 'NONE',  #968 ) ;
#78 = CARTESIAN_POINT ( 'NONE',  ( 5.710304888845040949, -0.9599999999999999645, 3.156360247871148328 ) ) ;
#79 = VERTEX_POINT ( 'NONE', #130 ) ;
#80 = AXIS2_PLACEMENT_3D ( 'NONE', #1020, #347, #915 ) ;
#81 = DIRECTION ( 'NONE',  ( 0.000000000000000000, 0.000000000000000000, -1.000000000000000000 ) ) ;
#82 = CARTESIAN_POINT ( 'NONE',  ( -5.988258590415683535, -8.910000000000000142, -2.088258590415682736 ) ) ;
#83 = ORIENTED_EDGE ( 'NONE', *, *, #981, .T. ) ;
#84 = AXIS2_PLACEMENT_3D ( 'NONE', #1006, #162, #881 ) ;
#85 = DIMENSIONAL_EXPONENTS ( 1.000000000000000000, 0.000000000000000000, 0.000000000000000000, 0.000000000000000000, 0.000000000000000000, 0.000000000000000000, 0.000000000000000000 ) ;
#86 = EDGE_CURVE ( 'NONE', #112, #1041, #373, .T. ) ;
#87 = CARTESIAN_POINT ( 'NONE',  ( -6.300365433238140689, 0.000000000000000000, 3.189884186583224146 ) ) ;
#88 = CARTESIAN_POINT ( 'NONE',  ( -5.589884186583224945, -0.9599999999999999645, -3.189884186583226366 ) ) ;
#89 = ORIENTED_EDGE ( 'NONE', *, *, #243, .F. ) ;
#90 = CARTESIAN_POINT ( 'NONE',  ( -6.905344306141139477, -5.284530757138489854, 1.521620650097152971 ) ) ;
#91 = CARTESIAN_POINT ( 'NONE',  ( -5.694661429182217738, -2.569144774466259218, -3.100167674123159411 ) ) ;
#92 = ORIENTED_EDGE ( 'NONE', *, *, #17, .F. ) ;
#93 = STYLED_ITEM ( 'NONE', ( #869 ), #835 ) ;
#94 = ORIENTED_EDGE ( 'NONE', *, *, #1117, .T. ) ;
#95 = CIRCLE ( 'NONE', #291, 0.7899999999999997025 ) ;
#96 = CARTESIAN_POINT ( 'NONE',  ( -7.280000000000001137, -8.910000000000000142, 2.088258590415681848 ) ) ;
#97 = EDGE_CURVE ( 'NONE', #734, #966, #721, .T. ) ;
#98 = CYLINDRICAL_SURFACE ( 'NONE', #437, 0.7899999999999997025 ) ;
#99 = AXIS2_PLACEMENT_3D ( 'NONE', #504, #873, #135 ) ;
#100 = DIRECTION ( 'NONE',  ( 0.000000000000000000, 0.000000000000000000, 1.000000000000000000 ) ) ;
#101 = VERTEX_POINT ( 'NONE', #428 ) ;
#102 = ORIENTED_EDGE ( 'NONE', *, *, #496, .T. ) ;
#103 = CARTESIAN_POINT ( 'NONE',  ( 5.648213623188127919, -3.579531660364458023, -3.064884186583226366 ) ) ;
#104 = FACE_BOUND ( 'NONE', #459, .T. ) ;
#105 = EDGE_CURVE ( 'NONE', #501, #195, #789, .T. ) ;
#106 = ORIENTED_EDGE ( 'NONE', *, *, #987, .T. ) ;
#107 = EDGE_LOOP ( 'NONE', ( #1063, #546 ) ) ;
#108 = CARTESIAN_POINT ( 'NONE',  ( 6.905344306141143917, -5.284530757138347745, -1.803379349902844986 ) ) ;
#109 = ORIENTED_EDGE ( 'NONE', *, *, #237, .F. ) ;
#110 = DIRECTION ( 'NONE',  ( 0.000000000000000000, 1.000000000000000000, 0.000000000000000000 ) ) ;
#111 = CARTESIAN_POINT ( 'NONE',  ( -6.301788426635273943, 0.04074919934028330137, -3.191307179980359177 ) ) ;
#112 = VERTEX_POINT ( 'NONE', #514 ) ;
#113 = EDGE_CURVE ( 'NONE', #270, #462, #235, .T. ) ;
#114 = VECTOR ( 'NONE', #1060, 39.37007874015748854 ) ;
#115 = ORIENTED_EDGE ( 'NONE', *, *, #97, .F. ) ;
#116 = DIRECTION ( 'NONE',  ( 0.03487826274237469659, -0.9987827659587182882, -0.03487826274237468965 ) ) ;
#117 = ORIENTED_EDGE ( 'NONE', *, *, #143, .F. ) ;
#118 = VECTOR ( 'NONE', #116, 39.37007874015748854 ) ;
#119 = ADVANCED_FACE ( 'NONE', ( #1166 ), #897, .F. ) ;
#120 = CARTESIAN_POINT ( 'NONE',  ( -7.589884186583223169, 0.000000000000000000, 3.859884186583225851 ) ) ;
#121 = VERTEX_POINT ( 'NONE', #336 ) ;
#122 = DIRECTION ( 'NONE',  ( 0.000000000000000000, -0.000000000000000000, 1.000000000000000000 ) ) ;
#123 = ORIENTED_EDGE ( 'NONE', *, *, #537, .F. ) ;
#124 = AXIS2_PLACEMENT_3D ( 'NONE', #1079, #149, #1176 ) ;
#125 = ORIENTED_EDGE ( 'NONE', *, *, #137, .F. ) ;
#126 = CARTESIAN_POINT ( 'NONE',  ( -5.511504836680378716, -5.284530757138431234, 3.005344306141141342 ) ) ;
#127 = DIRECTION ( 'NONE',  ( 0.000000000000000000, 1.000000000000000000, 0.000000000000000000 ) ) ;
#128 = ORIENTED_EDGE ( 'NONE', *, *, #113, .F. ) ;
#129 = DIRECTION ( 'NONE',  ( -0.03487826274237469659, -0.9987827659587182882, 0.03487826274237470353 ) ) ;
#130 = CARTESIAN_POINT ( 'NONE',  ( -7.029804438761699359, 1.556347184624019994E-17, -2.702573834149978982 ) ) ;
#131 = CIRCLE ( 'NONE', #814, 0.1250000000000004441 ) ;
#132 = EDGE_CURVE ( 'NONE', #443, #818, #215, .T. ) ;
#133 = LINE ( 'NONE', #511, #310 ) ;
#134 = ORIENTED_EDGE ( 'NONE', *, *, #105, .F. ) ;
#135 = DIRECTION ( 'NONE',  ( 0.000000000000000000, -0.000000000000000000, 1.000000000000000000 ) ) ;
#136 = CYLINDRICAL_SURFACE ( 'NONE', #273, 0.1249999999999999029 ) ;
#137 = EDGE_CURVE ( 'NONE', #298, #79, #142, .T. ) ;
#138 = DIRECTION ( 'NONE',  ( 0.000000000000000000, 1.000000000000000000, 0.000000000000000000 ) ) ;
#139 = ORIENTED_EDGE ( 'NONE', *, *, #1156, .T. ) ;
#140 = PLANE ( 'NONE',  #63 ) ;
#141 = CARTESIAN_POINT ( 'NONE',  ( -6.895213434323685497, -0.0004936078418067687884, -2.922147685042844056 ) ) ;
#142 = B_SPLINE_CURVE_WITH_KNOTS ( 'NONE', 3,
 ( #986, #141, #520, #901, #890, #50 ),
 .UNSPECIFIED., .F., .F.,
 ( 4, 2, 4 ),
 ( 0.000000000000000000, 0.5000000000000000000, 1.000000000000000000 ),
 .UNSPECIFIED. ) ;
#143 = EDGE_CURVE ( 'NONE', #443, #397, #1180, .T. ) ;
#144 = CARTESIAN_POINT ( 'NONE',  ( -7.089884186583225834, 0.000000000000000000, 2.400365433238138113 ) ) ;
#145 = ORIENTED_EDGE ( 'NONE', *, *, #685, .T. ) ;
#146 = SURFACE_STYLE_USAGE ( .BOTH. , #1008 ) ;
#147 = CARTESIAN_POINT ( 'NONE',  ( -6.719283638356622568, -0.0009550604930797324064, 3.075724287087949982 ) ) ;
#148 = EDGE_CURVE ( 'NONE', #593, #852, #1161, .T. ) ;
#149 = DIRECTION ( 'NONE',  ( 0.000000000000000000, 1.000000000000000000, 0.000000000000000000 ) ) ;
#150 = VECTOR ( 'NONE', #492, 39.37007874015748143 ) ;
#151 = DIRECTION ( 'NONE',  ( 0.000000000000000000, 0.000000000000000000, -1.000000000000000000 ) ) ;
#152 = CARTESIAN_POINT ( 'NONE',  ( -5.710304888845040061, -0.9599999999999999645, -3.156360247871146552 ) ) ;
#153 = PLANE ( 'NONE',  #622 ) ;
#154 = LINE ( 'NONE', #921, #1046 ) ;
#155 = B_SPLINE_CURVE_WITH_KNOTS ( 'NONE', 3,
 ( #1093, #631, #357, #550 ),
 .UNSPECIFIED., .F., .F.,
 ( 4, 4 ),
 ( 0.1224666622172348868, 1.000000000000000000 ),
 .UNSPECIFIED. ) ;
#156 = CARTESIAN_POINT ( 'NONE',  ( -7.056360247871147351, -0.9599999999999999645, -1.604579297738184529 ) ) ;
#157 = FACE_OUTER_BOUND ( 'NONE', #178, .T. ) ;
#158 = VERTEX_POINT ( 'NONE', #152 ) ;
#159 = LINE ( 'NONE', #1107, #49 ) ;
#160 = CARTESIAN_POINT ( 'NONE',  ( 7.029804439146237982, 0.000000000000000000, -2.702573833221286748 ) ) ;
#161 = VECTOR ( 'NONE', #53, 39.37007874015748143 ) ;
#162 = DIRECTION ( 'NONE',  ( -0.03487826274237470353, 0.9987827659587183993, 0.03487826274237469659 ) ) ;
#163 = ORIENTED_EDGE ( 'NONE', *, *, #1022, .T. ) ;
#164 = AXIS2_PLACEMENT_3D ( 'NONE', #1139, #675, #1047 ) ;
#165 = CARTESIAN_POINT ( 'NONE',  ( 5.589884186583224945, -0.9599999999999999645, -3.189884186583226366 ) ) ;
#166 = ADVANCED_FACE ( 'NONE', ( #774 ), #1165, .T. ) ;
#167 = FACE_OUTER_BOUND ( 'NONE', #565, .T. ) ;
#168 = ORIENTED_EDGE ( 'NONE', *, *, #521, .F. ) ;
#169 = CARTESIAN_POINT ( 'NONE',  ( 6.417369974618836181, 0.000000000000000000, 3.189884186583226811 ) ) ;
#170 = DIRECTION ( 'NONE',  ( 0.000000000000000000, -0.000000000000000000, 1.000000000000000000 ) ) ;
#171 = CARTESIAN_POINT ( 'NONE',  ( -7.280000000000001137, -0.9599999999999999645, -3.156360247871146107 ) ) ;
#172 = DIRECTION ( 'NONE',  ( 1.000000000000000000, 0.000000000000000000, 0.000000000000000000 ) ) ;
#173 = CARTESIAN_POINT ( 'NONE',  ( -5.710304888845040061, -0.9599999999999999645, 3.156360247871146552 ) ) ;
#174 = EDGE_CURVE ( 'NONE', #462, #385, #19, .T. ) ;
#175 = ORIENTED_EDGE ( 'NONE', *, *, #827, .T. ) ;
#176 = CARTESIAN_POINT ( 'NONE',  ( -5.988258590415683535, -8.910000000000000142, 2.088258590415682736 ) ) ;
#177 = CARTESIAN_POINT ( 'NONE',  ( -7.089884186583225834, 0.000000000000000000, 2.400365433238138113 ) ) ;
#178 = EDGE_LOOP ( 'NONE', ( #931, #360 ) ) ;
#179 = DIMENSIONAL_EXPONENTS ( 1.000000000000000000, 0.000000000000000000, 0.000000000000000000, 0.000000000000000000, 0.000000000000000000, 0.000000000000000000, 0.000000000000000000 ) ;
#180 = CARTESIAN_POINT ( 'NONE',  ( -7.056360247871147351, -0.9599999999999999645, 1.720420702261815649 ) ) ;
#181 = CARTESIAN_POINT ( 'NONE',  ( -6.417367930524600084, 0.000000000000000000, -3.189884186583224590 ) ) ;
#182 = ORIENTED_EDGE ( 'NONE', *, *, #874, .T. ) ;
#183 = VECTOR ( 'NONE', #356, 39.37007874015748143 ) ;
#184 = EDGE_CURVE ( 'NONE', #994, #1137, #219, .T. ) ;
#185 = CARTESIAN_POINT ( 'NONE',  ( -7.056360247871147351, -0.9599999999999999645, -1.845420702261815649 ) ) ;
#186 = LINE ( 'NONE', #1043, #469 ) ;
#187 = DIRECTION ( 'NONE',  ( 0.000000000000000000, 1.000000000000000000, 0.000000000000000000 ) ) ;
#188 = ORIENTED_EDGE ( 'NONE', *, *, #1078, .T. ) ;
#189 = ORIENTED_EDGE ( 'NONE', *, *, #591, .T. ) ;
#190 = VECTOR ( 'NONE', #1065, 39.37007874015748143 ) ;
#191 = CARTESIAN_POINT ( 'NONE',  ( 5.511504836680376052, -5.284530757138572454, 3.005344306141139121 ) ) ;
#192 = EDGE_CURVE ( 'NONE', #740, #818, #960, .T. ) ;
#193 = CARTESIAN_POINT ( 'NONE',  ( -5.988258590415683535, -9.699999999999999289, 2.088258590415681848 ) ) ;
#194 = FACE_OUTER_BOUND ( 'NONE', #1219, .T. ) ;
#195 = VERTEX_POINT ( 'NONE', #780 ) ;
#196 = ORIENTED_EDGE ( 'NONE', *, *, #1117, .F. ) ;
#197 = CARTESIAN_POINT ( 'NONE',  ( 7.029804439146237982, 0.000000000000000000, -2.702573833221286748 ) ) ;
#198 = EDGE_LOOP ( 'NONE', ( #766, #447, #753, #47 ) ) ;
#199 = DIRECTION ( 'NONE',  ( 0.03489949670250104552, -0.9993908270190957621, 0.000000000000000000 ) ) ;
#200 = ORIENTED_EDGE ( 'NONE', *, *, #143, .T. ) ;
#201 = CARTESIAN_POINT ( 'NONE',  ( -7.089884186583224945, 0.000000000000000000, -2.400365433238138557 ) ) ;
#202 = ORIENTED_EDGE ( 'NONE', *, *, #184, .T. ) ;
#203 =( BOUNDED_CURVE ( )  B_SPLINE_CURVE ( 3, ( #701, #803, #434, #719 ),
 .UNSPECIFIED., .F., .T. ) 
 B_SPLINE_CURVE_WITH_KNOTS ( ( 4, 4 ),
 ( 1.842311603701816347, 3.141592653589793116 ),
 .UNSPECIFIED. ) 
 CURVE ( )  GEOMETRIC_REPRESENTATION_ITEM ( )  RATIONAL_B_SPLINE_CURVE ( ( 1.000000000000000000, 0.8642008643503829024, 0.8642008643503829024, 1.000000000000000000 ) ) 
 REPRESENTATION_ITEM ( '' )  );
#204 = CARTESIAN_POINT ( 'NONE',  ( 5.589884186583224945, -4.959999999999999964, -3.189884186583226366 ) ) ;
#205 = ORIENTED_EDGE ( 'NONE', *, *, #307, .F. ) ;
#206 = EDGE_CURVE ( 'NONE', #1164, #270, #862, .T. ) ;
#207 = PRODUCT ( '1430E - 932 BOTTOM PID 2-21-2025', '1430E - 932 BOTTOM PID 2-21-2025', '', ( #709 ) ) ;
#208 = AXIS2_PLACEMENT_3D ( 'NONE', #562, #1114, #285 ) ;
#209 = MECHANICAL_DESIGN_GEOMETRIC_PRESENTATION_REPRESENTATION (  '', ( #93 ), #619 ) ;
#210 = CARTESIAN_POINT ( 'NONE',  ( 6.905344306141143917, -5.284530757138345969, 1.678379349902844986 ) ) ;
#211 =( BOUNDED_CURVE ( )  B_SPLINE_CURVE ( 3, ( #78, #919, #191, #280 ),
 .UNSPECIFIED., .F., .T. ) 
 B_SPLINE_CURVE_WITH_KNOTS ( ( 4, 4 ),
 ( 1.842311603701807687, 4.440873703477778989 ),
 .UNSPECIFIED. ) 
 CURVE ( )  GEOMETRIC_REPRESENTATION_ITEM ( )  RATIONAL_B_SPLINE_CURVE ( ( 1.000000000000000000, 0.5121276731310753227, 0.5121276731310753227, 1.000000000000000000 ) ) 
 REPRESENTATION_ITEM ( '' )  );
#212 = ORIENTED_EDGE ( 'NONE', *, *, #553, .T. ) ;
#213 = CARTESIAN_POINT ( 'NONE',  ( 7.029804439135107330, 3.112694367656700543E-18, 2.702573833248167912 ) ) ;
#214 = ORIENTED_EDGE ( 'NONE', *, *, #348, .T. ) ;
#215 = CIRCLE ( 'NONE', #748, 0.7900000000000000355 ) ;
#216 = EDGE_CURVE ( 'NONE', #369, #1164, #1062, .T. ) ;
#217 = CARTESIAN_POINT ( 'NONE',  ( 7.056360247871144686, -0.9599999999999999645, 1.479579297738185195 ) ) ;
#218 = ORIENTED_EDGE ( 'NONE', *, *, #956, .T. ) ;
#219 = LINE ( 'NONE', #32, #118 ) ;
#220 = EDGE_CURVE ( 'NONE', #1159, #378, #322, .T. ) ;
#221 = DIRECTION ( 'NONE',  ( 0.000000000000000000, 0.000000000000000000, 1.000000000000000000 ) ) ;
#222 = EDGE_LOOP ( 'NONE', ( #667, #494, #699 ) ) ;
#223 = DIRECTION ( 'NONE',  ( -1.000000000000000000, -0.000000000000000000, 0.000000000000000000 ) ) ;
#224 = CARTESIAN_POINT ( 'NONE',  ( 7.049558335697974520, -0.0004312752293739465469, 2.654815267961312841 ) ) ;
#225 = AXIS2_PLACEMENT_3D ( 'NONE', #549, #1024, #1104 ) ;
#226 = FACE_OUTER_BOUND ( 'NONE', #354, .T. ) ;
#227 = ORIENTED_EDGE ( 'NONE', *, *, #1049, .T. ) ;
#228 = CARTESIAN_POINT ( 'NONE',  ( 7.589884186583224057, -27.72997920134740824, -3.859884186583222743 ) ) ;
#229 = EDGE_CURVE ( 'NONE', #657, #378, #472, .T. ) ;
#230 = DIRECTION ( 'NONE',  ( 0.000000000000000000, 0.000000000000000000, 1.000000000000000000 ) ) ;
#231 =( BOUNDED_CURVE ( )  B_SPLINE_CURVE ( 3, ( #952, #868, #126, #26 ),
 .UNSPECIFIED., .F., .T. ) 
 B_SPLINE_CURVE_WITH_KNOTS ( ( 4, 4 ),
 ( 1.842311603701825895, 4.440873703477760337 ),
 .UNSPECIFIED. ) 
 CURVE ( )  GEOMETRIC_REPRESENTATION_ITEM ( )  RATIONAL_B_SPLINE_CURVE ( ( 1.000000000000000000, 0.5121276731310870911, 0.5121276731310870911, 1.000000000000000000 ) ) 
 REPRESENTATION_ITEM ( '' )  );
#232 = CARTESIAN_POINT ( 'NONE',  ( 7.089884186583222281, 0.000000000000000000, -2.400365433238140778 ) ) ;
#233 = ORIENTED_EDGE ( 'NONE', *, *, #1156, .F. ) ;
#234 = CARTESIAN_POINT ( 'NONE',  ( -6.300365433238140689, 0.000000000000000000, 3.189884186583224146 ) ) ;
#235 = LINE ( 'NONE', #799, #841 ) ;
#236 = CARTESIAN_POINT ( 'NONE',  ( 0.000000000000000000, 0.000000000000000000, 0.000000000000000000 ) ) ;
#237 = EDGE_CURVE ( 'NONE', #864, #734, #706, .T. ) ;
#238 = DIRECTION ( 'NONE',  ( 0.03487826274237469659, 0.9987827659587182882, -0.03487826274237470353 ) ) ;
#239 = ORIENTED_EDGE ( 'NONE', *, *, #284, .F. ) ;
#240 = DIRECTION ( 'NONE',  ( -1.000000000000000000, 0.000000000000000000, -0.000000000000000000 ) ) ;
#241 = VECTOR ( 'NONE', #238, 39.37007874015748854 ) ;
#242 = CYLINDRICAL_SURFACE ( 'NONE', #1007, 0.1250000000000004441 ) ;
#243 = EDGE_CURVE ( 'NONE', #369, #787, #318, .T. ) ;
#244 = CARTESIAN_POINT ( 'NONE',  ( 5.988258590415680871, -9.699999999999999289, 3.379999999999999893 ) ) ;
#245 = VERTEX_POINT ( 'NONE', #421 ) ;
#246 = DIRECTION ( 'NONE',  ( 0.000000000000000000, 0.000000000000000000, -1.000000000000000000 ) ) ;
#247 = CARTESIAN_POINT ( 'NONE',  ( -7.056360247871147351, -0.9599999999999999645, -3.379999999999999893 ) ) ;
#248 = COLOUR_RGB ( '',0.7529411764705882248, 1.000000000000000000, 0.7529411764705882248 ) ;
#249 = AXIS2_PLACEMENT_3D ( 'NONE', #410, #110, #485 ) ;
#250 = DIRECTION ( 'NONE',  ( 0.000000000000000000, 0.000000000000000000, 1.000000000000000000 ) ) ;
#251 = CARTESIAN_POINT ( 'NONE',  ( -5.988258590415684424, -8.937570602394975694, 2.877777343760767881 ) ) ;
#252 = DIRECTION ( 'NONE',  ( 0.000000000000000000, 1.000000000000000000, 0.000000000000000000 ) ) ;
#253 = DIRECTION ( 'NONE',  ( 0.03487826274237469659, 0.9987827659587182882, 0.03487826274237469659 ) ) ;
#254 = FACE_OUTER_BOUND ( 'NONE', #420, .T. ) ;
#255 = PLANE ( 'NONE',  #345 ) ;
#256 = DIRECTION ( 'NONE',  ( 1.000000000000000000, 0.000000000000000000, 0.000000000000000000 ) ) ;
#257 = LINE ( 'NONE', #634, #283 ) ;
#258 = FACE_OUTER_BOUND ( 'NONE', #382, .T. ) ;
#259 = EDGE_CURVE ( 'NONE', #101, #743, #979, .T. ) ;
#260 = VERTEX_POINT ( 'NONE', #594 ) ;
#261 = DIRECTION ( 'NONE',  ( 0.000000000000000000, 0.000000000000000000, 1.000000000000000000 ) ) ;
#262 = CARTESIAN_POINT ( 'NONE',  ( 6.858697797036767518, -1.347492551766579860E-17, -2.958697796604264685 ) ) ;
#263 = ORIENTED_EDGE ( 'NONE', *, *, #319, .T. ) ;
#264 = VERTEX_POINT ( 'NONE', #312 ) ;
#265 = EDGE_CURVE ( 'NONE', #1041, #112, #231, .T. ) ;
#266 = AXIS2_PLACEMENT_3D ( 'NONE', #165, #816, #624 ) ;
#267 = FACE_OUTER_BOUND ( 'NONE', #888, .T. ) ;
#268 = FACE_OUTER_BOUND ( 'NONE', #1199, .T. ) ;
#269 = ORIENTED_EDGE ( 'NONE', *, *, #86, .F. ) ;
#270 = VERTEX_POINT ( 'NONE', #330 ) ;
#271 = DIRECTION ( 'NONE',  ( 0.000000000000000000, 1.000000000000000000, 0.000000000000000000 ) ) ;
#272 = CARTESIAN_POINT ( 'NONE',  ( 6.905344306141143917, -5.284530757138345969, -1.646620650097155192 ) ) ;
#273 = AXIS2_PLACEMENT_3D ( 'NONE', #37, #1190, #794 ) ;
#274 = CARTESIAN_POINT ( 'NONE',  ( -6.905344306141139477, -5.284530757138491630, -1.646620650097153193 ) ) ;
#275 = FACE_OUTER_BOUND ( 'NONE', #671, .T. ) ;
#276 = CARTESIAN_POINT ( 'NONE',  ( 6.531512629995651409, 0.000000000000000000, -3.164325557437698944 ) ) ;
#277 = ORIENTED_EDGE ( 'NONE', *, *, #454, .F. ) ;
#278 = ADVANCED_FACE ( 'NONE', ( #793 ), #405, .T. ) ;
#279 = ORIENTED_EDGE ( 'NONE', *, *, #413, .F. ) ;
#280 = CARTESIAN_POINT ( 'NONE',  ( 5.469463484321408053, -0.9599999999999999645, 3.156360247871148328 ) ) ;
#281 = LINE ( 'NONE', #596, #190 ) ;
#282 = VERTEX_POINT ( 'NONE', #784 ) ;
#283 = VECTOR ( 'NONE', #430, 39.37007874015748143 ) ;
#284 = EDGE_CURVE ( 'NONE', #1218, #1014, #650, .T. ) ;
#285 = DIRECTION ( 'NONE',  ( 0.000000000000000000, 0.000000000000000000, 1.000000000000000000 ) ) ;
#286 = STYLED_ITEM ( 'NONE', ( #525 ), #300 ) ;
#287 = PLANE ( 'NONE',  #506 ) ;
#288 = DIRECTION ( 'NONE',  ( -0.03487826274237469659, 0.9987827659587182882, -0.03487826274237468965 ) ) ;
#289 = ORIENTED_EDGE ( 'NONE', *, *, #909, .F. ) ;
#290 = ORIENTED_EDGE ( 'NONE', *, *, #679, .T. ) ;
#291 = AXIS2_PLACEMENT_3D ( 'NONE', #1094, #358, #810 ) ;
#292 = FACE_OUTER_BOUND ( 'NONE', #792, .T. ) ;
#293 = ORIENTED_EDGE ( 'NONE', *, *, #973, .T. ) ;
#294 = CARTESIAN_POINT ( 'NONE',  ( 6.637288087353811150, -3.894124870914486417E-05, -3.114443979493875858 ) ) ;
#295 = ORIENTED_EDGE ( 'NONE', *, *, #10, .T. ) ;
#296 = ORIENTED_EDGE ( 'NONE', *, *, #465, .T. ) ;
#297 = DIRECTION ( 'NONE',  ( 0.000000000000000000, 0.9993908270190957621, -0.03489949670250104552 ) ) ;
#298 = VERTEX_POINT ( 'NONE', #599 ) ;
#299 = EDGE_CURVE ( 'NONE', #704, #501, #972, .T. ) ;
#300 = MANIFOLD_SOLID_BREP ( 'DeleteFace4', #323 ) ;
#301 = CIRCLE ( 'NONE', #22, 0.1250000000000004441 ) ;
#302 = LENGTH_MEASURE_WITH_UNIT ( LENGTH_MEASURE( 0.02539999999999999897 ), #757 );
#303 = EDGE_LOOP ( 'NONE', ( #1066, #479, #196, #1155, #1057, #115, #109, #364, #163, #567, #598, #1172, #1105, #344, #205, #561, #125, #92, #815, #1196 ) ) ;
#304 = LINE ( 'NONE', #120, #1015 ) ;
#305 = EDGE_LOOP ( 'NONE', ( #128, #214, #641, #754 ) ) ;
#306 = CARTESIAN_POINT ( 'NONE',  ( -7.589884186583223169, -10.19999999999999929, 3.859884186583225851 ) ) ;
#307 = EDGE_CURVE ( 'NONE', #260, #397, #995, .T. ) ;
#308 = ORIENTED_EDGE ( 'NONE', *, *, #489, .T. ) ;
#309 = CARTESIAN_POINT ( 'NONE',  ( 6.905344306141143917, -5.284530757138347745, 1.521620650097155192 ) ) ;
#310 = VECTOR ( 'NONE', #843, 39.37007874015748143 ) ;
#311 = ORIENTED_EDGE ( 'NONE', *, *, #307, .T. ) ;
#312 = CARTESIAN_POINT ( 'NONE',  ( 7.056360247871144686, -0.9599999999999999645, 1.479579297738185195 ) ) ;
#313 = EDGE_LOOP ( 'NONE', ( #590, #290 ) ) ;
#314 = VECTOR ( 'NONE', #788, 39.37007874015748143 ) ;
#315 = ADVANCED_FACE ( 'NONE', ( #36 ), #140, .T. ) ;
#316 = DIRECTION ( 'NONE',  ( 0.000000000000000000, 1.000000000000000000, 0.000000000000000000 ) ) ;
#317 = ORIENTED_EDGE ( 'NONE', *, *, #685, .F. ) ;
#318 = LINE ( 'NONE', #1067, #626 ) ;
#319 = EDGE_CURVE ( 'NONE', #852, #994, #534, .T. ) ;
#320 = PLANE ( 'NONE',  #566 ) ;
#321 = ORIENTED_EDGE ( 'NONE', *, *, #760, .F. ) ;
#322 = LINE ( 'NONE', #700, #997 ) ;
#323 = CLOSED_SHELL ( 'NONE', ( #606, #2, #804, #315, #331, #707, #1140, #1179, #859, #1042, #516, #798, #627, #365, #886, #670, #980, #446, #1095, #1132, #119, #1169, #775, #337, #844, #44, #433, #785, #166, #790, #1029, #59, #278, #1193, #925, #1002, #647, #722, #480, #75, #390 ) ) ;
#324 = DIRECTION ( 'NONE',  ( 0.03487826274237470353, 0.9987827659587183993, -0.03487826274237471047 ) ) ;
#325 = CIRCLE ( 'NONE', #597, 0.7899999999999994804 ) ;
#326 = PRODUCT_DEFINITION ( 'UNKNOWN', '', #892, #934 ) ;
#327 = AXIS2_PLACEMENT_3D ( 'NONE', #464, #477, #836 ) ;
#328 = CARTESIAN_POINT ( 'NONE',  ( 7.056360247871144686, -0.9599999999999999645, -1.604579297738184973 ) ) ;
#329 = ORIENTED_EDGE ( 'NONE', *, *, #132, .F. ) ;
#330 = CARTESIAN_POINT ( 'NONE',  ( -7.589884186583224057, -10.19999999999999929, -3.859884186583222743 ) ) ;
#331 = ADVANCED_FACE ( 'NONE', ( #350 ), #1097, .T. ) ;
#332 = DIRECTION ( 'NONE',  ( 0.000000000000000000, 0.000000000000000000, 1.000000000000000000 ) ) ;
#333 = FACE_BOUND ( 'NONE', #4, .T. ) ;
#334 = ORIENTED_EDGE ( 'NONE', *, *, #407, .T. ) ;
#335 = CARTESIAN_POINT ( 'NONE',  ( -7.589884186583224057, -27.72997920134740824, -3.859884186583222743 ) ) ;
#336 = CARTESIAN_POINT ( 'NONE',  ( -7.589884186583223169, 0.000000000000000000, 3.859884186583225851 ) ) ;
#337 = ADVANCED_FACE ( 'NONE', ( #258 ), #712, .F. ) ;
#338 = PLANE ( 'NONE',  #776 ) ;
#339 = VERTEX_POINT ( 'NONE', #984 ) ;
#340 = FACE_OUTER_BOUND ( 'NONE', #1145, .T. ) ;
#341 = DIRECTION ( 'NONE',  ( 0.000000000000000000, 1.000000000000000000, 0.000000000000000000 ) ) ;
#342 = DIRECTION ( 'NONE',  ( 1.415507751843974308E-16, 0.000000000000000000, -1.000000000000000000 ) ) ;
#343 = DIRECTION ( 'NONE',  ( -0.03487826274237470353, 0.9987827659587183993, -0.03487826274237469659 ) ) ;
#344 = ORIENTED_EDGE ( 'NONE', *, *, #893, .F. ) ;
#345 = AXIS2_PLACEMENT_3D ( 'NONE', #831, #538, #261 ) ;
#346 = DIRECTION ( 'NONE',  ( -1.000000000000000000, 0.000000000000000000, 0.000000000000000000 ) ) ;
#347 = DIRECTION ( 'NONE',  ( -1.875126253900127178E-16, -0.03489949670250104552, 0.9993908270190957621 ) ) ;
#348 = EDGE_CURVE ( 'NONE', #270, #646, #889, .T. ) ;
#349 = PLANE ( 'NONE',  #1186 ) ;
#350 = FACE_OUTER_BOUND ( 'NONE', #305, .T. ) ;
#351 = ORIENTED_EDGE ( 'NONE', *, *, #259, .T. ) ;
#352 = CARTESIAN_POINT ( 'NONE',  ( -7.280000000000001137, -0.9599999999999999645, -3.156360247871146107 ) ) ;
#353 = DIRECTION ( 'NONE',  ( 0.000000000000000000, 0.000000000000000000, 1.000000000000000000 ) ) ;
#354 = EDGE_LOOP ( 'NONE', ( #1054, #269 ) ) ;
#355 = EDGE_CURVE ( 'NONE', #195, #1040, #325, .T. ) ;
#356 = DIRECTION ( 'NONE',  ( -1.000000000000000000, 0.000000000000000000, 1.876269226417763408E-16 ) ) ;
#357 = CARTESIAN_POINT ( 'NONE',  ( -6.794549912402323422, -0.0008663146725447034950, -3.022785176389000572 ) ) ;
#358 = DIRECTION ( 'NONE',  ( 0.03487826274237470353, 0.9987827659587183993, 0.03487826274237471047 ) ) ;
#359 = CARTESIAN_POINT ( 'NONE',  ( -5.589884186583224945, -3.579531660364396295, -3.064884186583225922 ) ) ;
#360 = ORIENTED_EDGE ( 'NONE', *, *, #553, .F. ) ;
#361 = VERTEX_POINT ( 'NONE', #724 ) ;
#362 = LINE ( 'NONE', #924, #870 ) ;
#363 = CARTESIAN_POINT ( 'NONE',  ( -7.010018688088100802, -0.0004809081253963566529, 2.750300545076185710 ) ) ;
#364 = ORIENTED_EDGE ( 'NONE', *, *, #744, .F. ) ;
#365 = ADVANCED_FACE ( 'NONE', ( #340 ), #905, .F. ) ;
#366 = CIRCLE ( 'NONE', #542, 0.7900000000000000355 ) ;
#367 = CARTESIAN_POINT ( 'NONE',  ( -5.589884186583224945, -0.9599999999999999645, -3.064884186583225922 ) ) ;
#368 = CARTESIAN_POINT ( 'NONE',  ( 6.300365433238136248, 0.000000000000000000, -3.189884186583226811 ) ) ;
#369 = VERTEX_POINT ( 'NONE', #900 ) ;
#370 =( BOUNDED_CURVE ( )  B_SPLINE_CURVE ( 3, ( #920, #90, #1026, #180 ),
 .UNSPECIFIED., .F., .T. ) 
 B_SPLINE_CURVE_WITH_KNOTS ( ( 4, 4 ),
 ( 1.842311603701815681, 4.440873703477770107 ),
 .UNSPECIFIED. ) 
 CURVE ( )  GEOMETRIC_REPRESENTATION_ITEM ( )  RATIONAL_B_SPLINE_CURVE ( ( 1.000000000000000000, 0.5121276731310806518, 0.5121276731310806518, 1.000000000000000000 ) ) 
 REPRESENTATION_ITEM ( '' )  );
#371 = DIRECTION ( 'NONE',  ( 0.000000000000000000, 1.000000000000000000, 0.000000000000000000 ) ) ;
#372 = CARTESIAN_POINT ( 'NONE',  ( 7.056360247871144686, -0.9599999999999999645, -1.604579297738184973 ) ) ;
#373 = CIRCLE ( 'NONE', #589, 0.1250000000000004441 ) ;
#374 = FACE_OUTER_BOUND ( 'NONE', #739, .T. ) ;
#375 = EDGE_CURVE ( 'NONE', #282, #602, #436, .T. ) ;
#376 = CARTESIAN_POINT ( 'NONE',  ( 5.988258590415680871, -8.910000000000000142, -3.380000000000002558 ) ) ;
#377 = ORIENTED_EDGE ( 'NONE', *, *, #1185, .T. ) ;
#378 = VERTEX_POINT ( 'NONE', #629 ) ;
#379 = DIRECTION ( 'NONE',  ( 1.415507751843974062E-16, 0.000000000000000000, 1.000000000000000000 ) ) ;
#380 = CARTESIAN_POINT ( 'NONE',  ( -7.280000000000001137, -9.699999999999999289, 3.379999999999999893 ) ) ;
#381 = DIRECTION ( 'NONE',  ( 0.000000000000000000, 0.000000000000000000, 1.000000000000000000 ) ) ;
#382 = EDGE_LOOP ( 'NONE', ( #263, #202, #1112, #200, #609, #296, #907 ) ) ;
#383 = ORIENTED_EDGE ( 'NONE', *, *, #760, .T. ) ;
#384 = PLANE ( 'NONE',  #1168 ) ;
#385 = VERTEX_POINT ( 'NONE', #1001 ) ;
#386 = CYLINDRICAL_SURFACE ( 'NONE', #725, 0.1250000000000004441 ) ;
#387 = FILL_AREA_STYLE ('',( #953 ) ) ;
#388 = ORIENTED_EDGE ( 'NONE', *, *, #696, .F. ) ;
#389 = ORIENTED_EDGE ( 'NONE', *, *, #679, .F. ) ;
#390 = ADVANCED_FACE ( 'NONE', ( #157 ), #65, .T. ) ;
#391 = CARTESIAN_POINT ( 'NONE',  ( 7.589884186583224057, 0.000000000000000000, -3.859884186583222743 ) ) ;
#392 = EDGE_LOOP ( 'NONE', ( #731, #308, #21, #321 ) ) ;
#393 = CARTESIAN_POINT ( 'NONE',  ( -7.280000000000001137, -0.9599999999999999645, 3.156360247871146107 ) ) ;
#394 = EDGE_LOOP ( 'NONE', ( #944, #1125 ) ) ;
#395 = CARTESIAN_POINT ( 'NONE',  ( -5.988258590415683535, -8.910000000000000142, -2.088258590415681848 ) ) ;
#396 = EDGE_CURVE ( 'NONE', #818, #52, #665, .T. ) ;
#397 = VERTEX_POINT ( 'NONE', #177 ) ;
#398 = CARTESIAN_POINT ( 'NONE',  ( -7.589884186583224057, -10.19999999999999929, -3.859884186583222743 ) ) ;
#399 = AXIS2_PLACEMENT_3D ( 'NONE', #1034, #406, #1056 ) ;
#400 = CYLINDRICAL_SURFACE ( 'NONE', #399, 0.7899999999999994804 ) ;
#401 = ORIENTED_EDGE ( 'NONE', *, *, #744, .T. ) ;
#402 = AXIS2_PLACEMENT_3D ( 'NONE', #791, #710, #1170 ) ;
#403 = CARTESIAN_POINT ( 'NONE',  ( -7.089870389158653197, -0.0003951065446740907637, -2.452048377264766543 ) ) ;
#404 = ORIENTED_EDGE ( 'NONE', *, *, #375, .T. ) ;
#405 = PLANE ( 'NONE',  #99 ) ;
#406 = DIRECTION ( 'NONE',  ( -0.03487826274237470353, 0.9987827659587183993, -0.03487826274237469659 ) ) ;
#407 = EDGE_CURVE ( 'NONE', #787, #385, #829, .T. ) ;
#408 = ORIENTED_EDGE ( 'NONE', *, *, #696, .T. ) ;
#409 = AXIS2_PLACEMENT_3D ( 'NONE', #380, #127, #786 ) ;
#410 = CARTESIAN_POINT ( 'NONE',  ( -5.589884186583224945, -4.959999999999999964, 3.189884186583225034 ) ) ;
#411 = ORIENTED_EDGE ( 'NONE', *, *, #113, .T. ) ;
#412 = CARTESIAN_POINT ( 'NONE',  ( 6.719283638448865226, -0.0009550604950186943097, -3.075724287044352412 ) ) ;
#413 = EDGE_CURVE ( 'NONE', #18, #976, #955, .T. ) ;
#414 = FACE_OUTER_BOUND ( 'NONE', #763, .T. ) ;
#415 = EDGE_LOOP ( 'NONE', ( #942, #1048, #846, #233 ) ) ;
#416 = CARTESIAN_POINT ( 'NONE',  ( 6.637288087353811150, -3.894124870914486417E-05, -3.114443979493875858 ) ) ;
#417 = CARTESIAN_POINT ( 'NONE',  ( 7.089884186583222281, 0.000000000000000000, 2.400365433238139889 ) ) ;
#418 = PRODUCT_RELATED_PRODUCT_CATEGORY ( 'part', '', ( #207 ) ) ;
#419 = CARTESIAN_POINT ( 'NONE',  ( 7.056360247871144686, -0.9599999999999999645, -3.380000000000002558 ) ) ;
#420 = EDGE_LOOP ( 'NONE', ( #31, #188, #41 ) ) ;
#421 = CARTESIAN_POINT ( 'NONE',  ( 5.710304888845040949, -0.9599999999999999645, 3.156360247871148328 ) ) ;
#422 = CARTESIAN_POINT ( 'NONE',  ( -5.988258590415683535, -8.910000000000000142, 2.088258590415681848 ) ) ;
#423 = AXIS2_PLACEMENT_3D ( 'NONE', #96, #1036, #669 ) ;
#424 = EDGE_CURVE ( 'NONE', #1159, #657, #963, .T. ) ;
#425 = DIRECTION ( 'NONE',  ( 0.000000000000000000, 0.000000000000000000, -1.000000000000000000 ) ) ;
#426 = ORIENTED_EDGE ( 'NONE', *, *, #916, .T. ) ;
#427 = DIRECTION ( 'NONE',  ( 1.415507751843974308E-16, 0.000000000000000000, 1.000000000000000000 ) ) ;
#428 = CARTESIAN_POINT ( 'NONE',  ( 6.858697797036767518, -1.347492551766579860E-17, -2.958697796604264685 ) ) ;
#429 = AXIS2_PLACEMENT_3D ( 'NONE', #1175, #324, #43 ) ;
#430 = DIRECTION ( 'NONE',  ( 0.000000000000000000, 0.000000000000000000, -1.000000000000000000 ) ) ;
#431 = ORIENTED_EDGE ( 'NONE', *, *, #664, .F. ) ;
#432 = CARTESIAN_POINT ( 'NONE',  ( -5.988258590415683535, -8.909999999999998366, -2.088258590415681848 ) ) ;
#433 = ADVANCED_FACE ( 'NONE', ( #292 ), #384, .T. ) ;
#434 = CARTESIAN_POINT ( 'NONE',  ( 5.531554749978322860, -3.579531660364458023, -3.064884186583226366 ) ) ;
#435 = CARTESIAN_POINT ( 'NONE',  ( -7.049558335495518691, -0.0004312752317083166573, 2.654815268584008958 ) ) ;
#436 = LINE ( 'NONE', #807, #759 ) ;
#437 = AXIS2_PLACEMENT_3D ( 'NONE', #1215, #751, #1122 ) ;
#438 = CARTESIAN_POINT ( 'NONE',  ( -5.589884186583224945, -4.959999999999999964, -3.189884186583226366 ) ) ;
#439 = DIRECTION ( 'NONE',  ( -1.000000000000000000, 0.000000000000000000, -1.876269226417763408E-16 ) ) ;
#440 = FACE_BOUND ( 'NONE', #954, .T. ) ;
#441 =( GEOMETRIC_REPRESENTATION_CONTEXT ( 3 ) GLOBAL_UNCERTAINTY_ASSIGNED_CONTEXT ( ( #473 ) ) GLOBAL_UNIT_ASSIGNED_CONTEXT ( ( #813, #1189, #896 ) ) REPRESENTATION_CONTEXT ( 'NONE', 'WORKASPACE' ) );
#442 = CARTESIAN_POINT ( 'NONE',  ( -7.089870389158671848, -0.0003951065441610501446, 2.452048377232688203 ) ) ;
#443 = VERTEX_POINT ( 'NONE', #644 ) ;
#444 = CARTESIAN_POINT ( 'NONE',  ( 5.988258590415680871, -8.910000000000000142, -2.088258590415684068 ) ) ;
#445 = DIRECTION ( 'NONE',  ( 1.000000000000000000, 0.000000000000000000, -0.000000000000000000 ) ) ;
#446 = ADVANCED_FACE ( 'NONE', ( #1017 ), #1134, .F. ) ;
#447 = ORIENTED_EDGE ( 'NONE', *, *, #375, .F. ) ;
#448 = CARTESIAN_POINT ( 'NONE',  ( -5.469463484321408941, -0.9599999999999999645, -3.156360247871146552 ) ) ;
#449 = LENGTH_MEASURE_WITH_UNIT ( LENGTH_MEASURE( 0.02539999999999999897 ), #730 );
#450 = CARTESIAN_POINT ( 'NONE',  ( -5.589884186583224945, -4.959999999999999964, -3.189884186583226366 ) ) ;
#451 = FACE_OUTER_BOUND ( 'NONE', #222, .T. ) ;
#452 = DIRECTION ( 'NONE',  ( -0.03487826274237469659, -0.9987827659587182882, -0.03487826274237470353 ) ) ;
#453 = EDGE_LOOP ( 'NONE', ( #687, #1098, #1101, #1138, #1086, #94, #351 ) ) ;
#454 = EDGE_CURVE ( 'NONE', #245, #577, #211, .T. ) ;
#455 = EDGE_LOOP ( 'NONE', ( #168, #711 ) ) ;
#456 = AXIS2_PLACEMENT_3D ( 'NONE', #560, #930, #256 ) ;
#457 = CARTESIAN_POINT ( 'NONE',  ( -5.589884186583224945, -0.9599999999999999645, 3.189884186583225034 ) ) ;
#458 = EDGE_CURVE ( 'NONE', #818, #1137, #1053, .T. ) ;
#459 = EDGE_LOOP ( 'NONE', ( #673, #408 ) ) ;
#460 = FACE_OUTER_BOUND ( 'NONE', #923, .T. ) ;
#461 = DIRECTION ( 'NONE',  ( 0.000000000000000000, 1.000000000000000000, 0.000000000000000000 ) ) ;
#462 = VERTEX_POINT ( 'NONE', #1214 ) ;
#463 = DIRECTION ( 'NONE',  ( 0.000000000000000000, 0.000000000000000000, 1.000000000000000000 ) ) ;
#464 = CARTESIAN_POINT ( 'NONE',  ( -5.988258590415683535, -8.910000000000000142, 2.088258590415682736 ) ) ;
#465 = EDGE_CURVE ( 'NONE', #339, #593, #809, .T. ) ;
#466 = DIRECTION ( 'NONE',  ( 1.000000000000000000, -0.000000000000000000, 1.415507751843974308E-16 ) ) ;
#467 = CARTESIAN_POINT ( 'NONE',  ( -5.589884186583224945, -4.959999999999999964, -3.064884186583225922 ) ) ;
#468 = VERTEX_POINT ( 'NONE', #943 ) ;
#469 = VECTOR ( 'NONE', #856, 39.37007874015748143 ) ;
#470 = EDGE_LOOP ( 'NONE', ( #388, #389 ) ) ;
#471 = CARTESIAN_POINT ( 'NONE',  ( 7.089884186583222281, 0.000000000000000000, 3.379999999999999893 ) ) ;
#472 = CIRCLE ( 'NONE', #1157, 0.1250000000000004441 ) ;
#473 = UNCERTAINTY_MEASURE_WITH_UNIT (LENGTH_MEASURE( 1.000000000000000082E-05 ), #813, 'distance_accuracy_value', 'NONE');
#474 = CARTESIAN_POINT ( 'NONE',  ( 5.589884186583224945, -4.959999999999999964, 3.189884186583225034 ) ) ;
#475 = DIRECTION ( 'NONE',  ( 0.000000000000000000, 1.000000000000000000, 0.000000000000000000 ) ) ;
#476 = EDGE_LOOP ( 'NONE', ( #773, #83, #636, #134 ) ) ;
#477 = DIRECTION ( 'NONE',  ( -1.000000000000000000, 1.960053859272353581E-15, 0.000000000000000000 ) ) ;
#478 = CARTESIAN_POINT ( 'NONE',  ( 7.589884186583224057, -10.19999999999999929, -3.859884186583222743 ) ) ;
#479 = ORIENTED_EDGE ( 'NONE', *, *, #259, .F. ) ;
#480 = ADVANCED_FACE ( 'NONE', ( #5 ), #742, .T. ) ;
#481 = VECTOR ( 'NONE', #1077, 39.37007874015748143 ) ;
#482 = CARTESIAN_POINT ( 'NONE',  ( 5.694661429182217738, -2.569144774466292080, -3.100167674123160300 ) ) ;
#483 = VECTOR ( 'NONE', #750, 39.37007874015748143 ) ;
#484 = VERTEX_POINT ( 'NONE', #185 ) ;
#485 = DIRECTION ( 'NONE',  ( 0.000000000000000000, 0.000000000000000000, 1.000000000000000000 ) ) ;
#486 = APPLICATION_PROTOCOL_DEFINITION ( 'draft international standard', 'automotive_design', 1998, #1133 ) ;
#487 = VECTOR ( 'NONE', #379, 39.37007874015748143 ) ;
#488 = VERTEX_POINT ( 'NONE', #197 ) ;
#489 = EDGE_CURVE ( 'NONE', #966, #552, #932, .T. ) ;
#490 = CARTESIAN_POINT ( 'NONE',  ( 7.056360247871144686, -0.9599999999999999645, 1.720420702261815205 ) ) ;
#491 = ORIENTED_EDGE ( 'NONE', *, *, #229, .F. ) ;
#492 = DIRECTION ( 'NONE',  ( 0.000000000000000000, 1.000000000000000000, 0.000000000000000000 ) ) ;
#493 = FACE_OUTER_BOUND ( 'NONE', #1142, .T. ) ;
#494 = ORIENTED_EDGE ( 'NONE', *, *, #220, .T. ) ;
#495 = FACE_OUTER_BOUND ( 'NONE', #476, .T. ) ;
#496 = EDGE_CURVE ( 'NONE', #646, #121, #1220, .T. ) ;
#497 = ORIENTED_EDGE ( 'NONE', *, *, #591, .F. ) ;
#498 = CARTESIAN_POINT ( 'NONE',  ( 6.794549912961422855, -0.0008663146762315921800, -3.022785175979047612 ) ) ;
#499 =( BOUNDED_CURVE ( )  B_SPLINE_CURVE ( 3, ( #217, #309, #210, #490 ),
 .UNSPECIFIED., .F., .T. ) 
 B_SPLINE_CURVE_WITH_KNOTS ( ( 4, 4 ),
 ( 1.842311603701834333, 4.440873703477752343 ),
 .UNSPECIFIED. ) 
 CURVE ( )  GEOMETRIC_REPRESENTATION_ITEM ( )  RATIONAL_B_SPLINE_CURVE ( ( 1.000000000000000000, 0.5121276731310924202, 0.5121276731310924202, 1.000000000000000000 ) ) 
 REPRESENTATION_ITEM ( '' )  );
#500 = SURFACE_SIDE_STYLE ('',( #571 ) ) ;
#501 = VERTEX_POINT ( 'NONE', #573 ) ;
#502 = AXIS2_PLACEMENT_3D ( 'NONE', #176, #371, #541 ) ;
#503 = ORIENTED_EDGE ( 'NONE', *, *, #229, .T. ) ;
#504 = CARTESIAN_POINT ( 'NONE',  ( -7.089884186583224945, -0.9599999999999999645, -1.725000000000000089 ) ) ;
#505 = EDGE_CURVE ( 'NONE', #79, #260, #642, .T. ) ;
#506 = AXIS2_PLACEMENT_3D ( 'NONE', #507, #1038, #199 ) ;
#507 = CARTESIAN_POINT ( 'NONE',  ( -7.090115742866372806, 0.006630904373475198649, -3.379999999999999893 ) ) ;
#508 = ORIENTED_EDGE ( 'NONE', *, *, #613, .F. ) ;
#509 = DIRECTION ( 'NONE',  ( -0.000000000000000000, 0.000000000000000000, 1.000000000000000000 ) ) ;
#510 = DIRECTION ( 'NONE',  ( 0.000000000000000000, 0.000000000000000000, 1.000000000000000000 ) ) ;
#511 = CARTESIAN_POINT ( 'NONE',  ( -7.589884186583224057, 0.000000000000000000, -3.859884186583222743 ) ) ;
#512 = EDGE_LOOP ( 'NONE', ( #579, #777 ) ) ;
#513 = CARTESIAN_POINT ( 'NONE',  ( 7.010018688385182273, -0.0004809081277271129006, 2.750300544492454424 ) ) ;
#514 = CARTESIAN_POINT ( 'NONE',  ( -5.469463484321408941, -0.9599999999999999645, 3.156360247871146552 ) ) ;
#515 = VECTOR ( 'NONE', #452, 39.37007874015748854 ) ;
#516 = ADVANCED_FACE ( 'NONE', ( #495, #592, #1150 ), #586, .F. ) ;
#517 = CARTESIAN_POINT ( 'NONE',  ( 5.988258590415674654, -8.910000000000000142, -2.088258590415684068 ) ) ;
#518 = EDGE_LOOP ( 'NONE', ( #983, #295, #1120 ) ) ;
#519 = CARTESIAN_POINT ( 'NONE',  ( -7.589884186583224057, -27.72997920134740824, -3.859884186583222743 ) ) ;
#520 = CARTESIAN_POINT ( 'NONE',  ( -6.928137270464071129, -0.0007364216141066808876, -2.882007572131707551 ) ) ;
#521 = EDGE_CURVE ( 'NONE', #264, #361, #499, .T. ) ;
#522 = AXIS2_PLACEMENT_3D ( 'NONE', #578, #860, #297 ) ;
#523 = DIRECTION ( 'NONE',  ( 0.03489949670250104552, 0.9993908270190957621, 0.000000000000000000 ) ) ;
#524 = ORIENTED_EDGE ( 'NONE', *, *, #637, .T. ) ;
#525 = PRESENTATION_STYLE_ASSIGNMENT (( #146 ) ) ;
#526 = CARTESIAN_POINT ( 'NONE',  ( -6.637297881388466436, -3.894124866426939066E-05, 3.114447431332405980 ) ) ;
#527 = VECTOR ( 'NONE', #223, 39.37007874015748143 ) ;
#528 = CARTESIAN_POINT ( 'NONE',  ( 7.091307179980358200, 0.04074919934028332219, -2.401788426635276252 ) ) ;
#529 = DIRECTION ( 'NONE',  ( 1.000000000000000000, 0.000000000000000000, -1.876269226417763655E-16 ) ) ;
#530 = EDGE_CURVE ( 'NONE', #740, #282, #891, .T. ) ;
#531 = CARTESIAN_POINT ( 'NONE',  ( -6.794549912792271051, -0.0008663146743782498306, 3.022785176098565341 ) ) ;
#532 = CYLINDRICAL_SURFACE ( 'NONE', #1213, 0.1250000000000004441 ) ;
#533 = DIRECTION ( 'NONE',  ( -1.000000000000000000, 0.000000000000000000, 0.000000000000000000 ) ) ;
#534 =( BOUNDED_CURVE ( )  B_SPLINE_CURVE ( 3, ( #821, #610, #735, #234 ),
 .UNSPECIFIED., .F., .T. ) 
 B_SPLINE_CURVE_WITH_KNOTS ( ( 4, 4 ),
 ( 0.3443365942924270784, 0.7847891758118356043 ),
 .UNSPECIFIED. ) 
 CURVE ( )  GEOMETRIC_REPRESENTATION_ITEM ( )  RATIONAL_B_SPLINE_CURVE ( ( 1.000000000000000000, 0.9838986939981279045, 0.9838986939981279045, 1.000000000000000000 ) ) 
 REPRESENTATION_ITEM ( '' )  );
#535 = CARTESIAN_POINT ( 'NONE',  ( -6.637289357291120240, -3.894124882633307182E-05, -3.114443380661561900 ) ) ;
#536 = ORIENTED_EDGE ( 'NONE', *, *, #664, .T. ) ;
#537 = EDGE_CURVE ( 'NONE', #195, #52, #950, .T. ) ;
#538 = DIRECTION ( 'NONE',  ( 0.000000000000000000, 1.000000000000000000, 0.000000000000000000 ) ) ;
#539 = CARTESIAN_POINT ( 'NONE',  ( -6.300365433238136248, 0.000000000000000000, -3.189884186583224146 ) ) ;
#540 = VECTOR ( 'NONE', #57, 39.37007874015748143 ) ;
#541 = DIRECTION ( 'NONE',  ( 1.000000000000000000, 0.000000000000000000, 0.000000000000000000 ) ) ;
#542 = AXIS2_PLACEMENT_3D ( 'NONE', #998, #60, #172 ) ;
#543 = ORIENTED_EDGE ( 'NONE', *, *, #424, .T. ) ;
#544 = CARTESIAN_POINT ( 'NONE',  ( -5.469463484321408941, -0.9599999999999999645, -3.156360247871146552 ) ) ;
#545 = SPHERICAL_SURFACE ( 'NONE', #456, 0.7899999999999999245 ) ;
#546 = ORIENTED_EDGE ( 'NONE', *, *, #86, .T. ) ;
#547 = EDGE_CURVE ( 'NONE', #260, #1040, #1144, .T. ) ;
#548 = CARTESIAN_POINT ( 'NONE',  ( 6.300365433238132695, 0.000000000000000000, 3.189884186583226366 ) ) ;
#549 = CARTESIAN_POINT ( 'NONE',  ( 7.089884186583224945, -0.9599999999999999645, -1.725000000000000089 ) ) ;
#550 = CARTESIAN_POINT ( 'NONE',  ( -6.858697796386596046, 0.000000000000000000, -2.958697797254435713 ) ) ;
#551 = DIRECTION ( 'NONE',  ( 0.000000000000000000, 0.000000000000000000, 1.000000000000000000 ) ) ;
#552 = VERTEX_POINT ( 'NONE', #767 ) ;
#553 = EDGE_CURVE ( 'NONE', #976, #18, #1174, .T. ) ;
#554 = VECTOR ( 'NONE', #625, 39.37007874015748143 ) ;
#555 = CARTESIAN_POINT ( 'NONE',  ( -7.280000000000002025, 0.000000000000000000, -3.189884186583223702 ) ) ;
#556 = CARTESIAN_POINT ( 'NONE',  ( 5.710304888845040949, -0.9599999999999999645, -3.156360247871148328 ) ) ;
#557 = DIRECTION ( 'NONE',  ( 1.000000000000000000, 0.000000000000000000, -1.876269226417763408E-16 ) ) ;
#558 = AXIS2_PLACEMENT_3D ( 'NONE', #517, #812, #425 ) ;
#559 = DIRECTION ( 'NONE',  ( 0.000000000000000000, 0.000000000000000000, 1.000000000000000000 ) ) ;
#560 = CARTESIAN_POINT ( 'NONE',  ( 5.988258590415680871, -8.910000000000000142, 2.088258590415684068 ) ) ;
#561 = ORIENTED_EDGE ( 'NONE', *, *, #505, .F. ) ;
#562 = CARTESIAN_POINT ( 'NONE',  ( 5.589884186583224945, -0.9599999999999999645, 3.189884186583225034 ) ) ;
#563 = CARTESIAN_POINT ( 'NONE',  ( 7.029804439135107330, 3.112694367656700543E-18, 2.702573833248167912 ) ) ;
#564 = CARTESIAN_POINT ( 'NONE',  ( 5.988258590415680871, -9.699999999999999289, -2.088258590415684512 ) ) ;
#565 = EDGE_LOOP ( 'NONE', ( #508, #779, #524 ) ) ;
#566 = AXIS2_PLACEMENT_3D ( 'NONE', #697, #316, #1070 ) ;
#567 = ORIENTED_EDGE ( 'NONE', *, *, #729, .F. ) ;
#568 = CARTESIAN_POINT ( 'NONE',  ( -7.589884186583224057, 0.000000000000000000, -3.859884186583222743 ) ) ;
#569 = EDGE_CURVE ( 'NONE', #121, #787, #304, .T. ) ;
#570 = CARTESIAN_POINT ( 'NONE',  ( 6.777777343760766016, -8.937570602394975694, 2.088258590415683180 ) ) ;
#571 = SURFACE_STYLE_FILL_AREA ( #387 ) ;
#572 = ORIENTED_EDGE ( 'NONE', *, *, #97, .T. ) ;
#573 = CARTESIAN_POINT ( 'NONE',  ( 5.988258590415679983, -8.937570602394973918, -2.877777343760769657 ) ) ;
#574 = ORIENTED_EDGE ( 'NONE', *, *, #216, .T. ) ;
#575 = CYLINDRICAL_SURFACE ( 'NONE', #1194, 0.1249999999999999029 ) ;
#576 = EDGE_CURVE ( 'NONE', #18, #976, #681, .T. ) ;
#577 = VERTEX_POINT ( 'NONE', #1209 ) ;
#578 = CARTESIAN_POINT ( 'NONE',  ( -7.280000000000001137, 0.006630904373475198649, -3.190115742866371562 ) ) ;
#579 = ORIENTED_EDGE ( 'NONE', *, *, #1162, .F. ) ;
#580 = CARTESIAN_POINT ( 'NONE',  ( 6.985540605655542912, -0.0007300595120448447007, 2.796082942912165414 ) ) ;
#581 =( BOUNDED_CURVE ( )  B_SPLINE_CURVE ( 3, ( #448, #820, #1102, #651 ),
 .UNSPECIFIED., .F., .T. ) 
 B_SPLINE_CURVE_WITH_KNOTS ( ( 4, 4 ),
 ( 1.842311603701834111, 3.141592653589793116 ),
 .UNSPECIFIED. ) 
 CURVE ( )  GEOMETRIC_REPRESENTATION_ITEM ( )  RATIONAL_B_SPLINE_CURVE ( ( 1.000000000000000000, 0.8642008643503864551, 0.8642008643503864551, 1.000000000000000000 ) ) 
 REPRESENTATION_ITEM ( '' )  );
#582 = CARTESIAN_POINT ( 'NONE',  ( 5.589884186583224945, -0.9599999999999999645, 3.189884186583225034 ) ) ;
#583 = AXIS2_PLACEMENT_3D ( 'NONE', #395, #964, #771 ) ;
#584 = ORIENTED_EDGE ( 'NONE', *, *, #192, .F. ) ;
#585 = EDGE_CURVE ( 'NONE', #378, #468, #795, .T. ) ;
#586 = PLANE ( 'NONE',  #522 ) ;
#587 = ORIENTED_EDGE ( 'NONE', *, *, #537, .T. ) ;
#588 = DIRECTION ( 'NONE',  ( 0.000000000000000000, 1.000000000000000000, 0.000000000000000000 ) ) ;
#589 = AXIS2_PLACEMENT_3D ( 'NONE', #694, #341, #510 ) ;
#590 = ORIENTED_EDGE ( 'NONE', *, *, #54, .F. ) ;
#591 = EDGE_CURVE ( 'NONE', #52, #1218, #159, .T. ) ;
#592 = FACE_BOUND ( 'NONE', #692, .T. ) ;
#593 = VERTEX_POINT ( 'NONE', #73 ) ;
#594 = CARTESIAN_POINT ( 'NONE',  ( -7.089884186583224945, 0.000000000000000000, -2.400365433238138557 ) ) ;
#595 = AXIS2_PLACEMENT_3D ( 'NONE', #887, #138, #904 ) ;
#596 = CARTESIAN_POINT ( 'NONE',  ( 6.777777343760766016, -8.937570602394977470, -3.380000000000002558 ) ) ;
#597 = AXIS2_PLACEMENT_3D ( 'NONE', #432, #343, #1183 ) ;
#598 = ORIENTED_EDGE ( 'NONE', *, *, #319, .F. ) ;
#599 = CARTESIAN_POINT ( 'NONE',  ( -6.858697796386596046, 0.000000000000000000, -2.958697797254435713 ) ) ;
#600 = CARTESIAN_POINT ( 'NONE',  ( 7.089870389158742015, -0.0003951065420733500147, 2.452048377102149068 ) ) ;
#601 = DIRECTION ( 'NONE',  ( 0.000000000000000000, 1.000000000000000000, 0.000000000000000000 ) ) ;
#602 = VERTEX_POINT ( 'NONE', #67 ) ;
#603 = DIRECTION ( 'NONE',  ( -0.000000000000000000, -1.000000000000000000, -0.000000000000000000 ) ) ;
#604 = CARTESIAN_POINT ( 'NONE',  ( 7.029804439135107330, 3.112694367656700543E-18, 2.702573833248167912 ) ) ;
#605 = DIRECTION ( 'NONE',  ( 0.000000000000000000, 0.000000000000000000, 1.000000000000000000 ) ) ;
#606 = ADVANCED_FACE ( 'NONE', ( #451 ), #532, .T. ) ;
#607 = B_SPLINE_CURVE_WITH_KNOTS ( 'NONE', 3,
 ( #144, #442, #1181, #628, #435, #1000 ),
 .UNSPECIFIED., .F., .F.,
 ( 4, 2, 4 ),
 ( 0.000000000000000000, 0.5000000000000000000, 1.000000000000000000 ),
 .UNSPECIFIED. ) ;
#608 = CARTESIAN_POINT ( 'NONE',  ( 7.090115742866371029, 0.006630904373475198649, -3.380000000000002558 ) ) ;
#609 = ORIENTED_EDGE ( 'NONE', *, *, #893, .T. ) ;
#610 = CARTESIAN_POINT ( 'NONE',  ( -6.531517496125172073, 0.000000000000000000, 3.164324472421049084 ) ) ;
#611 = FACE_OUTER_BOUND ( 'NONE', #1212, .T. ) ;
#612 = APPLICATION_PROTOCOL_DEFINITION ( 'draft international standard', 'automotive_design', 1998, #630 ) ;
#613 = EDGE_CURVE ( 'NONE', #740, #802, #366, .T. ) ;
#614 = DIRECTION ( 'NONE',  ( -0.000000000000000000, 0.000000000000000000, 1.000000000000000000 ) ) ;
#615 = VERTEX_POINT ( 'NONE', #367 ) ;
#616 = DIRECTION ( 'NONE',  ( -0.03487826274237470353, 0.9987827659587183993, 0.03487826274237469659 ) ) ;
#617 = DIRECTION ( 'NONE',  ( -0.03487826274237468965, 0.9987827659587182882, 0.03487826274237468965 ) ) ;
#618 = EDGE_CURVE ( 'NONE', #112, #1041, #1191, .T. ) ;
#619 =( GEOMETRIC_REPRESENTATION_CONTEXT ( 3 ) GLOBAL_UNCERTAINTY_ASSIGNED_CONTEXT ( ( #1037 ) ) GLOBAL_UNIT_ASSIGNED_CONTEXT ( ( #28, #661, #1167 ) ) REPRESENTATION_CONTEXT ( 'NONE', 'WORKASPACE' ) );
#620 = CARTESIAN_POINT ( 'NONE',  ( 7.049558335705496503, -0.0004312752292871359968, -2.654815267938183343 ) ) ;
#621 = ORIENTED_EDGE ( 'NONE', *, *, #413, .T. ) ;
#622 = AXIS2_PLACEMENT_3D ( 'NONE', #837, #466, #342 ) ;
#623 = DIRECTION ( 'NONE',  ( -1.000000000000000000, 6.544096251476063143E-18, 1.873983977650467040E-16 ) ) ;
#624 = DIRECTION ( 'NONE',  ( 0.000000000000000000, 0.000000000000000000, 1.000000000000000000 ) ) ;
#625 = DIRECTION ( 'NONE',  ( 0.000000000000000000, 1.000000000000000000, 0.000000000000000000 ) ) ;
#626 = VECTOR ( 'NONE', #588, 39.37007874015748143 ) ;
#627 = ADVANCED_FACE ( 'NONE', ( #267 ), #823, .F. ) ;
#628 = CARTESIAN_POINT ( 'NONE',  ( -7.064618923869525169, -0.0006308417642238714007, 2.605114742484248236 ) ) ;
#629 = CARTESIAN_POINT ( 'NONE',  ( 5.589884186583224945, -0.9599999999999999645, -3.064884186583225922 ) ) ;
#630 = APPLICATION_CONTEXT ( 'automotive_design' ) ;
#631 = CARTESIAN_POINT ( 'NONE',  ( -6.719283638051513741, -0.0009550604916985210718, -3.075724287259497203 ) ) ;
#632 = LINE ( 'NONE', #352, #1154 ) ;
#633 = DIRECTION ( 'NONE',  ( -0.000000000000000000, -0.000000000000000000, 1.000000000000000000 ) ) ;
#634 = CARTESIAN_POINT ( 'NONE',  ( -7.056360247871147351, -0.9599999999999999645, -3.379999999999999893 ) ) ;
#635 = FILL_AREA_STYLE ('',( #42 ) ) ;
#636 = ORIENTED_EDGE ( 'NONE', *, *, #1185, .F. ) ;
#637 = EDGE_CURVE ( 'NONE', #282, #802, #95, .T. ) ;
#638 = AXIS2_PLACEMENT_3D ( 'NONE', #450, #822, #928 ) ;
#639 = DIRECTION ( 'NONE',  ( 1.000000000000000000, 0.000000000000000000, 0.000000000000000000 ) ) ;
#640 = DIRECTION ( 'NONE',  ( 0.000000000000000000, -0.000000000000000000, 1.000000000000000000 ) ) ;
#641 = ORIENTED_EDGE ( 'NONE', *, *, #827, .F. ) ;
#642 = B_SPLINE_CURVE_WITH_KNOTS ( 'NONE', 3,
 ( #755, #938, #1127, #949, #403, #201 ),
 .UNSPECIFIED., .F., .F.,
 ( 4, 2, 4 ),
 ( 0.000000000000000000, 0.5000000000000000000, 1.000000000000000000 ),
 .UNSPECIFIED. ) ;
#643 = DIRECTION ( 'NONE',  ( 1.000000000000000000, -6.544096251476063143E-18, 1.873983977650467040E-16 ) ) ;
#644 = CARTESIAN_POINT ( 'NONE',  ( -6.777777343760768680, -8.937570602394977470, 2.088258590415680960 ) ) ;
#645 = AXIS2_PLACEMENT_3D ( 'NONE', #958, #778, #16 ) ;
#646 = VERTEX_POINT ( 'NONE', #1197 ) ;
#647 = ADVANCED_FACE ( 'NONE', ( #275 ), #255, .T. ) ;
#648 = FACE_OUTER_BOUND ( 'NONE', #415, .T. ) ;
#649 = ORIENTED_EDGE ( 'NONE', *, *, #355, .F. ) ;
#650 = CIRCLE ( 'NONE', #800, 0.7900000000000000355 ) ;
#651 = CARTESIAN_POINT ( 'NONE',  ( -5.589884186583224945, -3.579531660364396295, -3.064884186583225922 ) ) ;
#652 = CARTESIAN_POINT ( 'NONE',  ( 5.589884186583224945, -3.579531660364457579, -3.064884186583225922 ) ) ;
#653 = CARTESIAN_POINT ( 'NONE',  ( -7.056360247871147351, -0.9599999999999999645, -1.604579297738184529 ) ) ;
#654 = CARTESIAN_POINT ( 'NONE',  ( 5.710304888845040949, -0.9599999999999999645, -3.156360247871148328 ) ) ;
#655 = PLANE ( 'NONE',  #80 ) ;
#656 = ORIENTED_EDGE ( 'NONE', *, *, #496, .F. ) ;
#657 = VERTEX_POINT ( 'NONE', #654 ) ;
#658 = CARTESIAN_POINT ( 'NONE',  ( -6.858697796820109716, 2.021238827649870097E-17, 2.958697796820920711 ) ) ;
#659 = VECTOR ( 'NONE', #614, 39.37007874015748143 ) ;
#660 = CARTESIAN_POINT ( 'NONE',  ( -6.637297881388466436, -3.894124866426939066E-05, 3.114447431332405980 ) ) ;
#661 =( NAMED_UNIT ( * ) PLANE_ANGLE_UNIT ( ) SI_UNIT ( $, .RADIAN. ) );
#662 = EDGE_LOOP ( 'NONE', ( #1131, #401, #1135, #572, #227, #674, #404 ) ) ;
#663 = ORIENTED_EDGE ( 'NONE', *, *, #909, .T. ) ;
#664 = EDGE_CURVE ( 'NONE', #158, #684, #632, .T. ) ;
#665 = LINE ( 'NONE', #853, #1009 ) ;
#666 = FACE_OUTER_BOUND ( 'NONE', #470, .T. ) ;
#667 = ORIENTED_EDGE ( 'NONE', *, *, #39, .T. ) ;
#668 = AXIS2_PLACEMENT_3D ( 'NONE', #1004, #81, #346 ) ;
#669 = DIRECTION ( 'NONE',  ( 0.000000000000000000, 0.000000000000000000, 1.000000000000000000 ) ) ;
#670 = ADVANCED_FACE ( 'NONE', ( #1019 ), #732, .F. ) ;
#671 = EDGE_LOOP ( 'NONE', ( #989, #1177 ) ) ;
#672 = FACE_OUTER_BOUND ( 'NONE', #394, .T. ) ;
#673 = ORIENTED_EDGE ( 'NONE', *, *, #54, .T. ) ;
#674 = ORIENTED_EDGE ( 'NONE', *, *, #637, .F. ) ;
#675 = DIRECTION ( 'NONE',  ( -0.000000000000000000, -1.000000000000000000, -0.000000000000000000 ) ) ;
#676 = AXIS2_PLACEMENT_3D ( 'NONE', #1223, #187, #122 ) ;
#677 = ORIENTED_EDGE ( 'NONE', *, *, #940, .F. ) ;
#678 = DIRECTION ( 'NONE',  ( -0.000000000000000000, -1.000000000000000000, -0.000000000000000000 ) ) ;
#679 = EDGE_CURVE ( 'NONE', #895, #726, #33, .T. ) ;
#680 = ORIENTED_EDGE ( 'NONE', *, *, #1106, .T. ) ;
#681 = LINE ( 'NONE', #23, #1110 ) ;
#682 = EDGE_LOOP ( 'NONE', ( #212, #621 ) ) ;
#683 = CARTESIAN_POINT ( 'NONE',  ( -7.089884186583224945, -0.9599999999999999645, 1.600000000000000089 ) ) ;
#684 = VERTEX_POINT ( 'NONE', #544 ) ;
#685 = EDGE_CURVE ( 'NONE', #1040, #443, #1099, .T. ) ;
#686 = CARTESIAN_POINT ( 'NONE',  ( -7.091307179980359976, 0.04074919934028326668, -2.401788426635273588 ) ) ;
#687 = ORIENTED_EDGE ( 'NONE', *, *, #1090, .F. ) ;
#688 = CARTESIAN_POINT ( 'NONE',  ( -7.280000000000001137, -9.699999999999999289, 2.088258590415684068 ) ) ;
#689 = AXIS2_PLACEMENT_3D ( 'NONE', #878, #808, #230 ) ;
#690 = EDGE_LOOP ( 'NONE', ( #1075, #1080 ) ) ;
#691 = FACE_BOUND ( 'NONE', #690, .T. ) ;
#692 = EDGE_LOOP ( 'NONE', ( #536, #761, #680 ) ) ;
#693 = DIRECTION ( 'NONE',  ( 1.000000000000000000, 0.000000000000000000, 0.000000000000000000 ) ) ;
#694 = CARTESIAN_POINT ( 'NONE',  ( -5.589884186583224945, -0.9599999999999999645, 3.189884186583225034 ) ) ;
#695 = SHAPE_DEFINITION_REPRESENTATION ( #69, #835 ) ;
#696 = EDGE_CURVE ( 'NONE', #726, #895, #370, .T. ) ;
#697 = CARTESIAN_POINT ( 'NONE',  ( 0.000000000000000000, 0.000000000000000000, 0.000000000000000000 ) ) ;
#698 = AXIS2_PLACEMENT_3D ( 'NONE', #335, #151, #240 ) ;
#699 = ORIENTED_EDGE ( 'NONE', *, *, #585, .T. ) ;
#700 = CARTESIAN_POINT ( 'NONE',  ( 5.589884186583224945, -4.959999999999999964, -3.064884186583225922 ) ) ;
#701 = CARTESIAN_POINT ( 'NONE',  ( 5.469463484321408053, -0.9599999999999999645, -3.156360247871148328 ) ) ;
#702 = VECTOR ( 'NONE', #439, 39.37007874015748143 ) ;
#703 = CARTESIAN_POINT ( 'NONE',  ( 7.089870389158743791, -0.0003951065419955813855, -2.452048377097300946 ) ) ;
#704 = VERTEX_POINT ( 'NONE', #929 ) ;
#705 = CARTESIAN_POINT ( 'NONE',  ( 6.301788426635271279, 0.04074919934028333607, -3.191307179980361841 ) ) ;
#706 = B_SPLINE_CURVE_WITH_KNOTS ( 'NONE', 3,
 ( #1152, #977, #1055, #580, #513, #213 ),
 .UNSPECIFIED., .F., .F.,
 ( 4, 2, 4 ),
 ( 0.000000000000000000, 0.5000000000000000000, 1.000000000000000000 ),
 .UNSPECIFIED. ) ;
#707 = ADVANCED_FACE ( 'NONE', ( #460 ), #153, .T. ) ;
#708 = DIRECTION ( 'NONE',  ( 1.000000000000000000, 0.000000000000000000, 0.000000000000000000 ) ) ;
#709 = PRODUCT_CONTEXT ( 'NONE', #1133, 'mechanical' ) ;
#710 = DIRECTION ( 'NONE',  ( 0.03487826274237470353, 0.9987827659587183993, -0.03487826274237471047 ) ) ;
#711 = ORIENTED_EDGE ( 'NONE', *, *, #965, .T. ) ;
#712 = CYLINDRICAL_SURFACE ( 'NONE', #969, 0.7899999999999994804 ) ;
#713 = CARTESIAN_POINT ( 'NONE',  ( -7.083083685867739732, -0.1947408609392847212, 2.393564932522652899 ) ) ;
#714 = AXIS2_PLACEMENT_3D ( 'NONE', #582, #678, #381 ) ;
#715 = EDGE_CURVE ( 'NONE', #462, #369, #720, .T. ) ;
#716 = CIRCLE ( 'NONE', #124, 0.1249999999999999029 ) ;
#717 = DIRECTION ( 'NONE',  ( -0.000000000000000000, -1.000000000000000000, -0.000000000000000000 ) ) ;
#718 = ORIENTED_EDGE ( 'NONE', *, *, #407, .F. ) ;
#719 = CARTESIAN_POINT ( 'NONE',  ( 5.589884186583224945, -3.579531660364457579, -3.064884186583225922 ) ) ;
#720 = LINE ( 'NONE', #478, #992 ) ;
#721 = B_SPLINE_CURVE_WITH_KNOTS ( 'NONE', 3,
 ( #604, #224, #1087, #1068, #600, #417 ),
 .UNSPECIFIED., .F., .F.,
 ( 4, 2, 4 ),
 ( 0.000000000000000000, 0.5000000000000000000, 1.000000000000000000 ),
 .UNSPECIFIED. ) ;
#722 = ADVANCED_FACE ( 'NONE', ( #672 ), #386, .T. ) ;
#723 = DIRECTION ( 'NONE',  ( 0.000000000000000000, 0.000000000000000000, 1.000000000000000000 ) ) ;
#724 = CARTESIAN_POINT ( 'NONE',  ( 7.056360247871144686, -0.9599999999999999645, 1.720420702261815205 ) ) ;
#725 = AXIS2_PLACEMENT_3D ( 'NONE', #474, #1163, #221 ) ;
#726 = VERTEX_POINT ( 'NONE', #1136 ) ;
#727 = DIRECTION ( 'NONE',  ( 0.000000000000000000, 0.000000000000000000, 1.000000000000000000 ) ) ;
#728 = FACE_BOUND ( 'NONE', #455, .T. ) ;
#729 = EDGE_CURVE ( 'NONE', #994, #602, #186, .T. ) ;
#730 =( LENGTH_UNIT ( ) NAMED_UNIT ( * ) SI_UNIT ( $, .METRE. ) );
#731 = ORIENTED_EDGE ( 'NONE', *, *, #1049, .F. ) ;
#732 = CYLINDRICAL_SURFACE ( 'NONE', #668, 0.7900000000000000355 ) ;
#733 = CARTESIAN_POINT ( 'NONE',  ( 7.073595038814714187, -0.4664601612618634041, 2.384076285469630907 ) ) ;
#734 = VERTEX_POINT ( 'NONE', #563 ) ;
#735 = CARTESIAN_POINT ( 'NONE',  ( -6.417369974670330990, 0.000000000000000000, 3.189884186583224590 ) ) ;
#736 = CARTESIAN_POINT ( 'NONE',  ( 7.056360247871144686, -0.9599999999999999645, -1.845420702261814982 ) ) ;
#737 = DIRECTION ( 'NONE',  ( 1.000000000000000000, 0.000000000000000000, -1.876269226417763408E-16 ) ) ;
#738 = LINE ( 'NONE', #733, #515 ) ;
#739 = EDGE_LOOP ( 'NONE', ( #102, #747, #334, #175 ) ) ;
#740 = VERTEX_POINT ( 'NONE', #936 ) ;
#741 = FACE_OUTER_BOUND ( 'NONE', #858, .T. ) ;
#742 = PLANE ( 'NONE',  #208 ) ;
#743 = VERTEX_POINT ( 'NONE', #294 ) ;
#744 = EDGE_CURVE ( 'NONE', #962, #864, #45, .T. ) ;
#745 = CARTESIAN_POINT ( 'NONE',  ( -7.280000000000001137, -0.9599999999999999645, 3.156360247871146107 ) ) ;
#746 = CARTESIAN_POINT ( 'NONE',  ( 6.417367450734587031, 0.000000000000000000, -3.189884186583226811 ) ) ;
#747 = ORIENTED_EDGE ( 'NONE', *, *, #569, .T. ) ;
#748 = AXIS2_PLACEMENT_3D ( 'NONE', #422, #332, #708 ) ;
#749 = CARTESIAN_POINT ( 'NONE',  ( 7.089884186583224945, -4.959999999999999964, 1.600000000000000089 ) ) ;
#750 = DIRECTION ( 'NONE',  ( 1.415507751843974062E-16, -0.000000000000000000, -1.000000000000000000 ) ) ;
#751 = DIRECTION ( 'NONE',  ( 0.03487826274237470353, 0.9987827659587183993, 0.03487826274237471047 ) ) ;
#752 = DIRECTION ( 'NONE',  ( 1.000000000000000000, 0.000000000000000000, 0.000000000000000000 ) ) ;
#753 = ORIENTED_EDGE ( 'NONE', *, *, #987, .F. ) ;
#754 = ORIENTED_EDGE ( 'NONE', *, *, #174, .F. ) ;
#755 = CARTESIAN_POINT ( 'NONE',  ( -7.029804438761699359, 1.556347184624019994E-17, -2.702573834149978982 ) ) ;
#756 = FACE_BOUND ( 'NONE', #303, .T. ) ;
#757 =( LENGTH_UNIT ( ) NAMED_UNIT ( * ) SI_UNIT ( $, .METRE. ) );
#758 = ORIENTED_EDGE ( 'NONE', *, *, #192, .T. ) ;
#759 = VECTOR ( 'NONE', #253, 39.37007874015748143 ) ;
#760 = EDGE_CURVE ( 'NONE', #802, #1014, #281, .T. ) ;
#761 = ORIENTED_EDGE ( 'NONE', *, *, #1011, .T. ) ;
#762 = DIRECTION ( 'NONE',  ( -0.000000000000000000, 0.000000000000000000, -1.000000000000000000 ) ) ;
#763 = EDGE_LOOP ( 'NONE', ( #765, #311, #117, #317 ) ) ;
#764 = CARTESIAN_POINT ( 'NONE',  ( 6.794549912741667086, -0.0008663146762634694586, 3.022785176149231035 ) ) ;
#765 = ORIENTED_EDGE ( 'NONE', *, *, #547, .F. ) ;
#766 = ORIENTED_EDGE ( 'NONE', *, *, #729, .T. ) ;
#767 = CARTESIAN_POINT ( 'NONE',  ( 7.089884186583222281, 0.000000000000000000, -2.400365433238140778 ) ) ;
#768 = ORIENTED_EDGE ( 'NONE', *, *, #458, .F. ) ;
#769 = FACE_OUTER_BOUND ( 'NONE', #839, .T. ) ;
#770 = ORIENTED_EDGE ( 'NONE', *, *, #220, .F. ) ;
#771 = DIRECTION ( 'NONE',  ( 0.000000000000000000, -1.000000000000000000, 0.000000000000000000 ) ) ;
#772 = VECTOR ( 'NONE', #288, 39.37007874015748854 ) ;
#773 = ORIENTED_EDGE ( 'NONE', *, *, #299, .F. ) ;
#774 = FACE_OUTER_BOUND ( 'NONE', #313, .T. ) ;
#775 = ADVANCED_FACE ( 'NONE', ( #691, #104, #414 ), #287, .F. ) ;
#776 = AXIS2_PLACEMENT_3D ( 'NONE', #608, #56, #523 ) ;
#777 = ORIENTED_EDGE ( 'NONE', *, *, #1207, .F. ) ;
#778 = DIRECTION ( 'NONE',  ( -1.000000000000000000, 0.000000000000000000, -1.876269226417763655E-16 ) ) ;
#779 = ORIENTED_EDGE ( 'NONE', *, *, #530, .T. ) ;
#780 = CARTESIAN_POINT ( 'NONE',  ( -5.988258590415683535, -8.937570602394975694, -2.877777343760767437 ) ) ;
#781 = ORIENTED_EDGE ( 'NONE', *, *, #1064, .T. ) ;
#782 = PLANE ( 'NONE',  #409 ) ;
#783 = EDGE_LOOP ( 'NONE', ( #1141, #13, #74 ) ) ;
#784 = CARTESIAN_POINT ( 'NONE',  ( 5.988258590415679095, -8.937570602394975694, 2.877777343760770101 ) ) ;
#785 = ADVANCED_FACE ( 'NONE', ( #666 ), #575, .T. ) ;
#786 = DIRECTION ( 'NONE',  ( 0.000000000000000000, -0.000000000000000000, 1.000000000000000000 ) ) ;
#787 = VERTEX_POINT ( 'NONE', #970 ) ;
#788 = DIRECTION ( 'NONE',  ( -1.000000000000000000, 0.000000000000000000, 0.000000000000000000 ) ) ;
#789 = LINE ( 'NONE', #978, #957 ) ;
#790 = ADVANCED_FACE ( 'NONE', ( #226 ), #1222, .T. ) ;
#791 = CARTESIAN_POINT ( 'NONE',  ( 5.988258590415680871, -8.909999999999998366, -2.088258590415684068 ) ) ;
#792 = EDGE_LOOP ( 'NONE', ( #431, #851, #1061 ) ) ;
#793 = FACE_OUTER_BOUND ( 'NONE', #882, .T. ) ;
#794 = DIRECTION ( 'NONE',  ( 0.000000000000000000, 0.000000000000000000, 1.000000000000000000 ) ) ;
#795 = CIRCLE ( 'NONE', #266, 0.1250000000000004441 ) ;
#796 = LINE ( 'NONE', #419, #659 ) ;
#797 = ORIENTED_EDGE ( 'NONE', *, *, #916, .F. ) ;
#798 = ADVANCED_FACE ( 'NONE', ( #14 ), #782, .T. ) ;
#799 = CARTESIAN_POINT ( 'NONE',  ( -7.589884186583224057, -10.19999999999999929, -3.859884186583222743 ) ) ;
#800 = AXIS2_PLACEMENT_3D ( 'NONE', #1160, #509, #693 ) ;
#801 = LINE ( 'NONE', #528, #241 ) ;
#802 = VERTEX_POINT ( 'NONE', #570 ) ;
#803 = CARTESIAN_POINT ( 'NONE',  ( 5.485106943984230377, -2.569144774466292080, -3.100167674123160300 ) ) ;
#804 = ADVANCED_FACE ( 'NONE', ( #756, #374 ), #320, .T. ) ;
#805 = AXIS2_PLACEMENT_3D ( 'NONE', #1074, #717, #723 ) ;
#806 = DIRECTION ( 'NONE',  ( 0.000000000000000000, -0.000000000000000000, 1.000000000000000000 ) ) ;
#807 = CARTESIAN_POINT ( 'NONE',  ( 6.284076285469626377, -0.4664601612618632376, 3.173595038814716940 ) ) ;
#808 = DIRECTION ( 'NONE',  ( 0.000000000000000000, 1.000000000000000000, 0.000000000000000000 ) ) ;
#809 = B_SPLINE_CURVE_WITH_KNOTS ( 'NONE', 3,
 ( #1206, #363, #1121, #848, #12, #658 ),
 .UNSPECIFIED., .F., .F.,
 ( 4, 2, 4 ),
 ( 0.000000000000000000, 0.5000000000000000000, 1.000000000000000000 ),
 .UNSPECIFIED. ) ;
#810 = DIRECTION ( 'NONE',  ( 0.000000000000000000, -0.03489949670250063612, 0.9993908270190957621 ) ) ;
#811 = CARTESIAN_POINT ( 'NONE',  ( -6.777777343760768680, -8.937570602394973918, -2.088258590415681848 ) ) ;
#812 = DIRECTION ( 'NONE',  ( -1.000000000000000000, -0.000000000000000000, 1.876269226417763655E-16 ) ) ;
#813 =( CONVERSION_BASED_UNIT ( 'INCH', #449 ) LENGTH_UNIT ( ) NAMED_UNIT ( #1211 ) );
#814 = AXIS2_PLACEMENT_3D ( 'NONE', #7, #601, #975 ) ;
#815 = ORIENTED_EDGE ( 'NONE', *, *, #1058, .T. ) ;
#816 = DIRECTION ( 'NONE',  ( -0.000000000000000000, -1.000000000000000000, -0.000000000000000000 ) ) ;
#817 = CARTESIAN_POINT ( 'NONE',  ( -5.589884186583224945, -0.9599999999999999645, -3.189884186583226366 ) ) ;
#818 = VERTEX_POINT ( 'NONE', #193 ) ;
#819 = EDGE_CURVE ( 'NONE', #158, #615, #131, .T. ) ;
#820 = CARTESIAN_POINT ( 'NONE',  ( -5.485106943984233041, -2.569144774466259218, -3.100167674123159411 ) ) ;
#821 = CARTESIAN_POINT ( 'NONE',  ( -6.637297881388466436, -3.894124866426939066E-05, 3.114447431332405980 ) ) ;
#822 = DIRECTION ( 'NONE',  ( 0.000000000000000000, 1.000000000000000000, 0.000000000000000000 ) ) ;
#823 = SPHERICAL_SURFACE ( 'NONE', #854, 0.7899999999999999245 ) ;
#824 = CARTESIAN_POINT ( 'NONE',  ( -5.648213623188127031, -3.579531660364396739, -3.064884186583225478 ) ) ;
#825 = AXIS2_PLACEMENT_3D ( 'NONE', #204, #475, #100 ) ;
#826 = ORIENTED_EDGE ( 'NONE', *, *, #530, .F. ) ;
#827 = EDGE_CURVE ( 'NONE', #385, #646, #133, .T. ) ;
#828 = CARTESIAN_POINT ( 'NONE',  ( 6.531517496025898595, 0.000000000000000000, 3.164324472443185599 ) ) ;
#829 = LINE ( 'NONE', #391, #483 ) ;
#830 =( BOUNDED_CURVE ( )  B_SPLINE_CURVE ( 3, ( #368, #746, #276, #1013 ),
 .UNSPECIFIED., .F., .T. ) 
 B_SPLINE_CURVE_WITH_KNOTS ( ( 4, 4 ),
 ( 5.498396131367748296, 5.938839364867086523 ),
 .UNSPECIFIED. ) 
 CURVE ( )  GEOMETRIC_REPRESENTATION_ITEM ( )  RATIONAL_B_SPLINE_CURVE ( ( 1.000000000000000000, 0.9838993746840980492, 0.9838993746840980492, 1.000000000000000000 ) ) 
 REPRESENTATION_ITEM ( '' )  );
#831 = CARTESIAN_POINT ( 'NONE',  ( 7.089884186583224945, -0.9599999999999999645, 1.600000000000000089 ) ) ;
#832 = DIRECTION ( 'NONE',  ( -0.000000000000000000, 0.000000000000000000, 1.000000000000000000 ) ) ;
#833 = ORIENTED_EDGE ( 'NONE', *, *, #105, .T. ) ;
#834 = CARTESIAN_POINT ( 'NONE',  ( -6.300365433238136248, 0.000000000000000000, -3.189884186583224146 ) ) ;
#835 = ADVANCED_BREP_SHAPE_REPRESENTATION ( '1430E - 932 BOTTOM PID 2-21-2025', ( #300, #1111 ), #922 ) ;
#836 = DIRECTION ( 'NONE',  ( -1.383214174007221790E-15, -1.000000000000000000, 0.000000000000000000 ) ) ;
#837 = CARTESIAN_POINT ( 'NONE',  ( 7.589884186583224057, -27.72997920134740824, -3.859884186583222743 ) ) ;
#838 = CARTESIAN_POINT ( 'NONE',  ( -5.710304888845040061, -0.9599999999999999645, -3.156360247871146552 ) ) ;
#839 = EDGE_LOOP ( 'NONE', ( #1, #411, #35, #574 ) ) ;
#840 = EDGE_LOOP ( 'NONE', ( #1124, #145, #1119, #1051 ) ) ;
#841 = VECTOR ( 'NONE', #996, 39.37007874015748143 ) ;
#842 = DIRECTION ( 'NONE',  ( 0.000000000000000000, 0.000000000000000000, -1.000000000000000000 ) ) ;
#843 = DIRECTION ( 'NONE',  ( -1.000000000000000000, -0.000000000000000000, -0.000000000000000000 ) ) ;
#844 = ADVANCED_FACE ( 'NONE', ( #1033 ), #98, .F. ) ;
#845 = DIRECTION ( 'NONE',  ( -1.000000000000000000, 0.000000000000000000, -1.876269226417763408E-16 ) ) ;
#846 = ORIENTED_EDGE ( 'NONE', *, *, #569, .F. ) ;
#847 = EDGE_LOOP ( 'NONE', ( #959, #1045, #491 ) ) ;
#848 = CARTESIAN_POINT ( 'NONE',  ( -6.928137270748758070, -0.0007364216120442061307, 2.882007571753220088 ) ) ;
#849 = CARTESIAN_POINT ( 'NONE',  ( 6.858697796820950821, 0.000000000000000000, 2.958697796820080939 ) ) ;
#850 = LENGTH_MEASURE_WITH_UNIT ( LENGTH_MEASURE( 0.02539999999999999897 ), #1123 );
#851 = ORIENTED_EDGE ( 'NONE', *, *, #819, .T. ) ;
#852 = VERTEX_POINT ( 'NONE', #660 ) ;
#853 = CARTESIAN_POINT ( 'NONE',  ( -5.988258590415683535, -9.699999999999999289, 3.379999999999999893 ) ) ;
#854 = AXIS2_PLACEMENT_3D ( 'NONE', #444, #1116, #639 ) ;
#855 = ORIENTED_EDGE ( 'NONE', *, *, #137, .T. ) ;
#856 = DIRECTION ( 'NONE',  ( 1.000000000000000000, 0.000000000000000000, 1.876269226417763408E-16 ) ) ;
#857 = SURFACE_STYLE_USAGE ( .BOTH. , #500 ) ;
#858 = EDGE_LOOP ( 'NONE', ( #768, #329, #218 ) ) ;
#859 = ADVANCED_FACE ( 'NONE', ( #728, #982, #333 ), #338, .F. ) ;
#860 = DIRECTION ( 'NONE',  ( -1.875126253900127178E-16, -0.03489949670250104552, -0.9993908270190957621 ) ) ;
#861 = VERTEX_POINT ( 'NONE', #535 ) ;
#862 = LINE ( 'NONE', #398, #1216 ) ;
#863 = CARTESIAN_POINT ( 'NONE',  ( 5.589884186583224945, -3.579531660364457579, -3.064884186583225922 ) ) ;
#864 = VERTEX_POINT ( 'NONE', #64 ) ;
#865 = DIRECTION ( 'NONE',  ( 1.000000000000000000, 0.000000000000000000, 0.000000000000000000 ) ) ;
#866 = VECTOR ( 'NONE', #845, 39.37007874015748143 ) ;
#867 = ORIENTED_EDGE ( 'NONE', *, *, #284, .T. ) ;
#868 = CARTESIAN_POINT ( 'NONE',  ( -5.668263536486072063, -5.284530757138431234, 3.005344306141141342 ) ) ;
#869 = PRESENTATION_STYLE_ASSIGNMENT (( #857 ) ) ;
#870 = VECTOR ( 'NONE', #643, 39.37007874015748143 ) ;
#871 = ORIENTED_EDGE ( 'NONE', *, *, #27, .F. ) ;
#872 = ORIENTED_EDGE ( 'NONE', *, *, #933, .T. ) ;
#873 = DIRECTION ( 'NONE',  ( 0.000000000000000000, 1.000000000000000000, 0.000000000000000000 ) ) ;
#874 = EDGE_CURVE ( 'NONE', #361, #264, #1126, .T. ) ;
#875 = DIRECTION ( 'NONE',  ( 0.000000000000000000, 1.000000000000000000, 0.000000000000000000 ) ) ;
#876 = ORIENTED_EDGE ( 'NONE', *, *, #174, .T. ) ;
#877 = CARTESIAN_POINT ( 'NONE',  ( 5.589884186583224945, -0.9599999999999999645, -3.189884186583226366 ) ) ;
#878 = CARTESIAN_POINT ( 'NONE',  ( -7.089884186583224945, -4.959999999999999964, -1.725000000000000089 ) ) ;
#879 = EDGE_CURVE ( 'NONE', #552, #488, #880, .T. ) ;
#880 = B_SPLINE_CURVE_WITH_KNOTS ( 'NONE', 3,
 ( #232, #703, #1188, #51, #620, #988 ),
 .UNSPECIFIED., .F., .F.,
 ( 4, 2, 4 ),
 ( 0.000000000000000000, 0.5000000000000000000, 1.000000000000000000 ),
 .UNSPECIFIED. ) ;
#881 = DIRECTION ( 'NONE',  ( -0.9993908270190957621, -0.03489949670250065000, 0.000000000000000000 ) ) ;
#882 = EDGE_LOOP ( 'NONE', ( #677, #872 ) ) ;
#883 = CARTESIAN_POINT ( 'NONE',  ( 6.858697797036767518, -1.347492551766579860E-17, -2.958697796604264685 ) ) ;
#884 = AXIS2_PLACEMENT_3D ( 'NONE', #1198, #551, #445 ) ;
#885 = FACE_OUTER_BOUND ( 'NONE', #783, .T. ) ;
#886 = ADVANCED_FACE ( 'NONE', ( #1091 ), #894, .F. ) ;
#887 = CARTESIAN_POINT ( 'NONE',  ( -5.988258590415683535, -8.910000000000000142, -2.088258590415681848 ) ) ;
#888 = EDGE_LOOP ( 'NONE', ( #663, #867, #293 ) ) ;
#889 = LINE ( 'NONE', #990, #161 ) ;
#890 = CARTESIAN_POINT ( 'NONE',  ( -7.010018687975951401, -0.0004809081267500035024, -2.750300545313942191 ) ) ;
#891 = CIRCLE ( 'NONE', #645, 0.7899999999999998135 ) ;
#892 = PRODUCT_DEFINITION_FORMATION_WITH_SPECIFIED_SOURCE ( 'ANY', '', #207, .NOT_KNOWN. ) ;
#893 = EDGE_CURVE ( 'NONE', #397, #339, #607, .T. ) ;
#894 = SPHERICAL_SURFACE ( 'NONE', #595, 0.7899999999999999245 ) ;
#895 = VERTEX_POINT ( 'NONE', #46 ) ;
#896 =( NAMED_UNIT ( * ) SI_UNIT ( $, .STERADIAN. ) SOLID_ANGLE_UNIT ( ) );
#897 = CYLINDRICAL_SURFACE ( 'NONE', #429, 0.7899999999999997025 ) ;
#898 = VECTOR ( 'NONE', #617, 39.37007874015748143 ) ;
#899 = CARTESIAN_POINT ( 'NONE',  ( 7.089884186583222281, 0.000000000000000000, 2.400365433238139889 ) ) ;
#900 = CARTESIAN_POINT ( 'NONE',  ( 7.589884186583223169, -10.20000000000000462, 3.859884186583225851 ) ) ;
#901 = CARTESIAN_POINT ( 'NONE',  ( -6.985540605223779842, -0.0007300595105145123078, -2.796082943652294261 ) ) ;
#902 = CARTESIAN_POINT ( 'NONE',  ( 5.589884186583224945, -4.959999999999999964, -3.189884186583226366 ) ) ;
#903 = CARTESIAN_POINT ( 'NONE',  ( -5.589884186583224945, -3.579531660364396295, -3.064884186583225922 ) ) ;
#904 = DIRECTION ( 'NONE',  ( 1.000000000000000000, 0.000000000000000000, 0.000000000000000000 ) ) ;
#905 = CYLINDRICAL_SURFACE ( 'NONE', #1187, 0.7900000000000000355 ) ;
#906 = COLOUR_RGB ( '',0.7529411764705882248, 1.000000000000000000, 0.7529411764705882248 ) ;
#907 = ORIENTED_EDGE ( 'NONE', *, *, #148, .T. ) ;
#908 = CARTESIAN_POINT ( 'NONE',  ( -7.089884186583224945, -0.9599999999999999645, 1.600000000000000089 ) ) ;
#909 = EDGE_CURVE ( 'NONE', #501, #1218, #1084, .T. ) ;
#910 = PLANE ( 'NONE',  #884 ) ;
#911 = CYLINDRICAL_SURFACE ( 'NONE', #1031, 0.1249999999999999029 ) ;
#912 = DIRECTION ( 'NONE',  ( -1.000000000000000000, 0.000000000000000000, 1.415507751843974308E-16 ) ) ;
#913 = ORIENTED_EDGE ( 'NONE', *, *, #396, .F. ) ;
#914 = CARTESIAN_POINT ( 'NONE',  ( -6.777777343760768680, -8.937570602394975694, -3.379999999999999893 ) ) ;
#915 = DIRECTION ( 'NONE',  ( 0.000000000000000000, -0.9993908270190957621, -0.03489949670250104552 ) ) ;
#916 = EDGE_CURVE ( 'NONE', #1218, #740, #1085, .T. ) ;
#917 = VERTEX_POINT ( 'NONE', #156 ) ;
#918 = FACE_OUTER_BOUND ( 'NONE', #107, .T. ) ;
#919 = CARTESIAN_POINT ( 'NONE',  ( 5.668263536486073839, -5.284530757138573343, 3.005344306141139121 ) ) ;
#920 = CARTESIAN_POINT ( 'NONE',  ( -7.056360247871147351, -0.9599999999999999645, 1.479579297738184529 ) ) ;
#921 = CARTESIAN_POINT ( 'NONE',  ( -7.589884186583223169, -27.72997920134740824, 3.859884186583225851 ) ) ;
#922 =( GEOMETRIC_REPRESENTATION_CONTEXT ( 3 ) GLOBAL_UNCERTAINTY_ASSIGNED_CONTEXT ( ( #1221 ) ) GLOBAL_UNIT_ASSIGNED_CONTEXT ( ( #20, #1044, #1147 ) ) REPRESENTATION_CONTEXT ( 'NONE', 'WORKASPACE' ) );
#923 = EDGE_LOOP ( 'NONE', ( #1021, #876, #718, #89 ) ) ;
#924 = CARTESIAN_POINT ( 'NONE',  ( -7.280000000000001137, -8.937570602394975694, 2.877777343760767437 ) ) ;
#925 = ADVANCED_FACE ( 'NONE', ( #1195 ), #349, .T. ) ;
#926 = CIRCLE ( 'NONE', #402, 0.7899999999999997025 ) ;
#927 = CARTESIAN_POINT ( 'NONE',  ( 7.056360247871144686, -0.9599999999999999645, -1.845420702261814982 ) ) ;
#928 = DIRECTION ( 'NONE',  ( 0.000000000000000000, 0.000000000000000000, 1.000000000000000000 ) ) ;
#929 = CARTESIAN_POINT ( 'NONE',  ( 6.300365433238136248, 0.000000000000000000, -3.189884186583226811 ) ) ;
#930 = DIRECTION ( 'NONE',  ( 0.000000000000000000, 1.000000000000000000, 0.000000000000000000 ) ) ;
#931 = ORIENTED_EDGE ( 'NONE', *, *, #576, .F. ) ;
#932 = LINE ( 'NONE', #471, #11 ) ;
#933 = EDGE_CURVE ( 'NONE', #917, #484, #716, .T. ) ;
#934 = PRODUCT_DEFINITION_CONTEXT ( 'detailed design', #630, 'design' ) ;
#935 = VECTOR ( 'NONE', #559, 39.37007874015748143 ) ;
#936 = CARTESIAN_POINT ( 'NONE',  ( 5.988258590415680871, -9.699999999999999289, 2.088258590415684068 ) ) ;
#937 = ORIENTED_EDGE ( 'NONE', *, *, #547, .T. ) ;
#938 = CARTESIAN_POINT ( 'NONE',  ( -7.049558335445767376, -0.0004312752322819590821, -2.654815268737030109 ) ) ;
#939 = DIRECTION ( 'NONE',  ( -1.415507751843974308E-16, 0.000000000000000000, 1.000000000000000000 ) ) ;
#940 = EDGE_CURVE ( 'NONE', #917, #484, #257, .T. ) ;
#941 = ORIENTED_EDGE ( 'NONE', *, *, #1058, .F. ) ;
#942 = ORIENTED_EDGE ( 'NONE', *, *, #216, .F. ) ;
#943 = CARTESIAN_POINT ( 'NONE',  ( 5.469463484321408053, -0.9599999999999999645, -3.156360247871148328 ) ) ;
#944 = ORIENTED_EDGE ( 'NONE', *, *, #1207, .T. ) ;
#945 = DIRECTION ( 'NONE',  ( 0.000000000000000000, 0.000000000000000000, 1.000000000000000000 ) ) ;
#946 = CYLINDRICAL_SURFACE ( 'NONE', #825, 0.1250000000000004441 ) ;
#947 = EDGE_LOOP ( 'NONE', ( #277, #971 ) ) ;
#948 = EDGE_CURVE ( 'NONE', #1014, #552, #801, .T. ) ;
#949 = CARTESIAN_POINT ( 'NONE',  ( -7.084775200335382550, -0.0006127225445627856046, -2.503730048494295701 ) ) ;
#950 = CIRCLE ( 'NONE', #583, 0.7900000000000000355 ) ;
#951 = ORIENTED_EDGE ( 'NONE', *, *, #265, .T. ) ;
#952 = CARTESIAN_POINT ( 'NONE',  ( -5.710304888845040061, -0.9599999999999999645, 3.156360247871146552 ) ) ;
#953 = FILL_AREA_STYLE_COLOUR ( '', #248 ) ;
#954 = EDGE_LOOP ( 'NONE', ( #1028, #951 ) ) ;
#955 =( BOUNDED_CURVE ( )  B_SPLINE_CURVE ( 3, ( #927, #108, #272, #372 ),
 .UNSPECIFIED., .F., .T. ) 
 B_SPLINE_CURVE_WITH_KNOTS ( ( 4, 4 ),
 ( 1.842311603701834333, 4.440873703477752343 ),
 .UNSPECIFIED. ) 
 CURVE ( )  GEOMETRIC_REPRESENTATION_ITEM ( )  RATIONAL_B_SPLINE_CURVE ( ( 1.000000000000000000, 0.5121276731310924202, 0.5121276731310924202, 1.000000000000000000 ) ) 
 REPRESENTATION_ITEM ( '' )  );
#956 = EDGE_CURVE ( 'NONE', #443, #1137, #61, .T. ) ;
#957 = VECTOR ( 'NONE', #623, 39.37007874015748143 ) ;
#958 = CARTESIAN_POINT ( 'NONE',  ( 5.988258590415676430, -8.910000000000000142, 2.088258590415684068 ) ) ;
#959 = ORIENTED_EDGE ( 'NONE', *, *, #10, .F. ) ;
#960 = LINE ( 'NONE', #688, #527 ) ;
#961 = CARTESIAN_POINT ( 'NONE',  ( -7.589884186583223169, -10.19999999999999929, 3.859884186583225851 ) ) ;
#962 = VERTEX_POINT ( 'NONE', #40 ) ;
#963 =( BOUNDED_CURVE ( )  B_SPLINE_CURVE ( 3, ( #652, #103, #482, #556 ),
 .UNSPECIFIED., .F., .T. ) 
 B_SPLINE_CURVE_WITH_KNOTS ( ( 4, 4 ),
 ( 3.141592653589793116, 4.440873703477770107 ),
 .UNSPECIFIED. ) 
 CURVE ( )  GEOMETRIC_REPRESENTATION_ITEM ( )  RATIONAL_B_SPLINE_CURVE ( ( 1.000000000000000000, 0.8642008643503829024, 0.8642008643503829024, 1.000000000000000000 ) ) 
 REPRESENTATION_ITEM ( '' )  );
#964 = DIRECTION ( 'NONE',  ( -1.000000000000000000, 1.836970198721029688E-16, 0.000000000000000000 ) ) ;
#965 = EDGE_CURVE ( 'NONE', #264, #361, #796, .T. ) ;
#966 = VERTEX_POINT ( 'NONE', #899 ) ;
#967 = DIRECTION ( 'NONE',  ( 0.000000000000000000, 0.000000000000000000, 1.000000000000000000 ) ) ;
#968 = AXIS2_PLACEMENT_3D ( 'NONE', #457, #271, #640 ) ;
#969 = AXIS2_PLACEMENT_3D ( 'NONE', #1092, #616, #71 ) ;
#970 = CARTESIAN_POINT ( 'NONE',  ( 7.589884186583223169, 0.000000000000000000, 3.859884186583225851 ) ) ;
#971 = ORIENTED_EDGE ( 'NONE', *, *, #1162, .T. ) ;
#972 = LINE ( 'NONE', #705, #6 ) ;
#973 = EDGE_CURVE ( 'NONE', #1014, #501, #926, .T. ) ;
#974 = CYLINDRICAL_SURFACE ( 'NONE', #689, 0.1249999999999999029 ) ;
#975 = DIRECTION ( 'NONE',  ( 0.000000000000000000, 0.000000000000000000, 1.000000000000000000 ) ) ;
#976 = VERTEX_POINT ( 'NONE', #328 ) ;
#977 = CARTESIAN_POINT ( 'NONE',  ( 6.895213434772150762, -0.0004936078428924685693, 2.922147684537420353 ) ) ;
#978 = CARTESIAN_POINT ( 'NONE',  ( -7.280000000000001137, -8.937570602394975694, -2.877777343760767437 ) ) ;
#979 = B_SPLINE_CURVE_WITH_KNOTS ( 'NONE', 3,
 ( #883, #498, #412, #416 ),
 .UNSPECIFIED., .F., .F.,
 ( 4, 4 ),
 ( 0.000000000000000000, 0.8775333386772318223 ),
 .UNSPECIFIED. ) ;
#980 = ADVANCED_FACE ( 'NONE', ( #741 ), #1205, .F. ) ;
#981 = EDGE_CURVE ( 'NONE', #704, #1010, #1200, .T. ) ;
#982 = FACE_OUTER_BOUND ( 'NONE', #392, .T. ) ;
#983 = ORIENTED_EDGE ( 'NONE', *, *, #39, .F. ) ;
#984 = CARTESIAN_POINT ( 'NONE',  ( -7.029804438835427938, 2.490155495147059491E-17, 2.702573833971914308 ) ) ;
#985 = CIRCLE ( 'NONE', #714, 0.1250000000000004441 ) ;
#986 = CARTESIAN_POINT ( 'NONE',  ( -6.858697796386596046, 0.000000000000000000, -2.958697797254435713 ) ) ;
#987 = EDGE_CURVE ( 'NONE', #1137, #282, #362, .T. ) ;
#988 = CARTESIAN_POINT ( 'NONE',  ( 7.029804439146237982, 0.000000000000000000, -2.702573833221286748 ) ) ;
#989 = ORIENTED_EDGE ( 'NONE', *, *, #965, .F. ) ;
#990 = CARTESIAN_POINT ( 'NONE',  ( -7.589884186583224057, -27.72997920134740824, -3.859884186583222743 ) ) ;
#991 = CARTESIAN_POINT ( 'NONE',  ( -6.858697796820109716, 2.021238827649870097E-17, 2.958697796820920711 ) ) ;
#992 = VECTOR ( 'NONE', #939, 39.37007874015748143 ) ;
#993 = CARTESIAN_POINT ( 'NONE',  ( 5.589884186583224945, -0.9599999999999999645, -3.189884186583226366 ) ) ;
#994 = VERTEX_POINT ( 'NONE', #87 ) ;
#995 = LINE ( 'NONE', #1178, #540 ) ;
#996 = DIRECTION ( 'NONE',  ( 1.000000000000000000, -0.000000000000000000, 0.000000000000000000 ) ) ;
#997 = VECTOR ( 'NONE', #1072, 39.37007874015748143 ) ;
#998 = CARTESIAN_POINT ( 'NONE',  ( 5.988258590415680871, -8.910000000000000142, 2.088258590415684068 ) ) ;
#999 = DIRECTION ( 'NONE',  ( 0.000000000000000000, 1.000000000000000000, 0.000000000000000000 ) ) ;
#1000 = CARTESIAN_POINT ( 'NONE',  ( -7.029804438835427938, 2.490155495147059491E-17, 2.702573833971914308 ) ) ;
#1001 = CARTESIAN_POINT ( 'NONE',  ( 7.589884186583224057, 0.000000000000000000, -3.859884186583222743 ) ) ;
#1002 = ADVANCED_FACE ( 'NONE', ( #1016 ), #911, .T. ) ;
#1003 = CARTESIAN_POINT ( 'NONE',  ( -6.905344306141139477, -5.284530757138489854, -1.803379349902847206 ) ) ;
#1004 = CARTESIAN_POINT ( 'NONE',  ( -5.988258590415683535, -8.910000000000000142, -3.379999999999999893 ) ) ;
#1005 = CYLINDRICAL_SURFACE ( 'NONE', #1202, 0.7900000000000000355 ) ;
#1006 = CARTESIAN_POINT ( 'NONE',  ( -5.988258590415683535, -8.909999999999998366, 2.088258590415682736 ) ) ;
#1007 = AXIS2_PLACEMENT_3D ( 'NONE', #438, #1073, #55 ) ;
#1008 = SURFACE_SIDE_STYLE ('',( #1081 ) ) ;
#1009 = VECTOR ( 'NONE', #762, 39.37007874015748143 ) ;
#1010 = VERTEX_POINT ( 'NONE', #834 ) ;
#1011 = EDGE_CURVE ( 'NONE', #684, #1035, #581, .T. ) ;
#1012 = DIRECTION ( 'NONE',  ( 1.000000000000000000, 0.000000000000000000, -0.000000000000000000 ) ) ;
#1013 = CARTESIAN_POINT ( 'NONE',  ( 6.637288087353811150, -3.894124870914486417E-05, -3.114443979493875858 ) ) ;
#1014 = VERTEX_POINT ( 'NONE', #70 ) ;
#1015 = VECTOR ( 'NONE', #865, 39.37007874015748143 ) ;
#1016 = FACE_OUTER_BOUND ( 'NONE', #1109, .T. ) ;
#1017 = FACE_OUTER_BOUND ( 'NONE', #1182, .T. ) ;
#1018 = ORIENTED_EDGE ( 'NONE', *, *, #521, .T. ) ;
#1019 = FACE_OUTER_BOUND ( 'NONE', #840, .T. ) ;
#1020 = CARTESIAN_POINT ( 'NONE',  ( -7.280000000000001137, 0.006630904373475198649, 3.190115742866371562 ) ) ;
#1021 = ORIENTED_EDGE ( 'NONE', *, *, #715, .F. ) ;
#1022 = EDGE_CURVE ( 'NONE', #962, #602, #30, .T. ) ;
#1023 = CARTESIAN_POINT ( 'NONE',  ( 6.637297881363746654, -3.894124891659250288E-05, 3.114447431633240448 ) ) ;
#1024 = DIRECTION ( 'NONE',  ( 0.000000000000000000, 1.000000000000000000, 0.000000000000000000 ) ) ;
#1025 = ORIENTED_EDGE ( 'NONE', *, *, #505, .T. ) ;
#1026 = CARTESIAN_POINT ( 'NONE',  ( -6.905344306141139477, -5.284530757138491630, 1.678379349902846984 ) ) ;
#1027 = CARTESIAN_POINT ( 'NONE',  ( -6.531513555027846252, 0.000000000000000000, -3.164325351182090795 ) ) ;
#1028 = ORIENTED_EDGE ( 'NONE', *, *, #618, .T. ) ;
#1029 = ADVANCED_FACE ( 'NONE', ( #918 ), #77, .T. ) ;
#1030 = ORIENTED_EDGE ( 'NONE', *, *, #576, .T. ) ;
#1031 = AXIS2_PLACEMENT_3D ( 'NONE', #749, #1113, #463 ) ;
#1032 = DIRECTION ( 'NONE',  ( 0.000000000000000000, 1.000000000000000000, 0.000000000000000000 ) ) ;
#1033 = FACE_OUTER_BOUND ( 'NONE', #662, .T. ) ;
#1034 = CARTESIAN_POINT ( 'NONE',  ( -6.301788426635274831, 0.06831980173525908917, -2.401788426635273588 ) ) ;
#1035 = VERTEX_POINT ( 'NONE', #359 ) ;
#1036 = DIRECTION ( 'NONE',  ( -1.000000000000000000, 0.000000000000000000, -1.876269226417763655E-16 ) ) ;
#1037 = UNCERTAINTY_MEASURE_WITH_UNIT (LENGTH_MEASURE( 1.000000000000000082E-05 ), #28, 'distance_accuracy_value', 'NONE');
#1038 = DIRECTION ( 'NONE',  ( -0.9993908270190957621, -0.03489949670250104552, 0.000000000000000000 ) ) ;
#1039 =( BOUNDED_CURVE ( )  B_SPLINE_CURVE ( 3, ( #1100, #1027, #181, #539 ),
 .UNSPECIFIED., .F., .T. ) 
 B_SPLINE_CURVE_WITH_KNOTS ( ( 4, 4 ),
 ( 0.3443441652908074690, 0.7847891758118411554 ),
 .UNSPECIFIED. ) 
 CURVE ( )  GEOMETRIC_REPRESENTATION_ITEM ( )  RATIONAL_B_SPLINE_CURVE ( ( 1.000000000000000000, 0.9838992452894774754, 0.9838992452894774754, 1.000000000000000000 ) ) 
 REPRESENTATION_ITEM ( '' )  );
#1040 = VERTEX_POINT ( 'NONE', #811 ) ;
#1041 = VERTEX_POINT ( 'NONE', #173 ) ;
#1042 = ADVANCED_FACE ( 'NONE', ( #1217, #440, #1192 ), #655, .F. ) ;
#1043 = CARTESIAN_POINT ( 'NONE',  ( -7.280000000000001137, 0.000000000000000000, 3.189884186583224146 ) ) ;
#1044 =( NAMED_UNIT ( * ) PLANE_ANGLE_UNIT ( ) SI_UNIT ( $, .RADIAN. ) );
#1045 = ORIENTED_EDGE ( 'NONE', *, *, #585, .F. ) ;
#1046 = VECTOR ( 'NONE', #461, 39.37007874015748143 ) ;
#1047 = DIRECTION ( 'NONE',  ( 0.000000000000000000, 0.000000000000000000, 1.000000000000000000 ) ) ;
#1048 = ORIENTED_EDGE ( 'NONE', *, *, #243, .T. ) ;
#1049 = EDGE_CURVE ( 'NONE', #966, #802, #738, .T. ) ;
#1050 = LINE ( 'NONE', #393, #866 ) ;
#1051 = ORIENTED_EDGE ( 'NONE', *, *, #396, .T. ) ;
#1052 = DIRECTION ( 'NONE',  ( -0.000000000000000000, 0.000000000000000000, 1.000000000000000000 ) ) ;
#1053 = CIRCLE ( 'NONE', #327, 0.7900000000000000355 ) ;
#1054 = ORIENTED_EDGE ( 'NONE', *, *, #265, .F. ) ;
#1055 = CARTESIAN_POINT ( 'NONE',  ( 6.928137270915451396, -0.0007364216156914577937, 2.882007571549617175 ) ) ;
#1056 = DIRECTION ( 'NONE',  ( -0.9993908270190957621, -0.03489949670250106634, 0.000000000000000000 ) ) ;
#1057 = ORIENTED_EDGE ( 'NONE', *, *, #489, .F. ) ;
#1058 = EDGE_CURVE ( 'NONE', #861, #1010, #1039, .T. ) ;
#1059 = AXIS2_PLACEMENT_3D ( 'NONE', #683, #1076, #1146 ) ;
#1060 = DIRECTION ( 'NONE',  ( 0.03487826274237469659, -0.9987827659587182882, 0.03487826274237468965 ) ) ;
#1061 = ORIENTED_EDGE ( 'NONE', *, *, #1148, .T. ) ;
#1062 = LINE ( 'NONE', #306, #314 ) ;
#1063 = ORIENTED_EDGE ( 'NONE', *, *, #618, .F. ) ;
#1064 = EDGE_CURVE ( 'NONE', #1040, #52, #1143, .T. ) ;
#1065 = DIRECTION ( 'NONE',  ( 0.000000000000000000, -0.000000000000000000, -1.000000000000000000 ) ) ;
#1066 = ORIENTED_EDGE ( 'NONE', *, *, #1090, .T. ) ;
#1067 = CARTESIAN_POINT ( 'NONE',  ( 7.589884186583223169, -27.72997920134740824, 3.859884186583225851 ) ) ;
#1068 = CARTESIAN_POINT ( 'NONE',  ( 7.084775200367651848, -0.0006127225404822011015, 2.503730048169081179 ) ) ;
#1069 = PRESENTATION_LAYER_ASSIGNMENT (  '', '', ( #286 ) ) ;
#1070 = DIRECTION ( 'NONE',  ( 0.000000000000000000, -0.000000000000000000, 1.000000000000000000 ) ) ;
#1071 = ORIENTED_EDGE ( 'NONE', *, *, #355, .T. ) ;
#1072 = DIRECTION ( 'NONE',  ( 0.000000000000000000, 1.000000000000000000, 0.000000000000000000 ) ) ;
#1073 = DIRECTION ( 'NONE',  ( 0.000000000000000000, 1.000000000000000000, 0.000000000000000000 ) ) ;
#1074 = CARTESIAN_POINT ( 'NONE',  ( 7.089884186583224945, -0.9599999999999999645, 1.600000000000000089 ) ) ;
#1075 = ORIENTED_EDGE ( 'NONE', *, *, #940, .T. ) ;
#1076 = DIRECTION ( 'NONE',  ( 0.000000000000000000, 1.000000000000000000, 0.000000000000000000 ) ) ;
#1077 = DIRECTION ( 'NONE',  ( 0.000000000000000000, 0.000000000000000000, -1.000000000000000000 ) ) ;
#1078 = EDGE_CURVE ( 'NONE', #1035, #615, #1210, .T. ) ;
#1079 = CARTESIAN_POINT ( 'NONE',  ( -7.089884186583224945, -0.9599999999999999645, -1.725000000000000089 ) ) ;
#1080 = ORIENTED_EDGE ( 'NONE', *, *, #27, .T. ) ;
#1081 = SURFACE_STYLE_FILL_AREA ( #635 ) ;
#1082 = AXIS2_PLACEMENT_3D ( 'NONE', #82, #633, #533 ) ;
#1083 = LINE ( 'NONE', #247, #481 ) ;
#1084 = CIRCLE ( 'NONE', #558, 0.7899999999999998135 ) ;
#1085 = LINE ( 'NONE', #244, #24 ) ;
#1086 = ORIENTED_EDGE ( 'NONE', *, *, #879, .T. ) ;
#1087 = CARTESIAN_POINT ( 'NONE',  ( 7.064618923996627053, -0.0006308417608245594273, 2.605114741977091253 ) ) ;
#1088 = DIRECTION ( 'NONE',  ( 0.000000000000000000, 1.000000000000000000, 0.000000000000000000 ) ) ;
#1089 = AXIS2_PLACEMENT_3D ( 'NONE', #908, #1088, #250 ) ;
#1090 = EDGE_CURVE ( 'NONE', #704, #743, #830, .T. ) ;
#1091 = FACE_OUTER_BOUND ( 'NONE', #29, .T. ) ;
#1092 = CARTESIAN_POINT ( 'NONE',  ( -6.293564932522654587, -0.1671702585443089195, 2.393564932522653788 ) ) ;
#1093 = CARTESIAN_POINT ( 'NONE',  ( -6.637289357291120240, -3.894124882633307182E-05, -3.114443380661561900 ) ) ;
#1094 = CARTESIAN_POINT ( 'NONE',  ( 5.988258590415680871, -8.909999999999998366, 2.088258590415684068 ) ) ;
#1095 = ADVANCED_FACE ( 'NONE', ( #167 ), #545, .F. ) ;
#1096 = DIRECTION ( 'NONE',  ( 0.000000000000000000, 0.000000000000000000, 1.000000000000000000 ) ) ;
#1097 = PLANE ( 'NONE',  #698 ) ;
#1098 = ORIENTED_EDGE ( 'NONE', *, *, #299, .T. ) ;
#1099 = LINE ( 'NONE', #914, #935 ) ;
#1100 = CARTESIAN_POINT ( 'NONE',  ( -6.637289357291120240, -3.894124882633307182E-05, -3.114443380661561900 ) ) ;
#1101 = ORIENTED_EDGE ( 'NONE', *, *, #973, .F. ) ;
#1102 = CARTESIAN_POINT ( 'NONE',  ( -5.531554749978322860, -3.579531660364396739, -3.064884186583225478 ) ) ;
#1103 = VECTOR ( 'NONE', #557, 39.37007874015748143 ) ;
#1104 = DIRECTION ( 'NONE',  ( 0.000000000000000000, 0.000000000000000000, 1.000000000000000000 ) ) ;
#1105 = ORIENTED_EDGE ( 'NONE', *, *, #465, .F. ) ;
#1106 = EDGE_CURVE ( 'NONE', #1035, #158, #1171, .T. ) ;
#1107 = CARTESIAN_POINT ( 'NONE',  ( -7.280000000000001137, -9.699999999999999289, -2.088258590415682292 ) ) ;
#1108 = CARTESIAN_POINT ( 'NONE',  ( 6.928137271042835721, -0.0007364216143522062758, -2.882007571378714328 ) ) ;
#1109 = EDGE_LOOP ( 'NONE', ( #182, #1018 ) ) ;
#1110 = VECTOR ( 'NONE', #1052, 39.37007874015748143 ) ;
#1111 = AXIS2_PLACEMENT_3D ( 'NONE', #236, #605, #38 ) ;
#1112 = ORIENTED_EDGE ( 'NONE', *, *, #956, .F. ) ;
#1113 = DIRECTION ( 'NONE',  ( 0.000000000000000000, 1.000000000000000000, 0.000000000000000000 ) ) ;
#1114 = DIRECTION ( 'NONE',  ( 0.000000000000000000, 1.000000000000000000, 0.000000000000000000 ) ) ;
#1115 = CARTESIAN_POINT ( 'NONE',  ( -7.056360247871147351, -0.9599999999999999645, -1.845420702261815649 ) ) ;
#1116 = DIRECTION ( 'NONE',  ( 0.000000000000000000, 1.000000000000000000, 0.000000000000000000 ) ) ;
#1117 = EDGE_CURVE ( 'NONE', #488, #101, #3, .T. ) ;
#1118 = CARTESIAN_POINT ( 'NONE',  ( 7.010018688415526000, -0.0004809081268534565017, -2.750300544424179261 ) ) ;
#1119 = ORIENTED_EDGE ( 'NONE', *, *, #132, .T. ) ;
#1120 = ORIENTED_EDGE ( 'NONE', *, *, #424, .F. ) ;
#1121 = CARTESIAN_POINT ( 'NONE',  ( -6.985540605386739266, -0.0007300595084615776626, 2.796082943361076545 ) ) ;
#1122 = DIRECTION ( 'NONE',  ( 0.000000000000000000, -0.03489949670250107328, 0.9993908270190957621 ) ) ;
#1123 =( LENGTH_UNIT ( ) NAMED_UNIT ( * ) SI_UNIT ( $, .METRE. ) );
#1124 = ORIENTED_EDGE ( 'NONE', *, *, #1064, .F. ) ;
#1125 = ORIENTED_EDGE ( 'NONE', *, *, #454, .T. ) ;
#1126 = CIRCLE ( 'NONE', #805, 0.1249999999999999029 ) ;
#1127 = CARTESIAN_POINT ( 'NONE',  ( -7.064618923838291487, -0.0006308417650592593661, -2.605114742608875655 ) ) ;
#1128 = MECHANICAL_DESIGN_GEOMETRIC_PRESENTATION_REPRESENTATION (  '', ( #286 ), #441 ) ;
#1129 = CARTESIAN_POINT ( 'NONE',  ( 6.719283638236569267, -0.0009550604955896275844, 3.075724287172033833 ) ) ;
#1130 = LINE ( 'NONE', #111, #772 ) ;
#1131 = ORIENTED_EDGE ( 'NONE', *, *, #1022, .F. ) ;
#1132 = ADVANCED_FACE ( 'NONE', ( #268 ), #1005, .F. ) ;
#1133 = APPLICATION_CONTEXT ( 'automotive_design' ) ;
#1134 = CYLINDRICAL_SURFACE ( 'NONE', #423, 0.7900000000000000355 ) ;
#1135 = ORIENTED_EDGE ( 'NONE', *, *, #237, .T. ) ;
#1136 = CARTESIAN_POINT ( 'NONE',  ( -7.056360247871147351, -0.9599999999999999645, 1.479579297738184529 ) ) ;
#1137 = VERTEX_POINT ( 'NONE', #251 ) ;
#1138 = ORIENTED_EDGE ( 'NONE', *, *, #948, .T. ) ;
#1139 = CARTESIAN_POINT ( 'NONE',  ( 7.089884186583224945, -0.9599999999999999645, -1.725000000000000089 ) ) ;
#1140 = ADVANCED_FACE ( 'NONE', ( #648 ), #910, .T. ) ;
#1141 = ORIENTED_EDGE ( 'NONE', *, *, #1078, .F. ) ;
#1142 = EDGE_LOOP ( 'NONE', ( #770, #543, #503 ) ) ;
#1143 = CIRCLE ( 'NONE', #1082, 0.7900000000000000355 ) ;
#1144 = LINE ( 'NONE', #686, #114 ) ;
#1145 = EDGE_LOOP ( 'NONE', ( #289, #833, #587, #189 ) ) ;
#1146 = DIRECTION ( 'NONE',  ( 0.000000000000000000, -0.000000000000000000, 1.000000000000000000 ) ) ;
#1147 =( NAMED_UNIT ( * ) SI_UNIT ( $, .STERADIAN. ) SOLID_ANGLE_UNIT ( ) );
#1148 = EDGE_CURVE ( 'NONE', #615, #684, #301, .T. ) ;
#1149 = EDGE_LOOP ( 'NONE', ( #584, #797, #497, #913 ) ) ;
#1150 = FACE_BOUND ( 'NONE', #518, .T. ) ;
#1151 = ORIENTED_EDGE ( 'NONE', *, *, #206, .F. ) ;
#1152 = CARTESIAN_POINT ( 'NONE',  ( 6.858697796820950821, 0.000000000000000000, 2.958697796820080939 ) ) ;
#1153 = PRESENTATION_LAYER_ASSIGNMENT (  '', '', ( #93 ) ) ;
#1154 = VECTOR ( 'NONE', #737, 39.37007874015748143 ) ;
#1155 = ORIENTED_EDGE ( 'NONE', *, *, #879, .F. ) ;
#1156 = EDGE_CURVE ( 'NONE', #1164, #121, #154, .T. ) ;
#1157 = AXIS2_PLACEMENT_3D ( 'NONE', #877, #603, #967 ) ;
#1158 = CARTESIAN_POINT ( 'NONE',  ( -7.089884186583224945, -4.959999999999999964, 1.600000000000000089 ) ) ;
#1159 = VERTEX_POINT ( 'NONE', #863 ) ;
#1160 = CARTESIAN_POINT ( 'NONE',  ( 5.988258590415680871, -8.910000000000000142, -2.088258590415684512 ) ) ;
#1161 = B_SPLINE_CURVE_WITH_KNOTS ( 'NONE', 3,
 ( #991, #531, #147, #526 ),
 .UNSPECIFIED., .F., .F.,
 ( 4, 4 ),
 ( 0.000000000000000000, 0.8775333385565090571 ),
 .UNSPECIFIED. ) ;
#1162 = EDGE_CURVE ( 'NONE', #245, #577, #1050, .T. ) ;
#1163 = DIRECTION ( 'NONE',  ( 0.000000000000000000, 1.000000000000000000, 0.000000000000000000 ) ) ;
#1164 = VERTEX_POINT ( 'NONE', #961 ) ;
#1165 = PLANE ( 'NONE',  #1059 ) ;
#1166 = FACE_OUTER_BOUND ( 'NONE', #453, .T. ) ;
#1167 =( NAMED_UNIT ( * ) SI_UNIT ( $, .STERADIAN. ) SOLID_ANGLE_UNIT ( ) );
#1168 = AXIS2_PLACEMENT_3D ( 'NONE', #88, #1032, #170 ) ;
#1169 = ADVANCED_FACE ( 'NONE', ( #194 ), #400, .F. ) ;
#1170 = DIRECTION ( 'NONE',  ( 0.000000000000000000, 0.03489949670250063612, 0.9993908270190957621 ) ) ;
#1171 =( BOUNDED_CURVE ( )  B_SPLINE_CURVE ( 3, ( #903, #824, #91, #838 ),
 .UNSPECIFIED., .F., .T. ) 
 B_SPLINE_CURVE_WITH_KNOTS ( ( 4, 4 ),
 ( 3.141592653589793116, 4.440873703477752343 ),
 .UNSPECIFIED. ) 
 CURVE ( )  GEOMETRIC_REPRESENTATION_ITEM ( )  RATIONAL_B_SPLINE_CURVE ( ( 1.000000000000000000, 0.8642008643503864551, 0.8642008643503864551, 1.000000000000000000 ) ) 
 REPRESENTATION_ITEM ( '' )  );
#1172 = ORIENTED_EDGE ( 'NONE', *, *, #148, .F. ) ;
#1173 = DIRECTION ( 'NONE',  ( -1.415507751843974308E-16, 0.000000000000000000, -1.000000000000000000 ) ) ;
#1174 = CIRCLE ( 'NONE', #164, 0.1249999999999999029 ) ;
#1175 = CARTESIAN_POINT ( 'NONE',  ( 6.301788426635273055, 0.06831980173525913080, -2.401788426635276252 ) ) ;
#1176 = DIRECTION ( 'NONE',  ( 0.000000000000000000, 0.000000000000000000, 1.000000000000000000 ) ) ;
#1177 = ORIENTED_EDGE ( 'NONE', *, *, #874, .F. ) ;
#1178 = CARTESIAN_POINT ( 'NONE',  ( -7.089884186583224945, 0.000000000000000000, 3.379999999999999893 ) ) ;
#1179 = ADVANCED_FACE ( 'NONE', ( #769 ), #8, .F. ) ;
#1180 = LINE ( 'NONE', #713, #898 ) ;
#1181 = CARTESIAN_POINT ( 'NONE',  ( -7.084775200341750789, -0.0006127225437578182922, 2.503730048430144350 ) ) ;
#1182 = EDGE_LOOP ( 'NONE', ( #826, #758, #1208, #106 ) ) ;
#1183 = DIRECTION ( 'NONE',  ( -0.9993908270190957621, -0.03489949670250065000, 0.000000000000000000 ) ) ;
#1184 = CARTESIAN_POINT ( 'NONE',  ( -5.988258590415683535, -9.699999999999999289, -2.088258590415682736 ) ) ;
#1185 = EDGE_CURVE ( 'NONE', #195, #1010, #1130, .T. ) ;
#1186 = AXIS2_PLACEMENT_3D ( 'NONE', #993, #252, #1096 ) ;
#1187 = AXIS2_PLACEMENT_3D ( 'NONE', #48, #529, #246 ) ;
#1188 = CARTESIAN_POINT ( 'NONE',  ( 7.084775200368611081, -0.0006127225403604326208, -2.503730048159384491 ) ) ;
#1189 =( NAMED_UNIT ( * ) PLANE_ANGLE_UNIT ( ) SI_UNIT ( $, .RADIAN. ) );
#1190 = DIRECTION ( 'NONE',  ( 0.000000000000000000, 1.000000000000000000, 0.000000000000000000 ) ) ;
#1191 = LINE ( 'NONE', #745, #702 ) ;
#1192 = FACE_BOUND ( 'NONE', #947, .T. ) ;
#1193 = ADVANCED_FACE ( 'NONE', ( #493 ), #946, .T. ) ;
#1194 = AXIS2_PLACEMENT_3D ( 'NONE', #1158, #875, #945 ) ;
#1195 = FACE_OUTER_BOUND ( 'NONE', #847, .T. ) ;
#1196 = ORIENTED_EDGE ( 'NONE', *, *, #981, .F. ) ;
#1197 = CARTESIAN_POINT ( 'NONE',  ( -7.589884186583224057, 0.000000000000000000, -3.859884186583222743 ) ) ;
#1198 = CARTESIAN_POINT ( 'NONE',  ( -7.589884186583223169, -27.72997920134740824, 3.859884186583225851 ) ) ;
#1199 = EDGE_LOOP ( 'NONE', ( #239, #426, #1204, #383 ) ) ;
#1200 = LINE ( 'NONE', #555, #183 ) ;
#1201 = LINE ( 'NONE', #171, #1103 ) ;
#1202 = AXIS2_PLACEMENT_3D ( 'NONE', #376, #832, #752 ) ;
#1203 = DIRECTION ( 'NONE',  ( 0.000000000000000000, 1.000000000000000000, 0.000000000000000000 ) ) ;
#1204 = ORIENTED_EDGE ( 'NONE', *, *, #613, .T. ) ;
#1205 = SPHERICAL_SURFACE ( 'NONE', #502, 0.7899999999999999245 ) ;
#1206 = CARTESIAN_POINT ( 'NONE',  ( -7.029804438835427938, 2.490155495147059491E-17, 2.702573833971914308 ) ) ;
#1207 = EDGE_CURVE ( 'NONE', #577, #245, #985, .T. ) ;
#1208 = ORIENTED_EDGE ( 'NONE', *, *, #458, .T. ) ;
#1209 = CARTESIAN_POINT ( 'NONE',  ( 5.469463484321408053, -0.9599999999999999645, 3.156360247871148328 ) ) ;
#1210 = LINE ( 'NONE', #467, #554 ) ;
#1211 = DIMENSIONAL_EXPONENTS ( 1.000000000000000000, 0.000000000000000000, 0.000000000000000000, 0.000000000000000000, 0.000000000000000000, 0.000000000000000000, 0.000000000000000000 ) ;
#1212 = EDGE_LOOP ( 'NONE', ( #871, #9 ) ) ;
#1213 = AXIS2_PLACEMENT_3D ( 'NONE', #902, #1203, #727 ) ;
#1214 = CARTESIAN_POINT ( 'NONE',  ( 7.589884186583224057, -10.19999999999999929, -3.859884186583222743 ) ) ;
#1215 = CARTESIAN_POINT ( 'NONE',  ( 6.284076285469629042, -0.4388895588668876302, 2.384076285469631795 ) ) ;
#1216 = VECTOR ( 'NONE', #1173, 39.37007874015748143 ) ;
#1217 = FACE_OUTER_BOUND ( 'NONE', #198, .T. ) ;
#1218 = VERTEX_POINT ( 'NONE', #564 ) ;
#1219 = EDGE_LOOP ( 'NONE', ( #941, #25, #855, #1025, #937, #649, #377 ) ) ;
#1220 = LINE ( 'NONE', #568, #487 ) ;
#1221 = UNCERTAINTY_MEASURE_WITH_UNIT (LENGTH_MEASURE( 1.000000000000000082E-05 ), #20, 'distance_accuracy_value', 'NONE');
#1222 = CYLINDRICAL_SURFACE ( 'NONE', #249, 0.1250000000000004441 ) ;
#1223 = CARTESIAN_POINT ( 'NONE',  ( -7.280000000000001137, -10.19999999999999929, 3.379999999999999893 ) ) ;
ENDSEC;
END-ISO-10303-21;
