  0
SECTION
  2
HEADER
  9
$ACADVER
  1
AC1024
  9
$ACADMAINTVER
 70
6
  9
$DWGCODEPAGE
  3
ANSI_1252
  9
$LASTSAVEDBY
  1
ezdxf
  9
$INSBASE
 10
0.0
 20
0.0
 30
0.0
  9
$EXTMIN
 10
1e+20
 20
1e+20
 30
1e+20
  9
$EXTMAX
 10
-1e+20
 20
-1e+20
 30
-1e+20
  9
$LIMMIN
 10
0.0
 20
0.0
  9
$LIMMAX
 10
420.0
 20
297.0
  9
$ORTHOMODE
 70
0
  9
$REGENMODE
 70
1
  9
$FILLMODE
 70
1
  9
$QTEXTMODE
 70
0
  9
$MIRRTEXT
 70
1
  9
$LTSCALE
 40
1.0
  9
$ATTMODE
 70
1
  9
$TEXTSIZE
 40
2.5
  9
$TRACEWID
 40
1.0
  9
$TEXTSTYLE
  7
Standard
  9
$CLAYER
  8
0
  9
$CELTYPE
  6
ByLayer
  9
$CECOLOR
 62
256
  9
$CELTSCALE
 40
1.0
  9
$DISPSILH
 70
0
  9
$DIMSCALE
 40
1.0
  9
$DIMASZ
 40
2.5
  9
$DIMEXO
 40
0.625
  9
$DIMDLI
 40
3.75
  9
$DIMRND
 40
0.0
  9
$DIMDLE
 40
0.0
  9
$DIMEXE
 40
1.25
  9
$DIMTP
 40
0.0
  9
$DIMTM
 40
0.0
  9
$DIMTXT
 40
2.5
  9
$DIMCEN
 40
2.5
  9
$DIMTSZ
 40
0.0
  9
$DIMTOL
 70
0
  9
$DIMLIM
 70
0
  9
$DIMTIH
 70
0
  9
$DIMTOH
 70
0
  9
$DIMSE1
 70
0
  9
$DIMSE2
 70
0
  9
$DIMTAD
 70
1
  9
$DIMZIN
 70
8
  9
$DIMBLK
  1

  9
$DIMASO
 70
1
  9
$DIMSHO
 70
1
  9
$DIMPOST
  1

  9
$DIMAPOST
  1

  9
$DIMALT
 70
0
  9
$DIMALTD
 70
3
  9
$DIMALTF
 40
0.03937007874
  9
$DIMLFAC
 40
1.0
  9
$DIMTOFL
 70
1
  9
$DIMTVP
 40
0.0
  9
$DIMTIX
 70
0
  9
$DIMSOXD
 70
0
  9
$DIMSAH
 70
0
  9
$DIMBLK1
  1

  9
$DIMBLK2
  1

  9
$DIMSTYLE
  2
ISO-25
  9
$DIMCLRD
 70
0
  9
$DIMCLRE
 70
0
  9
$DIMCLRT
 70
0
  9
$DIMTFAC
 40
1.0
  9
$DIMGAP
 40
0.625
  9
$DIMJUST
 70
0
  9
$DIMSD1
 70
0
  9
$DIMSD2
 70
0
  9
$DIMTOLJ
 70
0
  9
$DIMTZIN
 70
8
  9
$DIMALTZ
 70
0
  9
$DIMALTTZ
 70
0
  9
$DIMUPT
 70
0
  9
$DIMDEC
 70
2
  9
$DIMTDEC
 70
2
  9
$DIMALTU
 70
2
  9
$DIMALTTD
 70
3
  9
$DIMTXSTY
  7
Standard
  9
$DIMAUNIT
 70
0
  9
$DIMADEC
 70
0
  9
$DIMALTRND
 40
0.0
  9
$DIMAZIN
 70
0
  9
$DIMDSEP
 70
44
  9
$DIMATFIT
 70
3
  9
$DIMFRAC
 70
0
  9
$DIMLDRBLK
  1

  9
$DIMLUNIT
 70
2
  9
$DIMLWD
 70
-2
  9
$DIMLWE
 70
-2
  9
$DIMTMOVE
 70
0
  9
$DIMFXL
 40
1.0
  9
$DIMFXLON
 70
0
  9
$DIMJOGANG
 40
0.785398163397
  9
$DIMTFILL
 70
0
  9
$DIMTFILLCLR
 70
0
  9
$DIMARCSYM
 70
0
  9
$DIMLTYPE
  6

  9
$DIMLTEX1
  6

  9
$DIMLTEX2
  6

  9
$DIMTXTDIRECTION
 70
0
  9
$LUNITS
 70
2
  9
$LUPREC
 70
4
  9
$SKETCHINC
 40
1.0
  9
$FILLETRAD
 40
10.0
  9
$AUNITS
 70
0
  9
$AUPREC
 70
2
  9
$MENU
  1
.
  9
$ELEVATION
 40
0.0
  9
$PELEVATION
 40
0.0
  9
$THICKNESS
 40
0.0
  9
$LIMCHECK
 70
0
  9
$CHAMFERA
 40
0.0
  9
$CHAMFERB
 40
0.0
  9
$CHAMFERC
 40
0.0
  9
$CHAMFERD
 40
0.0
  9
$SKPOLY
 70
0
  9
$TDCREATE
 40
2461289.838252315
  9
$TDUCREATE
 40
2458532.153996898
  9
$TDUPDATE
 40
2461289.838252315
  9
$TDUUPDATE
 40
2458532.1544311
  9
$TDINDWG
 40
0.0
  9
$TDUSRTIMER
 40
0.0
  9
$USRTIMER
 70
1
  9
$ANGBASE
 50
0.0
  9
$ANGDIR
 70
0
  9
$PDMODE
 70
0
  9
$PDSIZE
 40
0.0
  9
$PLINEWID
 40
0.0
  9
$SPLFRAME
 70
0
  9
$SPLINETYPE
 70
6
  9
$SPLINESEGS
 70
8
  9
$HANDSEED
  5
68
  9
$SURFTAB1
 70
6
  9
$SURFTAB2
 70
6
  9
$SURFTYPE
 70
6
  9
$SURFU
 70
6
  9
$SURFV
 70
6
  9
$UCSBASE
  2

  9
$UCSNAME
  2

  9
$UCSORG
 10
0.0
 20
0.0
 30
0.0
  9
$UCSXDIR
 10
1.0
 20
0.0
 30
0.0
  9
$UCSYDIR
 10
0.0
 20
1.0
 30
0.0
  9
$UCSORTHOREF
  2

  9
$UCSORTHOVIEW
 70
0
  9
$UCSORGTOP
 10
0.0
 20
0.0
 30
0.0
  9
$UCSORGBOTTOM
 10
0.0
 20
0.0
 30
0.0
  9
$UCSORGLEFT
 10
0.0
 20
0.0
 30
0.0
  9
$UCSORGRIGHT
 10
0.0
 20
0.0
 30
0.0
  9
$UCSORGFRONT
 10
0.0
 20
0.0
 30
0.0
  9
$UCSORGBACK
 10
0.0
 20
0.0
 30
0.0
  9
$PUCSBASE
  2

  9
$PUCSNAME
  2

  9
$PUCSORG
 10
0.0
 20
0.0
 30
0.0
  9
$PUCSXDIR
 10
1.0
 20
0.0
 30
0.0
  9
$PUCSYDIR
 10
0.0
 20
1.0
 30
0.0
  9
$PUCSORTHOREF
  2

  9
$PUCSORTHOVIEW
 70
0
  9
$PUCSORGTOP
 10
0.0
 20
0.0
 30
0.0
  9
$PUCSORGBOTTOM
 10
0.0
 20
0.0
 30
0.0
  9
$PUCSORGLEFT
 10
0.0
 20
0.0
 30
0.0
  9
$PUCSORGRIGHT
 10
0.0
 20
0.0
 30
0.0
  9
$PUCSORGFRONT
 10
0.0
 20
0.0
 30
0.0
  9
$PUCSORGBACK
 10
0.0
 20
0.0
 30
0.0
  9
$USERI1
 70
0
  9
$USERI2
 70
0
  9
$USERI3
 70
0
  9
$USERI4
 70
0
  9
$USERI5
 70
0
  9
$USERR1
 40
0.0
  9
$USERR2
 40
0.0
  9
$USERR3
 40
0.0
  9
$USERR4
 40
0.0
  9
$USERR5
 40
0.0
  9
$WORLDVIEW
 70
1
  9
$SHADEDGE
 70
3
  9
$SHADEDIF
 70
70
  9
$TILEMODE
 70
1
  9
$MAXACTVP
 70
64
  9
$PINSBASE
 10
0.0
 20
0.0
 30
0.0
  9
$PLIMCHECK
 70
0
  9
$PEXTMIN
 10
1e+20
 20
1e+20
 30
1e+20
  9
$PEXTMAX
 10
-1e+20
 20
-1e+20
 30
-1e+20
  9
$PLIMMIN
 10
0.0
 20
0.0
  9
$PLIMMAX
 10
420.0
 20
297.0
  9
$UNITMODE
 70
0
  9
$VISRETAIN
 70
1
  9
$PLINEGEN
 70
0
  9
$PSLTSCALE
 70
1
  9
$TREEDEPTH
 70
3020
  9
$CMLSTYLE
  2
Standard
  9
$CMLJUST
 70
0
  9
$CMLSCALE
 40
20.0
  9
$PROXYGRAPHICS
 70
1
  9
$MEASUREMENT
 70
1
  9
$CELWEIGHT
370
-1
  9
$ENDCAPS
280
0
  9
$JOINSTYLE
280
0
  9
$LWDISPLAY
290
0
  9
$INSUNITS
 70
4
  9
$HYPERLINKBASE
  1

  9
$STYLESHEET
  1

  9
$XEDIT
290
1
  9
$CEPSNTYPE
380
0
  9
$PSTYLEMODE
290
1
  9
$FINGERPRINTGUID
  2
{8C733C5B-E61F-47C1-8846-96438BD70D89}
  9
$VERSIONGUID
  2
{AE929D50-CD3B-4B27-A763-47202BFF5856}
  9
$EXTNAMES
290
1
  9
$PSVPSCALE
 40
0.0
  9
$OLESTARTUP
290
0
  9
$SORTENTS
280
127
  9
$INDEXCTL
280
0
  9
$HIDETEXT
280
1
  9
$XCLIPFRAME
280
1
  9
$HALOGAP
280
0
  9
$OBSCOLOR
 70
257
  9
$OBSLTYPE
280
0
  9
$INTERSECTIONDISPLAY
280
0
  9
$INTERSECTIONCOLOR
 70
257
  9
$DIMASSOC
280
2
  9
$PROJECTNAME
  1

  9
$CAMERADISPLAY
290
0
  9
$LENSLENGTH
 40
50.0
  9
$CAMERAHEIGHT
 40
0.0
  9
$STEPSPERSEC
 40
24.0
  9
$STEPSIZE
 40
100.0
  9
$3DDWFPREC
 40
2.0
  9
$PSOLWIDTH
 40
0.005
  9
$PSOLHEIGHT
 40
0.08
  9
$LOFTANG1
 40
1.570796326795
  9
$LOFTANG2
 40
1.570796326795
  9
$LOFTMAG1
 40
0.0
  9
$LOFTMAG2
 40
0.0
  9
$LOFTPARAM
 70
7
  9
$LOFTNORMALS
280
1
  9
$LATITUDE
 40
37.795
  9
$LONGITUDE
 40
-122.394
  9
$NORTHDIRECTION
 40
0.0
  9
$TIMEZONE
 70
-8000
  9
$LIGHTGLYPHDISPLAY
280
1
  9
$TILEMODELIGHTSYNCH
280
1
  9
$CMATERIAL
347
20
  9
$SOLIDHIST
280
0
  9
$SHOWHIST
280
1
  9
$DWFFRAME
280
2
  9
$DGNFRAME
280
2
  9
$REALWORLDSCALE
290
1
  9
$INTERFERECOLOR
 62
256
  9
$CSHADOW
280
0
  9
$SHADOWPLANELOCATION
 40
0.0
  0
ENDSEC
  0
SECTION
  2
CLASSES
  0
CLASS
  1
ACDBDICTIONARYWDFLT
  2
AcDbDictionaryWithDefault
  3
ObjectDBX Classes
 90
0
 91
0
280
0
281
0
  0
CLASS
  1
SUN
  2
AcDbSun
  3
SCENEOE
 90
1153
 91
0
280
0
281
0
  0
CLASS
  1
VISUALSTYLE
  2
AcDbVisualStyle
  3
ObjectDBX Classes
 90
4095
 91
0
280
0
281
0
  0
CLASS
  1
MATERIAL
  2
AcDbMaterial
  3
ObjectDBX Classes
 90
1153
 91
0
280
0
281
0
  0
CLASS
  1
SCALE
  2
AcDbScale
  3
ObjectDBX Classes
 90
1153
 91
0
280
0
281
0
  0
CLASS
  1
TABLESTYLE
  2
AcDbTableStyle
  3
ObjectDBX Classes
 90
4095
 91
0
280
0
281
0
  0
CLASS
  1
MLEADERSTYLE
  2
AcDbMLeaderStyle
  3
ACDB_MLEADERSTYLE_CLASS
 90
4095
 91
0
280
0
281
0
  0
CLASS
  1
DICTIONARYVAR
  2
AcDbDictionaryVar
  3
ObjectDBX Classes
 90
0
 91
0
280
0
281
0
  0
CLASS
  1
CELLSTYLEMAP
  2
AcDbCellStyleMap
  3
ObjectDBX Classes
 90
1152
 91
0
280
0
281
0
  0
CLASS
  1
MENTALRAYRENDERSETTINGS
  2
AcDbMentalRayRenderSettings
  3
SCENEOE
 90
1024
 91
0
280
0
281
0
  0
CLASS
  1
ACDBDETAILVIEWSTYLE
  2
AcDbDetailViewStyle
  3
ObjectDBX Classes
 90
1025
 91
0
280
0
281
0
  0
CLASS
  1
ACDBSECTIONVIEWSTYLE
  2
AcDbSectionViewStyle
  3
ObjectDBX Classes
 90
1025
 91
0
280
0
281
0
  0
CLASS
  1
RASTERVARIABLES
  2
AcDbRasterVariables
  3
ISM
 90
0
 91
0
280
0
281
0
  0
CLASS
  1
ACDBPLACEHOLDER
  2
AcDbPlaceHolder
  3
ObjectDBX Classes
 90
0
 91
0
280
0
281
0
  0
CLASS
  1
LAYOUT
  2
AcDbLayout
  3
ObjectDBX Classes
 90
0
 91
0
280
0
281
0
  0
ENDSEC
  0
SECTION
  2
TABLES
  0
TABLE
  2
VPORT
  5
8
330
0
100
AcDbSymbolTable
 70
1
  0
VPORT
  5
23
330
8
100
AcDbSymbolTableRecord
100
AcDbViewportTableRecord
  2
*Active
 70
0
 10
0.0
 20
0.0
 11
1.0
 21
1.0
 12
0.0
 22
0.0
 13
0.0
 23
0.0
 14
0.5
 24
0.5
 15
0.5
 25
0.5
 16
0.0
 26
0.0
 36
1.0
 17
0.0
 27
0.0
 37
0.0
 40
1000.0
 41
1.34
 42
50.0
 43
0.0
 44
0.0
 50
0.0
 51
0.0
 71
0
 72
1000
 73
1
 74
3
 75
0
 76
0
 77
0
 78
0
281
0
 65
0
146
0.0
  0
ENDTAB
  0
TABLE
  2
LTYPE
  5
2
330
0
100
AcDbSymbolTable
 70
3
  0
LTYPE
  5
24
330
2
100
AcDbSymbolTableRecord
100
AcDbLinetypeTableRecord
  2
ByBlock
 70
0
  3

 72
65
 73
0
 40
0.0
  0
LTYPE
  5
25
330
2
100
AcDbSymbolTableRecord
100
AcDbLinetypeTableRecord
  2
ByLayer
 70
0
  3

 72
65
 73
0
 40
0.0
  0
LTYPE
  5
26
330
2
100
AcDbSymbolTableRecord
100
AcDbLinetypeTableRecord
  2
Continuous
 70
0
  3

 72
65
 73
0
 40
0.0
  0
ENDTAB
  0
TABLE
  2
LAYER
  5
1
330
0
100
AcDbSymbolTable
 70
7
  0
LAYER
  5
27
330
1
100
AcDbSymbolTableRecord
100
AcDbLayerTableRecord
  2
0
 70
0
 62
7
  6
Continuous
370
-3
390
13
347
21
  0
LAYER
  5
28
330
1
100
AcDbSymbolTableRecord
100
AcDbLayerTableRecord
  2
Defpoints
 70
0
 62
7
  6
Continuous
290
0
370
-3
390
13
347
21
  0
LAYER
  5
2F
330
1
100
AcDbSymbolTableRecord
100
AcDbLayerTableRecord
  2
OUTLINE
 70
0
 62
7
  6
Continuous
370
-3
390
13
347
21
  0
LAYER
  5
30
330
1
100
AcDbSymbolTableRecord
100
AcDbLayerTableRecord
  2
THROUGH
 70
0
 62
7
  6
Continuous
370
-3
390
13
347
21
  0
LAYER
  5
31
330
1
100
AcDbSymbolTableRecord
100
AcDbLayerTableRecord
  2
POCKET_1MM
 70
0
 62
7
  6
Continuous
370
-3
390
13
347
21
  0
LAYER
  5
32
330
1
100
AcDbSymbolTableRecord
100
AcDbLayerTableRecord
  2
STANDOFF_M3
 70
0
 62
7
  6
Continuous
370
-3
390
13
347
21
  0
LAYER
  5
33
330
1
100
AcDbSymbolTableRecord
100
AcDbLayerTableRecord
  2
MARKING
 70
0
 62
7
  6
Continuous
370
-3
390
13
347
21
  0
ENDTAB
  0
TABLE
  2
STYLE
  5
5
330
0
100
AcDbSymbolTable
 70
1
  0
STYLE
  5
29
330
5
100
AcDbSymbolTableRecord
100
AcDbTextStyleTableRecord
  2
Standard
 70
0
 40
0.0
 41
1.0
 50
0.0
 71
0
 42
2.5
  3
txt
  4

  0
ENDTAB
  0
TABLE
  2
VIEW
  5
7
330
0
100
AcDbSymbolTable
 70
0
  0
ENDTAB
  0
TABLE
  2
UCS
  5
6
330
0
100
AcDbSymbolTable
 70
0
  0
ENDTAB
  0
TABLE
  2
APPID
  5
3
330
0
100
AcDbSymbolTable
 70
3
  0
APPID
  5
2A
330
3
100
AcDbSymbolTableRecord
100
AcDbRegAppTableRecord
  2
ACAD
 70
0
  0
APPID
  5
65
330
3
100
AcDbSymbolTableRecord
100
AcDbRegAppTableRecord
  2
HATCHBACKGROUNDCOLOR
 70
0
  0
APPID
  5
66
330
3
100
AcDbSymbolTableRecord
100
AcDbRegAppTableRecord
  2
EZDXF
 70
0
  0
ENDTAB
  0
TABLE
  2
DIMSTYLE
  5
4
330
0
100
AcDbSymbolTable
 70
1
100
AcDbDimStyleTable
  0
DIMSTYLE
105
2B
330
4
100
AcDbSymbolTableRecord
100
AcDbDimStyleTableRecord
  2
Standard
 70
0
 40
1.0
 41
2.5
 42
0.625
 43
3.75
 44
1.25
 45
0.0
 46
0.0
 47
0.0
 48
0.0
 49
2.5
140
2.5
141
2.5
142
0.0
143
0.03937007874
144
1.0
145
0.0
146
1.0
147
0.625
148
0.0
 69
0
 70
0
 71
0
 72
0
 73
0
 74
0
 75
0
 76
0
 77
1
 78
8
 79
3
170
0
171
3
172
1
173
0
174
0
175
0
176
0
177
0
178
0
179
2
271
2
272
2
273
2
274
3
275
0
276
0
277
2
278
44
279
0
280
0
281
0
282
0
283
0
284
8
285
0
286
0
288
0
289
3
290
0
371
-2
372
-2
  0
ENDTAB
  0
TABLE
  2
BLOCK_RECORD
  5
9
330
0
100
AcDbSymbolTable
 70
2
  0
BLOCK_RECORD
  5
17
330
9
100
AcDbSymbolTableRecord
100
AcDbBlockTableRecord
  2
*Model_Space
340
1A
 70
0
280
1
281
0
  0
BLOCK_RECORD
  5
1B
330
9
100
AcDbSymbolTableRecord
100
AcDbBlockTableRecord
  2
*Paper_Space
340
1E
 70
0
280
1
281
0
  0
ENDTAB
  0
ENDSEC
  0
SECTION
  2
BLOCKS
  0
BLOCK
  5
18
330
17
100
AcDbEntity
  8
0
100
AcDbBlockBegin
  2
*Model_Space
 70
0
 10
0.0
 20
0.0
 30
0.0
  3
*Model_Space
  1

  0
ENDBLK
  5
19
330
17
100
AcDbEntity
  8
0
100
AcDbBlockEnd
  0
BLOCK
  5
1C
330
1B
100
AcDbEntity
  8
0
100
AcDbBlockBegin
  2
*Paper_Space
 70
0
 10
0.0
 20
0.0
 30
0.0
  3
*Paper_Space
  1

  0
ENDBLK
  5
1D
330
1B
100
AcDbEntity
  8
0
100
AcDbBlockEnd
  0
ENDSEC
  0
SECTION
  2
ENTITIES
  0
LWPOLYLINE
  5
34
330
17
100
AcDbEntity
  8
OUTLINE
100
AcDbPolyline
 90
40
 70
1
 10
182.75
 20
112.75
 10
182.5676930361465
 20
114.83377813200316
 10
182.0263114494309
 20
116.85424171990803
 10
181.14230484541326
 20
118.75
 10
179.94253331742775
 20
120.46345131623848
 10
178.46345131623846
 20
121.94253331742773
 10
176.75
 20
123.14230484541326
 10
174.85424171990803
 20
124.02631144943089
 10
172.83377813200318
 20
124.5676930361465
 10
170.75
 20
124.75
 10
-170.75
 20
124.75
 10
-172.83377813200318
 20
124.5676930361465
 10
-174.85424171990803
 20
124.0263114494309
 10
-176.75
 20
123.14230484541326
 10
-178.46345131623846
 20
121.94253331742773
 10
-179.94253331742775
 20
120.46345131623848
 10
-181.14230484541326
 20
118.75
 10
-182.0263114494309
 20
116.85424171990803
 10
-182.5676930361465
 20
114.83377813200316
 10
-182.75
 20
112.75
 10
-182.75
 20
-112.75
 10
-182.5676930361465
 20
-114.83377813200316
 10
-182.0263114494309
 20
-116.85424171990802
 10
-181.14230484541326
 20
-118.75
 10
-179.94253331742775
 20
-120.46345131623848
 10
-178.46345131623846
 20
-121.94253331742773
 10
-176.75
 20
-123.14230484541326
 10
-174.85424171990803
 20
-124.0263114494309
 10
-172.83377813200318
 20
-124.5676930361465
 10
-170.75
 20
-124.75
 10
170.75
 20
-124.75
 10
172.83377813200315
 20
-124.5676930361465
 10
174.85424171990803
 20
-124.02631144943089
 10
176.75
 20
-123.14230484541326
 10
178.46345131623846
 20
-121.94253331742775
 10
179.94253331742775
 20
-120.46345131623848
 10
181.14230484541326
 20
-118.75
 10
182.0263114494309
 20
-116.85424171990802
 10
182.5676930361465
 20
-114.83377813200316
 10
182.75
 20
-112.75
  0
CIRCLE
  5
35
330
17
100
AcDbEntity
  8
THROUGH
100
AcDbCircle
 10
-139.4
 20
-121.2
 30
0.0
 40
1.7
  0
CIRCLE
  5
36
330
17
100
AcDbEntity
  8
THROUGH
100
AcDbCircle
 10
139.4
 20
-121.2
 30
0.0
 40
1.7
  0
CIRCLE
  5
37
330
17
100
AcDbEntity
  8
THROUGH
100
AcDbCircle
 10
0.0
 20
-121.2
 30
0.0
 40
1.7
  0
CIRCLE
  5
38
330
17
100
AcDbEntity
  8
THROUGH
100
AcDbCircle
 10
-139.4
 20
121.2
 30
0.0
 40
1.7
  0
CIRCLE
  5
39
330
17
100
AcDbEntity
  8
THROUGH
100
AcDbCircle
 10
139.4
 20
121.2
 30
0.0
 40
1.7
  0
CIRCLE
  5
3A
330
17
100
AcDbEntity
  8
THROUGH
100
AcDbCircle
 10
0.0
 20
121.2
 30
0.0
 40
1.7
  0
CIRCLE
  5
3B
330
17
100
AcDbEntity
  8
THROUGH
100
AcDbCircle
 10
-179.1
 20
-75.9
 30
0.0
 40
1.7
  0
CIRCLE
  5
3C
330
17
100
AcDbEntity
  8
THROUGH
100
AcDbCircle
 10
179.1
 20
-75.9
 30
0.0
 40
1.7
  0
CIRCLE
  5
3D
330
17
100
AcDbEntity
  8
THROUGH
100
AcDbCircle
 10
-179.1
 20
75.9
 30
0.0
 40
1.7
  0
CIRCLE
  5
3E
330
17
100
AcDbEntity
  8
THROUGH
100
AcDbCircle
 10
179.1
 20
75.9
 30
0.0
 40
1.7
  0
LWPOLYLINE
  5
3F
330
17
100
AcDbEntity
  8
THROUGH
100
AcDbPolyline
 90
40
 70
1
 10
84.675
 20
24.755000000000003
 10
84.6522116295183
 20
25.0154722665004
 10
84.58453893117886
 20
25.268030214988507
 10
84.47403810567666
 20
25.505000000000003
 10
84.32406666467847
 20
25.71918141452981
 10
84.1391814145298
 20
25.90406666467847
 10
83.925
 20
26.05403810567666
 10
83.6880302149885
 20
26.164538931178864
 10
83.4354722665004
 20
26.232211629518314
 10
83.175
 20
26.255000000000003
 10
-83.175
 20
26.255000000000003
 10
-83.4354722665004
 20
26.232211629518314
 10
-83.6880302149885
 20
26.164538931178864
 10
-83.925
 20
26.05403810567666
 10
-84.1391814145298
 20
25.90406666467847
 10
-84.32406666467847
 20
25.71918141452981
 10
-84.47403810567666
 20
25.505000000000003
 10
-84.58453893117886
 20
25.268030214988507
 10
-84.6522116295183
 20
25.0154722665004
 10
-84.675
 20
24.755000000000003
 10
-84.675
 20
-72.755
 10
-84.6522116295183
 20
-73.0154722665004
 10
-84.58453893117886
 20
-73.2680302149885
 10
-84.47403810567666
 20
-73.505
 10
-84.32406666467847
 20
-73.7191814145298
 10
-84.1391814145298
 20
-73.90406666467847
 10
-83.925
 20
-74.05403810567665
 10
-83.6880302149885
 20
-74.16453893117885
 10
-83.4354722665004
 20
-74.2322116295183
 10
-83.175
 20
-74.255
 10
83.175
 20
-74.255
 10
83.4354722665004
 20
-74.2322116295183
 10
83.6880302149885
 20
-74.16453893117885
 10
83.925
 20
-74.05403810567665
 10
84.1391814145298
 20
-73.90406666467847
 10
84.32406666467847
 20
-73.7191814145298
 10
84.47403810567666
 20
-73.505
 10
84.58453893117886
 20
-73.2680302149885
 10
84.6522116295183
 20
-73.0154722665004
 10
84.675
 20
-72.755
  0
LWPOLYLINE
  5
40
330
17
100
AcDbEntity
  8
POCKET_1MM
100
AcDbPolyline
 90
40
 70
1
 10
94.96
 20
28.119999999999994
 10
94.83390435000132
 20
29.561279874635517
 10
94.45944875252303
 20
30.958767189603044
 10
93.84801085141083
 20
32.269999999999996
 10
93.01816887788752
 20
33.45513716039827
 10
91.99513716039827
 20
34.47816887788751
 10
90.81
 20
35.308010851410835
 10
89.49876718960304
 20
35.91944875252303
 10
88.10127987463552
 20
36.29390435000132
 10
86.66
 20
36.419999999999995
 10
-86.66
 20
36.419999999999995
 10
-88.10127987463552
 20
36.29390435000132
 10
-89.49876718960304
 20
35.91944875252303
 10
-90.81
 20
35.308010851410835
 10
-91.99513716039827
 20
34.47816887788751
 10
-93.01816887788752
 20
33.45513716039827
 10
-93.84801085141083
 20
32.269999999999996
 10
-94.45944875252303
 20
30.958767189603044
 10
-94.83390435000132
 20
29.561279874635517
 10
-94.96
 20
28.119999999999994
 10
-94.96
 20
-76.11999999999999
 10
-94.83390435000132
 20
-77.56127987463552
 10
-94.45944875252303
 20
-78.95876718960304
 10
-93.84801085141083
 20
-80.27
 10
-93.01816887788752
 20
-81.45513716039827
 10
-91.99513716039827
 20
-82.47816887788751
 10
-90.81
 20
-83.30801085141083
 10
-89.49876718960304
 20
-83.91944875252302
 10
-88.10127987463552
 20
-84.29390435000131
 10
-86.66
 20
-84.41999999999999
 10
86.66
 20
-84.41999999999999
 10
88.10127987463551
 20
-84.29390435000131
 10
89.49876718960304
 20
-83.91944875252302
 10
90.81
 20
-83.30801085141083
 10
91.99513716039827
 20
-82.47816887788751
 10
93.01816887788752
 20
-81.45513716039827
 10
93.84801085141083
 20
-80.27
 10
94.45944875252303
 20
-78.95876718960304
 10
94.83390435000132
 20
-77.56127987463552
 10
94.96
 20
-76.11999999999999
  0
LWPOLYLINE
  5
41
330
17
100
AcDbEntity
  8
THROUGH
100
AcDbPolyline
 90
40
 70
1
 10
47.095
 20
95.8
 10
47.079807753012204
 20
95.97364817766693
 10
47.034692620785904
 20
96.14202014332567
 10
46.96102540378444
 20
96.3
 10
46.86104444311898
 20
96.44278760968653
 10
46.737787609686535
 20
96.56604444311897
 10
46.595
 20
96.66602540378443
 10
46.43702014332567
 20
96.7396926207859
 10
46.26864817766693
 20
96.7848077530122
 10
46.095
 20
96.8
 10
-46.095
 20
96.8
 10
-46.26864817766693
 20
96.7848077530122
 10
-46.43702014332567
 20
96.7396926207859
 10
-46.595
 20
96.66602540378443
 10
-46.737787609686535
 20
96.56604444311897
 10
-46.86104444311898
 20
96.44278760968653
 10
-46.96102540378444
 20
96.3
 10
-47.034692620785904
 20
96.14202014332567
 10
-47.079807753012204
 20
95.97364817766693
 10
-47.095
 20
95.8
 10
-47.095
 20
44.2
 10
-47.079807753012204
 20
44.02635182233307
 10
-47.034692620785904
 20
43.85797985667433
 10
-46.96102540378444
 20
43.7
 10
-46.86104444311898
 20
43.55721239031347
 10
-46.737787609686535
 20
43.433955556881024
 10
-46.595
 20
43.33397459621556
 10
-46.43702014332567
 20
43.2603073792141
 10
-46.26864817766693
 20
43.2151922469878
 10
-46.095
 20
43.2
 10
46.095
 20
43.2
 10
46.268648177666925
 20
43.2151922469878
 10
46.43702014332567
 20
43.2603073792141
 10
46.595
 20
43.33397459621556
 10
46.737787609686535
 20
43.433955556881024
 10
46.86104444311898
 20
43.55721239031347
 10
46.96102540378444
 20
43.7
 10
47.034692620785904
 20
43.85797985667433
 10
47.079807753012204
 20
44.02635182233307
 10
47.095
 20
44.2
  0
LWPOLYLINE
  5
42
330
17
100
AcDbEntity
  8
POCKET_1MM
100
AcDbPolyline
 90
40
 70
1
 10
53.795
 20
100.5
 10
53.749423259036625
 20
101.02094453300079
 10
53.614077862357725
 20
101.52606042997701
 10
53.39307621135332
 20
102.0
 10
53.09313332935694
 20
102.42836282905962
 10
52.72336282905962
 20
102.79813332935693
 10
52.295
 20
103.09807621135332
 10
51.82106042997701
 20
103.31907786235773
 10
51.315944533000796
 20
103.45442325903663
 10
50.795
 20
103.5
 10
-50.795
 20
103.5
 10
-51.315944533000796
 20
103.45442325903663
 10
-51.82106042997701
 20
103.31907786235773
 10
-52.295
 20
103.09807621135332
 10
-52.72336282905962
 20
102.79813332935693
 10
-53.09313332935694
 20
102.42836282905962
 10
-53.39307621135332
 20
102.0
 10
-53.614077862357725
 20
101.52606042997701
 10
-53.749423259036625
 20
101.02094453300079
 10
-53.795
 20
100.5
 10
-53.795
 20
39.5
 10
-53.749423259036625
 20
38.979055466999206
 10
-53.614077862357725
 20
38.47393957002299
 10
-53.39307621135332
 20
38.0
 10
-53.09313332935694
 20
37.571637170940384
 10
-52.72336282905962
 20
37.201866670643064
 10
-52.295
 20
36.901923788646684
 10
-51.82106042997701
 20
36.68092213764228
 10
-51.315944533000796
 20
36.54557674096338
 10
-50.795
 20
36.5
 10
50.795
 20
36.5
 10
51.31594453300079
 20
36.54557674096338
 10
51.82106042997701
 20
36.68092213764228
 10
52.295
 20
36.901923788646684
 10
52.72336282905962
 20
37.201866670643064
 10
53.09313332935694
 20
37.571637170940384
 10
53.39307621135332
 20
38.0
 10
53.614077862357725
 20
38.47393957002299
 10
53.749423259036625
 20
38.979055466999206
 10
53.795
 20
39.5
  0
CIRCLE
  5
43
330
17
100
AcDbEntity
  8
THROUGH
100
AcDbCircle
 10
150.0
 20
60.0
 30
0.0
 40
9.6
  0
CIRCLE
  5
44
330
17
100
AcDbEntity
  8
THROUGH
100
AcDbCircle
 10
150.0
 20
10.0
 30
0.0
 40
8.1
  0
CIRCLE
  5
45
330
17
100
AcDbEntity
  8
THROUGH
100
AcDbCircle
 10
150.0
 20
-40.0
 30
0.0
 40
8.1
  0
CIRCLE
  5
46
330
17
100
AcDbEntity
  8
THROUGH
100
AcDbCircle
 10
-150.0
 20
60.0
 30
0.0
 40
3.25
  0
LWPOLYLINE
  5
47
330
17
100
AcDbEntity
  8
THROUGH
100
AcDbPolyline
 90
4
 70
0
 10
-151.35
 20
59.0
 10
-151.35
 20
55.65
 10
-148.65
 20
55.65
 10
-148.65
 20
59.0
  0
CIRCLE
  5
48
330
17
100
AcDbEntity
  8
THROUGH
100
AcDbCircle
 10
-150.0
 20
18.0
 30
0.0
 40
3.25
  0
LWPOLYLINE
  5
49
330
17
100
AcDbEntity
  8
THROUGH
100
AcDbPolyline
 90
4
 70
0
 10
-151.35
 20
17.0
 10
-151.35
 20
13.65
 10
-148.65
 20
13.65
 10
-148.65
 20
17.0
  0
CIRCLE
  5
4A
330
17
100
AcDbEntity
  8
THROUGH
100
AcDbCircle
 10
-150.0
 20
-24.0
 30
0.0
 40
3.25
  0
LWPOLYLINE
  5
4B
330
17
100
AcDbEntity
  8
THROUGH
100
AcDbPolyline
 90
4
 70
0
 10
-151.35
 20
-25.0
 10
-151.35
 20
-28.35
 10
-148.65
 20
-28.35
 10
-148.65
 20
-25.0
  0
CIRCLE
  5
4C
330
17
100
AcDbEntity
  8
THROUGH
100
AcDbCircle
 10
-150.0
 20
-66.0
 30
0.0
 40
3.25
  0
LINE
  5
4D
330
17
100
AcDbEntity
  8
THROUGH
100
AcDbLine
 10
-147.45
 20
-69.0
 30
0.0
 11
-147.45
 21
-63.0
 31
0.0
  0
CIRCLE
  5
4E
330
17
100
AcDbEntity
  8
THROUGH
100
AcDbCircle
 10
-149.0
 20
-97.0
 30
0.0
 40
14.3
  0
CIRCLE
  5
4F
330
17
100
AcDbEntity
  8
THROUGH
100
AcDbCircle
 10
128.0
 20
45.0
 30
0.0
 40
1.3
  0
CIRCLE
  5
50
330
17
100
AcDbEntity
  8
THROUGH
100
AcDbCircle
 10
128.0
 20
36.0
 30
0.0
 40
1.3
  0
CIRCLE
  5
51
330
17
100
AcDbEntity
  8
THROUGH
100
AcDbCircle
 10
128.0
 20
27.0
 30
0.0
 40
1.3
  0
CIRCLE
  5
52
330
17
100
AcDbEntity
  8
THROUGH
100
AcDbCircle
 10
128.0
 20
18.0
 30
0.0
 40
1.3
  0
CIRCLE
  5
53
330
17
100
AcDbEntity
  8
THROUGH
100
AcDbCircle
 10
128.0
 20
9.0
 30
0.0
 40
1.3
  0
CIRCLE
  5
54
330
17
100
AcDbEntity
  8
THROUGH
100
AcDbCircle
 10
128.0
 20
0.0
 30
0.0
 40
1.3
  0
CIRCLE
  5
55
330
17
100
AcDbEntity
  8
THROUGH
100
AcDbCircle
 10
128.0
 20
-9.0
 30
0.0
 40
1.3
  0
CIRCLE
  5
56
330
17
100
AcDbEntity
  8
THROUGH
100
AcDbCircle
 10
128.0
 20
-18.0
 30
0.0
 40
1.3
  0
CIRCLE
  5
57
330
17
100
AcDbEntity
  8
THROUGH
100
AcDbCircle
 10
128.0
 20
-27.0
 30
0.0
 40
1.3
  0
CIRCLE
  5
58
330
17
100
AcDbEntity
  8
THROUGH
100
AcDbCircle
 10
128.0
 20
-36.0
 30
0.0
 40
1.3
  0
CIRCLE
  5
59
330
17
100
AcDbEntity
  8
THROUGH
100
AcDbCircle
 10
128.0
 20
-45.0
 30
0.0
 40
1.3
  0
CIRCLE
  5
5A
330
17
100
AcDbEntity
  8
THROUGH
100
AcDbCircle
 10
-20.0
 20
-101.0
 30
0.0
 40
1.3
  0
CIRCLE
  5
5B
330
17
100
AcDbEntity
  8
THROUGH
100
AcDbCircle
 10
-14.0
 20
-101.0
 30
0.0
 40
1.3
  0
CIRCLE
  5
5C
330
17
100
AcDbEntity
  8
THROUGH
100
AcDbCircle
 10
-8.0
 20
-101.0
 30
0.0
 40
1.3
  0
CIRCLE
  5
5D
330
17
100
AcDbEntity
  8
THROUGH
100
AcDbCircle
 10
-2.0
 20
-101.0
 30
0.0
 40
1.3
  0
CIRCLE
  5
5E
330
17
100
AcDbEntity
  8
THROUGH
100
AcDbCircle
 10
4.0
 20
-101.0
 30
0.0
 40
1.3
  0
CIRCLE
  5
5F
330
17
100
AcDbEntity
  8
STANDOFF_M3
100
AcDbCircle
 10
-160.0
 20
108.0
 30
0.0
 40
2.1
  0
CIRCLE
  5
60
330
17
100
AcDbEntity
  8
STANDOFF_M3
100
AcDbCircle
 10
160.0
 20
108.0
 30
0.0
 40
2.1
  0
CIRCLE
  5
61
330
17
100
AcDbEntity
  8
STANDOFF_M3
100
AcDbCircle
 10
-165.0
 20
-108.0
 30
0.0
 40
2.1
  0
CIRCLE
  5
62
330
17
100
AcDbEntity
  8
STANDOFF_M3
100
AcDbCircle
 10
165.0
 20
-108.0
 30
0.0
 40
2.1
  0
CIRCLE
  5
63
330
17
100
AcDbEntity
  8
STANDOFF_M3
100
AcDbCircle
 10
-40.0
 20
-101.0
 30
0.0
 40
2.1
  0
CIRCLE
  5
64
330
17
100
AcDbEntity
  8
STANDOFF_M3
100
AcDbCircle
 10
20.0
 20
-101.0
 30
0.0
 40
2.1
  0
ENDSEC
  0
SECTION
  2
OBJECTS
  0
DICTIONARY
  5
A
330
0
100
AcDbDictionary
281
1
  3
ACAD_COLOR
350
B
  3
ACAD_GROUP
350
C
  3
ACAD_LAYOUT
350
D
  3
ACAD_MATERIAL
350
E
  3
ACAD_MLEADERSTYLE
350
F
  3
ACAD_MLINESTYLE
350
10
  3
ACAD_PLOTSETTINGS
350
11
  3
ACAD_PLOTSTYLENAME
350
12
  3
ACAD_SCALELIST
350
14
  3
ACAD_TABLESTYLE
350
15
  3
ACAD_VISUALSTYLE
350
16
  3
EZDXF_META
350
2D
  0
DICTIONARY
  5
B
330
A
100
AcDbDictionary
281
1
  0
DICTIONARY
  5
C
330
A
100
AcDbDictionary
281
1
  0
DICTIONARY
  5
D
330
A
100
AcDbDictionary
281
1
  3
Model
350
1A
  3
Layout1
350
1E
  0
DICTIONARY
  5
E
330
A
100
AcDbDictionary
281
1
  3
ByBlock
350
1F
  3
ByLayer
350
20
  3
Global
350
21
  0
DICTIONARY
  5
F
330
A
100
AcDbDictionary
281
1
  3
Standard
350
2C
  0
DICTIONARY
  5
10
330
A
100
AcDbDictionary
281
1
  3
Standard
350
22
  0
DICTIONARY
  5
11
330
A
100
AcDbDictionary
281
1
  0
ACDBDICTIONARYWDFLT
  5
12
330
A
100
AcDbDictionary
281
1
  3
Normal
350
13
100
AcDbDictionaryWithDefault
340
13
  0
ACDBPLACEHOLDER
  5
13
330
12
  0
DICTIONARY
  5
14
330
A
100
AcDbDictionary
281
1
  0
DICTIONARY
  5
15
330
A
100
AcDbDictionary
281
1
  0
DICTIONARY
  5
16
330
A
100
AcDbDictionary
281
1
  0
LAYOUT
  5
1A
330
D
100
AcDbPlotSettings
  1

  4
A3
  6

 40
7.5
 41
20.0
 42
7.5
 43
20.0
 44
420.0
 45
297.0
 46
0.0
 47
0.0
 48
0.0
 49
0.0
140
0.0
141
0.0
142
1.0
143
1.0
 70
1024
 72
1
 73
0
 74
5
  7

 75
16
 76
0
 77
2
 78
300
147
1.0
148
0.0
149
0.0
100
AcDbLayout
  1
Model
 70
1
 71
0
 10
0.0
 20
0.0
 11
420.0
 21
297.0
 12
0.0
 22
0.0
 32
0.0
 14
1e+20
 24
1e+20
 34
1e+20
 15
-1e+20
 25
-1e+20
 35
-1e+20
146
0.0
 13
0.0
 23
0.0
 33
0.0
 16
1.0
 26
0.0
 36
0.0
 17
0.0
 27
1.0
 37
0.0
 76
1
330
17
  0
LAYOUT
  5
1E
330
D
100
AcDbPlotSettings
  1

  4
A3
  6

 40
7.5
 41
20.0
 42
7.5
 43
20.0
 44
420.0
 45
297.0
 46
0.0
 47
0.0
 48
0.0
 49
0.0
140
0.0
141
0.0
142
1.0
143
1.0
 70
0
 72
1
 73
0
 74
5
  7

 75
16
 76
0
 77
2
 78
300
147
1.0
148
0.0
149
0.0
100
AcDbLayout
  1
Layout1
 70
1
 71
1
 10
0.0
 20
0.0
 11
420.0
 21
297.0
 12
0.0
 22
0.0
 32
0.0
 14
1e+20
 24
1e+20
 34
1e+20
 15
-1e+20
 25
-1e+20
 35
-1e+20
146
0.0
 13
0.0
 23
0.0
 33
0.0
 16
1.0
 26
0.0
 36
0.0
 17
0.0
 27
1.0
 37
0.0
 76
1
330
1B
  0
MATERIAL
  5
1F
102
{ACAD_REACTORS
330
E
102
}
330
E
100
AcDbMaterial
  1
ByBlock
  2

 70
0
 40
1.0
 71
1
 41
1.0
 91
-1023410177
 42
1.0
 72
1
  3

 73
1
 74
1
 75
1
 44
0.5
 73
0
 45
1.0
 46
1.0
 77
1
  4

 78
1
 79
1
170
1
 48
1.0
171
1
  6

172
1
173
1
174
1
140
1.0
141
1.0
175
1
  7

176
1
177
1
178
1
143
1.0
179
1
  8

270
1
271
1
272
1
145
1.0
146
1.0
273
1
  9

274
1
275
1
276
1
 42
1.0
 72
1
  3

 73
1
 74
1
 75
1
 94
63
  0
MATERIAL
  5
20
102
{ACAD_REACTORS
330
E
102
}
330
E
100
AcDbMaterial
  1
ByLayer
  2

 70
0
 40
1.0
 71
1
 41
1.0
 91
-1023410177
 42
1.0
 72
1
  3

 73
1
 74
1
 75
1
 44
0.5
 73
0
 45
1.0
 46
1.0
 77
1
  4

 78
1
 79
1
170
1
 48
1.0
171
1
  6

172
1
173
1
174
1
140
1.0
141
1.0
175
1
  7

176
1
177
1
178
1
143
1.0
179
1
  8

270
1
271
1
272
1
145
1.0
146
1.0
273
1
  9

274
1
275
1
276
1
 42
1.0
 72
1
  3

 73
1
 74
1
 75
1
 94
63
  0
MATERIAL
  5
21
102
{ACAD_REACTORS
330
E
102
}
330
E
100
AcDbMaterial
  1
Global
  2

 70
0
 40
1.0
 71
1
 41
1.0
 91
-1023410177
 42
1.0
 72
1
  3

 73
1
 74
1
 75
1
 44
0.5
 73
0
 45
1.0
 46
1.0
 77
1
  4

 78
1
 79
1
170
1
 48
1.0
171
1
  6

172
1
173
1
174
1
140
1.0
141
1.0
175
1
  7

176
1
177
1
178
1
143
1.0
179
1
  8

270
1
271
1
272
1
145
1.0
146
1.0
273
1
  9

274
1
275
1
276
1
 42
1.0
 72
1
  3

 73
1
 74
1
 75
1
 94
63
  0
MLINESTYLE
  5
22
102
{ACAD_REACTORS
330
10
102
}
330
10
100
AcDbMlineStyle
  2
Standard
 70
0
  3

 62
256
 51
90.0
 52
90.0
 71
2
 49
0.5
 62
256
  6
BYLAYER
 49
-0.5
 62
256
  6
BYLAYER
  0
MLEADERSTYLE
  5
2C
102
{ACAD_REACTORS
330
F
102
}
330
F
100
AcDbMLeaderStyle
179
2
170
2
171
1
172
0
 90
2
 40
0.0
 41
0.0
173
1
 91
-1056964608
 92
-2
290
1
 42
2.0
291
1
 43
8.0
  3
Standard
 44
4.0
300

342
29
174
1
175
1
176
0
178
1
 93
-1056964608
 45
4.0
292
0
297
0
 46
4.0
 94
-1056964608
 47
1.0
 49
1.0
140
1.0
294
1
141
0.0
177
0
142
1.0
295
0
296
0
143
3.75
271
0
272
9
273
9
  0
DICTIONARY
  5
2D
330
A
100
AcDbDictionary
280
1
281
1
  3
CREATED_BY_EZDXF
350
2E
  3
WRITTEN_BY_EZDXF
350
67
  0
DICTIONARYVAR
  5
2E
330
2D
100
DictionaryVariables
280
0
  1
1.4.4 @ 2026-09-05T18:07:05.674650+00:00
  0
DICTIONARYVAR
  5
67
330
2D
100
DictionaryVariables
280
0
  1
1.4.4 @ 2026-09-05T18:07:05.680090+00:00
  0
ENDSEC
  0
EOF
