ISO-10303-21;
HEADER;
FILE_DESCRIPTION (( 'STEP AP214' ),
    '1' );
FILE_NAME ('1520E - 931 TOP PID 2-21-2025.STEP',
    '2025-05-22T03:53:02',
    ( '' ),
    ( '' ),
    'SwSTEP 2.0',
    'SolidWorks 2021',
    '' );
FILE_SCHEMA (( 'AUTOMOTIVE_DESIGN' ));
ENDSEC;

DATA;
#1 = CARTESIAN_POINT ( 'NONE',  ( 8.246322432200912544, 1.134999999999999787, -5.669822432200914086 ) ) ;
#2 = CARTESIAN_POINT ( 'NONE',  ( -8.871371995697248991, 0.000000000000000000, 5.710286233324263883 ) ) ;
#3 = EDGE_LOOP ( 'NONE', ( #603, #192, #272, #195, #161 ) ) ;
#4 = DIRECTION ( 'NONE',  ( -0.03489949670250104552, -0.9993908270190957621, 0.000000000000000000 ) ) ;
#5 = ADVANCED_FACE ( 'NONE', ( #166 ), #768, .F. ) ;
#6 = LINE ( 'NONE', #760, #771 ) ;
#7 = ORIENTED_EDGE ( 'NONE', *, *, #409, .T. ) ;
#8 = FACE_OUTER_BOUND ( 'NONE', #359, .T. ) ;
#9 = CARTESIAN_POINT ( 'NONE',  ( 8.703087724698823635, 1.449051423809216033, -6.065559082681597936 ) ) ;
#10 = CIRCLE ( 'NONE', #686, 0.3465649824694762571 ) ;
#11 = CARTESIAN_POINT ( 'NONE',  ( 8.241483403047974221, 1.387075521583415627, -6.301374532101737813 ) ) ;
#12 = EDGE_LOOP ( 'NONE', ( #537, #711, #515, #469 ) ) ;
#13 = AXIS2_PLACEMENT_3D ( 'NONE', #530, #710, #210 ) ;
#14 = CARTESIAN_POINT ( 'NONE',  ( -8.819011681587141993, 1.499403216830051289, 5.710286233324263883 ) ) ;
#15 = FACE_OUTER_BOUND ( 'NONE', #615, .T. ) ;
#16 = VERTEX_POINT ( 'NONE', #630 ) ;
#17 = UNCERTAINTY_MEASURE_WITH_UNIT (LENGTH_MEASURE( 1.000000000000000082E-05 ), #178, 'distance_accuracy_value', 'NONE');
#18 = CARTESIAN_POINT ( 'NONE',  ( -8.231786233324262625, 1.386911219103536208, 6.301439988709416795 ) ) ;
#19 = LINE ( 'NONE', #220, #631 ) ;
#20 = EDGE_CURVE ( 'NONE', #344, #211, #505, .T. ) ;
#21 = EDGE_LOOP ( 'NONE', ( #83, #46, #597, #611 ) ) ;
#22 = DIRECTION ( 'NONE',  ( 0.000000000000000000, -0.9993908270190957621, -0.03489949670250104552 ) ) ;
#23 = VECTOR ( 'NONE', #71, 39.37007874015748854 ) ;
#24 = EDGE_LOOP ( 'NONE', ( #811, #397, #215, #708 ) ) ;
#25 = CARTESIAN_POINT ( 'NONE',  ( 8.246322432200912544, 1.814999999999999725, -5.669822432200915863 ) ) ;
#26 = CARTESIAN_POINT ( 'NONE',  ( -9.871371995697248991, 0.000000000000000000, -7.349871995697251137 ) ) ;
#27 = EDGE_CURVE ( 'NONE', #571, #782, #10, .T. ) ;
#28 = CARTESIAN_POINT ( 'NONE',  ( -8.597255129892531045, 1.428146097187496411, 6.173492189374156780 ) ) ;
#29 = ORIENTED_EDGE ( 'NONE', *, *, #740, .T. ) ;
#30 = DIRECTION ( 'NONE',  ( -1.000000000000000000, -0.000000000000000000, 1.327463039603764953E-16 ) ) ;
#31 = DIRECTION ( 'NONE',  ( -1.606969408037802241E-15, 1.000000000000000000, 0.000000000000000000 ) ) ;
#32 = CARTESIAN_POINT ( 'NONE',  ( 8.246322432200912544, 1.387401803126804500, -6.301244105711047538 ) ) ;
#33 = ORIENTED_EDGE ( 'NONE', *, *, #646, .T. ) ;
#34 = CARTESIAN_POINT ( 'NONE',  ( -9.176500000000000767, 1.386911219103542203, -6.301439988709415019 ) ) ;
#35 = AXIS2_PLACEMENT_3D ( 'NONE', #652, #595, #474 ) ;
#36 = CARTESIAN_POINT ( 'NONE',  ( -8.640178378840998263, 1.435928506796245951, 6.135744162067817697 ) ) ;
#37 = ORIENTED_EDGE ( 'NONE', *, *, #38, .T. ) ;
#38 = EDGE_CURVE ( 'NONE', #373, #744, #407, .T. ) ;
#39 = CARTESIAN_POINT ( 'NONE',  ( -9.871371995697250767, 0.000000000000000000, 7.349871995697251137 ) ) ;
#40 = ORIENTED_EDGE ( 'NONE', *, *, #641, .F. ) ;
#41 = FACE_OUTER_BOUND ( 'NONE', #21, .T. ) ;
#42 = SURFACE_STYLE_FILL_AREA ( #122 ) ;
#43 = EDGE_CURVE ( 'NONE', #761, #455, #654, .T. ) ;
#44 = LINE ( 'NONE', #563, #181 ) ;
#45 = CARTESIAN_POINT ( 'NONE',  ( -8.626350007177407520, 1.433324734738343542, 6.148730577670496800 ) ) ;
#46 = ORIENTED_EDGE ( 'NONE', *, *, #693, .T. ) ;
#47 = DIRECTION ( 'NONE',  ( -2.870449447232604190E-16, -0.000000000000000000, -1.000000000000000000 ) ) ;
#48 = VECTOR ( 'NONE', #645, 39.37007874015748143 ) ;
#49 = ADVANCED_FACE ( 'NONE', ( #274 ), #214, .F. ) ;
#50 = AXIS2_PLACEMENT_3D ( 'NONE', #608, #163, #31 ) ;
#51 = CARTESIAN_POINT ( 'NONE',  ( 8.815614522067374281, 1.490226447847834423, 5.786308487158073000 ) ) ;
#52 = CARTESIAN_POINT ( 'NONE',  ( 8.246322432200917874, 1.814999999999999725, 5.669822432200914086 ) ) ;
#53 = LINE ( 'NONE', #562, #325 ) ;
#54 = CARTESIAN_POINT ( 'NONE',  ( -8.322913009578178034, 1.393181024048791627, -6.295411602484590752 ) ) ;
#55 = ADVANCED_FACE ( 'NONE', ( #15 ), #217, .T. ) ;
#56 = CARTESIAN_POINT ( 'NONE',  ( 8.598615950943893083, 1.428239625625674414, 6.173574652285418907 ) ) ;
#57 = DIRECTION ( 'NONE',  ( 0.000000000000000000, 0.000000000000000000, 1.000000000000000000 ) ) ;
#58 = ORIENTED_EDGE ( 'NONE', *, *, #135, .F. ) ;
#59 = SPHERICAL_SURFACE ( 'NONE', #449, 0.6799999999999999378 ) ;
#60 = LINE ( 'NONE', #749, #651 ) ;
#61 = ORIENTED_EDGE ( 'NONE', *, *, #381, .F. ) ;
#62 = CARTESIAN_POINT ( 'NONE',  ( -8.246322432200917874, 1.134999999999999787, -5.669822432200914086 ) ) ;
#63 = AXIS2_PLACEMENT_3D ( 'NONE', #764, #648, #688 ) ;
#64 = AXIS2_PLACEMENT_3D ( 'NONE', #121, #520, #335 ) ;
#65 = AXIS2_PLACEMENT_3D ( 'NONE', #728, #477, #417 ) ;
#66 = DIRECTION ( 'NONE',  ( 1.192523356903875846E-16, -0.9993908270190957621, -0.03489949670250104552 ) ) ;
#67 = AXIS2_PLACEMENT_3D ( 'NONE', #494, #502, #507 ) ;
#68 = ORIENTED_EDGE ( 'NONE', *, *, #527, .F. ) ;
#69 = DIRECTION ( 'NONE',  ( -1.486745889051421139E-16, 0.000000000000000000, 1.000000000000000000 ) ) ;
#70 = CARTESIAN_POINT ( 'NONE',  ( 8.627292647174520823, 1.433358649724862266, 6.149092483972719236 ) ) ;
#71 = DIRECTION ( 'NONE',  ( -0.03489949670250104552, -0.9993908270190957621, 3.339241367279674027E-18 ) ) ;
#72 = VERTEX_POINT ( 'NONE', #145 ) ;
#73 = DIRECTION ( 'NONE',  ( 1.000000000000000000, -0.000000000000000000, 1.106978035010746383E-16 ) ) ;
#74 = EDGE_CURVE ( 'NONE', #363, #76, #687, .T. ) ;
#75 = PLANE ( 'NONE',  #184 ) ;
#76 = VERTEX_POINT ( 'NONE', #376 ) ;
#77 = LINE ( 'NONE', #458, #153 ) ;
#78 = EDGE_CURVE ( 'NONE', #211, #663, #470, .T. ) ;
#79 = VECTOR ( 'NONE', #73, 39.37007874015748143 ) ;
#80 = ORIENTED_EDGE ( 'NONE', *, *, #589, .T. ) ;
#81 = DIRECTION ( 'NONE',  ( 0.000000000000000000, 0.000000000000000000, -1.000000000000000000 ) ) ;
#82 = EDGE_CURVE ( 'NONE', #669, #553, #53, .T. ) ;
#83 = ORIENTED_EDGE ( 'NONE', *, *, #270, .F. ) ;
#84 = CARTESIAN_POINT ( 'NONE',  ( 8.801126685108087599, 1.480335295439597409, -5.861719696808344260 ) ) ;
#85 = ORIENTED_EDGE ( 'NONE', *, *, #707, .T. ) ;
#86 = CARTESIAN_POINT ( 'NONE',  ( -9.871371995697250767, 2.814999999999997282, 7.349871995697251137 ) ) ;
#87 = EDGE_CURVE ( 'NONE', #368, #501, #628, .T. ) ;
#88 = DIRECTION ( 'NONE',  ( 1.000000000000000000, 1.807840584042526092E-15, 0.000000000000000000 ) ) ;
#89 = VERTEX_POINT ( 'NONE', #312 ) ;
#90 = LINE ( 'NONE', #86, #408 ) ;
#91 = EDGE_CURVE ( 'NONE', #782, #606, #442, .T. ) ;
#92 = CARTESIAN_POINT ( 'NONE',  ( 8.236638031746894129, 1.386911219103535764, -6.301439988709417683 ) ) ;
#93 = ORIENTED_EDGE ( 'NONE', *, *, #409, .F. ) ;
#94 = PLANE ( 'NONE',  #739 ) ;
#95 = CARTESIAN_POINT ( 'NONE',  ( -8.815615966386472380, 1.490196309163068777, 5.786566765577355831 ) ) ;
#96 = CARTESIAN_POINT ( 'NONE',  ( 8.744878549772503007, 1.459799103654816133, 6.001186283662014453 ) ) ;
#97 = DIRECTION ( 'NONE',  ( -0.9993908270190957621, -0.03489949670250104552, 2.868700846986298411E-16 ) ) ;
#98 = CARTESIAN_POINT ( 'NONE',  ( -8.535586784229014512, 1.418166957959646091, 6.217544339012135879 ) ) ;
#99 = CARTESIAN_POINT ( 'NONE',  ( 8.703004588903809235, 1.449206664674114853, 6.064141459651925636 ) ) ;
#100 = CARTESIAN_POINT ( 'NONE',  ( -8.231786233324264401, 0.000000000000000000, -6.349871995697248472 ) ) ;
#101 = AXIS2_PLACEMENT_3D ( 'NONE', #463, #762, #69 ) ;
#102 = CARTESIAN_POINT ( 'NONE',  ( -8.744878549772499454, 1.459799103654819463, -6.001186283662017118 ) ) ;
#103 = AXIS2_PLACEMENT_3D ( 'NONE', #743, #222, #228 ) ;
#104 = ORIENTED_EDGE ( 'NONE', *, *, #508, .T. ) ;
#105 = PRODUCT_DEFINITION ( 'UNKNOWN', '', #284, #147 ) ;
#106 = CARTESIAN_POINT ( 'NONE',  ( -9.176500000000000767, 1.814999999999999725, 6.600000000000001421 ) ) ;
#107 = PRODUCT_CONTEXT ( 'NONE', #183, 'mechanical' ) ;
#108 = CARTESIAN_POINT ( 'NONE',  ( -8.231786233324262625, 0.000000000000000000, 5.710286233324263883 ) ) ;
#109 = ORIENTED_EDGE ( 'NONE', *, *, #535, .F. ) ;
#110 = CARTESIAN_POINT ( 'NONE',  ( -8.241483403047977774, 1.387075521583422733, -6.301374532101734260 ) ) ;
#111 = APPLICATION_PROTOCOL_DEFINITION ( 'draft international standard', 'automotive_design', 1998, #473 ) ;
#112 = CARTESIAN_POINT ( 'NONE',  ( 8.231786233324264401, 1.386911219103535986, 6.301439988709415019 ) ) ;
#113 = EDGE_CURVE ( 'NONE', #207, #691, #431, .T. ) ;
#114 = EDGE_LOOP ( 'NONE', ( #152, #635, #339, #40, #773 ) ) ;
#115 = UNCERTAINTY_MEASURE_WITH_UNIT (LENGTH_MEASURE( 1.000000000000000082E-05 ), #809, 'distance_accuracy_value', 'NONE');
#116 = EDGE_CURVE ( 'NONE', #455, #553, #558, .T. ) ;
#117 = AXIS2_PLACEMENT_3D ( 'NONE', #232, #486, #795 ) ;
#118 = DIRECTION ( 'NONE',  ( -0.9993908270190957621, 0.03489949670250104552, 9.562336156620995115E-17 ) ) ;
#119 = DIRECTION ( 'NONE',  ( 0.000000000000000000, -1.000000000000000000, 0.000000000000000000 ) ) ;
#120 = DIRECTION ( 'NONE',  ( 0.000000000000000000, -1.000000000000000000, 0.000000000000000000 ) ) ;
#121 = CARTESIAN_POINT ( 'NONE',  ( -9.871371995697248991, 28.42919130750150813, -7.349871995697251137 ) ) ;
#122 = FILL_AREA_STYLE ('',( #445 ) ) ;
#123 = EDGE_LOOP ( 'NONE', ( #37, #573, #68, #587 ) ) ;
#124 = LINE ( 'NONE', #456, #240 ) ;
#125 = CARTESIAN_POINT ( 'NONE',  ( 8.246322432200916097, 1.387401803126810718, 6.301244105711045762 ) ) ;
#126 = EDGE_CURVE ( 'NONE', #487, #207, #737, .T. ) ;
#127 = SURFACE_STYLE_FILL_AREA ( #257 ) ;
#128 = ORIENTED_EDGE ( 'NONE', *, *, #245, .T. ) ;
#129 = DIRECTION ( 'NONE',  ( -1.000000000000000000, -0.000000000000000000, 1.190801719027630700E-16 ) ) ;
#130 = AXIS2_PLACEMENT_3D ( 'NONE', #692, #528, #384 ) ;
#131 = CARTESIAN_POINT ( 'NONE',  ( 8.322913009578179810, 1.393181024048790073, 6.295411602484588087 ) ) ;
#132 = VECTOR ( 'NONE', #534, 39.37007874015748143 ) ;
#133 = FACE_OUTER_BOUND ( 'NONE', #789, .T. ) ;
#134 = ORIENTED_EDGE ( 'NONE', *, *, #557, .F. ) ;
#135 = EDGE_CURVE ( 'NONE', #744, #465, #44, .T. ) ;
#136 = LINE ( 'NONE', #453, #48 ) ;
#137 = CARTESIAN_POINT ( 'NONE',  ( 8.871371995697248991, 0.000000000000000000, -5.710286233324263883 ) ) ;
#138 = ORIENTED_EDGE ( 'NONE', *, *, #255, .T. ) ;
#139 = DIRECTION ( 'NONE',  ( 0.000000000000000000, -1.000000000000000000, 0.000000000000000000 ) ) ;
#140 = CARTESIAN_POINT ( 'NONE',  ( 9.871371995697248991, 0.000000000000000000, 7.349871995697252913 ) ) ;
#141 = ORIENTED_EDGE ( 'NONE', *, *, #399, .F. ) ;
#142 = AXIS2_PLACEMENT_3D ( 'NONE', #203, #347, #81 ) ;
#143 = EDGE_LOOP ( 'NONE', ( #626, #328, #266, #188 ) ) ;
#144 = AXIS2_PLACEMENT_3D ( 'NONE', #816, #579, #402 ) ;
#145 = CARTESIAN_POINT ( 'NONE',  ( 9.871371995697248991, 2.814999999999997282, 7.349871995697252913 ) ) ;
#146 = ORIENTED_EDGE ( 'NONE', *, *, #701, .F. ) ;
#147 = PRODUCT_DEFINITION_CONTEXT ( 'detailed design', #473, 'design' ) ;
#148 = CARTESIAN_POINT ( 'NONE',  ( 8.450442875684279542, 1.406763799400808423, -6.259098479804083404 ) ) ;
#149 = CARTESIAN_POINT ( 'NONE',  ( -8.246322432200916097, 1.134999999999999787, 5.669822432200915863 ) ) ;
#150 = CARTESIAN_POINT ( 'NONE',  ( -8.819011681587141993, 1.499403216830051289, 5.710286233324263883 ) ) ;
#151 = CARTESIAN_POINT ( 'NONE',  ( -8.815614522067372505, 1.490226447847836644, -5.786308487158071223 ) ) ;
#152 = ORIENTED_EDGE ( 'NONE', *, *, #385, .F. ) ;
#153 = VECTOR ( 'NONE', #703, 39.37007874015748143 ) ;
#154 = CARTESIAN_POINT ( 'NONE',  ( 8.818928958723663669, 1.501772089700879276, -5.669822432200916751 ) ) ;
#155 =( GEOMETRIC_REPRESENTATION_CONTEXT ( 3 ) GLOBAL_UNCERTAINTY_ASSIGNED_CONTEXT ( ( #17 ) ) GLOBAL_UNIT_ASSIGNED_CONTEXT ( ( #178, #633, #643 ) ) REPRESENTATION_CONTEXT ( 'NONE', 'WORKASPACE' ) );
#156 =( GEOMETRIC_REPRESENTATION_CONTEXT ( 3 ) GLOBAL_UNCERTAINTY_ASSIGNED_CONTEXT ( ( #680 ) ) GLOBAL_UNIT_ASSIGNED_CONTEXT ( ( #370, #319, #176 ) ) REPRESENTATION_CONTEXT ( 'NONE', 'WORKASPACE' ) );
#157 = LINE ( 'NONE', #39, #592 ) ;
#158 = CARTESIAN_POINT ( 'NONE',  ( 8.789831310012717225, 1.475401844343161351, 5.896740300415511449 ) ) ;
#159 = DIRECTION ( 'NONE',  ( 0.9993908270190957621, 0.03489949670250104552, -2.868700846986298411E-16 ) ) ;
#160 = CARTESIAN_POINT ( 'NONE',  ( -8.246322432200916097, 1.814999999999999725, 5.669822432200915863 ) ) ;
#161 = ORIENTED_EDGE ( 'NONE', *, *, #78, .F. ) ;
#162 = DIRECTION ( 'NONE',  ( -2.483498176058421735E-16, 0.000000000000000000, -1.000000000000000000 ) ) ;
#163 = DIRECTION ( 'NONE',  ( 1.000000000000000000, 1.715124499442882891E-15, -0.000000000000000000 ) ) ;
#164 = ADVANCED_FACE ( 'NONE', ( #591 ), #193, .T. ) ;
#165 = LINE ( 'NONE', #559, #702 ) ;
#166 = FACE_OUTER_BOUND ( 'NONE', #3, .T. ) ;
#167 = AXIS2_PLACEMENT_3D ( 'NONE', #561, #797, #238 ) ;
#168 = CIRCLE ( 'NONE', #613, 0.6395857623729869212 ) ;
#169 = MECHANICAL_DESIGN_GEOMETRIC_PRESENTATION_REPRESENTATION (  '', ( #244 ), #525 ) ;
#170 = LINE ( 'NONE', #443, #714 ) ;
#171 = CARTESIAN_POINT ( 'NONE',  ( 8.819168954212592837, 1.494899518093306456, 5.748619111660605796 ) ) ;
#172 = ADVANCED_FACE ( 'NONE', ( #392 ), #814, .F. ) ;
#173 = PLANE ( 'NONE',  #64 ) ;
#174 = DIRECTION ( 'NONE',  ( 0.000000000000000000, 1.000000000000000000, 0.000000000000000000 ) ) ;
#175 = ORIENTED_EDGE ( 'NONE', *, *, #777, .T. ) ;
#176 =( NAMED_UNIT ( * ) SI_UNIT ( $, .STERADIAN. ) SOLID_ANGLE_UNIT ( ) );
#177 = ADVANCED_FACE ( 'NONE', ( #513 ), #747, .F. ) ;
#178 =( CONVERSION_BASED_UNIT ( 'INCH', #698 ) LENGTH_UNIT ( ) NAMED_UNIT ( #326 ) );
#179 =( LENGTH_UNIT ( ) NAMED_UNIT ( * ) SI_UNIT ( $, .METRE. ) );
#180 = CARTESIAN_POINT ( 'NONE',  ( -8.819011681587143769, 1.499403216830053509, -5.710286233324261218 ) ) ;
#181 = VECTOR ( 'NONE', #800, 39.37007874015748143 ) ;
#182 = CIRCLE ( 'NONE', #523, 0.3465649824694727044 ) ;
#183 = APPLICATION_CONTEXT ( 'automotive_design' ) ;
#184 = AXIS2_PLACEMENT_3D ( 'NONE', #808, #219, #662 ) ;
#185 = CARTESIAN_POINT ( 'NONE',  ( 8.551932954194239045, 1.420771891271802589, 6.206202204528572075 ) ) ;
#186 = SURFACE_SIDE_STYLE ('',( #127 ) ) ;
#187 = DIRECTION ( 'NONE',  ( 1.000000000000000000, 0.000000000000000000, 0.000000000000000000 ) ) ;
#188 = ORIENTED_EDGE ( 'NONE', *, *, #412, .T. ) ;
#189 = CARTESIAN_POINT ( 'NONE',  ( 9.871371995697248991, 28.42919130750150813, 7.349871995697252913 ) ) ;
#190 = EDGE_CURVE ( 'NONE', #16, #72, #136, .T. ) ;
#191 = CARTESIAN_POINT ( 'NONE',  ( 8.485568390738972511, 1.411255617975873955, 6.243587474460309039 ) ) ;
#192 = ORIENTED_EDGE ( 'NONE', *, *, #399, .T. ) ;
#193 = PLANE ( 'NONE',  #101 ) ;
#194 = EDGE_CURVE ( 'NONE', #736, #761, #77, .T. ) ;
#195 = ORIENTED_EDGE ( 'NONE', *, *, #475, .F. ) ;
#196 = DIRECTION ( 'NONE',  ( 0.000000000000000000, 1.000000000000000000, 0.000000000000000000 ) ) ;
#197 = AXIS2_PLACEMENT_3D ( 'NONE', #289, #712, #276 ) ;
#198 = DIRECTION ( 'NONE',  ( -2.483498176058421735E-16, 0.000000000000000000, -1.000000000000000000 ) ) ;
#199 = PRESENTATION_LAYER_ASSIGNMENT (  '', '', ( #244 ) ) ;
#200 = ORIENTED_EDGE ( 'NONE', *, *, #357, .F. ) ;
#201 = ADVANCED_FACE ( 'NONE', ( #813 ), #584, .T. ) ;
#202 = FACE_OUTER_BOUND ( 'NONE', #719, .T. ) ;
#203 = CARTESIAN_POINT ( 'NONE',  ( -9.176500000000000767, 1.134999999999999787, 5.669822432200915863 ) ) ;
#204 = ORIENTED_EDGE ( 'NONE', *, *, #729, .T. ) ;
#205 = LINE ( 'NONE', #253, #338 ) ;
#206 = EDGE_CURVE ( 'NONE', #262, #638, #209, .T. ) ;
#207 = VERTEX_POINT ( 'NONE', #577 ) ;
#208 = CARTESIAN_POINT ( 'NONE',  ( 8.761318200506108766, 1.464974714539825973, -5.967585330944888078 ) ) ;
#209 = CIRCLE ( 'NONE', #348, 0.3465649824694743697 ) ;
#210 = DIRECTION ( 'NONE',  ( -1.000000000000000000, 0.000000000000000000, 0.000000000000000000 ) ) ;
#211 = VERTEX_POINT ( 'NONE', #706 ) ;
#212 = CIRCLE ( 'NONE', #65, 0.6800000000000003819 ) ;
#213 = LINE ( 'NONE', #552, #500 ) ;
#214 = CYLINDRICAL_SURFACE ( 'NONE', #142, 0.6800000000000003819 ) ;
#215 = ORIENTED_EDGE ( 'NONE', *, *, #270, .T. ) ;
#216 = CARTESIAN_POINT ( 'NONE',  ( -8.246322432200916097, 1.387401803126812050, 6.301244105711046650 ) ) ;
#217 = PLANE ( 'NONE',  #35 ) ;
#218 = EDGE_CURVE ( 'NONE', #705, #736, #205, .T. ) ;
#219 = DIRECTION ( 'NONE',  ( 0.9993908270190957621, -0.03489949670250104552, -9.562336156620996347E-17 ) ) ;
#220 = CARTESIAN_POINT ( 'NONE',  ( 8.246322432200917874, 1.814999999999999725, 6.600000000000001421 ) ) ;
#221 = ADVANCED_BREP_SHAPE_REPRESENTATION ( '1520E - 931 TOP PID 2-21-2025', ( #435, #271 ), #156 ) ;
#222 = DIRECTION ( 'NONE',  ( 1.000000000000000000, 0.000000000000000000, -1.190801719027630700E-16 ) ) ;
#223 = ORIENTED_EDGE ( 'NONE', *, *, #27, .T. ) ;
#224 = DIRECTION ( 'NONE',  ( 1.326654384986889350E-16, -0.03489949670250104552, 0.9993908270190957621 ) ) ;
#225 = ADVANCED_FACE ( 'NONE', ( #8 ), #738, .F. ) ;
#226 = VECTOR ( 'NONE', #355, 39.37007874015748854 ) ;
#227 = PRODUCT_DEFINITION_SHAPE ( 'NONE', 'NONE',  #105 ) ;
#228 = DIRECTION ( 'NONE',  ( 0.000000000000000000, 0.000000000000000000, -1.000000000000000000 ) ) ;
#229 = VERTEX_POINT ( 'NONE', #398 ) ;
#230 = LINE ( 'NONE', #489, #132 ) ;
#231 = CARTESIAN_POINT ( 'NONE',  ( -8.246322432200916097, 1.387401803126813160, -6.301244105711046650 ) ) ;
#232 = CARTESIAN_POINT ( 'NONE',  ( 8.831023902186560193, 1.155418225254854603, -5.669822432200914086 ) ) ;
#233 = ORIENTED_EDGE ( 'NONE', *, *, #218, .F. ) ;
#234 = CARTESIAN_POINT ( 'NONE',  ( -8.246322432200916097, 1.387401803126813160, -6.301244105711046650 ) ) ;
#235 = EDGE_CURVE ( 'NONE', #782, #487, #752, .T. ) ;
#236 = CARTESIAN_POINT ( 'NONE',  ( -8.396265828745779203, 1.400515785257429702, 6.277922523789498221 ) ) ;
#237 = ORIENTED_EDGE ( 'NONE', *, *, #194, .F. ) ;
#238 = DIRECTION ( 'NONE',  ( 1.000000000000000000, 0.000000000000000000, 1.106978035010746383E-16 ) ) ;
#239 = PLANE ( 'NONE',  #67 ) ;
#240 = VECTOR ( 'NONE', #129, 39.37007874015748143 ) ;
#241 = AXIS2_PLACEMENT_3D ( 'NONE', #106, #488, #681 ) ;
#242 = CARTESIAN_POINT ( 'NONE',  ( -8.551932954194240821, 1.420771891271805920, -6.206202204528572075 ) ) ;
#243 = AXIS2_PLACEMENT_3D ( 'NONE', #725, #174, #309 ) ;
#244 = STYLED_ITEM ( 'NONE', ( #616 ), #221 ) ;
#245 = EDGE_CURVE ( 'NONE', #705, #16, #697, .T. ) ;
#246 = CARTESIAN_POINT ( 'NONE',  ( -8.679579677829650564, 1.443774925881278426, 6.095028651971253097 ) ) ;
#247 = ORIENTED_EDGE ( 'NONE', *, *, #564, .F. ) ;
#248 =( NAMED_UNIT ( * ) PLANE_ANGLE_UNIT ( ) SI_UNIT ( $, .RADIAN. ) );
#249 = ORIENTED_EDGE ( 'NONE', *, *, #113, .F. ) ;
#250 = CARTESIAN_POINT ( 'NONE',  ( 8.246322432200917874, 1.134999999999999787, 6.599999999999996092 ) ) ;
#251 = CARTESIAN_POINT ( 'NONE',  ( 8.246322432200917874, 1.134999999999999787, 5.669822432200914086 ) ) ;
#252 = ORIENTED_EDGE ( 'NONE', *, *, #116, .T. ) ;
#253 = CARTESIAN_POINT ( 'NONE',  ( -9.871371995697248991, 28.42919130750150813, -7.349871995697251137 ) ) ;
#254 = VECTOR ( 'NONE', #495, 39.37007874015748143 ) ;
#255 = EDGE_CURVE ( 'NONE', #606, #275, #281, .T. ) ;
#256 = VECTOR ( 'NONE', #360, 39.37007874015748143 ) ;
#257 = FILL_AREA_STYLE ('',( #454 ) ) ;
#258 = ORIENTED_EDGE ( 'NONE', *, *, #74, .F. ) ;
#259 = DIRECTION ( 'NONE',  ( 1.000000000000000000, 1.715124499442882891E-15, -0.000000000000000000 ) ) ;
#260 = CARTESIAN_POINT ( 'NONE',  ( 8.284823457049494522, 1.389997814312704305, 6.300206387286499954 ) ) ;
#261 = CARTESIAN_POINT ( 'NONE',  ( -8.871371995697250767, 0.000000000000000000, -5.710286233324261218 ) ) ;
#262 = VERTEX_POINT ( 'NONE', #14 ) ;
#263 = CARTESIAN_POINT ( 'NONE',  ( -8.231786233324262625, 1.386911219103536208, 6.301439988709416795 ) ) ;
#264 = B_SPLINE_CURVE_WITH_KNOTS ( 'NONE', 3,
 ( #778, #92, #11, #32 ),
 .UNSPECIFIED., .F., .F.,
 ( 4, 4 ),
 ( 1.998679284903908137E-07, 0.0003696630333666502100 ),
 .UNSPECIFIED. ) ;
#265 = LINE ( 'NONE', #514, #313 ) ;
#266 = ORIENTED_EDGE ( 'NONE', *, *, #206, .T. ) ;
#267 = CARTESIAN_POINT ( 'NONE',  ( -9.871371995697248991, 2.814999999999997282, -7.349871995697251137 ) ) ;
#268 = CARTESIAN_POINT ( 'NONE',  ( 8.626350007177402190, 1.433324734738336659, -6.148730577670498576 ) ) ;
#269 = VECTOR ( 'NONE', #4, 39.37007874015748854 ) ;
#270 = EDGE_CURVE ( 'NONE', #72, #455, #522, .T. ) ;
#271 = AXIS2_PLACEMENT_3D ( 'NONE', #634, #57, #810 ) ;
#272 = ORIENTED_EDGE ( 'NONE', *, *, #491, .F. ) ;
#273 = DIRECTION ( 'NONE',  ( 0.000000000000000000, 0.000000000000000000, -1.000000000000000000 ) ) ;
#274 = FACE_OUTER_BOUND ( 'NONE', #590, .T. ) ;
#275 = VERTEX_POINT ( 'NONE', #404 ) ;
#276 = DIRECTION ( 'NONE',  ( 0.000000000000000000, 0.000000000000000000, 1.000000000000000000 ) ) ;
#277 = CARTESIAN_POINT ( 'NONE',  ( 8.432470298345595694, 1.404600105323619452, -6.266003722512507146 ) ) ;
#278 = ORIENTED_EDGE ( 'NONE', *, *, #646, .F. ) ;
#279 = FACE_OUTER_BOUND ( 'NONE', #779, .T. ) ;
#280 = EDGE_CURVE ( 'NONE', #663, #316, #124, .T. ) ;
#281 = CIRCLE ( 'NONE', #599, 0.6800000000000003819 ) ;
#282 = EDGE_LOOP ( 'NONE', ( #292, #583, #249, #421, #533 ) ) ;
#283 = AXIS2_PLACEMENT_3D ( 'NONE', #659, #430, #485 ) ;
#284 = PRODUCT_DEFINITION_FORMATION_WITH_SPECIFIED_SOURCE ( 'ANY', '', #374, .NOT_KNOWN. ) ;
#285 = CYLINDRICAL_SURFACE ( 'NONE', #394, 0.6800000000000003819 ) ;
#286 = ADVANCED_FACE ( 'NONE', ( #202 ), #59, .F. ) ;
#287 = CARTESIAN_POINT ( 'NONE',  ( -9.871371995697250767, 0.000000000000000000, 7.349871995697251137 ) ) ;
#288 = ORIENTED_EDGE ( 'NONE', *, *, #357, .T. ) ;
#289 = CARTESIAN_POINT ( 'NONE',  ( -9.176500000000000767, 1.134999999999999787, -5.669822432200915863 ) ) ;
#290 = CARTESIAN_POINT ( 'NONE',  ( 8.231786233324264401, 1.386911219103535986, 6.301439988709415019 ) ) ;
#291 = CARTESIAN_POINT ( 'NONE',  ( -8.743811680367674199, 1.459706512944723089, 6.001238825709239499 ) ) ;
#292 = ORIENTED_EDGE ( 'NONE', *, *, #334, .F. ) ;
#293 = LINE ( 'NONE', #544, #349 ) ;
#294 = DIRECTION ( 'NONE',  ( 1.000000000000000000, 0.000000000000000000, 0.000000000000000000 ) ) ;
#295 = ORIENTED_EDGE ( 'NONE', *, *, #724, .T. ) ;
#296 = VECTOR ( 'NONE', #30, 39.37007874015748143 ) ;
#297 = EDGE_CURVE ( 'NONE', #363, #373, #546, .T. ) ;
#298 = AXIS2_PLACEMENT_3D ( 'NONE', #100, #224, #22 ) ;
#299 = DIRECTION ( 'NONE',  ( 0.03489949670250104552, -0.9993908270190957621, 0.000000000000000000 ) ) ;
#300 = CIRCLE ( 'NONE', #103, 0.6800000000000003819 ) ;
#301 = CARTESIAN_POINT ( 'NONE',  ( -8.666694169735880138, 1.441210807140639760, -6.108327320023299478 ) ) ;
#302 = EDGE_LOOP ( 'NONE', ( #233, #128, #85, #237 ) ) ;
#303 = LENGTH_MEASURE_WITH_UNIT ( LENGTH_MEASURE( 0.02539999999999999897 ), #179 );
#304 = CARTESIAN_POINT ( 'NONE',  ( 8.241483403047979550, 1.387075521583415627, 6.301374532101736037 ) ) ;
#305 = CARTESIAN_POINT ( 'NONE',  ( -8.502505735251411068, 1.413552189169574591, -6.235106929514352636 ) ) ;
#306 = DIRECTION ( 'NONE',  ( 1.000000000000000000, 0.000000000000000000, -0.000000000000000000 ) ) ;
#307 = ORIENTED_EDGE ( 'NONE', *, *, #235, .F. ) ;
#308 = PLANE ( 'NONE',  #167 ) ;
#309 = DIRECTION ( 'NONE',  ( 0.000000000000000000, 0.000000000000000000, 1.000000000000000000 ) ) ;
#310 = ORIENTED_EDGE ( 'NONE', *, *, #589, .F. ) ;
#311 = CARTESIAN_POINT ( 'NONE',  ( -8.231786233324264401, 1.386911219103542869, -6.301439988709415019 ) ) ;
#312 = CARTESIAN_POINT ( 'NONE',  ( 8.231786233324264401, 1.386911219103535098, -6.301439988709417683 ) ) ;
#313 = VECTOR ( 'NONE', #582, 39.37007874015748854 ) ;
#314 = CARTESIAN_POINT ( 'NONE',  ( 8.804969554730252668, 1.482935563409456092, 5.841916344537419370 ) ) ;
#315 = CARTESIAN_POINT ( 'NONE',  ( 8.871371995697252544, 1.905640828429829856E-17, 5.710286233324261218 ) ) ;
#316 = VERTEX_POINT ( 'NONE', #263 ) ;
#317 = CARTESIAN_POINT ( 'NONE',  ( -8.819168954212589284, 1.494899518093309565, -5.748619111660609349 ) ) ;
#318 = ADVANCED_FACE ( 'NONE', ( #774 ), #604, .F. ) ;
#319 =( NAMED_UNIT ( * ) PLANE_ANGLE_UNIT ( ) SI_UNIT ( $, .RADIAN. ) );
#320 = ORIENTED_EDGE ( 'NONE', *, *, #478, .T. ) ;
#321 = DIRECTION ( 'NONE',  ( -0.9993908270190957621, 0.03489949670250104552, 9.562336156620995115E-17 ) ) ;
#322 = CYLINDRICAL_SURFACE ( 'NONE', #672, 0.6800000000000003819 ) ;
#323 = ORIENTED_EDGE ( 'NONE', *, *, #446, .T. ) ;
#324 = DIRECTION ( 'NONE',  ( 0.03489949670250069164, 0.9993908270190956511, 1.891834292684698916E-14 ) ) ;
#325 = VECTOR ( 'NONE', #119, 39.37007874015748143 ) ;
#326 = DIMENSIONAL_EXPONENTS ( 1.000000000000000000, 0.000000000000000000, 0.000000000000000000, 0.000000000000000000, 0.000000000000000000, 0.000000000000000000, 0.000000000000000000 ) ;
#327 = LINE ( 'NONE', #2, #23 ) ;
#328 = ORIENTED_EDGE ( 'NONE', *, *, #656, .T. ) ;
#329 = CARTESIAN_POINT ( 'NONE',  ( -8.871371995697250767, 0.000000000000000000, -5.710286233324261218 ) ) ;
#330 = CARTESIAN_POINT ( 'NONE',  ( 8.397748105069075208, 1.400532946005470292, 6.278466735452136405 ) ) ;
#331 = CARTESIAN_POINT ( 'NONE',  ( 8.231786233324264401, 0.000000000000000000, 5.710286233324261218 ) ) ;
#332 = ORIENTED_EDGE ( 'NONE', *, *, #729, .F. ) ;
#333 = DIRECTION ( 'NONE',  ( 1.000000000000000000, -0.000000000000000000, -0.000000000000000000 ) ) ;
#334 = EDGE_CURVE ( 'NONE', #316, #721, #468, .T. ) ;
#335 = DIRECTION ( 'NONE',  ( -1.000000000000000000, 0.000000000000000000, -1.106978035010746383E-16 ) ) ;
#336 = ORIENTED_EDGE ( 'NONE', *, *, #570, .F. ) ;
#337 = DIRECTION ( 'NONE',  ( 0.000000000000000000, 0.000000000000000000, 1.000000000000000000 ) ) ;
#338 = VECTOR ( 'NONE', #120, 39.37007874015748143 ) ;
#339 = ORIENTED_EDGE ( 'NONE', *, *, #235, .T. ) ;
#340 = CARTESIAN_POINT ( 'NONE',  ( 8.377972865325496343, 1.398586144653510166, -6.282972177708250783 ) ) ;
#341 = ORIENTED_EDGE ( 'NONE', *, *, #280, .F. ) ;
#342 = ADVANCED_FACE ( 'NONE', ( #466 ), #415, .F. ) ;
#343 = DIRECTION ( 'NONE',  ( -2.973491778102842279E-16, -0.000000000000000000, 1.000000000000000000 ) ) ;
#344 = VERTEX_POINT ( 'NONE', #769 ) ;
#345 = LINE ( 'NONE', #607, #296 ) ;
#346 = DIRECTION ( 'NONE',  ( -0.000000000000000000, 0.000000000000000000, -1.000000000000000000 ) ) ;
#347 = DIRECTION ( 'NONE',  ( 1.000000000000000000, 0.000000000000000000, -1.190801719027630700E-16 ) ) ;
#348 = AXIS2_PLACEMENT_3D ( 'NONE', #755, #321, #324 ) ;
#349 = VECTOR ( 'NONE', #784, 39.37007874015748854 ) ;
#350 = ORIENTED_EDGE ( 'NONE', *, *, #280, .T. ) ;
#351 = LINE ( 'NONE', #785, #787 ) ;
#352 = CARTESIAN_POINT ( 'NONE',  ( 8.231786233324260849, 0.000000000000000000, -6.349871995697252025 ) ) ;
#353 = EDGE_LOOP ( 'NONE', ( #457, #310, #462, #498 ) ) ;
#354 = CARTESIAN_POINT ( 'NONE',  ( -8.236638031746894129, 1.386911219103536874, 6.301439988709416795 ) ) ;
#355 = DIRECTION ( 'NONE',  ( 0.03489949670250104552, -0.9993908270190957621, -1.001772410183902247E-17 ) ) ;
#356 = B_SPLINE_CURVE_WITH_KNOTS ( 'NONE', 3,
 ( #234, #110, #790, #311 ),
 .UNSPECIFIED., .F., .F.,
 ( 4, 4 ),
 ( 2.003956274404436464E-07, 0.0003696635610657116326 ),
 .UNSPECIFIED. ) ;
#357 = EDGE_CURVE ( 'NONE', #655, #403, #345, .T. ) ;
#358 = DIRECTION ( 'NONE',  ( 0.000000000000000000, 0.000000000000000000, -1.000000000000000000 ) ) ;
#359 = EDGE_LOOP ( 'NONE', ( #109, #323, #247, #332, #258 ) ) ;
#360 = DIRECTION ( 'NONE',  ( 1.000000000000000000, -0.000000000000000000, -0.000000000000000000 ) ) ;
#361 = VECTOR ( 'NONE', #371, 39.37007874015748143 ) ;
#362 = DIRECTION ( 'NONE',  ( 0.000000000000000000, 1.000000000000000000, -0.000000000000000000 ) ) ;
#363 = VERTEX_POINT ( 'NONE', #598 ) ;
#364 = CIRCLE ( 'NONE', #547, 0.6800000000000003819 ) ;
#365 = CARTESIAN_POINT ( 'NONE',  ( -8.231786233324262625, 0.000000000000000000, 6.349871995697251137 ) ) ;
#366 = CARTESIAN_POINT ( 'NONE',  ( 8.246322432200916097, 1.387401803126810718, 6.301244105711045762 ) ) ;
#367 = DIRECTION ( 'NONE',  ( 1.486745889051421139E-16, 0.000000000000000000, -1.000000000000000000 ) ) ;
#368 = VERTEX_POINT ( 'NONE', #722 ) ;
#369 = CARTESIAN_POINT ( 'NONE',  ( -8.231786233324264401, 0.000000000000000000, -6.349871995697248472 ) ) ;
#370 =( CONVERSION_BASED_UNIT ( 'INCH', #622 ) LENGTH_UNIT ( ) NAMED_UNIT ( #414 ) );
#371 = DIRECTION ( 'NONE',  ( 9.568164824108680632E-17, 0.000000000000000000, 1.000000000000000000 ) ) ;
#372 = CARTESIAN_POINT ( 'NONE',  ( -8.450442875684283095, 1.406763799400815085, 6.259098479804078963 ) ) ;
#373 = VERTEX_POINT ( 'NONE', #25 ) ;
#374 = PRODUCT ( '1520E - 931 TOP PID 2-21-2025', '1520E - 931 TOP PID 2-21-2025', '', ( #107 ) ) ;
#375 = SHAPE_DEFINITION_REPRESENTATION ( #227, #221 ) ;
#376 = CARTESIAN_POINT ( 'NONE',  ( 8.819011681587141993, 1.499403216830047514, -5.710286233324263883 ) ) ;
#377 = CARTESIAN_POINT ( 'NONE',  ( -8.703004588903809235, 1.449206664674118183, -6.064141459651925636 ) ) ;
#378 = ORIENTED_EDGE ( 'NONE', *, *, #624, .T. ) ;
#379 = AXIS2_PLACEMENT_3D ( 'NONE', #434, #444, #742 ) ;
#380 = CARTESIAN_POINT ( 'NONE',  ( -8.627292647174519047, 1.433358649724865153, -6.149092483972719236 ) ) ;
#381 = EDGE_CURVE ( 'NONE', #316, #691, #293, .T. ) ;
#382 = DIRECTION ( 'NONE',  ( 0.03489949670250049735, 0.9993908270190956511, 0.000000000000000000 ) ) ;
#383 = ORIENTED_EDGE ( 'NONE', *, *, #535, .T. ) ;
#384 = DIRECTION ( 'NONE',  ( 0.000000000000000000, 0.000000000000000000, 1.000000000000000000 ) ) ;
#385 = EDGE_CURVE ( 'NONE', #606, #229, #356, .T. ) ;
#386 = CARTESIAN_POINT ( 'NONE',  ( 9.871371995697248991, 0.000000000000000000, 7.349871995697252913 ) ) ;
#387 = VERTEX_POINT ( 'NONE', #52 ) ;
#388 = DIRECTION ( 'NONE',  ( 2.973491778102842279E-16, 0.000000000000000000, -1.000000000000000000 ) ) ;
#389 = DIMENSIONAL_EXPONENTS ( 1.000000000000000000, 0.000000000000000000, 0.000000000000000000, 0.000000000000000000, 0.000000000000000000, 0.000000000000000000, 0.000000000000000000 ) ;
#390 = ORIENTED_EDGE ( 'NONE', *, *, #475, .T. ) ;
#391 = ADVANCED_FACE ( 'NONE', ( #676 ), #684, .F. ) ;
#392 = FACE_OUTER_BOUND ( 'NONE', #114, .T. ) ;
#393 = PRESENTATION_LAYER_ASSIGNMENT (  '', '', ( #640 ) ) ;
#394 = AXIS2_PLACEMENT_3D ( 'NONE', #670, #775, #294 ) ;
#395 = CARTESIAN_POINT ( 'NONE',  ( -8.831023902186561969, 1.155418225254854603, -5.669822432200914086 ) ) ;
#396 = SURFACE_STYLE_USAGE ( .BOTH. , #186 ) ;
#397 = ORIENTED_EDGE ( 'NONE', *, *, #190, .T. ) ;
#398 = CARTESIAN_POINT ( 'NONE',  ( -8.231786233324264401, 1.386911219103542869, -6.301439988709415019 ) ) ;
#399 = EDGE_CURVE ( 'NONE', #344, #368, #567, .T. ) ;
#400 = CARTESIAN_POINT ( 'NONE',  ( 8.679579677829650564, 1.443774925881272431, -6.095028651971254874 ) ) ;
#401 = CARTESIAN_POINT ( 'NONE',  ( 8.679235451868468232, 1.443860793281679378, 6.094043180823702777 ) ) ;
#402 = DIRECTION ( 'NONE',  ( 0.000000000000000000, -0.000000000000000000, 1.000000000000000000 ) ) ;
#403 = VERTEX_POINT ( 'NONE', #369 ) ;
#404 = CARTESIAN_POINT ( 'NONE',  ( -8.246322432200917874, 1.814999999999999725, -5.669822432200915863 ) ) ;
#405 = CARTESIAN_POINT ( 'NONE',  ( 8.743811680367674199, 1.459706512944717982, -6.001238825709243940 ) ) ;
#406 = ORIENTED_EDGE ( 'NONE', *, *, #78, .T. ) ;
#407 = CIRCLE ( 'NONE', #509, 0.6800000000000003819 ) ;
#408 = VECTOR ( 'NONE', #423, 39.37007874015748143 ) ;
#409 = EDGE_CURVE ( 'NONE', #465, #344, #182, .T. ) ;
#410 = CARTESIAN_POINT ( 'NONE',  ( -8.241483403047977774, 1.387075521583416293, 6.301374532101736925 ) ) ;
#411 = CARTESIAN_POINT ( 'NONE',  ( 8.396265828745773874, 1.400515785257421486, -6.277922523789498221 ) ) ;
#412 = EDGE_CURVE ( 'NONE', #638, #650, #364, .T. ) ;
#413 = ORIENTED_EDGE ( 'NONE', *, *, #297, .F. ) ;
#414 = DIMENSIONAL_EXPONENTS ( 1.000000000000000000, 0.000000000000000000, 0.000000000000000000, 0.000000000000000000, 0.000000000000000000, 0.000000000000000000, 0.000000000000000000 ) ;
#415 = SPHERICAL_SURFACE ( 'NONE', #565, 0.6799999999999999378 ) ;
#416 = ORIENTED_EDGE ( 'NONE', *, *, #297, .T. ) ;
#417 = DIRECTION ( 'NONE',  ( 1.000000000000000000, 0.000000000000000000, 0.000000000000000000 ) ) ;
#418 = ADVANCED_FACE ( 'NONE', ( #41 ), #308, .T. ) ;
#419 = CARTESIAN_POINT ( 'NONE',  ( -8.804969554730249115, 1.482935563409459201, -5.841916344537417594 ) ) ;
#420 = VECTOR ( 'NONE', #343, 39.37007874015748143 ) ;
#421 = ORIENTED_EDGE ( 'NONE', *, *, #478, .F. ) ;
#422 = CIRCLE ( 'NONE', #117, 0.3465649824694708170 ) ;
#423 = DIRECTION ( 'NONE',  ( -1.000000000000000000, 0.000000000000000000, -1.106978035010746383E-16 ) ) ;
#424 = ADVANCED_FACE ( 'NONE', ( #499 ), #173, .T. ) ;
#425 = CARTESIAN_POINT ( 'NONE',  ( -8.703087724698823635, 1.449051423809221362, 6.065559082681597047 ) ) ;
#426 = CARTESIAN_POINT ( 'NONE',  ( 8.783535726193182569, 1.472811124764245472, 5.914879376879079054 ) ) ;
#427 = CARTESIAN_POINT ( 'NONE',  ( -8.246322432200916097, 1.387401803126812050, 6.301244105711046650 ) ) ;
#428 = CARTESIAN_POINT ( 'NONE',  ( 8.714068314037200835, 1.451865236034980633, 6.048733870082159569 ) ) ;
#429 = DIRECTION ( 'NONE',  ( 1.000000000000000000, 0.000000000000000000, 0.000000000000000000 ) ) ;
#430 = DIRECTION ( 'NONE',  ( 0.000000000000000000, 1.000000000000000000, 0.000000000000000000 ) ) ;
#431 = CIRCLE ( 'NONE', #496, 0.6395857623729869212 ) ;
#432 = ADVANCED_FACE ( 'NONE', ( #695 ), #322, .F. ) ;
#433 = CARTESIAN_POINT ( 'NONE',  ( -8.790367648078374785, 1.475300172171147617, 5.897985400989509408 ) ) ;
#434 = CARTESIAN_POINT ( 'NONE',  ( 8.231786233324264401, 0.000000000000000000, 5.710286233324261218 ) ) ;
#435 = MANIFOLD_SOLID_BREP ( 'Combine2', #661 ) ;
#436 = VECTOR ( 'NONE', #678, 39.37007874015748143 ) ;
#437 = APPLICATION_PROTOCOL_DEFINITION ( 'draft international standard', 'automotive_design', 1998, #183 ) ;
#438 = CARTESIAN_POINT ( 'NONE',  ( -8.433708367996278099, 1.404620560970890386, -6.266513088742169835 ) ) ;
#439 = ORIENTED_EDGE ( 'NONE', *, *, #772, .T. ) ;
#440 = FACE_BOUND ( 'NONE', #699, .T. ) ;
#441 = CARTESIAN_POINT ( 'NONE',  ( 8.236638031746895905, 1.386911219103536208, 6.301439988709415907 ) ) ;
#442 = B_SPLINE_CURVE_WITH_KNOTS ( 'NONE', 3,
 ( #180, #317, #151, #419, #617, #569, #806, #671, #102, #503, #377, #685, #301, #380, #632, #242, #629, #305, #554, #438, #490, #54, #623, #231 ),
 .UNSPECIFIED., .F., .F.,
 ( 4, 2, 2, 2, 2, 2, 2, 2, 2, 2, 2, 4 ),
 ( 1.985061592842685570E-07, 0.002899349914744437599, 0.004348925619037021309, 0.005798501323329604586, 0.008697652731914772006, 0.01014722843620735442, 0.01159680414049994029, 0.01449595554908505481, 0.01594553125337759905, 0.01739510695767014503, 0.02029425836625524046, 0.02319340977484033242 ),
 .UNSPECIFIED. ) ;
#443 = CARTESIAN_POINT ( 'NONE',  ( -9.176500000000000767, 1.814999999999999725, 5.669822432200915863 ) ) ;
#444 = DIRECTION ( 'NONE',  ( -0.000000000000000000, -1.000000000000000000, -0.000000000000000000 ) ) ;
#445 = FILL_AREA_STYLE_COLOUR ( '', #551 ) ;
#446 = EDGE_CURVE ( 'NONE', #89, #655, #60, .T. ) ;
#447 = CARTESIAN_POINT ( 'NONE',  ( 8.502505735251409291, 1.413552189169571704, 6.235106929514354412 ) ) ;
#448 = FACE_OUTER_BOUND ( 'NONE', #620, .T. ) ;
#449 = AXIS2_PLACEMENT_3D ( 'NONE', #62, #196, #581 ) ;
#450 = CIRCLE ( 'NONE', #50, 0.6799999999999998268 ) ;
#451 = CARTESIAN_POINT ( 'NONE',  ( 8.818928958723668998, 1.501772089700879054, 5.669822432200913198 ) ) ;
#452 = ORIENTED_EDGE ( 'NONE', *, *, #564, .T. ) ;
#453 = CARTESIAN_POINT ( 'NONE',  ( 9.871371995697248991, 2.814999999999997282, 7.349871995697252913 ) ) ;
#454 = FILL_AREA_STYLE_COLOUR ( '', #700 ) ;
#455 = VERTEX_POINT ( 'NONE', #386 ) ;
#456 = CARTESIAN_POINT ( 'NONE',  ( -9.176500000000000767, 1.386911219103536208, 6.301439988709417683 ) ) ;
#457 = ORIENTED_EDGE ( 'NONE', *, *, #624, .F. ) ;
#458 = CARTESIAN_POINT ( 'NONE',  ( -9.871371995697248991, 0.000000000000000000, -7.349871995697251137 ) ) ;
#459 = AXIS2_PLACEMENT_3D ( 'NONE', #1, #259, #636 ) ;
#460 = VECTOR ( 'NONE', #367, 39.37007874015748143 ) ;
#461 = FACE_OUTER_BOUND ( 'NONE', #521, .T. ) ;
#462 = ORIENTED_EDGE ( 'NONE', *, *, #777, .F. ) ;
#463 = CARTESIAN_POINT ( 'NONE',  ( -9.871371995697250767, 28.42919130750150813, 7.349871995697251137 ) ) ;
#464 = CARTESIAN_POINT ( 'NONE',  ( 8.284821490855836856, 1.389997681738026403, -6.300206440281336917 ) ) ;
#465 = VERTEX_POINT ( 'NONE', #451 ) ;
#466 = FACE_OUTER_BOUND ( 'NONE', #143, .T. ) ;
#467 = ADVANCED_FACE ( 'NONE', ( #133 ), #637, .T. ) ;
#468 = B_SPLINE_CURVE_WITH_KNOTS ( 'NONE', 3,
 ( #18, #354, #410, #216 ),
 .UNSPECIFIED., .F., .F.,
 ( 4, 4 ),
 ( 1.998679284626535552E-07, 0.0003696630333667612865 ),
 .UNSPECIFIED. ) ;
#469 = ORIENTED_EDGE ( 'NONE', *, *, #609, .F. ) ;
#470 = B_SPLINE_CURVE_WITH_KNOTS ( 'NONE', 3,
 ( #366, #304, #441, #112 ),
 .UNSPECIFIED., .F., .F.,
 ( 4, 4 ),
 ( 2.003956274127063614E-07, 0.0003696635610656832265 ),
 .UNSPECIFIED. ) ;
#471 = ORIENTED_EDGE ( 'NONE', *, *, #334, .T. ) ;
#472 = PLANE ( 'NONE',  #298 ) ;
#473 = APPLICATION_CONTEXT ( 'automotive_design' ) ;
#474 = DIRECTION ( 'NONE',  ( 0.000000000000000000, 0.9993908270190957621, -0.03489949670250104552 ) ) ;
#475 = EDGE_CURVE ( 'NONE', #663, #796, #265, .T. ) ;
#476 = ORIENTED_EDGE ( 'NONE', *, *, #43, .T. ) ;
#477 = DIRECTION ( 'NONE',  ( -0.000000000000000000, -0.000000000000000000, -1.000000000000000000 ) ) ;
#478 = EDGE_CURVE ( 'NONE', #262, #207, #327, .T. ) ;
#479 = DIRECTION ( 'NONE',  ( 1.000000000000000000, 0.000000000000000000, 0.000000000000000000 ) ) ;
#480 = FACE_OUTER_BOUND ( 'NONE', #804, .T. ) ;
#481 = AXIS2_PLACEMENT_3D ( 'NONE', #588, #642, #388 ) ;
#482 = CARTESIAN_POINT ( 'NONE',  ( -8.246322432200917874, 1.814999999999999725, 6.600000000000001421 ) ) ;
#483 = ORIENTED_EDGE ( 'NONE', *, *, #74, .T. ) ;
#484 = DIRECTION ( 'NONE',  ( 0.03489949670250104552, -0.9993908270190957621, 0.000000000000000000 ) ) ;
#485 = DIRECTION ( 'NONE',  ( 1.000000000000000000, 0.000000000000000000, 0.000000000000000000 ) ) ;
#486 = DIRECTION ( 'NONE',  ( 0.9993908270190957621, 0.03489949670250104552, -2.868700846986298411E-16 ) ) ;
#487 = VERTEX_POINT ( 'NONE', #261 ) ;
#488 = DIRECTION ( 'NONE',  ( 0.000000000000000000, 1.000000000000000000, 0.000000000000000000 ) ) ;
#489 = CARTESIAN_POINT ( 'NONE',  ( -9.176500000000000767, 1.814999999999999725, -5.669822432200915863 ) ) ;
#490 = CARTESIAN_POINT ( 'NONE',  ( -8.397748105069073432, 1.400532946005472068, -6.278466735452134628 ) ) ;
#491 = EDGE_CURVE ( 'NONE', #796, #368, #550, .T. ) ;
#492 = CARTESIAN_POINT ( 'NONE',  ( -8.322529908510084340, 1.393151768662391099, 6.295440922444520027 ) ) ;
#493 = ORIENTED_EDGE ( 'NONE', *, *, #508, .F. ) ;
#494 = CARTESIAN_POINT ( 'NONE',  ( 0.000000000000000000, 0.000000000000000000, 0.000000000000000000 ) ) ;
#495 = DIRECTION ( 'NONE',  ( -1.000000000000000000, -0.000000000000000000, -1.106978035010746630E-16 ) ) ;
#496 = AXIS2_PLACEMENT_3D ( 'NONE', #108, #734, #618 ) ;
#497 = CARTESIAN_POINT ( 'NONE',  ( -8.582171007955135877, 1.425604223698016204, 6.185107876388458159 ) ) ;
#498 = ORIENTED_EDGE ( 'NONE', *, *, #746, .F. ) ;
#499 = FACE_OUTER_BOUND ( 'NONE', #302, .T. ) ;
#500 = VECTOR ( 'NONE', #791, 39.37007874015748854 ) ;
#501 = VERTEX_POINT ( 'NONE', #137 ) ;
#502 = DIRECTION ( 'NONE',  ( 0.000000000000000000, -1.000000000000000000, 0.000000000000000000 ) ) ;
#503 = CARTESIAN_POINT ( 'NONE',  ( -8.714068314037200835, 1.451865236034983964, -6.048733870082160458 ) ) ;
#504 = CARTESIAN_POINT ( 'NONE',  ( 8.535668758981284299, 1.418306522769489320, 6.216433708238009892 ) ) ;
#505 = B_SPLINE_CURVE_WITH_KNOTS ( 'NONE', 3,
 ( #674, #171, #51, #314, #726, #158, #426, #666, #96, #428, #99, #401, #815, #70, #56, #185, #504, #447, #191, #694, #330, #131, #260, #125 ),
 .UNSPECIFIED., .F., .F.,
 ( 4, 2, 2, 2, 2, 2, 2, 2, 2, 2, 2, 4 ),
 ( 1.985061593114222628E-07, 0.002899349914744511324, 0.004348925619037103708, 0.005798501323329696526, 0.008697652731914806701, 0.01014722843620736135, 0.01159680414049991774, 0.01449595554908503225, 0.01594553125337759905, 0.01739510695767016585, 0.02029425836625529250, 0.02319340977484041916 ),
 .UNSPECIFIED. ) ;
#506 = DIRECTION ( 'NONE',  ( -3.311330901411228816E-16, 0.000000000000000000, -1.000000000000000000 ) ) ;
#507 = DIRECTION ( 'NONE',  ( 0.000000000000000000, -0.000000000000000000, -1.000000000000000000 ) ) ;
#508 = EDGE_CURVE ( 'NONE', #638, #571, #6, .T. ) ;
#509 = AXIS2_PLACEMENT_3D ( 'NONE', #765, #709, #88 ) ;
#510 =( NAMED_UNIT ( * ) SI_UNIT ( $, .STERADIAN. ) SOLID_ANGLE_UNIT ( ) );
#511 = ORIENTED_EDGE ( 'NONE', *, *, #527, .T. ) ;
#512 = CARTESIAN_POINT ( 'NONE',  ( 8.871371995697248991, 0.000000000000000000, -5.710286233324263883 ) ) ;
#513 = FACE_OUTER_BOUND ( 'NONE', #282, .T. ) ;
#514 = CARTESIAN_POINT ( 'NONE',  ( 8.231786233324264401, 1.516480271171051896E-32, 6.349871995697248472 ) ) ;
#515 = ORIENTED_EDGE ( 'NONE', *, *, #218, .T. ) ;
#516 = DIRECTION ( 'NONE',  ( -0.000000000000000000, -1.000000000000000000, -0.000000000000000000 ) ) ;
#517 = ADVANCED_FACE ( 'NONE', ( #461 ), #75, .T. ) ;
#518 = ORIENTED_EDGE ( 'NONE', *, *, #609, .T. ) ;
#519 = CARTESIAN_POINT ( 'NONE',  ( -8.231786233324264401, 0.000000000000000000, -5.710286233324261218 ) ) ;
#520 = DIRECTION ( 'NONE',  ( 1.106978035010746383E-16, 0.000000000000000000, -1.000000000000000000 ) ) ;
#521 = EDGE_LOOP ( 'NONE', ( #543, #320, #526, #307, #716, #493 ) ) ;
#522 = LINE ( 'NONE', #189, #786 ) ;
#523 = AXIS2_PLACEMENT_3D ( 'NONE', #727, #159, #732 ) ;
#524 = CARTESIAN_POINT ( 'NONE',  ( 8.734144703662074960, 1.457028440593699070, -6.017809064638862893 ) ) ;
#525 =( GEOMETRIC_REPRESENTATION_CONTEXT ( 3 ) GLOBAL_UNCERTAINTY_ASSIGNED_CONTEXT ( ( #115 ) ) GLOBAL_UNIT_ASSIGNED_CONTEXT ( ( #809, #248, #510 ) ) REPRESENTATION_CONTEXT ( 'NONE', 'WORKASPACE' ) );
#526 = ORIENTED_EDGE ( 'NONE', *, *, #126, .F. ) ;
#527 = EDGE_CURVE ( 'NONE', #387, #465, #748, .T. ) ;
#528 = DIRECTION ( 'NONE',  ( -0.000000000000000000, -1.000000000000000000, -0.000000000000000000 ) ) ;
#529 = CARTESIAN_POINT ( 'NONE',  ( 8.582171007955135877, 1.425604223698009543, -6.185107876388457271 ) ) ;
#530 = CARTESIAN_POINT ( 'NONE',  ( 8.246322432200917874, 1.134999999999999787, 5.669822432200914086 ) ) ;
#531 = ORIENTED_EDGE ( 'NONE', *, *, #701, .T. ) ;
#532 = CARTESIAN_POINT ( 'NONE',  ( 8.502668579742959309, 1.413439129184565823, -6.236061089963681248 ) ) ;
#533 = ORIENTED_EDGE ( 'NONE', *, *, #656, .F. ) ;
#534 = DIRECTION ( 'NONE',  ( -1.000000000000000000, -0.000000000000000000, 0.000000000000000000 ) ) ;
#535 = EDGE_CURVE ( 'NONE', #89, #363, #264, .T. ) ;
#536 = AXIS2_PLACEMENT_3D ( 'NONE', #331, #586, #704 ) ;
#537 = ORIENTED_EDGE ( 'NONE', *, *, #82, .F. ) ;
#538 = DIRECTION ( 'NONE',  ( 0.000000000000000000, -1.000000000000000000, 0.000000000000000000 ) ) ;
#539 = CARTESIAN_POINT ( 'NONE',  ( 8.597255129892531045, 1.428146097187490193, -6.173492189374162109 ) ) ;
#540 = ORIENTED_EDGE ( 'NONE', *, *, #126, .T. ) ;
#541 = CARTESIAN_POINT ( 'NONE',  ( -9.871371995697250767, 2.814999999999997282, 7.349871995697251137 ) ) ;
#542 = CARTESIAN_POINT ( 'NONE',  ( -8.761318200506112319, 1.464974714539831746, 5.967585330944890742 ) ) ;
#543 = ORIENTED_EDGE ( 'NONE', *, *, #206, .F. ) ;
#544 = CARTESIAN_POINT ( 'NONE',  ( -8.231786233324262625, 0.000000000000000000, 6.349871995697251137 ) ) ;
#545 = CARTESIAN_POINT ( 'NONE',  ( 8.871371995697248991, 0.000000000000000000, -5.710286233324263883 ) ) ;
#546 = CIRCLE ( 'NONE', #459, 0.6799999999999998268 ) ;
#547 = AXIS2_PLACEMENT_3D ( 'NONE', #621, #162, #429 ) ;
#548 = CARTESIAN_POINT ( 'NONE',  ( -8.819168932997358823, 1.494900125618026099, 5.748613940761653218 ) ) ;
#549 = ORIENTED_EDGE ( 'NONE', *, *, #38, .F. ) ;
#550 = CIRCLE ( 'NONE', #536, 0.6395857623729880315 ) ;
#551 = COLOUR_RGB ( '',0.7529411764705882248, 0.7529411764705882248, 0.7529411764705882248 ) ;
#552 = CARTESIAN_POINT ( 'NONE',  ( -8.231786233324264401, 0.000000000000000000, -6.349871995697248472 ) ) ;
#553 = VERTEX_POINT ( 'NONE', #287 ) ;
#554 = CARTESIAN_POINT ( 'NONE',  ( -8.485568390738972511, 1.411255617975875953, -6.243587474460306375 ) ) ;
#555 = CARTESIAN_POINT ( 'NONE',  ( -8.284821490855840409, 1.389997681738034396, 6.300206440281336917 ) ) ;
#556 = EDGE_LOOP ( 'NONE', ( #295, #383, #416, #175, #683, #639 ) ) ;
#557 = EDGE_CURVE ( 'NONE', #650, #721, #300, .T. ) ;
#558 = LINE ( 'NONE', #794, #254 ) ;
#559 = CARTESIAN_POINT ( 'NONE',  ( -8.231786233324262625, 0.000000000000000000, 6.349871995697251137 ) ) ;
#560 = ORIENTED_EDGE ( 'NONE', *, *, #87, .T. ) ;
#561 = CARTESIAN_POINT ( 'NONE',  ( -9.871371995697250767, 28.42919130750150813, 7.349871995697251137 ) ) ;
#562 = CARTESIAN_POINT ( 'NONE',  ( -9.871371995697250767, 28.42919130750150813, 7.349871995697251137 ) ) ;
#563 = CARTESIAN_POINT ( 'NONE',  ( 8.818928958723668998, 1.501772089700879276, 6.599999999999996092 ) ) ;
#564 = EDGE_CURVE ( 'NONE', #501, #655, #750, .T. ) ;
#565 = AXIS2_PLACEMENT_3D ( 'NONE', #149, #657, #479 ) ;
#566 = ORIENTED_EDGE ( 'NONE', *, *, #600, .F. ) ;
#567 = LINE ( 'NONE', #315, #713 ) ;
#568 = SURFACE_SIDE_STYLE ('',( #42 ) ) ;
#569 = CARTESIAN_POINT ( 'NONE',  ( -8.789831310012713672, 1.475401844343164903, -5.896740300415510561 ) ) ;
#570 = EDGE_CURVE ( 'NONE', #669, #705, #803, .T. ) ;
#571 = VERTEX_POINT ( 'NONE', #625 ) ;
#572 = CARTESIAN_POINT ( 'NONE',  ( 8.231786233324264401, 0.000000000000000000, 6.349871995697248472 ) ) ;
#573 = ORIENTED_EDGE ( 'NONE', *, *, #135, .T. ) ;
#574 =( LENGTH_UNIT ( ) NAMED_UNIT ( * ) SI_UNIT ( $, .METRE. ) );
#575 = EDGE_LOOP ( 'NONE', ( #413, #483, #817, #549 ) ) ;
#576 = CARTESIAN_POINT ( 'NONE',  ( 8.815615966386474156, 1.490196309163065891, -5.786566765577356719 ) ) ;
#577 = CARTESIAN_POINT ( 'NONE',  ( -8.871371995697248991, 0.000000000000000000, 5.710286233324263883 ) ) ;
#578 = AXIS2_PLACEMENT_3D ( 'NONE', #519, #516, #273 ) ;
#579 = DIRECTION ( 'NONE',  ( 0.000000000000000000, 1.000000000000000000, 0.000000000000000000 ) ) ;
#580 = ORIENTED_EDGE ( 'NONE', *, *, #194, .T. ) ;
#581 = DIRECTION ( 'NONE',  ( 1.000000000000000000, 0.000000000000000000, 0.000000000000000000 ) ) ;
#582 = DIRECTION ( 'NONE',  ( 4.632779197334360440E-18, -0.9993908270190957621, 0.03489949670250103858 ) ) ;
#583 = ORIENTED_EDGE ( 'NONE', *, *, #381, .T. ) ;
#584 = PLANE ( 'NONE',  #481 ) ;
#585 = PRODUCT_RELATED_PRODUCT_CATEGORY ( 'part', '', ( #374 ) ) ;
#586 = DIRECTION ( 'NONE',  ( 0.000000000000000000, 1.000000000000000000, -0.000000000000000000 ) ) ;
#587 = ORIENTED_EDGE ( 'NONE', *, *, #746, .T. ) ;
#588 = CARTESIAN_POINT ( 'NONE',  ( 9.871371995697248991, 28.42919130750150813, 7.349871995697252913 ) ) ;
#589 = EDGE_CURVE ( 'NONE', #275, #650, #619, .T. ) ;
#590 = EDGE_LOOP ( 'NONE', ( #29, #406, #350, #471, #134, #378 ) ) ;
#591 = FACE_OUTER_BOUND ( 'NONE', #12, .T. ) ;
#592 = VECTOR ( 'NONE', #682, 39.37007874015748143 ) ;
#593 = CARTESIAN_POINT ( 'NONE',  ( 8.535586784229009183, 1.418166957959638541, -6.217544339012136767 ) ) ;
#594 = ORIENTED_EDGE ( 'NONE', *, *, #87, .F. ) ;
#595 = DIRECTION ( 'NONE',  ( -1.326654384986889350E-16, -0.03489949670250104552, -0.9993908270190957621 ) ) ;
#596 = ORIENTED_EDGE ( 'NONE', *, *, #20, .T. ) ;
#597 = ORIENTED_EDGE ( 'NONE', *, *, #82, .T. ) ;
#598 = CARTESIAN_POINT ( 'NONE',  ( 8.246322432200912544, 1.387401803126804500, -6.301244105711047538 ) ) ;
#599 = AXIS2_PLACEMENT_3D ( 'NONE', #757, #333, #337 ) ;
#600 = EDGE_CURVE ( 'NONE', #76, #744, #422, .T. ) ;
#601 = CARTESIAN_POINT ( 'NONE',  ( 8.322529908510082564, 1.393151768662383105, -6.295440922444521803 ) ) ;
#602 = AXIS2_PLACEMENT_3D ( 'NONE', #251, #690, #187 ) ;
#603 = ORIENTED_EDGE ( 'NONE', *, *, #20, .F. ) ;
#604 = CYLINDRICAL_SURFACE ( 'NONE', #197, 0.6800000000000003819 ) ;
#605 = CARTESIAN_POINT ( 'NONE',  ( 8.871371995697248991, 0.000000000000000000, -5.710286233324263883 ) ) ;
#606 = VERTEX_POINT ( 'NONE', #614 ) ;
#607 = CARTESIAN_POINT ( 'NONE',  ( -8.231786233324264401, 0.000000000000000000, -6.349871995697248472 ) ) ;
#608 = CARTESIAN_POINT ( 'NONE',  ( 8.246322432200917874, 1.134999999999999787, 5.669822432200914086 ) ) ;
#609 = EDGE_CURVE ( 'NONE', #553, #736, #157, .T. ) ;
#610 = CARTESIAN_POINT ( 'NONE',  ( -9.871371995697250767, 2.814999999999997282, 7.349871995697251137 ) ) ;
#611 = ORIENTED_EDGE ( 'NONE', *, *, #116, .F. ) ;
#612 = B_SPLINE_CURVE_WITH_KNOTS ( 'NONE', 3,
 ( #427, #555, #492, #741, #236, #735, #372, #668, #98, #497, #28, #45, #36, #246, #425, #665, #291, #542, #792, #433, #781, #95, #548, #150 ),
 .UNSPECIFIED., .F., .F.,
 ( 4, 2, 2, 2, 2, 2, 2, 2, 2, 2, 2, 4 ),
 ( 1.976424105496863942E-07, 0.002899248554797020493, 0.004348774010990206704, 0.005798299467183394215, 0.008697350379569725870, 0.01014687583576286828, 0.01159640129195601069, 0.01449545220434229550, 0.01594497766053543444, 0.01739450311672857685, 0.02029355402911478881, 0.02319260494150099383 ),
 .UNSPECIFIED. ) ;
#613 = AXIS2_PLACEMENT_3D ( 'NONE', #730, #362, #358 ) ;
#614 = CARTESIAN_POINT ( 'NONE',  ( -8.246322432200916097, 1.387401803126813160, -6.301244105711046650 ) ) ;
#615 = EDGE_LOOP ( 'NONE', ( #341, #390, #278, #61 ) ) ;
#616 = PRESENTATION_STYLE_ASSIGNMENT (( #805 ) ) ;
#617 = CARTESIAN_POINT ( 'NONE',  ( -8.800529242596971002, 1.480458177143005205, -5.860296824083882861 ) ) ;
#618 = DIRECTION ( 'NONE',  ( 0.000000000000000000, 0.000000000000000000, 1.000000000000000000 ) ) ;
#619 = LINE ( 'NONE', #482, #436 ) ;
#620 = EDGE_LOOP ( 'NONE', ( #511, #7, #596, #696 ) ) ;
#621 = CARTESIAN_POINT ( 'NONE',  ( -8.246322432200916097, 1.134999999999999787, 5.669822432200914974 ) ) ;
#622 = LENGTH_MEASURE_WITH_UNIT ( LENGTH_MEASURE( 0.02539999999999999897 ), #574 );
#623 = CARTESIAN_POINT ( 'NONE',  ( -8.284823457049498074, 1.389997814312706303, -6.300206387286500842 ) ) ;
#624 = EDGE_CURVE ( 'NONE', #650, #387, #170, .T. ) ;
#625 = CARTESIAN_POINT ( 'NONE',  ( -8.818928958723665446, 1.501772089700882606, -5.669822432200914086 ) ) ;
#626 = ORIENTED_EDGE ( 'NONE', *, *, #557, .T. ) ;
#627 = FACE_OUTER_BOUND ( 'NONE', #754, .T. ) ;
#628 = LINE ( 'NONE', #512, #758 ) ;
#629 = CARTESIAN_POINT ( 'NONE',  ( -8.535668758981284299, 1.418306522769491984, -6.216433708238007227 ) ) ;
#630 = CARTESIAN_POINT ( 'NONE',  ( 9.871371995697252544, 2.814999999999997282, -7.349871995697248472 ) ) ;
#631 = VECTOR ( 'NONE', #346, 39.37007874015748143 ) ;
#632 = CARTESIAN_POINT ( 'NONE',  ( -8.598615950943894859, 1.428239625625677522, -6.173574652285416242 ) ) ;
#633 =( NAMED_UNIT ( * ) PLANE_ANGLE_UNIT ( ) SI_UNIT ( $, .RADIAN. ) );
#634 = CARTESIAN_POINT ( 'NONE',  ( 0.000000000000000000, 0.000000000000000000, 0.000000000000000000 ) ) ;
#635 = ORIENTED_EDGE ( 'NONE', *, *, #91, .F. ) ;
#636 = DIRECTION ( 'NONE',  ( -1.606969408037802241E-15, 1.000000000000000000, 0.000000000000000000 ) ) ;
#637 = PLANE ( 'NONE',  #144 ) ;
#638 = VERTEX_POINT ( 'NONE', #673 ) ;
#639 = ORIENTED_EDGE ( 'NONE', *, *, #385, .T. ) ;
#640 = STYLED_ITEM ( 'NONE', ( #689 ), #435 ) ;
#641 = EDGE_CURVE ( 'NONE', #403, #487, #168, .T. ) ;
#642 = DIRECTION ( 'NONE',  ( 1.000000000000000000, 0.000000000000000000, 2.973491778102842279E-16 ) ) ;
#643 =( NAMED_UNIT ( * ) SI_UNIT ( $, .STERADIAN. ) SOLID_ANGLE_UNIT ( ) );
#644 = ORIENTED_EDGE ( 'NONE', *, *, #113, .T. ) ;
#645 = DIRECTION ( 'NONE',  ( -2.973491778102842279E-16, 0.000000000000000000, 1.000000000000000000 ) ) ;
#646 = EDGE_CURVE ( 'NONE', #691, #796, #165, .T. ) ;
#647 = EDGE_LOOP ( 'NONE', ( #679, #439, #200, #763 ) ) ;
#648 = DIRECTION ( 'NONE',  ( -0.000000000000000000, -1.000000000000000000, -0.000000000000000000 ) ) ;
#649 = CARTESIAN_POINT ( 'NONE',  ( 8.790367648078371232, 1.475300172171142510, -5.897985400989512073 ) ) ;
#650 = VERTEX_POINT ( 'NONE', #160 ) ;
#651 = VECTOR ( 'NONE', #66, 39.37007874015748854 ) ;
#652 = CARTESIAN_POINT ( 'NONE',  ( -8.231786233324262625, 0.000000000000000000, 6.349871995697251137 ) ) ;
#653 = ORIENTED_EDGE ( 'NONE', *, *, #245, .F. ) ;
#654 = LINE ( 'NONE', #140, #420 ) ;
#655 = VERTEX_POINT ( 'NONE', #352 ) ;
#656 = EDGE_CURVE ( 'NONE', #721, #262, #612, .T. ) ;
#657 = DIRECTION ( 'NONE',  ( 0.000000000000000000, 1.000000000000000000, 0.000000000000000000 ) ) ;
#658 = FACE_OUTER_BOUND ( 'NONE', #575, .T. ) ;
#659 = CARTESIAN_POINT ( 'NONE',  ( 8.246322432200912544, 1.134999999999999787, -5.669822432200914086 ) ) ;
#660 = ADVANCED_FACE ( 'NONE', ( #717 ), #472, .T. ) ;
#661 = CLOSED_SHELL ( 'NONE', ( #467, #783, #424, #201, #418, #164, #391, #432, #675, #802, #49, #759, #342, #286, #318, #660, #172, #517, #177, #55, #5, #767, #225 ) ) ;
#662 = DIRECTION ( 'NONE',  ( 0.03489949670250104552, 0.9993908270190957621, 0.000000000000000000 ) ) ;
#663 = VERTEX_POINT ( 'NONE', #290 ) ;
#664 = SPHERICAL_SURFACE ( 'NONE', #283, 0.6799999999999999378 ) ;
#665 = CARTESIAN_POINT ( 'NONE',  ( -8.734144703662074960, 1.457028440593703955, 6.017809064638863781 ) ) ;
#666 = CARTESIAN_POINT ( 'NONE',  ( 8.762265662770403196, 1.465032150905511532, 5.967733331236540373 ) ) ;
#667 = LINE ( 'NONE', #34, #256 ) ;
#668 = CARTESIAN_POINT ( 'NONE',  ( -8.502668579742959309, 1.413439129184572263, 6.236061089963682136 ) ) ;
#669 = VERTEX_POINT ( 'NONE', #541 ) ;
#670 = CARTESIAN_POINT ( 'NONE',  ( -8.246322432200916097, 1.134999999999999787, 6.600000000000001421 ) ) ;
#671 = CARTESIAN_POINT ( 'NONE',  ( -8.762265662770401420, 1.465032150905514641, -5.967733331236535932 ) ) ;
#672 = AXIS2_PLACEMENT_3D ( 'NONE', #250, #506, #753 ) ;
#673 = CARTESIAN_POINT ( 'NONE',  ( -8.818928958723665446, 1.501772089700880830, 5.669822432200915863 ) ) ;
#674 = CARTESIAN_POINT ( 'NONE',  ( 8.819011681587143769, 1.499403216830050845, 5.710286233324261218 ) ) ;
#675 = ADVANCED_FACE ( 'NONE', ( #658 ), #664, .F. ) ;
#676 = FACE_OUTER_BOUND ( 'NONE', #353, .T. ) ;
#677 = CARTESIAN_POINT ( 'NONE',  ( -8.871371995697250767, 0.000000000000000000, -5.710286233324261218 ) ) ;
#678 = DIRECTION ( 'NONE',  ( 0.000000000000000000, -0.000000000000000000, 1.000000000000000000 ) ) ;
#679 = ORIENTED_EDGE ( 'NONE', *, *, #724, .F. ) ;
#680 = UNCERTAINTY_MEASURE_WITH_UNIT (LENGTH_MEASURE( 1.000000000000000082E-05 ), #370, 'distance_accuracy_value', 'NONE');
#681 = DIRECTION ( 'NONE',  ( 0.000000000000000000, -0.000000000000000000, 1.000000000000000000 ) ) ;
#682 = DIRECTION ( 'NONE',  ( 1.486745889051421139E-16, 0.000000000000000000, -1.000000000000000000 ) ) ;
#683 = ORIENTED_EDGE ( 'NONE', *, *, #255, .F. ) ;
#684 = PLANE ( 'NONE',  #241 ) ;
#685 = CARTESIAN_POINT ( 'NONE',  ( -8.679235451868468232, 1.443860793281682042, -6.094043180823700112 ) ) ;
#686 = AXIS2_PLACEMENT_3D ( 'NONE', #395, #118, #382 ) ;
#687 = B_SPLINE_CURVE_WITH_KNOTS ( 'NONE', 3,
 ( #718, #464, #601, #340, #411, #277, #148, #532, #593, #529, #539, #268, #776, #400, #9, #524, #405, #208, #715, #649, #84, #576, #812, #799 ),
 .UNSPECIFIED., .F., .F.,
 ( 4, 2, 2, 2, 2, 2, 2, 2, 2, 2, 2, 4 ),
 ( 1.976424105172037395E-07, 0.002899248554796877812, 0.004348774010990025425, 0.005798299467183173905, 0.008697350379569392803, 0.01014687583576252480, 0.01159640129195565854, 0.01449545220434197805, 0.01594497766053513954, 0.01739450311672829583, 0.02029355402911468820, 0.02319260494150107710 ),
 .UNSPECIFIED. ) ;
#688 = DIRECTION ( 'NONE',  ( 0.000000000000000000, 0.000000000000000000, 1.000000000000000000 ) ) ;
#689 = PRESENTATION_STYLE_ASSIGNMENT (( #396 ) ) ;
#690 = DIRECTION ( 'NONE',  ( 0.000000000000000000, 1.000000000000000000, 0.000000000000000000 ) ) ;
#691 = VERTEX_POINT ( 'NONE', #365 ) ;
#692 = CARTESIAN_POINT ( 'NONE',  ( 8.231786233324260849, 0.000000000000000000, -5.710286233324263883 ) ) ;
#693 = EDGE_CURVE ( 'NONE', #72, #669, #90, .T. ) ;
#694 = CARTESIAN_POINT ( 'NONE',  ( 8.433708367996278099, 1.404620560970887944, 6.266513088742167170 ) ) ;
#695 = FACE_OUTER_BOUND ( 'NONE', #123, .T. ) ;
#696 = ORIENTED_EDGE ( 'NONE', *, *, #740, .F. ) ;
#697 = LINE ( 'NONE', #267, #79 ) ;
#698 = LENGTH_MEASURE_WITH_UNIT ( LENGTH_MEASURE( 0.02539999999999999897 ), #745 );
#699 = EDGE_LOOP ( 'NONE', ( #452, #288, #807, #540, #644, #33, #756, #560 ) ) ;
#700 = COLOUR_RGB ( '',0.7529411764705882248, 0.7529411764705882248, 0.7529411764705882248 ) ;
#701 = EDGE_CURVE ( 'NONE', #571, #275, #212, .T. ) ;
#702 = VECTOR ( 'NONE', #788, 39.37007874015748143 ) ;
#703 = DIRECTION ( 'NONE',  ( 1.000000000000000000, 0.000000000000000000, 1.106978035010746383E-16 ) ) ;
#704 = DIRECTION ( 'NONE',  ( 0.000000000000000000, 0.000000000000000000, -1.000000000000000000 ) ) ;
#705 = VERTEX_POINT ( 'NONE', #720 ) ;
#706 = CARTESIAN_POINT ( 'NONE',  ( 8.246322432200916097, 1.387401803126810718, 6.301244105711045762 ) ) ;
#707 = EDGE_CURVE ( 'NONE', #16, #761, #351, .T. ) ;
#708 = ORIENTED_EDGE ( 'NONE', *, *, #43, .F. ) ;
#709 = DIRECTION ( 'NONE',  ( -0.000000000000000000, -0.000000000000000000, -1.000000000000000000 ) ) ;
#710 = DIRECTION ( 'NONE',  ( -3.311330901411228816E-16, 0.000000000000000000, -1.000000000000000000 ) ) ;
#711 = ORIENTED_EDGE ( 'NONE', *, *, #570, .T. ) ;
#712 = DIRECTION ( 'NONE',  ( -1.000000000000000000, 0.000000000000000000, 0.000000000000000000 ) ) ;
#713 = VECTOR ( 'NONE', #484, 39.37007874015748854 ) ;
#714 = VECTOR ( 'NONE', #306, 39.37007874015748143 ) ;
#715 = CARTESIAN_POINT ( 'NONE',  ( 8.769212775722012410, 1.467577745393050748, -5.950428326700619941 ) ) ;
#716 = ORIENTED_EDGE ( 'NONE', *, *, #27, .F. ) ;
#717 = FACE_OUTER_BOUND ( 'NONE', #647, .T. ) ;
#718 = CARTESIAN_POINT ( 'NONE',  ( 8.246322432200912544, 1.387401803126804500, -6.301244105711047538 ) ) ;
#719 = EDGE_LOOP ( 'NONE', ( #146, #223, #731, #138 ) ) ;
#720 = CARTESIAN_POINT ( 'NONE',  ( -9.871371995697248991, 2.814999999999997282, -7.349871995697251137 ) ) ;
#721 = VERTEX_POINT ( 'NONE', #780 ) ;
#722 = CARTESIAN_POINT ( 'NONE',  ( 8.871371995697252544, 0.000000000000000000, 5.710286233324261218 ) ) ;
#723 = CARTESIAN_POINT ( 'NONE',  ( 9.871371995697252544, 0.000000000000000000, -7.349871995697248472 ) ) ;
#724 = EDGE_CURVE ( 'NONE', #229, #89, #667, .T. ) ;
#725 = CARTESIAN_POINT ( 'NONE',  ( 8.231786233324260849, 0.000000000000000000, -5.710286233324263883 ) ) ;
#726 = CARTESIAN_POINT ( 'NONE',  ( 8.800529242596974555, 1.480458177143002318, 5.860296824083883749 ) ) ;
#727 = CARTESIAN_POINT ( 'NONE',  ( 8.831023902186563745, 1.155418225254854603, 5.669822432200914086 ) ) ;
#728 = CARTESIAN_POINT ( 'NONE',  ( -8.246322432200917874, 1.134999999999999787, -5.669822432200914086 ) ) ;
#729 = EDGE_CURVE ( 'NONE', #76, #501, #733, .T. ) ;
#730 = CARTESIAN_POINT ( 'NONE',  ( -8.231786233324264401, 0.000000000000000000, -5.710286233324261218 ) ) ;
#731 = ORIENTED_EDGE ( 'NONE', *, *, #91, .T. ) ;
#732 = DIRECTION ( 'NONE',  ( 0.03489949670250085817, -0.9993908270190956511, -1.261222861789805378E-14 ) ) ;
#733 = LINE ( 'NONE', #605, #226 ) ;
#734 = DIRECTION ( 'NONE',  ( 0.000000000000000000, 1.000000000000000000, 0.000000000000000000 ) ) ;
#735 = CARTESIAN_POINT ( 'NONE',  ( -8.432470298345593918, 1.404600105323626558, 6.266003722512504481 ) ) ;
#736 = VERTEX_POINT ( 'NONE', #26 ) ;
#737 = LINE ( 'NONE', #677, #361 ) ;
#738 = CONICAL_SURFACE ( 'NONE', #130, 0.6395857623729880315, 0.03490658503988666728 ) ;
#739 = AXIS2_PLACEMENT_3D ( 'NONE', #545, #97, #299 ) ;
#740 = EDGE_CURVE ( 'NONE', #387, #211, #450, .T. ) ;
#741 = CARTESIAN_POINT ( 'NONE',  ( -8.377972865325499896, 1.398586144653518382, 6.282972177708250783 ) ) ;
#742 = DIRECTION ( 'NONE',  ( 0.000000000000000000, 0.000000000000000000, -1.000000000000000000 ) ) ;
#743 = CARTESIAN_POINT ( 'NONE',  ( -8.246322432200916097, 1.134999999999999787, 5.669822432200915863 ) ) ;
#744 = VERTEX_POINT ( 'NONE', #154 ) ;
#745 =( LENGTH_UNIT ( ) NAMED_UNIT ( * ) SI_UNIT ( $, .METRE. ) );
#746 = EDGE_CURVE ( 'NONE', #387, #373, #19, .T. ) ;
#747 = CONICAL_SURFACE ( 'NONE', #63, 0.6395857623729869212, 0.03490658503988666728 ) ;
#748 = CIRCLE ( 'NONE', #13, 0.6800000000000003819 ) ;
#749 = CARTESIAN_POINT ( 'NONE',  ( 8.231786233324264401, -1.905640828429829856E-17, -6.349871995697252025 ) ) ;
#750 = CIRCLE ( 'NONE', #243, 0.6395857623729880315 ) ;
#751 = ORIENTED_EDGE ( 'NONE', *, *, #412, .F. ) ;
#752 = LINE ( 'NONE', #329, #269 ) ;
#753 = DIRECTION ( 'NONE',  ( -1.000000000000000000, 0.000000000000000000, 0.000000000000000000 ) ) ;
#754 = EDGE_LOOP ( 'NONE', ( #518, #580, #476, #252 ) ) ;
#755 = CARTESIAN_POINT ( 'NONE',  ( -8.831023902186560193, 1.155418225254854603, 5.669822432200915863 ) ) ;
#756 = ORIENTED_EDGE ( 'NONE', *, *, #491, .T. ) ;
#757 = CARTESIAN_POINT ( 'NONE',  ( -8.246322432200916097, 1.134999999999999787, -5.669822432200915863 ) ) ;
#758 = VECTOR ( 'NONE', #47, 39.37007874015748143 ) ;
#759 = ADVANCED_FACE ( 'NONE', ( #480 ), #285, .F. ) ;
#760 = CARTESIAN_POINT ( 'NONE',  ( -8.818928958723665446, 1.501772089700880830, 6.600000000000001421 ) ) ;
#761 = VERTEX_POINT ( 'NONE', #723 ) ;
#762 = DIRECTION ( 'NONE',  ( -1.000000000000000000, 0.000000000000000000, -1.486745889051421139E-16 ) ) ;
#763 = ORIENTED_EDGE ( 'NONE', *, *, #446, .F. ) ;
#764 = CARTESIAN_POINT ( 'NONE',  ( -8.231786233324262625, 0.000000000000000000, 5.710286233324263883 ) ) ;
#765 = CARTESIAN_POINT ( 'NONE',  ( 8.246322432200912544, 1.134999999999999787, -5.669822432200915863 ) ) ;
#766 = ORIENTED_EDGE ( 'NONE', *, *, #693, .F. ) ;
#767 = ADVANCED_FACE ( 'NONE', ( #279 ), #94, .T. ) ;
#768 = CONICAL_SURFACE ( 'NONE', #379, 0.6395857623729880315, 0.03490658503988666728 ) ;
#769 = CARTESIAN_POINT ( 'NONE',  ( 8.819011681587143769, 1.499403216830050845, 5.710286233324261218 ) ) ;
#770 = CARTESIAN_POINT ( 'NONE',  ( -8.819011681587143769, 1.499403216830053509, -5.710286233324261218 ) ) ;
#771 = VECTOR ( 'NONE', #198, 39.37007874015748143 ) ;
#772 = EDGE_CURVE ( 'NONE', #229, #403, #213, .T. ) ;
#773 = ORIENTED_EDGE ( 'NONE', *, *, #772, .F. ) ;
#774 = FACE_OUTER_BOUND ( 'NONE', #556, .T. ) ;
#775 = DIRECTION ( 'NONE',  ( 2.483498176058421735E-16, -0.000000000000000000, 1.000000000000000000 ) ) ;
#776 = CARTESIAN_POINT ( 'NONE',  ( 8.640178378840998263, 1.435928506796239956, -6.135744162067822138 ) ) ;
#777 = EDGE_CURVE ( 'NONE', #373, #275, #230, .T. ) ;
#778 = CARTESIAN_POINT ( 'NONE',  ( 8.231786233324264401, 1.386911219103535098, -6.301439988709417683 ) ) ;
#779 = EDGE_LOOP ( 'NONE', ( #566, #204, #594, #141, #93, #58 ) ) ;
#780 = CARTESIAN_POINT ( 'NONE',  ( -8.246322432200916097, 1.387401803126812050, 6.301244105711046650 ) ) ;
#781 = CARTESIAN_POINT ( 'NONE',  ( -8.801126685108094705, 1.480335295439602517, 5.861719696808346036 ) ) ;
#782 = VERTEX_POINT ( 'NONE', #770 ) ;
#783 = ADVANCED_FACE ( 'NONE', ( #440, #627 ), #239, .T. ) ;
#784 = DIRECTION ( 'NONE',  ( 0.000000000000000000, -0.9993908270190957621, 0.03489949670250104552 ) ) ;
#785 = CARTESIAN_POINT ( 'NONE',  ( 9.871371995697252544, 28.42919130750150813, -7.349871995697248472 ) ) ;
#786 = VECTOR ( 'NONE', #139, 39.37007874015748143 ) ;
#787 = VECTOR ( 'NONE', #538, 39.37007874015748143 ) ;
#788 = DIRECTION ( 'NONE',  ( 1.000000000000000000, 0.000000000000000000, -1.327463039603764953E-16 ) ) ;
#789 = EDGE_LOOP ( 'NONE', ( #336, #766, #793, #653 ) ) ;
#790 = CARTESIAN_POINT ( 'NONE',  ( -8.236638031746894129, 1.386911219103543313, -6.301439988709415019 ) ) ;
#791 = DIRECTION ( 'NONE',  ( -4.632779197334360440E-18, -0.9993908270190957621, -0.03489949670250103858 ) ) ;
#792 = CARTESIAN_POINT ( 'NONE',  ( -8.769212775722015962, 1.467577745393056743, 5.950428326700617276 ) ) ;
#793 = ORIENTED_EDGE ( 'NONE', *, *, #190, .F. ) ;
#794 = CARTESIAN_POINT ( 'NONE',  ( -9.871371995697250767, 0.000000000000000000, 7.349871995697251137 ) ) ;
#795 = DIRECTION ( 'NONE',  ( 0.03489949670250104552, -0.9993908270190956511, 0.000000000000000000 ) ) ;
#796 = VERTEX_POINT ( 'NONE', #572 ) ;
#797 = DIRECTION ( 'NONE',  ( -1.106978035010746383E-16, 0.000000000000000000, 1.000000000000000000 ) ) ;
#798 = SPHERICAL_SURFACE ( 'NONE', #602, 0.6799999999999999378 ) ;
#799 = CARTESIAN_POINT ( 'NONE',  ( 8.819011681587141993, 1.499403216830047514, -5.710286233324263883 ) ) ;
#800 = DIRECTION ( 'NONE',  ( 3.311330901411228816E-16, -0.000000000000000000, 1.000000000000000000 ) ) ;
#801 = MECHANICAL_DESIGN_GEOMETRIC_PRESENTATION_REPRESENTATION (  '', ( #640 ), #155 ) ;
#802 = ADVANCED_FACE ( 'NONE', ( #448 ), #798, .F. ) ;
#803 = LINE ( 'NONE', #610, #460 ) ;
#804 = EDGE_LOOP ( 'NONE', ( #751, #104, #531, #80 ) ) ;
#805 = SURFACE_STYLE_USAGE ( .BOTH. , #568 ) ;
#806 = CARTESIAN_POINT ( 'NONE',  ( -8.783535726193182569, 1.472811124764247914, -5.914879376879078166 ) ) ;
#807 = ORIENTED_EDGE ( 'NONE', *, *, #641, .T. ) ;
#808 = CARTESIAN_POINT ( 'NONE',  ( -8.871371995697250767, 0.000000000000000000, -5.710286233324261218 ) ) ;
#809 =( CONVERSION_BASED_UNIT ( 'INCH', #303 ) LENGTH_UNIT ( ) NAMED_UNIT ( #389 ) );
#810 = DIRECTION ( 'NONE',  ( 1.000000000000000000, 0.000000000000000000, 0.000000000000000000 ) ) ;
#811 = ORIENTED_EDGE ( 'NONE', *, *, #707, .F. ) ;
#812 = CARTESIAN_POINT ( 'NONE',  ( 8.819168932997358823, 1.494900125618022768, -5.748613940761653218 ) ) ;
#813 = FACE_OUTER_BOUND ( 'NONE', #24, .T. ) ;
#814 = CONICAL_SURFACE ( 'NONE', #578, 0.6395857623729869212, 0.03490658503988666728 ) ;
#815 = CARTESIAN_POINT ( 'NONE',  ( 8.666694169735880138, 1.441210807140636430, 6.108327320023300366 ) ) ;
#816 = CARTESIAN_POINT ( 'NONE',  ( -9.176500000000000767, 2.814999999999999503, 6.600000000000001421 ) ) ;
#817 = ORIENTED_EDGE ( 'NONE', *, *, #600, .T. ) ;
ENDSEC;
END-ISO-10303-21;
